999
dxflib 3.17.0.0
  0
SECTION
  2
HEADER
  9
$ACADVER
  1
AC1015
  9
$HANDSEED
  5
FFFF
  9
$DIMADEC
 70
0
  9
$DIMASZ
 40
25
  9
$DIMAUNIT
 70
0
  9
$DIMAZIN
 70
2
  9
$DIMDEC
 70
4
  9
$DIMDLI
 40
50
  9
$DIMDSEP
 70
46
  9
$DIMEXE
 40
12.5
  9
$DIMEXO
 40
6.25
  9
$DIMGAP
 40
6.25
  9
$DIMLUNIT
 70
2
  9
$DIMSCALE
 40
1.0
  9
$DIMTSZ
 40
0.0
  9
$DIMTXT
 40
25
  9
$DIMZIN
 70
8
  9
$DWGCODEPAGE
  3
ANSI_1252
  9
$INSUNITS
 70
4
  9
$LTSCALE
 40
1.0
  9
$MAXACTVP
 70
64
  9
$MEASUREMENT
 70
1
  9
$MIRRTEXT
 70
0
  9
$PDMODE
 70
0
  9
$PDSIZE
 40
0.0
  0
ENDSEC
  0
SECTION
  2
TABLES
  0
TABLE
  2
VPORT
  5
8
100
AcDbSymbolTable
 70
1
  0
VPORT
  5
30
100
AcDbSymbolTableRecord
100
AcDbViewportTableRecord
  2
*Active
 70
0
 10
0.0
 20
0.0
 11
1.0
 21
1.0
 12
286.3055555555554861
 22
148.5
 13
0.0
 23
0.0
 14
10.0
 24
10.0
 15
10.0
 25
10.0
 16
0.0
 26
0.0
 36
1.0
 17
0.0
 27
0.0
 37
0.0
 40
297.0
 41
1.92798353909465
 42
50.0
 43
0.0
 44
0.0
 50
0.0
 51
0.0
 71
0
 72
100
 73
1
 74
3
 75
1
 76
1
 77
0
 78
0
281
0
 65
1
110
0.0
120
0.0
130
0.0
111
1.0
121
0.0
131
0.0
112
0.0
122
1.0
132
0.0
 79
0
146
0.0
  0
ENDTAB
  0
TABLE
  2
LTYPE
  5
5
100
AcDbSymbolTable
 70
41
  0
LTYPE
  5
16
100
AcDbSymbolTableRecord
100
AcDbLinetypeTableRecord
  2
Continuous
 70
0
  3
Solid line
 72
65
 73
0
 40
0.0
  0
LTYPE
  5
15
100
AcDbSymbolTableRecord
100
AcDbLinetypeTableRecord
  2
BYLAYER
 70
0
  3

 72
65
 73
0
 40
0.0
  0
LTYPE
  5
31
100
AcDbSymbolTableRecord
100
AcDbLinetypeTableRecord
  2
ACAD_ISO02W100
 70
0
  3
ISO dash __ __ __ __ __ __ __ __ __ __ __ __ __
 72
65
 73
2
 40
15.0
 49
12.0
 74
0
 49
-3.0
 74
0
  0
LTYPE
  5
32
100
AcDbSymbolTableRecord
100
AcDbLinetypeTableRecord
  2
HIDDEN
 70
0
  3
Hidden __ __ __ __ __ __ __ __ __ __ __ __ __ __
 72
65
 73
2
 40
9.5249999999999986
 49
6.3499999999999996
 74
0
 49
-3.1749999999999998
 74
0
  0
LTYPE
  5
33
100
AcDbSymbolTableRecord
100
AcDbLinetypeTableRecord
  2
DOT
 70
0
  3
Dot . . . . . . . . . . . . . . . . . . . . . . . .
 72
65
 73
2
 40
6.3499999999999996
 49
0.1
 74
0
 49
-6.25
 74
0
  0
LTYPE
  5
34
100
AcDbSymbolTableRecord
100
AcDbLinetypeTableRecord
  2
ACAD_ISO08W100
 70
0
  3
ISO long-dash short-dash ____ __ ____ __ ____ _
 72
65
 73
4
 40
36.0
 49
24.0
 74
0
 49
-3.0
 74
0
 49
6.0
 74
0
 49
-3.0
 74
0
  0
LTYPE
  5
35
100
AcDbSymbolTableRecord
100
AcDbLinetypeTableRecord
  2
CENTERX2
 70
0
  3
Center (2x) ________  __  ________  __  _____
 72
65
 73
4
 40
101.6000000000000085
 49
63.5
 74
0
 49
-12.6999999999999993
 74
0
 49
12.6999999999999993
 74
0
 49
-12.6999999999999993
 74
0
  0
LTYPE
  5
36
100
AcDbSymbolTableRecord
100
AcDbLinetypeTableRecord
  2
ACAD_ISO05W100
 70
0
  3
ISO long-dash double-dot ____ .. ____ .. ____ . 
 72
65
 73
6
 40
33.0000000000000071
 49
24.0
 74
0
 49
-2.9500000000000002
 74
0
 49
0.1
 74
0
 49
-2.9000000000000004
 74
0
 49
0.1
 74
0
 49
-2.9500000000000002
 74
0
  0
LTYPE
  5
37
100
AcDbSymbolTableRecord
100
AcDbLinetypeTableRecord
  2
CENTER
 70
0
  3
Center ____ _ ____ _ ____ _ ____ _ ____ _ ____
 72
65
 73
4
 40
50.8000000000000043
 49
31.75
 74
0
 49
-6.3499999999999996
 74
0
 49
6.3499999999999996
 74
0
 49
-6.3499999999999996
 74
0
  0
LTYPE
  5
38
100
AcDbSymbolTableRecord
100
AcDbLinetypeTableRecord
  2
DASHED
 70
0
  3
Dashed __ __ __ __ __ __ __ __ __ __ __ __ __ _
 72
65
 73
2
 40
19.0499999999999972
 49
12.6999999999999993
 74
0
 49
-6.3499999999999996
 74
0
  0
LTYPE
  5
39
100
AcDbSymbolTableRecord
100
AcDbLinetypeTableRecord
  2
CENTER2
 70
0
  3
Center (.5x) ___ _ ___ _ ___ _ ___ _ ___ _ ___
 72
65
 73
4
 40
28.5750000000000028
 49
19.0500000000000007
 74
0
 49
-3.1749999999999998
 74
0
 49
3.1749999999999998
 74
0
 49
-3.1749999999999998
 74
0
  0
LTYPE
  5
3A
100
AcDbSymbolTableRecord
100
AcDbLinetypeTableRecord
  2
ACAD_ISO07W100
 70
0
  3
ISO dot . . . . . . . . . . . . . . . . . . . . 
 72
65
 73
2
 40
3.0
 49
0.1
 74
0
 49
-2.8999999999999999
 74
0
  0
LTYPE
  5
3B
100
AcDbSymbolTableRecord
100
AcDbLinetypeTableRecord
  2
BORDER2
 70
0
  3
Border (.5x) __.__.__.__.__.__.__.__.__.__.__.
 72
65
 73
6
 40
22.2250000000000014
 49
6.3499999999999996
 74
0
 49
-3.1749999999999998
 74
0
 49
6.3499999999999996
 74
0
 49
-3.125
 74
0
 49
0.1
 74
0
 49
-3.125
 74
0
  0
LTYPE
  5
3C
100
AcDbSymbolTableRecord
100
AcDbLinetypeTableRecord
  2
DIVIDEX2
 70
0
  3
Divide (2x) ________  .  .  ________  .  .  _
 72
65
 73
6
 40
63.5
 49
25.3999999999999986
 74
0
 49
-12.6499999999999986
 74
0
 49
0.1
 74
0
 49
-12.5999999999999979
 74
0
 49
0.1
 74
0
 49
-12.6499999999999986
 74
0
  0
LTYPE
  5
3D
100
AcDbSymbolTableRecord
100
AcDbLinetypeTableRecord
  2
ACAD_ISO06W100
 70
0
  3
ISO long-dash triple-dot ____ ... ____ ... ____
 72
65
 73
8
 40
36.0000000000000071
 49
24.0
 74
0
 49
-2.9500000000000002
 74
0
 49
0.1
 74
0
 49
-2.9000000000000004
 74
0
 49
0.1
 74
0
 49
-2.9000000000000004
 74
0
 49
0.1
 74
0
 49
-2.9500000000000002
 74
0
  0
LTYPE
  5
3E
100
AcDbSymbolTableRecord
100
AcDbLinetypeTableRecord
  2
PHANTOMX2
 70
0
  3
Phantom (2x) ____________    ____    ____   _
 72
65
 73
6
 40
127.0000000000000142
 49
63.5
 74
0
 49
-12.6999999999999993
 74
0
 49
12.6999999999999993
 74
0
 49
-12.6999999999999993
 74
0
 49
12.6999999999999993
 74
0
 49
-12.6999999999999993
 74
0
  0
LTYPE
  5
3F
100
AcDbSymbolTableRecord
100
AcDbLinetypeTableRecord
  2
ACAD_ISO15W100
 70
0
  3
ISO double-dash triple-dot __ __ . . . __ __ . .
 72
65
 73
10
 40
39.0000000000000071
 49
12.0
 74
0
 49
-3.0
 74
0
 49
12.0
 74
0
 49
-2.9500000000000002
 74
0
 49
0.1
 74
0
 49
-2.9000000000000004
 74
0
 49
0.1
 74
0
 49
-2.9000000000000004
 74
0
 49
0.1
 74
0
 49
-2.9500000000000002
 74
0
  0
LTYPE
  5
40
100
AcDbSymbolTableRecord
100
AcDbLinetypeTableRecord
  2
DASHED2
 70
0
  3
Dashed (.5x) _ _ _ _ _ _ _ _ _ _ _ _ _ _ _ _ _ 
 72
65
 73
2
 40
9.5249999999999986
 49
6.3499999999999996
 74
0
 49
-3.1749999999999998
 74
0
  0
LTYPE
  5
41
100
AcDbSymbolTableRecord
100
AcDbLinetypeTableRecord
  2
DASHEDX2
 70
0
  3
Dashed (2x) ____  ____  ____  ____  ____  ___
 72
65
 73
2
 40
38.0999999999999943
 49
25.3999999999999986
 74
0
 49
-12.6999999999999993
 74
0
  0
LTYPE
  5
42
100
AcDbSymbolTableRecord
100
AcDbLinetypeTableRecord
  2
ACAD_ISO03W100
 70
0
  3
ISO dash space __    __    __    __    __    __
 72
65
 73
2
 40
30.0
 49
12.0
 74
0
 49
-18.0
 74
0
  0
LTYPE
  5
43
100
AcDbSymbolTableRecord
100
AcDbLinetypeTableRecord
  2
ACAD_ISO12W100
 70
0
  3
ISO dash double-dot __ . . __ . . __ . . __ . . 
 72
65
 73
6
 40
21.0
 49
12.0
 74
0
 49
-2.9500000000000002
 74
0
 49
0.1
 74
0
 49
-2.9000000000000004
 74
0
 49
0.1
 74
0
 49
-2.9500000000000002
 74
0
  0
LTYPE
  5
44
100
AcDbSymbolTableRecord
100
AcDbLinetypeTableRecord
  2
DOT2
 70
0
  3
Dot (.5x) ........................................
 72
65
 73
2
 40
3.1749999999999998
 49
0.1
 74
0
 49
-3.0749999999999997
 74
0
  0
LTYPE
  5
45
100
AcDbSymbolTableRecord
100
AcDbLinetypeTableRecord
  2
DASHDOTX2
 70
0
  3
Dash dot (2x) ____  .  ____  .  ____  .  ___
 72
65
 73
4
 40
50.7999999999999972
 49
25.3999999999999986
 74
0
 49
-12.6499999999999986
 74
0
 49
0.1
 74
0
 49
-12.6499999999999986
 74
0
  0
LTYPE
  5
46
100
AcDbSymbolTableRecord
100
AcDbLinetypeTableRecord
  2
ACAD_ISO10W100
 70
0
  3
ISO dash dot __ . __ . __ . __ . __ . __ . __ . 
 72
65
 73
4
 40
18.0
 49
12.0
 74
0
 49
-2.9500000000000002
 74
0
 49
0.1
 74
0
 49
-2.9500000000000002
 74
0
  0
LTYPE
  5
47
100
AcDbSymbolTableRecord
100
AcDbLinetypeTableRecord
  2
DASHDOT
 70
0
  3
Dash dot __ . __ . __ . __ . __ . __ . __ . __
 72
65
 73
4
 40
25.4000000000000021
 49
12.6999999999999993
 74
0
 49
-6.2999999999999998
 74
0
 49
0.1
 74
0
 49
-6.2999999999999998
 74
0
  0
LTYPE
  5
48
100
AcDbSymbolTableRecord
100
AcDbLinetypeTableRecord
  2
ACAD_ISO09W100
 70
0
  3
ISO long-dash double-short-dash ____ __ __ ____
 72
65
 73
6
 40
45.0
 49
24.0
 74
0
 49
-3.0
 74
0
 49
6.0
 74
0
 49
-3.0
 74
0
 49
6.0
 74
0
 49
-3.0
 74
0
  0
LTYPE
  5
49
100
AcDbSymbolTableRecord
100
AcDbLinetypeTableRecord
  2
DOTX2
 70
0
  3
Dot (2x) .  .  .  .  .  .  .  .  .  .  .  .  .  .
 72
65
 73
2
 40
12.6999999999999993
 49
0.1
 74
0
 49
-12.5999999999999996
 74
0
  0
LTYPE
  5
4A
100
AcDbSymbolTableRecord
100
AcDbLinetypeTableRecord
  2
PHANTOM
 70
0
  3
Phantom ______  __  __  ______  __  __  ______ 
 72
65
 73
6
 40
63.5000000000000071
 49
31.75
 74
0
 49
-6.3499999999999996
 74
0
 49
6.3499999999999996
 74
0
 49
-6.3499999999999996
 74
0
 49
6.3499999999999996
 74
0
 49
-6.3499999999999996
 74
0
  0
LTYPE
  5
4B
100
AcDbSymbolTableRecord
100
AcDbLinetypeTableRecord
  2
HIDDEN2
 70
0
  3
Hidden (.5x) _ _ _ _ _ _ _ _ _ _ _ _ _ _ _ _ _ 
 72
65
 73
2
 40
4.7624999999999993
 49
3.1749999999999998
 74
0
 49
-1.5874999999999999
 74
0
  0
LTYPE
  5
4C
100
AcDbSymbolTableRecord
100
AcDbLinetypeTableRecord
  2
PHANTOM2
 70
0
  3
Phantom (.5x) ___ _ _ ___ _ _ ___ _ _ ___ _ _
 72
65
 73
6
 40
31.7500000000000036
 49
15.875
 74
0
 49
-3.1749999999999998
 74
0
 49
3.1749999999999998
 74
0
 49
-3.1749999999999998
 74
0
 49
3.1749999999999998
 74
0
 49
-3.1749999999999998
 74
0
  0
LTYPE
  5
14
100
AcDbSymbolTableRecord
100
AcDbLinetypeTableRecord
  2
BYBLOCK
 70
0
  3

 72
65
 73
0
 40
0.0
  0
LTYPE
  5
4D
100
AcDbSymbolTableRecord
100
AcDbLinetypeTableRecord
  2
BORDER
 70
0
  3
Border __ __ . __ __ . __ __ . __ __ . __ __ .
 72
65
 73
6
 40
44.4499999999999957
 49
12.6999999999999993
 74
0
 49
-6.3499999999999996
 74
0
 49
12.6999999999999993
 74
0
 49
-6.2999999999999998
 74
0
 49
0.1
 74
0
 49
-6.2999999999999998
 74
0
  0
LTYPE
  5
4E
100
AcDbSymbolTableRecord
100
AcDbLinetypeTableRecord
  2
ACAD_ISO13W100
 70
0
  3
ISO double-dash double-dot __ __ . . __ __ . . _
 72
65
 73
8
 40
36.0000000000000071
 49
12.0
 74
0
 49
-3.0
 74
0
 49
12.0
 74
0
 49
-2.9500000000000002
 74
0
 49
0.1
 74
0
 49
-2.9000000000000004
 74
0
 49
0.1
 74
0
 49
-2.9500000000000002
 74
0
  0
LTYPE
  5
4F
100
AcDbSymbolTableRecord
100
AcDbLinetypeTableRecord
  2
HIDDENX2
 70
0
  3
Hidden (2x) ____ ____ ____ ____ ____ ____ ____ 
 72
65
 73
2
 40
19.0499999999999972
 49
12.6999999999999993
 74
0
 49
-6.3499999999999996
 74
0
  0
LTYPE
  5
50
100
AcDbSymbolTableRecord
100
AcDbLinetypeTableRecord
  2
ACAD_ISO04W100
 70
0
  3
ISO long-dash dot ____ . ____ . ____ . ____ . _
 72
65
 73
4
 40
30.0
 49
24.0
 74
0
 49
-2.9500000000000002
 74
0
 49
0.1
 74
0
 49
-2.9500000000000002
 74
0
  0
LTYPE
  5
51
100
AcDbSymbolTableRecord
100
AcDbLinetypeTableRecord
  2
ACAD_ISO14W100
 70
0
  3
ISO dash triple-dot __ . . . __ . . . __ . . . _
 72
65
 73
8
 40
24.0000000000000036
 49
12.0
 74
0
 49
-2.9500000000000002
 74
0
 49
0.1
 74
0
 49
-2.9000000000000004
 74
0
 49
0.1
 74
0
 49
-2.9000000000000004
 74
0
 49
0.1
 74
0
 49
-2.9500000000000002
 74
0
  0
LTYPE
  5
52
100
AcDbSymbolTableRecord
100
AcDbLinetypeTableRecord
  2
ACAD_ISO11W100
 70
0
  3
ISO double-dash dot __ __ . __ __ . __ __ . __ _
 72
65
 73
6
 40
33.0
 49
12.0
 74
0
 49
-3.0
 74
0
 49
12.0
 74
0
 49
-2.9500000000000002
 74
0
 49
0.1
 74
0
 49
-2.9500000000000002
 74
0
  0
LTYPE
  5
53
100
AcDbSymbolTableRecord
100
AcDbLinetypeTableRecord
  2
DIVIDE
 70
0
  3
Divide ____ . . ____ . . ____ . . ____ . . ____
 72
65
 73
6
 40
31.7500000000000036
 49
12.6999999999999993
 74
0
 49
-6.2999999999999998
 74
0
 49
0.1
 74
0
 49
-6.25
 74
0
 49
0.1
 74
0
 49
-6.2999999999999998
 74
0
  0
LTYPE
  5
54
100
AcDbSymbolTableRecord
100
AcDbLinetypeTableRecord
  2
DASHDOT2
 70
0
  3
Dash dot (.5x) _._._._._._._._._._._._._._._.
 72
65
 73
4
 40
12.6999999999999993
 49
6.3499999999999996
 74
0
 49
-3.125
 74
0
 49
0.1
 74
0
 49
-3.125
 74
0
  0
LTYPE
  5
55
100
AcDbSymbolTableRecord
100
AcDbLinetypeTableRecord
  2
BORDERX2
 70
0
  3
Border (2x) ____  ____  .  ____  ____  .  ___
 72
65
 73
6
 40
88.8999999999999773
 49
25.3999999999999986
 74
0
 49
-12.6999999999999993
 74
0
 49
25.3999999999999986
 74
0
 49
-12.6499999999999986
 74
0
 49
0.1
 74
0
 49
-12.6499999999999986
 74
0
  0
LTYPE
  5
56
100
AcDbSymbolTableRecord
100
AcDbLinetypeTableRecord
  2
DIVIDE2
 70
0
  3
Divide (.5x) __..__..__..__..__..__..__..__.._
 72
65
 73
6
 40
15.8749999999999982
 49
6.3499999999999996
 74
0
 49
-3.125
 74
0
 49
0.1
 74
0
 49
-3.0750000000000002
 74
0
 49
0.1
 74
0
 49
-3.125
 74
0
  0
ENDTAB
  0
TABLE
  2
LAYER
  5
2
100
AcDbSymbolTable
 70
10
  0
LAYER
  5
57
100
AcDbSymbolTableRecord
100
AcDbLayerTableRecord
  2
Hidden Lines
 70
4
 62
7
420
16777215
  6
DASHED
370
-3
390
F
  0
LAYER
  5
58
100
AcDbSymbolTableRecord
100
AcDbLayerTableRecord
  2
Sides
 70
4
 62
7
420
16777215
  6
Continuous
370
-3
390
F
  0
LAYER
  5
10
100
AcDbSymbolTableRecord
100
AcDbLayerTableRecord
  2
0
 70
5
 62
7
420
16777215
  6
Continuous
370
-3
390
F
  0
LAYER
  5
59
100
AcDbSymbolTableRecord
100
AcDbLayerTableRecord
  2
@Dimensions
 70
4
 62
4
420
65535
  6
Continuous
370
-3
390
F
  0
LAYER
  5
5A
100
AcDbSymbolTableRecord
100
AcDbLayerTableRecord
  2
@Construction Lines
 70
4
 62
14
420
8388608
  6
PHANTOM
370
-3
390
F
  0
LAYER
  5
5B
100
AcDbSymbolTableRecord
100
AcDbLayerTableRecord
  2
Notes
 70
5
 62
2
420
16776960
  6
Continuous
370
25
390
F
  0
LAYER
  5
5C
100
AcDbSymbolTableRecord
100
AcDbLayerTableRecord
  2
Cushion
 70
4
 62
2
420
16776960
  6
Continuous
370
25
390
F
  0
LAYER
  5
5D
100
AcDbSymbolTableRecord
100
AcDbLayerTableRecord
  2
Sisal Mats
 70
4
 62
3
420
65280
  6
Continuous
370
25
390
F
  0
LAYER
  5
5E
100
AcDbSymbolTableRecord
100
AcDbLayerTableRecord
  2
@Axes
 70
4
 62
7
420
16777215
  6
PHANTOM
370
-3
390
F
  0
LAYER
  5
5F
100
AcDbSymbolTableRecord
100
AcDbLayerTableRecord
  2
Base
 70
4
 62
7
420
16777215
  6
Continuous
370
-3
390
F
  0
ENDTAB
  0
TABLE
  2
STYLE
  5
3
100
AcDbSymbolTable
 70
6
  0
STYLE
  5
60
100
AcDbSymbolTableRecord
100
AcDbTextStyleTableRecord
  2
Standard
 70
0
 40
0.0
 41
1.0
 50
0.0
 71
0
 42
2.5
  3

  4

1001
ACAD
1000
txt
1071
0
  0
STYLE
  5
61
100
AcDbSymbolTableRecord
100
AcDbTextStyleTableRecord
  2
textstyle0
 70
0
 40
0.0
 41
1.0
 50
0.0
 71
0
 42
5.0
  3

  4

1001
ACAD
1000
Liberation Sans
1071
0
  0
STYLE
  5
62
100
AcDbSymbolTableRecord
100
AcDbTextStyleTableRecord
  2
textstyle1
 70
0
 40
0.0
 41
1.0
 50
0.0
 71
0
 42
5.0
  3

  4

1001
ACAD
1000
Liberation Sans
1071
0
  0
STYLE
  5
63
100
AcDbSymbolTableRecord
100
AcDbTextStyleTableRecord
  2
textstyle2
 70
0
 40
0.0
 41
1.0
 50
0.0
 71
0
 42
5.0
  3

  4

1001
ACAD
1000
Liberation Sans
1071
0
  0
STYLE
  5
64
100
AcDbSymbolTableRecord
100
AcDbTextStyleTableRecord
  2
textstyle3
 70
0
 40
0.0
 41
1.0
 50
0.0
 71
0
 42
36.0
  3

  4

1001
ACAD
1000
Courier 10 Pitch
1071
0
  0
STYLE
  5
65
100
AcDbSymbolTableRecord
100
AcDbTextStyleTableRecord
  2
textstyle4
 70
0
 40
0.0
 41
1.0
 50
0.0
 71
0
 42
36.0
  3

  4

1001
ACAD
1000
Liberation Sans
1071
0
  0
ENDTAB
  0
TABLE
  2
VIEW
  5
6
100
AcDbSymbolTable
 70
0
  0
ENDTAB
  0
TABLE
  2
UCS
  5
7
100
AcDbSymbolTable
 70
0
  0
ENDTAB
  0
TABLE
  2
APPID
  5
9
100
AcDbSymbolTable
 70
1
  0
APPID
  5
12
100
AcDbSymbolTableRecord
100
AcDbRegAppTableRecord
  2
ACAD
 70
0
  0
APPID
  5
66
100
AcDbSymbolTableRecord
100
AcDbRegAppTableRecord
  2
QCAD
 70
0
  0
ENDTAB
  0
TABLE
  2
DIMSTYLE
  5
A
100
AcDbSymbolTable
 70
1
100
AcDbDimStyleTable
 71
0
  0
DIMSTYLE
105
27
100
AcDbSymbolTableRecord
100
AcDbDimStyleTableRecord
  2
Standard
 41
25.0
 42
6.25
 43
3.75
 44
12.5
 70
0
 73
0
 74
0
 77
1
 78
8
140
25.0
141
2.5
143
0.03937007874016
147
6.25
171
3
172
1
271
2
272
2
274
3
278
44
283
0
284
8
340
60
  0
ENDTAB
  0
TABLE
  2
BLOCK_RECORD
  5
1
100
AcDbSymbolTable
 70
1
  0
BLOCK_RECORD
  5
1F
100
AcDbSymbolTableRecord
100
AcDbBlockTableRecord
  2
*Model_Space
340
22
  0
BLOCK_RECORD
  5
1B
100
AcDbSymbolTableRecord
100
AcDbBlockTableRecord
  2
*Paper_Space
340
1E
  0
BLOCK_RECORD
  5
23
100
AcDbSymbolTableRecord
100
AcDbBlockTableRecord
  2
*Paper_Space0
340
26
  0
ENDTAB
  0
ENDSEC
  0
SECTION
  2
BLOCKS
  0
BLOCK
  5
20
100
AcDbEntity
  8
0
100
AcDbBlockBegin
  2
*Model_Space
 70
0
 10
0.0
 20
0.0
 30
0.0
  3
*Model_Space
  1

  0
ENDBLK
  5
21
100
AcDbEntity
  8
0
100
AcDbBlockEnd
  0
BLOCK
  5
1C
100
AcDbEntity
 67
1
  8
0
100
AcDbBlockBegin
  2
*Paper_Space
 70
0
 10
0.0
 20
0.0
 30
0.0
  3
*Paper_Space
  1

  0
ENDBLK
  5
1D
100
AcDbEntity
 67
1
  8
0
100
AcDbBlockEnd
  0
BLOCK
  5
24
100
AcDbEntity
  8
0
100
AcDbBlockBegin
  2
*Paper_Space0
 70
0
 10
0.0
 20
0.0
 30
0.0
  3
*Paper_Space0
  1

  0
ENDBLK
  5
25
100
AcDbEntity
  8
0
100
AcDbBlockEnd
  0
ENDSEC
  0
SECTION
  2
ENTITIES
  0
LINE
  5
67
100
AcDbEntity
  8
@Construction Lines
 62
256
370
-1
 48
1.0
  6
BYLAYER
100
AcDbLine
 10
-200.0
 20
90.0
 30
0.0
 11
-200.0
 21
90.0
 31
0.0
  0
XLINE
  5
68
100
AcDbEntity
  8
@Construction Lines
 62
256
370
-1
 48
1.0
  6
BYLAYER
100
AcDbLine
 10
-200.0
 20
90.0
 30
0.0
 11
0.0
 21
1.0
 31
0.0
  0
XLINE
  5
69
100
AcDbEntity
  8
@Construction Lines
 62
256
370
-1
 48
1.0
  6
BYLAYER
100
AcDbLine
 10
200.0
 20
90.0
 30
0.0
 11
0.0
 21
1.0
 31
0.0
  0
XLINE
  5
6A
100
AcDbEntity
  8
@Construction Lines
 62
256
370
-1
 48
1.0
  6
BYLAYER
100
AcDbLine
 10
-199.9999999999999716
 20
-199.9999999999999432
 30
0.0
 11
1.0
 21
0.0
 31
0.0
  0
XLINE
  5
6B
100
AcDbEntity
  8
@Construction Lines
 62
256
370
-1
 48
1.0
  6
BYLAYER
100
AcDbLine
 10
600.0
 20
108.0
 30
0.0
 11
0.0
 21
1.0
 31
0.0
  0
XLINE
  5
6C
100
AcDbEntity
  8
@Construction Lines
 62
256
370
-1
 48
1.0
  6
BYLAYER
100
AcDbLine
 10
200.0
 20
170.0
 30
0.0
 11
1.0
 21
0.0
 31
0.0
  0
XLINE
  5
6D
100
AcDbEntity
  8
@Construction Lines
 62
256
370
-1
 48
1.0
  6
BYLAYER
100
AcDbLine
 10
200.0
 20
188.0
 30
0.0
 11
1.0
 21
0.0
 31
0.0
  0
XLINE
  5
6E
100
AcDbEntity
  8
@Construction Lines
 62
256
370
-1
 48
1.0
  6
BYLAYER
100
AcDbLine
 10
-600.0
 20
156.0
 30
0.0
 11
0.0
 21
1.0
 31
0.0
  0
XLINE
  5
6F
100
AcDbEntity
  8
@Construction Lines
 62
256
370
-1
 48
1.0
  6
BYLAYER
100
AcDbLine
 10
-600.0
 20
-599.9999999999998863
 30
0.0
 11
1.0
 21
0.0
 31
0.0
  0
XLINE
  5
70
100
AcDbEntity
  8
@Construction Lines
 62
256
370
-1
 48
1.0
  6
BYLAYER
100
AcDbLine
 10
626.6240545237789092
 20
126.1071849975849517
 30
0.0
 11
1.0
 21
0.0
 31
0.0
  0
XLINE
  5
71
100
AcDbEntity
  8
@Construction Lines
 62
256
370
-1
 48
1.0
  6
BYLAYER
100
AcDbLine
 10
643.1931418859223868
 20
133.1403453103915808
 30
0.0
 11
1.0
 21
0.0
 31
0.0
  0
XLINE
  5
72
100
AcDbEntity
  8
@Construction Lines
 62
256
370
-1
 48
1.0
  6
BYLAYER
100
AcDbLine
 10
400.0000000000002842
 20
660.0000000000002274
 30
0.0
 11
1.0
 21
0.0
 31
0.0
  0
XLINE
  5
73
100
AcDbEntity
  8
@Construction Lines
 62
256
370
-1
 48
1.0
  6
BYLAYER
100
AcDbLine
 10
416.5690873621438755
 20
667.0331603128071265
 30
0.0
 11
1.0
 21
0.0
 31
0.0
  0
XLINE
  5
74
100
AcDbEntity
  8
@Construction Lines
 62
256
370
-1
 48
1.0
  6
BYLAYER
100
AcDbLine
 10
382.4170992179828659
 20
701.422718405360115
 30
0.0
 11
1.0
 21
0.0
 31
0.0
  0
XLINE
  5
75
100
AcDbEntity
  8
@Construction Lines
 62
256
370
-1
 48
1.0
  6
BYLAYER
100
AcDbLine
 10
398.9861865801265708
 20
708.4558787181670141
 30
0.0
 11
1.0
 21
0.0
 31
0.0
  0
XLINE
  5
76
100
AcDbEntity
  8
@Construction Lines
 62
256
370
-1
 48
1.0
  6
BYLAYER
100
AcDbLine
 10
485.9608482676403014
 20
862.5110677595371271
 30
0.0
 11
1.0
 21
0.0
 31
0.0
  0
XLINE
  5
77
100
AcDbEntity
  8
@Construction Lines
 62
256
370
-1
 48
1.0
  6
BYLAYER
100
AcDbLine
 10
469.3917609054964259
 20
869.5442280723441399
 30
0.0
 11
1.0
 21
0.0
 31
0.0
  0
XLINE
  5
78
100
AcDbEntity
  8
@Construction Lines
 62
256
370
-1
 48
1.0
  6
BYLAYER
100
AcDbLine
 10
314.0391517323600397
 20
862.5110677595371271
 30
0.0
 11
0.0
 21
1.0
 31
0.0
  0
XLINE
  5
79
100
AcDbEntity
  8
@Construction Lines
 62
256
370
-1
 48
1.0
  6
BYLAYER
100
AcDbLine
 10
330.6082390945038583
 20
869.5442280723441399
 30
0.0
 11
0.0
 21
1.0
 31
0.0
  0
XLINE
  5
7A
100
AcDbEntity
  8
@Construction Lines
 62
256
370
-1
 48
1.0
  6
BYLAYER
100
AcDbLine
 10
469.3917609054963691
 20
869.5442280723441399
 30
0.0
 11
0.0
 21
1.0
 31
0.0
  0
XLINE
  5
7B
100
AcDbEntity
  8
@Construction Lines
 62
256
370
-1
 48
1.0
  6
BYLAYER
100
AcDbLine
 10
485.9608482676403014
 20
862.5110677595370134
 30
0.0
 11
0.0
 21
1.0
 31
0.0
  0
XLINE
  5
7C
100
AcDbEntity
  8
@Construction Lines
 62
256
370
-1
 48
1.0
  6
BYLAYER
100
AcDbLine
 10
399.9999999999997158
 20
660.0000000000002274
 30
0.0
 11
0.0
 21
1.0
 31
0.0
  0
XLINE
  5
7D
100
AcDbEntity
  8
@Construction Lines
 62
256
370
-1
 48
1.0
  6
BYLAYER
100
AcDbLine
 10
416.5690873621438755
 20
667.0331603128071265
 30
0.0
 11
0.0
 21
1.0
 31
0.0
  0
XLINE
  5
7E
100
AcDbEntity
  8
@Construction Lines
 62
256
370
-1
 48
1.0
  6
BYLAYER
100
AcDbLine
 10
383.4309126378561245
 20
667.0331603128071265
 30
0.0
 11
0.0
 21
1.0
 31
0.0
  0
XLINE
  5
7F
100
AcDbEntity
  8
@Construction Lines
 62
256
370
-1
 48
1.0
  6
BYLAYER
100
AcDbLine
 10
382.4170992179828659
 20
701.4227184053602286
 30
0.0
 11
0.0
 21
1.0
 31
0.0
  0
XLINE
  5
80
100
AcDbEntity
  8
@Construction Lines
 62
256
370
-1
 48
1.0
  6
BYLAYER
100
AcDbLine
 10
398.9861865801265708
 20
708.4558787181670141
 30
0.0
 11
0.0
 21
1.0
 31
0.0
  0
XLINE
  5
81
100
AcDbEntity
  8
@Construction Lines
 62
256
370
-1
 48
1.0
  6
BYLAYER
100
AcDbLine
 10
401.0138134198735997
 20
708.4558787181670141
 30
0.0
 11
0.0
 21
1.0
 31
0.0
  0
XLINE
  5
82
100
AcDbEntity
  8
@Construction Lines
 62
256
370
-1
 48
1.0
  6
BYLAYER
100
AcDbLine
 10
417.5829007820171341
 20
701.4227184053602286
 30
0.0
 11
0.0
 21
1.0
 31
0.0
  0
XLINE
  5
83
100
AcDbEntity
  8
@Construction Lines
 62
256
370
-1
 48
1.0
  6
BYLAYER
100
AcDbLine
 10
156.8068581140777269
 20
133.1403453103916661
 30
0.0
 11
0.0
 21
1.0
 31
0.0
  0
XLINE
  5
84
100
AcDbEntity
  8
@Construction Lines
 62
256
370
-1
 48
1.0
  6
BYLAYER
100
AcDbLine
 10
173.3759454762212044
 20
126.1071849975849659
 30
0.0
 11
0.0
 21
1.0
 31
0.0
  0
XLINE
  5
85
100
AcDbEntity
  8
@Construction Lines
 62
256
370
-1
 48
1.0
  6
BYLAYER
100
AcDbLine
 10
626.6240545237787956
 20
126.1071849975849517
 30
0.0
 11
0.0
 21
1.0
 31
0.0
  0
XLINE
  5
86
100
AcDbEntity
  8
@Construction Lines
 62
256
370
-1
 48
1.0
  6
BYLAYER
100
AcDbLine
 10
643.1931418859223868
 20
133.1403453103915808
 30
0.0
 11
0.0
 21
1.0
 31
0.0
  0
XLINE
  5
87
100
AcDbEntity
  8
@Construction Lines
 62
256
370
-1
 48
1.0
  6
BYLAYER
100
AcDbLine
 10
390.2227566033525363
 20
683.0337419872273585
 30
0.0
 11
1.0
 21
0.0
 31
0.0
  0
XLINE
  5
88
100
AcDbEntity
  8
@Construction Lines
 62
256
370
-1
 48
1.0
  6
BYLAYER
100
AcDbLine
 10
-410.0
 20
800.0
 30
0.0
 11
0.0
 21
1.0
 31
0.0
  0
XLINE
  5
89
100
AcDbEntity
  8
@Construction Lines
 62
256
370
-1
 48
1.0
  6
BYLAYER
100
AcDbLine
 10
-390.0
 20
800.0
 30
0.0
 11
0.0
 21
1.0
 31
0.0
  0
XLINE
  5
8A
100
AcDbEntity
  8
@Construction Lines
 62
256
370
-1
 48
1.0
  6
BYLAYER
100
AcDbLine
 10
-390.0
 20
-389.9999999999998863
 30
0.0
 11
1.0
 21
0.0
 31
0.0
  0
XLINE
  5
8B
100
AcDbEntity
  8
@Construction Lines
 62
256
370
-1
 48
1.0
  6
BYLAYER
100
AcDbLine
 10
-410.0000000000000568
 20
-409.9999999999998863
 30
0.0
 11
1.0
 21
0.0
 31
0.0
  0
XLINE
  5
8C
100
AcDbEntity
  8
@Construction Lines
 62
256
370
-1
 48
1.0
  6
BYLAYER
100
AcDbLine
 10
220.0
 20
210.0
 30
0.0
 11
0.0
 21
1.0
 31
0.0
  0
XLINE
  5
8D
100
AcDbEntity
  8
@Construction Lines
 62
256
370
-1
 48
1.0
  6
BYLAYER
100
AcDbLine
 10
580.0
 20
210.0
 30
0.0
 11
0.0
 21
1.0
 31
0.0
  0
XLINE
  5
8E
100
AcDbEntity
  8
@Construction Lines
 62
256
370
-1
 48
1.0
  6
BYLAYER
100
AcDbLine
 10
360.0
 20
230.0
 30
0.0
 11
1.0
 21
0.0
 31
0.0
  0
XLINE
  5
8F
100
AcDbEntity
  8
@Construction Lines
 62
256
370
-1
 48
1.0
  6
BYLAYER
100
AcDbLine
 10
350.0
 20
190.0
 30
0.0
 11
1.0
 21
0.0
 31
0.0
  0
XLINE
  5
90
100
AcDbEntity
  8
@Construction Lines
 62
256
370
-1
 48
1.0
  6
BYLAYER
100
AcDbLine
 10
314.0391517323600397
 20
-220.0
 30
0.0
 11
1.0
 21
0.0
 31
0.0
  0
XLINE
  5
91
100
AcDbEntity
  8
@Construction Lines
 62
256
370
-1
 48
1.0
  6
BYLAYER
100
AcDbLine
 10
314.0391517323600397
 20
-580.0
 30
0.0
 11
1.0
 21
0.0
 31
0.0
  0
XLINE
  5
92
100
AcDbEntity
  8
@Construction Lines
 62
256
370
-1
 48
1.0
  6
BYLAYER
100
AcDbLine
 10
-220.0000000000000568
 20
-220.0000000000000284
 30
0.0
 11
0.0
 21
1.0
 31
0.0
  0
XLINE
  5
93
100
AcDbEntity
  8
@Construction Lines
 62
256
370
-1
 48
1.0
  6
BYLAYER
100
AcDbLine
 10
-580.0000000000002274
 20
-580.0
 30
0.0
 11
0.0
 21
1.0
 31
0.0
  0
XLINE
  5
94
100
AcDbEntity
  8
@Construction Lines
 62
256
370
-1
 48
1.0
  6
BYLAYER
100
AcDbLine
 10
171.7373010536664424
 20
193.9073112848928417
 30
0.0
 11
0.0
 21
1.0
 31
0.0
  0
XLINE
  5
95
100
AcDbEntity
  8
@Construction Lines
 62
256
370
-1
 48
1.0
  6
BYLAYER
100
AcDbLine
 10
180.9423495881907797
 20
190.0
 30
0.0
 11
0.0
 21
1.0
 31
0.0
  0
XLINE
  5
96
100
AcDbEntity
  8
@Construction Lines
 62
256
370
-1
 48
1.0
  6
BYLAYER
100
AcDbLine
 10
367.1028652983029019
 20
654.1597380111129496
 30
0.0
 11
0.0
 21
1.0
 31
0.0
  0
XLINE
  5
97
100
AcDbEntity
  8
@Construction Lines
 62
256
370
-1
 48
1.0
  6
BYLAYER
100
AcDbLine
 10
376.3079138328275235
 20
650.2524267262202784
 30
0.0
 11
0.0
 21
1.0
 31
0.0
  0
XLINE
  5
98
100
AcDbEntity
  8
@Construction Lines
 62
256
370
-1
 48
1.0
  6
BYLAYER
100
AcDbLine
 10
423.6920861671727039
 20
650.2524267262202784
 30
0.0
 11
0.0
 21
1.0
 31
0.0
  0
XLINE
  5
99
100
AcDbEntity
  8
@Construction Lines
 62
256
370
-1
 48
1.0
  6
BYLAYER
100
AcDbLine
 10
432.8971347016972118
 20
654.1597380111129496
 30
0.0
 11
0.0
 21
1.0
 31
0.0
  0
XLINE
  5
9A
100
AcDbEntity
  8
@Construction Lines
 62
256
370
-1
 48
1.0
  6
BYLAYER
100
AcDbLine
 10
619.0576504118091634
 20
190.0
 30
0.0
 11
0.0
 21
1.0
 31
0.0
  0
XLINE
  5
9B
100
AcDbEntity
  8
@Construction Lines
 62
256
370
-1
 48
1.0
  6
BYLAYER
100
AcDbLine
 10
628.262698946333785
 20
193.9073112848928702
 30
0.0
 11
0.0
 21
1.0
 31
0.0
  0
XLINE
  5
9C
100
AcDbEntity
  8
@Construction Lines
 62
256
370
-1
 48
1.0
  6
BYLAYER
100
AcDbLine
 10
367.1028652983029019
 20
654.1597380111129496
 30
0.0
 11
1.0
 21
0.0
 31
0.0
  0
XLINE
  5
9D
100
AcDbEntity
  8
@Construction Lines
 62
256
370
-1
 48
1.0
  6
BYLAYER
100
AcDbLine
 10
376.3079138328275235
 20
650.25242672621971
 30
0.0
 11
1.0
 21
0.0
 31
0.0
  0
XLINE
  5
9E
100
AcDbEntity
  8
@Construction Lines
 62
256
370
-1
 48
1.0
  6
BYLAYER
100
AcDbLine
 10
171.7373010536664424
 20
193.9073112848927849
 30
0.0
 11
1.0
 21
0.0
 31
0.0
  0
HATCH
  5
9F
100
AcDbEntity
  8
Notes
 62
256
370
-1
 48
1.0
  6
BYLAYER
100
AcDbHatch
 10
0.0
 20
0.0
 30
0.0
210
0.0
220
0.0
230
1.0
  2
SOLID
 70
1
 71
0
 91
1
 92
1
 93
4
 72
1
 10
200.0
 20
1800.0
 11
2800.0
 21
1800.0
 72
1
 10
2800.0
 20
1800.0
 11
2800.0
 21
200.0
 72
1
 10
2800.0
 20
200.0
 11
200.0
 21
200.0
 72
1
 10
200.0
 20
200.0
 11
200.0
 21
1800.0
 97
0
 75
0
 76
1
 98
0
1001
ACAD
1010
0.0
1020
0.0
1030
0
  0
LINE
  5
A0
100
AcDbEntity
  8
Notes
 62
256
370
-1
 48
1.0
  6
BYLAYER
100
AcDbLine
 10
200.0
 20
1800.0
 30
0.0
 11
2800.0
 21
1800.0
 31
0.0
  0
LINE
  5
A1
100
AcDbEntity
  8
Notes
 62
256
370
-1
 48
1.0
  6
BYLAYER
100
AcDbLine
 10
1800.0
 20
1800.0
 30
0.0
 11
2800.0
 21
200.0
 31
0.0
  0
LINE
  5
A2
100
AcDbEntity
  8
Notes
 62
256
370
-1
 48
1.0
  6
BYLAYER
100
AcDbLine
 10
1800.0
 20
200.0
 30
0.0
 11
200.0
 21
200.0
 31
0.0
  0
LINE
  5
A3
100
AcDbEntity
  8
Notes
 62
256
370
-1
 48
1.0
  6
BYLAYER
100
AcDbLine
 10
200.0
 20
200.0
 30
0.0
 11
200.0
 21
1800.0
 31
0.0
  0
MTEXT
  5
A4
100
AcDbEntity
  8
Notes
 62
256
370
-1
 48
1.0
  6
BYLAYER
100
AcDbMText
 10
240.0
 20
1760.0
 30
0.0
 40
36.0
 41
0.0
 71
1
 72
1
  1
\C5;\H49.9999;Notes\P\P*\P\P1. https://www.craftifair.de/diy-katzentipi-schlafplatz-und-kratzmobel-in-einem/\P
  7
textstyle4
 50
0.0
 73
2
 44
0.75
  0
RAY
  5
A5
100
AcDbEntity
  8
@Axes
 62
256
370
-1
 48
1.0
  6
BYLAYER
100
AcDbLine
 10
-0.0000000000000002
 20
0.0
 30
0.0
 11
-2.7793407666000629
 21
-2.779340766600062
 31
0.0
  0
XLINE
  5
A6
100
AcDbEntity
  8
@Axes
 62
256
370
-1
 48
1.0
  6
BYLAYER
100
AcDbLine
 10
-0.0000000000000002
 20
0.0
 30
0.0
 11
0.0000000000000001
 21
1.0
 31
0.0
  0
XLINE
  5
A7
100
AcDbEntity
  8
@Axes
 62
256
370
-1
 48
1.0
  6
BYLAYER
100
AcDbLine
 10
-0.0000000000000002
 20
0.0
 30
0.0
 11
1.0
 21
0.0
 31
0.0
  0
MTEXT
  5
A8
100
AcDbEntity
  8
@Axes
 62
256
370
-1
 48
1.0
  6
BYLAYER
100
AcDbMText
 10
-15.0
 20
15.0
 30
0.0
 40
5.0
 41
0.0
 71
9
 72
1
  1
\fOCR A Std|b0|i0|c0|p0;\H30;Side
  7
textstyle1
 50
0.0
 73
2
 44
1.0
  0
MTEXT
  5
A9
100
AcDbEntity
  8
@Axes
 62
256
370
-1
 48
1.0
  6
BYLAYER
100
AcDbMText
 10
15.0
 20
15.0
 30
0.0
 40
5.0
 41
0.0
 71
7
 72
1
  1
\fOCR A Std|b0|i0|c0|p0;\H30;Front
  7
textstyle2
 50
0.0
 73
2
 44
1.0
  0
MTEXT
  5
AA
100
AcDbEntity
  8
@Axes
 62
256
370
-1
 48
1.0
  6
BYLAYER
100
AcDbMText
 10
15.0
 20
-15.0
 30
0.0
 40
5.0
 41
0.0
 71
1
 72
1
  1
\fOCR A Std|b0|i0|c0|p0;\H30;Top
  7
textstyle0
 50
0.0
 73
2
 44
1.0
  0
LINE
  5
AB
100
AcDbEntity
  8
@Axes
 62
256
370
-1
 48
1.0
  6
BYLAYER
100
AcDbLine
 10
-160.0
 20
0.0
 30
0.0
 11
-160.0
 21
60.0
 31
0.0
  0
LINE
  5
AC
100
AcDbEntity
  8
@Axes
 62
256
370
-1
 48
1.0
  6
BYLAYER
100
AcDbLine
 10
-160.0
 20
60.0
 30
0.0
 11
160.0
 21
60.0
 31
0.0
  0
LINE
  5
AD
100
AcDbEntity
  8
@Axes
 62
256
370
-1
 48
1.0
  6
BYLAYER
100
AcDbLine
 10
160.0
 20
60.0
 30
0.0
 11
160.0
 21
-60.0
 31
0.0
  0
LINE
  5
AE
100
AcDbEntity
  8
@Axes
 62
256
370
-1
 48
1.0
  6
BYLAYER
100
AcDbLine
 10
160.0
 20
-60.0
 30
0.0
 11
0.0
 21
-59.9999999999999858
 31
0.0
  0
LINE
  5
AF
100
AcDbEntity
  8
Base
 62
256
370
-1
 48
1.0
  6
BYLAYER
100
AcDbLine
 10
200.0
 20
188.0
 30
0.0
 11
600.0
 21
188.0
 31
0.0
  0
LINE
  5
B0
100
AcDbEntity
  8
Base
 62
256
370
-1
 48
1.0
  6
BYLAYER
100
AcDbLine
 10
600.0
 20
188.0
 30
0.0
 11
600.0
 21
170.0
 31
0.0
  0
LINE
  5
B1
100
AcDbEntity
  8
Base
 62
256
370
-1
 48
1.0
  6
BYLAYER
100
AcDbLine
 10
600.0
 20
170.0
 30
0.0
 11
200.0
 21
170.0
 31
0.0
  0
LINE
  5
B2
100
AcDbEntity
  8
Base
 62
256
370
-1
 48
1.0
  6
BYLAYER
100
AcDbLine
 10
200.0
 20
170.0
 30
0.0
 11
200.0
 21
188.0
 31
0.0
  0
LINE
  5
B3
100
AcDbEntity
  8
Hidden Lines
 62
256
370
-1
 48
1.0
  6
BYLAYER
100
AcDbLine
 10
200.0
 20
-199.9999999999999432
 30
0.0
 11
600.0
 21
-199.9999999999999432
 31
0.0
  0
LINE
  5
B4
100
AcDbEntity
  8
Hidden Lines
 62
256
370
-1
 48
1.0
  6
BYLAYER
100
AcDbLine
 10
600.0
 20
-199.9999999999999432
 30
0.0
 11
600.0
 21
-599.9999999999998863
 31
0.0
  0
LINE
  5
B5
100
AcDbEntity
  8
Hidden Lines
 62
256
370
-1
 48
1.0
  6
BYLAYER
100
AcDbLine
 10
600.0
 20
-599.9999999999998863
 30
0.0
 11
200.0
 21
-599.9999999999998863
 31
0.0
  0
LINE
  5
B6
100
AcDbEntity
  8
Hidden Lines
 62
256
370
-1
 48
1.0
  6
BYLAYER
100
AcDbLine
 10
200.0
 20
-599.9999999999998863
 30
0.0
 11
200.0
 21
-199.9999999999999432
 31
0.0
  0
LINE
  5
B7
100
AcDbEntity
  8
Hidden Lines
 62
256
370
-1
 48
1.0
  6
BYLAYER
100
AcDbLine
 10
-600.0
 20
188.0
 30
0.0
 11
-200.0
 21
188.0
 31
0.0
  0
LINE
  5
B8
100
AcDbEntity
  8
Hidden Lines
 62
256
370
-1
 48
1.0
  6
BYLAYER
100
AcDbLine
 10
-200.0
 20
188.0
 30
0.0
 11
-200.0
 21
170.0
 31
0.0
  0
LINE
  5
B9
100
AcDbEntity
  8
Hidden Lines
 62
256
370
-1
 48
1.0
  6
BYLAYER
100
AcDbLine
 10
-200.0
 20
170.0
 30
0.0
 11
-600.0
 21
170.0
 31
0.0
  0
LINE
  5
BA
100
AcDbEntity
  8
Hidden Lines
 62
256
370
-1
 48
1.0
  6
BYLAYER
100
AcDbLine
 10
-600.0
 20
170.0
 30
0.0
 11
-600.0
 21
188.0
 31
0.0
  0
LINE
  5
BB
100
AcDbEntity
  8
Sides
 62
256
370
-1
 48
1.0
  6
BYLAYER
100
AcDbLine
 10
626.6240545237787956
 20
126.1071849975849091
 30
0.0
 11
314.0391517323600397
 21
862.5110677595372408
 31
0.0
  0
LINE
  5
BC
100
AcDbEntity
  8
Sides
 62
256
370
-1
 48
1.0
  6
BYLAYER
100
AcDbLine
 10
156.8068581140777269
 20
133.1403453103916945
 30
0.0
 11
469.3917609054964259
 21
869.5442280723440263
 31
0.0
  0
LINE
  5
BD
100
AcDbEntity
  8
Sides
 62
256
370
-1
 48
1.0
  6
BYLAYER
100
AcDbLine
 10
314.0391517323600397
 20
862.5110677595372408
 30
0.0
 11
330.6082390945038583
 21
869.5442280723441399
 31
0.0
  0
LINE
  5
BE
100
AcDbEntity
  8
Sides
 62
256
370
-1
 48
1.0
  6
BYLAYER
100
AcDbLine
 10
469.3917609054964259
 20
869.5442280723440263
 30
0.0
 11
485.9608482676403582
 21
862.5110677595371271
 31
0.0
  0
LINE
  5
BF
100
AcDbEntity
  8
Sides
 62
256
370
-1
 48
1.0
  6
BYLAYER
100
AcDbLine
 10
330.6082390945038583
 20
869.5442280723441399
 30
0.0
 11
643.1931418859223868
 21
133.1403453103915808
 31
0.0
  0
LINE
  5
C0
100
AcDbEntity
  8
Sides
 62
256
370
-1
 48
1.0
  6
BYLAYER
100
AcDbLine
 10
485.9608482676403582
 20
862.5110677595371271
 30
0.0
 11
173.3759454762213181
 21
126.1071849975849091
 31
0.0
  0
LINE
  5
C1
100
AcDbEntity
  8
Sides
 62
256
370
-1
 48
1.0
  6
BYLAYER
100
AcDbLine
 10
643.1931418859223868
 20
133.1403453103915808
 30
0.0
 11
626.6240545237787956
 21
126.1071849975849091
 31
0.0
  0
LINE
  5
C2
100
AcDbEntity
  8
Sides
 62
256
370
-1
 48
1.0
  6
BYLAYER
100
AcDbLine
 10
173.3759454762213181
 20
126.1071849975849091
 30
0.0
 11
156.8068581140777269
 21
133.1403453103916945
 31
0.0
  0
LINE
  5
C3
100
AcDbEntity
  8
Hidden Lines
 62
256
370
-1
 48
1.0
  6
BYLAYER
100
AcDbLine
 10
416.5690873621441028
 20
667.0331603128072402
 30
0.0
 11
400.0000000000001705
 21
660.0000000000003411
 31
0.0
  0
LINE
  5
C4
100
AcDbEntity
  8
Hidden Lines
 62
256
370
-1
 48
1.0
  6
BYLAYER
100
AcDbLine
 10
400.0000000000001137
 20
660.0000000000002274
 30
0.0
 11
383.4309126378561814
 21
667.0331603128071265
 31
0.0
  0
LINE
  5
C5
100
AcDbEntity
  8
Hidden Lines
 62
256
370
-1
 48
1.0
  6
BYLAYER
100
AcDbLine
 10
382.4170992179828659
 20
701.422718405360115
 30
0.0
 11
398.9861865801267982
 21
708.4558787181671278
 31
0.0
  0
LINE
  5
C6
100
AcDbEntity
  8
Hidden Lines
 62
256
370
-1
 48
1.0
  6
BYLAYER
100
AcDbLine
 10
401.0138134198734861
 20
708.4558787181670141
 30
0.0
 11
417.5829007820174184
 21
701.4227184053600013
 31
0.0
  0
LINE
  5
C7
100
AcDbEntity
  8
Sides
 62
256
370
-1
 48
1.0
  6
BYLAYER
100
AcDbLine
 10
-600.0
 20
869.5442280723441399
 30
0.0
 11
-200.0
 21
869.5442280723441399
 31
0.0
  0
LINE
  5
C8
100
AcDbEntity
  8
Sides
 62
256
370
-1
 48
1.0
  6
BYLAYER
100
AcDbLine
 10
-200.0
 20
869.5442280723441399
 30
0.0
 11
-200.0
 21
862.5110677595371271
 31
0.0
  0
LINE
  5
C9
100
AcDbEntity
  8
Sides
 62
256
370
-1
 48
1.0
  6
BYLAYER
100
AcDbLine
 10
-200.0
 20
862.5110677595371271
 30
0.0
 11
-600.0
 21
862.5110677595371271
 31
0.0
  0
LINE
  5
CA
100
AcDbEntity
  8
Sides
 62
256
370
-1
 48
1.0
  6
BYLAYER
100
AcDbLine
 10
-600.0
 20
862.5110677595371271
 30
0.0
 11
-600.0
 21
869.5442280723441399
 31
0.0
  0
LINE
  5
CB
100
AcDbEntity
  8
Sides
 62
256
370
-1
 48
1.0
  6
BYLAYER
100
AcDbLine
 10
-600.0
 20
133.1403453103915808
 30
0.0
 11
-200.0
 21
133.1403453103915808
 31
0.0
  0
LINE
  5
CC
100
AcDbEntity
  8
Sides
 62
256
370
-1
 48
1.0
  6
BYLAYER
100
AcDbLine
 10
-200.0
 20
133.1403453103915808
 30
0.0
 11
-200.0
 21
126.1071849975849517
 31
0.0
  0
LINE
  5
CD
100
AcDbEntity
  8
Sides
 62
256
370
-1
 48
1.0
  6
BYLAYER
100
AcDbLine
 10
-200.0
 20
126.1071849975849517
 30
0.0
 11
-600.0
 21
126.1071849975849517
 31
0.0
  0
LINE
  5
CE
100
AcDbEntity
  8
Sides
 62
256
370
-1
 48
1.0
  6
BYLAYER
100
AcDbLine
 10
-600.0
 20
126.1071849975849517
 30
0.0
 11
-600.0
 21
133.1403453103915808
 31
0.0
  0
LINE
  5
CF
100
AcDbEntity
  8
Sides
 62
256
370
-1
 48
1.0
  6
BYLAYER
100
AcDbLine
 10
-600.0
 20
862.5110677595371271
 30
0.0
 11
-600.0000000000001137
 21
133.1403453103916092
 31
0.0
  0
LINE
  5
D0
100
AcDbEntity
  8
Sides
 62
256
370
-1
 48
1.0
  6
BYLAYER
100
AcDbLine
 10
-200.0
 20
862.5110677595371271
 30
0.0
 11
-200.0
 21
133.1403453103916092
 31
0.0
  0
LINE
  5
D1
100
AcDbEntity
  8
Sides
 62
256
370
-1
 48
1.0
  6
BYLAYER
100
AcDbLine
 10
-600.0000000000001137
 20
667.0331603128071265
 30
0.0
 11
-390.0
 21
667.0331603128071265
 31
0.0
  0
LINE
  5
D2
100
AcDbEntity
  8
Sides
 62
256
370
-1
 48
1.0
  6
BYLAYER
100
AcDbLine
 10
-410.0
 20
701.422718405360115
 30
0.0
 11
-200.0
 21
701.422718405360115
 31
0.0
  0
LINE
  5
D3
100
AcDbEntity
  8
Sides
 62
256
370
-1
 48
1.0
  6
BYLAYER
100
AcDbLine
 10
-410.0
 20
701.4227184053600013
 30
0.0
 11
-410.0
 21
667.0331603128071265
 31
0.0
  0
LINE
  5
D4
100
AcDbEntity
  8
Sides
 62
256
370
-1
 48
1.0
  6
BYLAYER
100
AcDbLine
 10
-390.0
 20
701.4227184053600013
 30
0.0
 11
-390.0
 21
667.0331603128071265
 31
0.0
  0
LINE
  5
D5
100
AcDbEntity
  8
Hidden Lines
 62
256
370
-1
 48
1.0
  6
BYLAYER
100
AcDbLine
 10
-600.0
 20
660.0000000000002274
 30
0.0
 11
-390.0
 21
660.0000000000002274
 31
0.0
  0
LINE
  5
D6
100
AcDbEntity
  8
Hidden Lines
 62
256
370
-1
 48
1.0
  6
BYLAYER
100
AcDbLine
 10
-390.0
 20
660.0000000000002274
 30
0.0
 11
-390.0
 21
667.0331603128071265
 31
0.0
  0
LINE
  5
D7
100
AcDbEntity
  8
Hidden Lines
 62
256
370
-1
 48
1.0
  6
BYLAYER
100
AcDbLine
 10
-200.0
 20
708.4558787181670141
 30
0.0
 11
-410.0
 21
708.4558787181670141
 31
0.0
  0
LINE
  5
D8
100
AcDbEntity
  8
Hidden Lines
 62
256
370
-1
 48
1.0
  6
BYLAYER
100
AcDbLine
 10
-410.0
 20
708.4558787181670141
 30
0.0
 11
-410.0
 21
701.422718405360115
 31
0.0
  0
LINE
  5
D9
100
AcDbEntity
  8
Hidden Lines
 62
256
370
-1
 48
1.0
  6
BYLAYER
100
AcDbLine
 10
-390.0
 20
701.4227184053600013
 30
0.0
 11
-390.0
 21
708.4558787181670141
 31
0.0
  0
LINE
  5
DA
100
AcDbEntity
  8
Hidden Lines
 62
256
370
-1
 48
1.0
  6
BYLAYER
100
AcDbLine
 10
-410.0000000000000568
 20
708.4558787181670141
 30
0.0
 11
-600.0
 21
708.4558787181670141
 31
0.0
  0
LINE
  5
DB
100
AcDbEntity
  8
Hidden Lines
 62
256
370
-1
 48
1.0
  6
BYLAYER
100
AcDbLine
 10
-410.0
 20
701.4227184053600013
 30
0.0
 11
-600.0
 21
701.422718405360115
 31
0.0
  0
LINE
  5
DC
100
AcDbEntity
  8
Hidden Lines
 62
256
370
-1
 48
1.0
  6
BYLAYER
100
AcDbLine
 10
-410.0
 20
667.0331603128071265
 30
0.0
 11
-410.0
 21
660.0000000000002274
 31
0.0
  0
LINE
  5
DD
100
AcDbEntity
  8
Hidden Lines
 62
256
370
-1
 48
1.0
  6
BYLAYER
100
AcDbLine
 10
-389.9999999999999432
 20
667.0331603128070128
 30
0.0
 11
-200.0
 21
667.0331603128071265
 31
0.0
  0
LINE
  5
DE
100
AcDbEntity
  8
Hidden Lines
 62
256
370
-1
 48
1.0
  6
BYLAYER
100
AcDbLine
 10
-389.9999999999999432
 20
660.0000000000002274
 30
0.0
 11
-200.0
 21
660.0000000000002274
 31
0.0
  0
LINE
  5
DF
100
AcDbEntity
  8
Sides
 62
256
370
-1
 48
1.0
  6
BYLAYER
100
AcDbLine
 10
314.0391517323600397
 20
-199.9999999999999147
 30
0.0
 11
330.6082390945038583
 21
-199.9999999999999147
 31
0.0
  0
LINE
  5
E0
100
AcDbEntity
  8
Sides
 62
256
370
-1
 48
1.0
  6
BYLAYER
100
AcDbLine
 10
330.6082390945038583
 20
-199.9999999999999147
 30
0.0
 11
330.6082390945038583
 21
-599.9999999999998863
 31
0.0
  0
LINE
  5
E1
100
AcDbEntity
  8
Sides
 62
256
370
-1
 48
1.0
  6
BYLAYER
100
AcDbLine
 10
330.6082390945038583
 20
-599.9999999999998863
 30
0.0
 11
314.0391517323600397
 21
-599.9999999999998863
 31
0.0
  0
LINE
  5
E2
100
AcDbEntity
  8
Sides
 62
256
370
-1
 48
1.0
  6
BYLAYER
100
AcDbLine
 10
314.0391517323600397
 20
-599.9999999999998863
 30
0.0
 11
314.0391517323600397
 21
-199.9999999999999147
 31
0.0
  0
LINE
  5
E3
100
AcDbEntity
  8
Sides
 62
256
370
-1
 48
1.0
  6
BYLAYER
100
AcDbLine
 10
469.3917609054963691
 20
-199.9999999999999432
 30
0.0
 11
485.9608482676403014
 21
-199.9999999999999432
 31
0.0
  0
LINE
  5
E4
100
AcDbEntity
  8
Sides
 62
256
370
-1
 48
1.0
  6
BYLAYER
100
AcDbLine
 10
485.9608482676403014
 20
-199.9999999999999432
 30
0.0
 11
485.9608482676403014
 21
-599.9999999999998863
 31
0.0
  0
LINE
  5
E5
100
AcDbEntity
  8
Sides
 62
256
370
-1
 48
1.0
  6
BYLAYER
100
AcDbLine
 10
485.9608482676403014
 20
-599.9999999999998863
 30
0.0
 11
469.3917609054963691
 21
-599.9999999999998863
 31
0.0
  0
LINE
  5
E6
100
AcDbEntity
  8
Sides
 62
256
370
-1
 48
1.0
  6
BYLAYER
100
AcDbLine
 10
469.3917609054963691
 20
-599.9999999999998863
 30
0.0
 11
469.3917609054963691
 21
-199.9999999999999432
 31
0.0
  0
LINE
  5
E7
100
AcDbEntity
  8
Sides
 62
256
370
-1
 48
1.0
  6
BYLAYER
100
AcDbLine
 10
398.9861865801265708
 20
-199.9999999999999432
 30
0.0
 11
398.9861865801265708
 21
-389.9999999999998863
 31
0.0
  0
LINE
  5
E8
100
AcDbEntity
  8
Sides
 62
256
370
-1
 48
1.0
  6
BYLAYER
100
AcDbLine
 10
401.0138134198735997
 20
-599.9999999999998863
 30
0.0
 11
401.0138134198735997
 21
-409.9999999999998863
 31
0.0
  0
LINE
  5
E9
100
AcDbEntity
  8
Sides
 62
256
370
-1
 48
1.0
  6
BYLAYER
100
AcDbLine
 10
401.0138134198735997
 20
-409.9999999999998863
 30
0.0
 11
401.0138134198735997
 21
-389.9999999999998863
 31
0.0
  0
LINE
  5
EA
100
AcDbEntity
  8
Sides
 62
256
370
-1
 48
1.0
  6
BYLAYER
100
AcDbLine
 10
398.9861865801265139
 20
-389.9999999999998863
 30
0.0
 11
398.9861865801265708
 21
-409.9999999999998863
 31
0.0
  0
LINE
  5
EB
100
AcDbEntity
  8
Sides
 62
256
370
-1
 48
1.0
  6
BYLAYER
100
AcDbLine
 10
398.9861865801265708
 20
-409.9999999999998863
 30
0.0
 11
399.9999999999997158
 21
-409.9999999999998863
 31
0.0
  0
LINE
  5
EC
100
AcDbEntity
  8
Sides
 62
256
370
-1
 48
1.0
  6
BYLAYER
100
AcDbLine
 10
401.0138134198735997
 20
-389.9999999999998863
 30
0.0
 11
399.9999999999997158
 21
-389.9999999999998863
 31
0.0
  0
LINE
  5
ED
100
AcDbEntity
  8
Sides
 62
256
370
-1
 48
1.0
  6
BYLAYER
100
AcDbLine
 10
399.9999999999997158
 20
-389.9999999999998863
 30
0.0
 11
398.9861865801265708
 21
-389.9999999999998863
 31
0.0
  0
LINE
  5
EE
100
AcDbEntity
  8
Sides
 62
256
370
-1
 48
1.0
  6
BYLAYER
100
AcDbLine
 10
399.9999999999997158
 20
-409.9999999999998863
 30
0.0
 11
401.0138134198735997
 21
-409.9999999999999432
 31
0.0
  0
LINE
  5
EF
100
AcDbEntity
  8
Sides
 62
256
370
-1
 48
1.0
  6
BYLAYER
100
AcDbLine
 10
469.3917609054963123
 20
-199.9999999999999147
 30
0.0
 11
156.8068581140777269
 21
-199.9999999999999147
 31
0.0
  0
LINE
  5
F0
100
AcDbEntity
  8
Sides
 62
256
370
-1
 48
1.0
  6
BYLAYER
100
AcDbLine
 10
156.8068581140777269
 20
-199.9999999999999147
 30
0.0
 11
156.8068581140777269
 21
-599.9999999999998863
 31
0.0
  0
LINE
  5
F1
100
AcDbEntity
  8
Sides
 62
256
370
-1
 48
1.0
  6
BYLAYER
100
AcDbLine
 10
156.8068581140777269
 20
-599.9999999999998863
 30
0.0
 11
469.3917609054963123
 21
-599.9999999999998863
 31
0.0
  0
LINE
  5
F2
100
AcDbEntity
  8
Sides
 62
256
370
-1
 48
1.0
  6
BYLAYER
100
AcDbLine
 10
469.3917609054963123
 20
-599.9999999999998863
 30
0.0
 11
469.3917609054963123
 21
-199.9999999999999147
 31
0.0
  0
LINE
  5
F3
100
AcDbEntity
  8
Sides
 62
256
370
-1
 48
1.0
  6
BYLAYER
100
AcDbLine
 10
314.0391517323600397
 20
-199.9999999999999147
 30
0.0
 11
643.1931418859223868
 21
-199.9999999999999147
 31
0.0
  0
LINE
  5
F4
100
AcDbEntity
  8
Sides
 62
256
370
-1
 48
1.0
  6
BYLAYER
100
AcDbLine
 10
643.1931418859223868
 20
-199.9999999999999147
 30
0.0
 11
643.1931418859223868
 21
-599.9999999999998863
 31
0.0
  0
LINE
  5
F5
100
AcDbEntity
  8
Sides
 62
256
370
-1
 48
1.0
  6
BYLAYER
100
AcDbLine
 10
643.1931418859223868
 20
-599.9999999999998863
 30
0.0
 11
314.0391517323600397
 21
-599.9999999999998863
 31
0.0
  0
LINE
  5
F6
100
AcDbEntity
  8
Sides
 62
256
370
-1
 48
1.0
  6
BYLAYER
100
AcDbLine
 10
314.0391517323600397
 20
-599.9999999999998863
 30
0.0
 11
314.0391517323600397
 21
-199.9999999999999147
 31
0.0
  0
LINE
  5
F7
100
AcDbEntity
  8
Hidden Lines
 62
256
370
-1
 48
1.0
  6
BYLAYER
100
AcDbLine
 10
626.6240545237787956
 20
-199.9999999999999432
 30
0.0
 11
626.6240545237787956
 21
-599.9999999999998863
 31
0.0
  0
LINE
  5
F8
100
AcDbEntity
  8
Hidden Lines
 62
256
370
-1
 48
1.0
  6
BYLAYER
100
AcDbLine
 10
173.3759454762212044
 20
-199.9999999999999147
 30
0.0
 11
173.3759454762212044
 21
-599.9999999999998863
 31
0.0
  0
LINE
  5
F9
100
AcDbEntity
  8
Hidden Lines
 62
256
370
-1
 48
1.0
  6
BYLAYER
100
AcDbLine
 10
383.4309126378561245
 20
-389.9999999999998863
 30
0.0
 11
398.9861865801265139
 21
-389.9999999999998863
 31
0.0
  0
LINE
  5
FA
100
AcDbEntity
  8
Hidden Lines
 62
256
370
-1
 48
1.0
  6
BYLAYER
100
AcDbLine
 10
383.4309126378561245
 20
-389.9999999999998863
 30
0.0
 11
383.4309126378561245
 21
-599.9999999999998863
 31
0.0
  0
LINE
  5
FB
100
AcDbEntity
  8
Hidden Lines
 62
256
370
-1
 48
1.0
  6
BYLAYER
100
AcDbLine
 10
401.0138134198736566
 20
-410.0
 30
0.0
 11
416.5690873621438755
 21
-409.9999999999998863
 31
0.0
  0
LINE
  5
FC
100
AcDbEntity
  8
Hidden Lines
 62
256
370
-1
 48
1.0
  6
BYLAYER
100
AcDbLine
 10
416.5690873621438755
 20
-409.9999999999998863
 30
0.0
 11
416.5690873621438186
 21
-199.9999999999999147
 31
0.0
  0
LINE
  5
FD
100
AcDbEntity
  8
Hidden Lines
 62
256
370
-1
 48
1.0
  6
BYLAYER
100
AcDbLine
 10
401.0138134198736566
 20
-389.9999999999998863
 30
0.0
 11
417.5829007820171341
 21
-389.9999999999998863
 31
0.0
  0
LINE
  5
FE
100
AcDbEntity
  8
Hidden Lines
 62
256
370
-1
 48
1.0
  6
BYLAYER
100
AcDbLine
 10
417.5829007820171341
 20
-389.9999999999998863
 30
0.0
 11
417.582900782017191
 21
-599.9999999999998863
 31
0.0
  0
LINE
  5
FF
100
AcDbEntity
  8
Hidden Lines
 62
256
370
-1
 48
1.0
  6
BYLAYER
100
AcDbLine
 10
398.9861865801266276
 20
-409.9999999999998863
 30
0.0
 11
382.4170992179828659
 21
-409.9999999999998863
 31
0.0
  0
LINE
  5
100
100
AcDbEntity
  8
Hidden Lines
 62
256
370
-1
 48
1.0
  6
BYLAYER
100
AcDbLine
 10
382.4170992179828659
 20
-409.9999999999998863
 30
0.0
 11
382.417099217982809
 21
-199.9999999999999147
 31
0.0
  0
LINE
  5
101
100
AcDbEntity
  8
Hidden Lines
 62
256
370
-1
 48
1.0
  6
BYLAYER
100
AcDbLine
 10
220.0
 20
-220.0
 30
0.0
 11
580.0
 21
-220.0
 31
0.0
  0
LINE
  5
102
100
AcDbEntity
  8
Hidden Lines
 62
256
370
-1
 48
1.0
  6
BYLAYER
100
AcDbLine
 10
580.0
 20
-220.0
 30
0.0
 11
580.0
 21
-580.0
 31
0.0
  0
LINE
  5
103
100
AcDbEntity
  8
Hidden Lines
 62
256
370
-1
 48
1.0
  6
BYLAYER
100
AcDbLine
 10
580.0
 20
-580.0
 30
0.0
 11
220.0
 21
-580.0
 31
0.0
  0
LINE
  5
104
100
AcDbEntity
  8
Hidden Lines
 62
256
370
-1
 48
1.0
  6
BYLAYER
100
AcDbLine
 10
220.0
 20
-580.0
 30
0.0
 11
220.0
 21
-220.0
 31
0.0
  0
LINE
  5
105
100
AcDbEntity
  8
Hidden Lines
 62
256
370
-1
 48
1.0
  6
BYLAYER
100
AcDbLine
 10
-580.0000000000002274
 20
230.0
 30
0.0
 11
-220.0000000000000568
 21
230.0
 31
0.0
  0
LINE
  5
106
100
AcDbEntity
  8
Hidden Lines
 62
256
370
-1
 48
1.0
  6
BYLAYER
100
AcDbLine
 10
-220.0000000000000568
 20
230.0
 30
0.0
 11
-220.0000000000000568
 21
190.0
 31
0.0
  0
LINE
  5
107
100
AcDbEntity
  8
Hidden Lines
 62
256
370
-1
 48
1.0
  6
BYLAYER
100
AcDbLine
 10
-220.0000000000000568
 20
190.0
 30
0.0
 11
-580.0000000000002274
 21
190.0
 31
0.0
  0
LINE
  5
108
100
AcDbEntity
  8
Hidden Lines
 62
256
370
-1
 48
1.0
  6
BYLAYER
100
AcDbLine
 10
-580.0000000000002274
 20
190.0
 30
0.0
 11
-580.0000000000002274
 21
230.0
 31
0.0
  0
LINE
  5
109
100
AcDbEntity
  8
Sisal Mats
 62
256
370
-1
 48
1.0
  6
BYLAYER
100
AcDbLine
 10
628.262698946333785
 20
193.9073112848927849
 30
0.0
 11
432.8971347016971549
 21
654.1597380111130633
 31
0.0
  0
LINE
  5
10A
100
AcDbEntity
  8
Sisal Mats
 62
256
370
-1
 48
1.0
  6
BYLAYER
100
AcDbLine
 10
171.7373010536664424
 20
193.9073112848927849
 30
0.0
 11
367.1028652983029588
 21
654.1597380111130633
 31
0.0
  0
LINE
  5
10B
100
AcDbEntity
  8
Sisal Mats
 62
256
370
-1
 48
1.0
  6
BYLAYER
100
AcDbLine
 10
432.8971347016971549
 20
654.1597380111130633
 30
0.0
 11
423.6920861671724197
 21
650.2524267262201647
 31
0.0
  0
LINE
  5
10C
100
AcDbEntity
  8
Sisal Mats
 62
256
370
-1
 48
1.0
  6
BYLAYER
100
AcDbLine
 10
367.1028652983029588
 20
654.1597380111130633
 30
0.0
 11
376.307913832827694
 21
650.2524267262201647
 31
0.0
  0
LINE
  5
10D
100
AcDbEntity
  8
Sisal Mats
 62
256
370
-1
 48
1.0
  6
BYLAYER
100
AcDbLine
 10
423.6920861671724197
 20
650.2524267262201647
 30
0.0
 11
619.0576504118092771
 21
190.0
 31
0.0
  0
LINE
  5
10E
100
AcDbEntity
  8
Sisal Mats
 62
256
370
-1
 48
1.0
  6
BYLAYER
100
AcDbLine
 10
376.307913832827694
 20
650.2524267262201647
 30
0.0
 11
180.9423495881908366
 21
190.0
 31
0.0
  0
LINE
  5
10F
100
AcDbEntity
  8
Sisal Mats
 62
256
370
-1
 48
1.0
  6
BYLAYER
100
AcDbLine
 10
619.0576504118092771
 20
190.0
 30
0.0
 11
628.262698946333785
 21
193.9073112848927849
 31
0.0
  0
LINE
  5
110
100
AcDbEntity
  8
Sisal Mats
 62
256
370
-1
 48
1.0
  6
BYLAYER
100
AcDbLine
 10
180.9423495881908366
 20
190.0
 30
0.0
 11
171.7373010536664424
 21
193.9073112848927849
 31
0.0
  0
LINE
  5
111
100
AcDbEntity
  8
Sisal Mats
 62
256
370
-1
 48
1.0
  6
BYLAYER
100
AcDbLine
 10
485.9608482676404151
 20
-220.0000000000000284
 30
0.0
 11
628.262698946333785
 21
-220.0000000000000284
 31
0.0
  0
LINE
  5
112
100
AcDbEntity
  8
Sisal Mats
 62
256
370
-1
 48
1.0
  6
BYLAYER
100
AcDbLine
 10
628.262698946333785
 20
-220.0000000000000284
 30
0.0
 11
628.262698946333785
 21
-580.0
 31
0.0
  0
LINE
  5
113
100
AcDbEntity
  8
Sisal Mats
 62
256
370
-1
 48
1.0
  6
BYLAYER
100
AcDbLine
 10
628.262698946333785
 20
-580.0
 30
0.0
 11
485.9608482676404151
 21
-580.0
 31
0.0
  0
LINE
  5
114
100
AcDbEntity
  8
Sisal Mats
 62
256
370
-1
 48
1.0
  6
BYLAYER
100
AcDbLine
 10
485.9608482676404151
 20
-580.0
 30
0.0
 11
485.9608482676404151
 21
-220.0000000000000284
 31
0.0
  0
LINE
  5
115
100
AcDbEntity
  8
Hidden Lines
 62
256
370
-1
 48
1.0
  6
BYLAYER
100
AcDbLine
 10
619.0576504118091634
 20
-220.0000000000000284
 30
0.0
 11
619.0576504118091634
 21
-580.0
 31
0.0
  0
LINE
  5
116
100
AcDbEntity
  8
Hidden Lines
 62
256
370
-1
 48
1.0
  6
BYLAYER
100
AcDbLine
 10
432.8971347016972118
 20
-220.0
 30
0.0
 11
432.8971347016972118
 21
-580.0
 31
0.0
  0
LINE
  5
117
100
AcDbEntity
  8
Hidden Lines
 62
256
370
-1
 48
1.0
  6
BYLAYER
100
AcDbLine
 10
423.6920861671727039
 20
-580.0
 30
0.0
 11
423.6920861671727039
 21
-220.0
 31
0.0
  0
LINE
  5
118
100
AcDbEntity
  8
Hidden Lines
 62
256
370
-1
 48
1.0
  6
BYLAYER
100
AcDbLine
 10
376.3079138328275235
 20
-220.0
 30
0.0
 11
376.3079138328275235
 21
-580.0
 31
0.0
  0
LINE
  5
119
100
AcDbEntity
  8
Hidden Lines
 62
256
370
-1
 48
1.0
  6
BYLAYER
100
AcDbLine
 10
367.1028652983029019
 20
-580.0
 30
0.0
 11
367.1028652983029019
 21
-220.0
 31
0.0
  0
LINE
  5
11A
100
AcDbEntity
  8
Sisal Mats
 62
256
370
-1
 48
1.0
  6
BYLAYER
100
AcDbLine
 10
314.0391517323600397
 20
-220.0
 30
0.0
 11
171.7373010536664424
 21
-220.0
 31
0.0
  0
LINE
  5
11B
100
AcDbEntity
  8
Sisal Mats
 62
256
370
-1
 48
1.0
  6
BYLAYER
100
AcDbLine
 10
171.7373010536664424
 20
-220.0
 30
0.0
 11
171.7373010536664424
 21
-580.0
 31
0.0
  0
LINE
  5
11C
100
AcDbEntity
  8
Sisal Mats
 62
256
370
-1
 48
1.0
  6
BYLAYER
100
AcDbLine
 10
171.7373010536664424
 20
-580.0
 30
0.0
 11
314.0391517323600397
 21
-580.0
 31
0.0
  0
LINE
  5
11D
100
AcDbEntity
  8
Sisal Mats
 62
256
370
-1
 48
1.0
  6
BYLAYER
100
AcDbLine
 10
314.0391517323600397
 20
-580.0
 30
0.0
 11
314.0391517323600397
 21
-220.0
 31
0.0
  0
LINE
  5
11E
100
AcDbEntity
  8
Hidden Lines
 62
256
370
-1
 48
1.0
  6
BYLAYER
100
AcDbLine
 10
180.9423495881907797
 20
-220.0
 30
0.0
 11
180.9423495881907797
 21
-580.0
 31
0.0
  0
LINE
  5
11F
100
AcDbEntity
  8
Sisal Mats
 62
256
370
-1
 48
1.0
  6
BYLAYER
100
AcDbLine
 10
-580.0000000000002274
 20
654.1597380111129496
 30
0.0
 11
-220.0000000000000568
 21
654.1597380111129496
 31
0.0
  0
LINE
  5
120
100
AcDbEntity
  8
Sisal Mats
 62
256
370
-1
 48
1.0
  6
BYLAYER
100
AcDbLine
 10
-220.0000000000000568
 20
654.1597380111129496
 30
0.0
 11
-220.0000000000000568
 21
193.9073112848927849
 31
0.0
  0
LINE
  5
121
100
AcDbEntity
  8
Sisal Mats
 62
256
370
-1
 48
1.0
  6
BYLAYER
100
AcDbLine
 10
-220.0000000000000568
 20
193.9073112848927849
 30
0.0
 11
-580.0000000000002274
 21
193.9073112848927849
 31
0.0
  0
LINE
  5
122
100
AcDbEntity
  8
Sisal Mats
 62
256
370
-1
 48
1.0
  6
BYLAYER
100
AcDbLine
 10
-580.0000000000002274
 20
193.9073112848927849
 30
0.0
 11
-580.0000000000002274
 21
654.1597380111129496
 31
0.0
  0
LINE
  5
123
100
AcDbEntity
  8
Sisal Mats
 62
256
370
-1
 48
1.0
  6
BYLAYER
100
AcDbLine
 10
-580.0000000000001137
 20
193.9073112848927849
 30
0.0
 11
-220.0000000000000568
 21
193.9073112848927849
 31
0.0
  0
LINE
  5
124
100
AcDbEntity
  8
Sisal Mats
 62
256
370
-1
 48
1.0
  6
BYLAYER
100
AcDbLine
 10
-220.0000000000000568
 20
193.9073112848927849
 30
0.0
 11
-220.0000000000000568
 21
189.9999999999999716
 31
0.0
  0
LINE
  5
125
100
AcDbEntity
  8
Sisal Mats
 62
256
370
-1
 48
1.0
  6
BYLAYER
100
AcDbLine
 10
-220.0000000000000568
 20
189.9999999999999716
 30
0.0
 11
-580.0000000000001137
 21
189.9999999999999716
 31
0.0
  0
LINE
  5
126
100
AcDbEntity
  8
Sisal Mats
 62
256
370
-1
 48
1.0
  6
BYLAYER
100
AcDbLine
 10
-580.0000000000001137
 20
189.9999999999999716
 30
0.0
 11
-580.0000000000001137
 21
193.9073112848927849
 31
0.0
  0
LINE
  5
127
100
AcDbEntity
  8
Hidden Lines
 62
256
370
-1
 48
1.0
  6
BYLAYER
100
AcDbLine
 10
-580.0000000000002274
 20
650.25242672621971
 30
0.0
 11
-220.0000000000000568
 21
650.25242672621971
 31
0.0
  0
LINE
  5
128
100
AcDbEntity
  8
Cushion
 62
256
370
-1
 48
1.0
  6
BYLAYER
100
AcDbLine
 10
220.0
 20
230.0
 30
0.0
 11
580.0
 21
230.0
 31
0.0
  0
LINE
  5
129
100
AcDbEntity
  8
Cushion
 62
256
370
-1
 48
1.0
  6
BYLAYER
100
AcDbLine
 10
580.0
 20
230.0
 30
0.0
 11
580.0
 21
190.0
 31
0.0
  0
LINE
  5
12A
100
AcDbEntity
  8
Cushion
 62
256
370
-1
 48
1.0
  6
BYLAYER
100
AcDbLine
 10
580.0
 20
190.0
 30
0.0
 11
220.0
 21
190.0
 31
0.0
  0
LINE
  5
12B
100
AcDbEntity
  8
Cushion
 62
256
370
-1
 48
1.0
  6
BYLAYER
100
AcDbLine
 10
220.0
 20
190.0
 30
0.0
 11
220.0
 21
230.0
 31
0.0
  0
MTEXT
  5
12C
100
AcDbEntity
  8
Cushion
 62
256
370
-1
 48
1.0
  6
BYLAYER
100
AcDbMText
 10
400.0
 20
330.0
 30
0.0
 40
36.0
 41
0.0
 71
5
 72
1
  1
\C2;\H25;Cat\PGoes\PHere
  7
textstyle3
 50
0.0
 73
2
 44
1.2
  0
HATCH
  5
12D
100
AcDbEntity
  8
Cushion
 62
256
370
-1
 48
1.0
  6
BYLAYER
100
AcDbHatch
 10
0.0
 20
0.0
 30
0.0
210
0.0
220
0.0
230
1.0
  2
SOLID
 70
1
 71
0
 91
1
 92
1
 93
4
 72
1
 10
580.0
 20
190.0
 11
220.0
 21
190.0
 72
1
 10
220.0
 20
190.0
 11
220.0
 21
230.0
 72
1
 10
220.0
 20
230.0
 11
580.0
 21
230.0
 72
1
 10
580.0
 20
230.0
 11
580.0
 21
190.0
 97
0
 75
0
 76
1
 98
0
1001
ACAD
1010
0.0
1020
0.0
1030
0
  0
DIMENSION
  5
12E
100
AcDbEntity
  8
@Dimensions
 62
256
370
-1
 48
1.0
  6
BYLAYER
100
AcDbDimension
 10
800.0
 20
-199.9999999999999147
 30
0.0
 11
781.25
 21
-399.9999999999998863
 31
0.0
 70
0
 71
8
 72
2
 74
0
 75
0
 41
1.0
 42
0.0
  1

  3
Standard
100
AcDbAlignedDimension
 13
643.1931418859223868
 23
-199.9999999999999147
 33
0.0
 14
643.1931418859223868
 24
-599.9999999999998863
 34
0.0
 50
90.0
100
AcDbRotatedDimension
1001
ACAD
1000
DSTYLE
1002
{
1070
144
1040
1.0
1070
40
1040
1.0
1002
}
  0
DIMENSION
  5
12F
100
AcDbEntity
  8
@Dimensions
 62
256
370
-1
 48
1.0
  6
BYLAYER
100
AcDbDimension
 10
760.0
 20
-220.0000000000000284
 30
0.0
 11
741.25
 21
-400.0
 31
0.0
 70
0
 71
8
 72
2
 74
0
 75
0
 41
1.0
 42
0.0
  1

  3
Standard
100
AcDbAlignedDimension
 13
626.6240545237787956
 23
-220.0000000000000284
 33
0.0
 14
626.6240545237787956
 24
-580.0
 34
0.0
 50
90.0
100
AcDbRotatedDimension
1001
ACAD
1000
DSTYLE
1002
{
1070
144
1040
1.0
1070
40
1040
1.0
1002
}
  0
DIMENSION
  5
130
100
AcDbEntity
  8
@Dimensions
 62
256
370
-1
 48
1.0
  6
BYLAYER
100
AcDbDimension
 10
720.0
 20
-199.9999999999999432
 30
0.0
 11
701.25
 21
-304.9999999999998863
 31
0.0
 70
0
 71
8
 72
2
 74
0
 75
0
 41
1.0
 42
0.0
  1

  3
Standard
100
AcDbAlignedDimension
 13
643.1931418859223868
 23
-199.9999999999999432
 33
0.0
 14
643.1931418859223868
 24
-409.9999999999998295
 34
0.0
 50
90.0
100
AcDbRotatedDimension
1001
ACAD
1000
DSTYLE
1002
{
1070
144
1040
1.0
1070
40
1040
1.0
1002
}
  0
DIMENSION
  5
131
100
AcDbEntity
  8
@Dimensions
 62
256
370
-1
 48
1.0
  6
BYLAYER
100
AcDbDimension
 10
700.0
 20
-599.9999999999998863
 30
0.0
 11
681.25
 21
-494.9999999999998863
 31
0.0
 70
0
 71
8
 72
2
 74
0
 75
0
 41
1.0
 42
0.0
  1

  3
Standard
100
AcDbAlignedDimension
 13
643.1931418859223868
 23
-599.9999999999998863
 33
0.0
 14
643.1931418859223868
 24
-389.9999999999998863
 34
0.0
 50
90.0
100
AcDbRotatedDimension
1001
ACAD
1000
DSTYLE
1002
{
1070
144
1040
1.0
1070
40
1040
1.0
1002
}
  0
DIMENSION
  5
132
100
AcDbEntity
  8
@Dimensions
 62
256
370
-1
 48
1.0
  6
BYLAYER
100
AcDbDimension
 10
200.0
 20
100.0
 30
0.0
 11
400.0
 21
118.75
 31
0.0
 70
0
 71
8
 72
2
 74
0
 75
0
 41
1.0
 42
0.0
  1

  3
Standard
100
AcDbAlignedDimension
 13
200.0
 23
170.0
 33
0.0
 14
600.0
 24
170.0
 34
0.0
 50
0.0
100
AcDbRotatedDimension
1001
ACAD
1000
DSTYLE
1002
{
1070
144
1040
1.0
1070
40
1040
1.0
1002
}
  0
DIMENSION
  5
133
100
AcDbEntity
  8
@Dimensions
 62
256
370
-1
 48
1.0
  6
BYLAYER
100
AcDbDimension
 10
478.1980689563022224
 20
673.3888437529597013
 30
0.0
 11
593.1403170808537197
 21
450.5888390490235906
 31
0.0
 70
1
 71
8
 72
2
 74
0
 75
0
 41
1.0
 42
0.0
  1

  3
Standard
100
AcDbAlignedDimension
 13
432.8971347016972686
 23
654.1597380111129496
 33
0.0
 14
628.262698946333785
 24
193.9073112848928986
 34
0.0
1001
ACAD
1000
DSTYLE
1002
{
1070
144
1040
1.0
1070
40
1040
1.0
1002
}
  0
DIMENSION
  5
134
100
AcDbEntity
  8
@Dimensions
 62
256
370
-1
 48
1.0
  6
BYLAYER
100
AcDbDimension
 10
2.3222509126334785
 20
198.7151705594377233
 30
0.0
 11
141.3552363061095605
 21
574.2433205995876051
 31
0.0
 70
1
 71
8
 72
2
 74
0
 75
0
 41
1.0
 42
0.0
  1

  3
Standard
100
AcDbAlignedDimension
 13
156.8068581140777269
 23
133.1403453103916945
 33
0.0
 14
469.3917609054964259
 24
869.5442280723437989
 34
0.0
1001
ACAD
1000
DSTYLE
1002
{
1070
144
1040
1.0
1070
40
1040
1.0
1002
}
  0
DIMENSION
  5
135
100
AcDbEntity
  8
@Dimensions
 62
256
370
-1
 48
1.0
  6
BYLAYER
100
AcDbDimension
 10
481.5368137477054802
 20
743.4965410131126191
 30
0.0
 11
507.5877301409472011
 21
730.1113904696071586
 31
0.0
 70
1
 71
8
 72
2
 74
0
 75
0
 41
1.0
 42
0.0
  1

  3
Standard
100
AcDbAlignedDimension
 13
382.4170992179828659
 23
701.4227184053602286
 33
0.0
 14
399.9999999999997158
 24
660.0000000000014779
 34
0.0
1001
ACAD
1000
DSTYLE
1002
{
1070
144
1040
1.0
1070
40
1040
1.0
1002
}
  0
DIMENSION
  5
136
100
AcDbEntity
  8
@Dimensions
 62
256
370
-1
 48
1.0
  6
BYLAYER
100
AcDbDimension
 10
268.8699222280355343
 20
843.3378673673595358
 30
0.0
 11
320.3183619730803002
 21
770.1199013494449446
 31
0.0
 70
1
 71
8
 72
2
 74
0
 75
0
 41
1.0
 42
0.0
  1

  3
Standard
100
AcDbAlignedDimension
 13
314.0391517323597554
 23
862.5110677595371271
 33
0.0
 14
382.4170992179828659
 24
701.4227184053602286
 34
0.0
1001
ACAD
1000
DSTYLE
1002
{
1070
144
1040
1.0
1070
40
1040
1.0
1002
}
  0
DIMENSION
  5
137
100
AcDbEntity
  8
@Dimensions
 62
256
370
-1
 48
1.0
  6
BYLAYER
100
AcDbDimension
 10
-600.0
 20
950.0
 30
0.0
 11
-400.0
 21
968.75
 31
0.0
 70
0
 71
8
 72
2
 74
0
 75
0
 41
1.0
 42
0.0
  1

  3
Standard
100
AcDbAlignedDimension
 13
-600.0
 23
869.5442280723441399
 33
0.0
 14
-200.0
 24
869.5442280723441399
 34
0.0
 50
0.0
100
AcDbRotatedDimension
1001
ACAD
1000
DSTYLE
1002
{
1070
144
1040
1.0
1070
40
1040
1.0
1002
}
  0
DIMENSION
  5
138
100
AcDbEntity
  8
@Dimensions
 62
256
370
-1
 48
1.0
  6
BYLAYER
100
AcDbDimension
 10
-600.0
 20
910.0
 30
0.0
 11
-495.0
 21
928.75
 31
0.0
 70
0
 71
8
 72
2
 74
0
 75
0
 41
1.0
 42
0.0
  1

  3
Standard
100
AcDbAlignedDimension
 13
-600.0
 23
869.5442280723441399
 33
0.0
 14
-390.0
 24
869.5442280723441399
 34
0.0
 50
0.0
100
AcDbRotatedDimension
1001
ACAD
1000
DSTYLE
1002
{
1070
144
1040
1.0
1070
40
1040
1.0
1002
}
  0
DIMENSION
  5
139
100
AcDbEntity
  8
@Dimensions
 62
256
370
-1
 48
1.0
  6
BYLAYER
100
AcDbDimension
 10
-410.0
 20
890.0
 30
0.0
 11
-305.0
 21
908.75
 31
0.0
 70
0
 71
8
 72
2
 74
0
 75
0
 41
1.0
 42
0.0
  1

  3
Standard
100
AcDbAlignedDimension
 13
-410.0
 23
869.5442280723441399
 33
0.0
 14
-200.0
 24
869.5442280723441399
 34
0.0
 50
0.0
100
AcDbRotatedDimension
1001
ACAD
1000
DSTYLE
1002
{
1070
144
1040
1.0
1070
40
1040
1.0
1002
}
  0
DIMENSION
  5
13A
100
AcDbEntity
  8
@Dimensions
 62
256
370
-1
 48
1.0
  6
BYLAYER
100
AcDbDimension
 10
-580.0000000000002274
 20
80.0
 30
0.0
 11
-400.0000000000001705
 21
98.75
 31
0.0
 70
0
 71
8
 72
2
 74
0
 75
0
 41
1.0
 42
0.0
  1

  3
Standard
100
AcDbAlignedDimension
 13
-580.0000000000002274
 23
126.1071849975849517
 33
0.0
 14
-220.0000000000000853
 24
126.1071849975849517
 34
0.0
 50
0.0
100
AcDbRotatedDimension
1001
ACAD
1000
DSTYLE
1002
{
1070
144
1040
1.0
1070
40
1040
1.0
1002
}
  0
DIMENSION
  5
13B
100
AcDbEntity
  8
@Dimensions
 62
256
370
-1
 48
1.0
  6
BYLAYER
100
AcDbDimension
 10
560.6845815248225335
 20
728.2065582104687564
 30
0.0
 11
691.2560747889467621
 21
468.5863593684349553
 31
0.0
 70
1
 71
8
 72
2
 74
0
 75
0
 41
1.0
 42
0.0
  1

  3
Standard
100
AcDbAlignedDimension
 13
416.5690873621405217
 23
667.0331603128071265
 33
0.0
 14
643.1931418859223868
 24
133.1403453103915808
 34
0.0
1001
ACAD
1000
DSTYLE
1002
{
1070
144
1040
1.0
1070
40
1040
1.0
1002
}
  0
ENDSEC
  0
SECTION
  2
OBJECTS
  0
DICTIONARY
  5
C
100
AcDbDictionary
280
0
281
1
  3
ACAD_GROUP
350
D
  3
ACAD_LAYOUT
350
1A
  3
ACAD_MLINESTYLE
350
17
  3
ACAD_PLOTSETTINGS
350
19
  3
ACAD_PLOTSTYLENAME
350
E
  3
AcDbVariableDictionary
350
13C
  3
QCAD_OBJECTS
350
13D
  0
DICTIONARY
  5
D
100
AcDbDictionary
280
0
281
1
  0
ACDBDICTIONARYWDFLT
  5
E
100
AcDbDictionary
281
1
  3
Normal
350
F
100
AcDbDictionaryWithDefault
340
F
  0
ACDBPLACEHOLDER
  5
F
  0
DICTIONARY
  5
17
100
AcDbDictionary
280
0
281
1
  3
Standard
350
18
  0
MLINESTYLE
  5
18
100
AcDbMlineStyle
  2
STANDARD
 70
0
  3

 62
256
 51
90.0
 52
90.0
 71
2
 49
0.5
 62
256
  6
BYLAYER
 49
-0.5
 62
256
  6
BYLAYER
  0
DICTIONARY
  5
19
100
AcDbDictionary
280
0
281
1
  0
DICTIONARY
  5
1A
100
AcDbDictionary
281
1
  3
Layout1
350
1E
  3
Layout2
350
26
  3
Model
350
22
  0
LAYOUT
  5
1E
100
AcDbPlotSettings
  1

  2
none_device
  4

  6

 40
0.0
 41
0.0
 42
0.0
 43
0.0
 44
0.0
 45
0.0
 46
0.0
 47
0.0
 48
0.0
 49
0.0
140
0.0
141
0.0
142
1.0
143
1.0
 70
688
 72
0
 73
0
 74
5
  7

 75
16
147
1.0
148
0.0
149
0.0
100
AcDbLayout
  1
Layout1
 70
1
 71
1
 10
0.0
 20
0.0
 11
420.0
 21
297.0
 12
0.0
 22
0.0
 32
0.0
 14
100000000000000000000.0
 24
100000000000000000000.0
 34
100000000000000000000.0
 15
-100000000000000000000.0
 25
-100000000000000000000.0
 35
-100000000000000000000.0
146
0.0
 13
0.0
 23
0.0
 33
0.0
 16
1.0
 26
0.0
 36
0.0
 17
0.0
 27
1.0
 37
0.0
 76
0
330
1B
  0
LAYOUT
  5
22
100
AcDbPlotSettings
  1

  2
none_device
  4

  6

 40
0.0
 41
0.0
 42
0.0
 43
0.0
 44
0.0
 45
0.0
 46
0.0
 47
0.0
 48
0.0
 49
0.0
140
0.0
141
0.0
142
1.0
143
1.0
 70
1712
 72
0
 73
0
 74
0
  7

 75
0
147
1.0
148
0.0
149
0.0
100
AcDbLayout
  1
Model
 70
1
 71
0
 10
0.0
 20
0.0
 11
12.0
 21
9.0
 12
0.0
 22
0.0
 32
0.0
 14
0.0
 24
0.0
 34
0.0
 15
0.0
 25
0.0
 35
0.0
146
0.0
 13
0.0
 23
0.0
 33
0.0
 16
1.0
 26
0.0
 36
0.0
 17
0.0
 27
1.0
 37
0.0
 76
0
330
1F
  0
LAYOUT
  5
26
100
AcDbPlotSettings
  1

  2
none_device
  4

  6

 40
0.0
 41
0.0
 42
0.0
 43
0.0
 44
0.0
 45
0.0
 46
0.0
 47
0.0
 48
0.0
 49
0.0
140
0.0
141
0.0
142
1.0
143
1.0
 70
688
 72
0
 73
0
 74
5
  7

 75
16
147
1.0
148
0.0
149
0.0
100
AcDbLayout
  1
Layout2
 70
1
 71
2
 10
0.0
 20
0.0
 11
12.0
 21
9.0
 12
0.0
 22
0.0
 32
0.0
 14
0.0
 24
0.0
 34
0.0
 15
0.0
 25
0.0
 35
0.0
146
0.0
 13
0.0
 23
0.0
 33
0.0
 16
1.0
 26
0.0
 36
0.0
 17
0.0
 27
1.0
 37
0.0
 76
0
330
23
  0
DICTIONARY
  5
13C
100
AcDbDictionary
281
1
  3
DIMASSOC
350
13F
  3
HIDETEXT
350
13E
  0
DICTIONARYVAR
  5
13E
100
DictionaryVariables
280
0
  1
2
  0
DICTIONARYVAR
  5
13F
100
DictionaryVariables
280
0
  1
1
  0
DICTIONARY
  5
13D
100
AcDbDictionary
281
1
  3
ColorSettings/BackgroundColor
350
140
  3
ColorSettings/ColorMode
350
141
  3
DimensionSettings/AngularFormat
350
142
  3
DimensionSettings/AngularPrecision
350
143
  3
DimensionSettings/DecimalPoint
350
144
  3
DimensionSettings/DimensionFont
350
145
  3
DimensionSettings/DimensionTextColor
350
146
  3
DimensionSettings/KeepProportions
350
147
  3
DimensionSettings/LinearFormat
350
148
  3
DimensionSettings/LinearPrecision
350
149
  3
Grid/DisplayGrid00
350
14A
  3
Grid/DisplayGrid01
350
14B
  3
Grid/DisplayGrid02
350
14C
  3
Grid/DisplayGrid03
350
14D
  3
Grid/GridSpacingX00
350
14E
  3
Grid/GridSpacingX01
350
14F
  3
Grid/GridSpacingX02
350
150
  3
Grid/GridSpacingX03
350
151
  3
Grid/GridSpacingY00
350
152
  3
Grid/GridSpacingY01
350
153
  3
Grid/GridSpacingY02
350
154
  3
Grid/GridSpacingY03
350
155
  3
Grid/IsometricGrid00
350
156
  3
Grid/IsometricGrid01
350
157
  3
Grid/IsometricGrid02
350
158
  3
Grid/IsometricGrid03
350
159
  3
Grid/IsometricProjection00
350
15A
  3
Grid/IsometricProjection01
350
15B
  3
Grid/IsometricProjection02
350
15C
  3
Grid/IsometricProjection03
350
15D
  3
Grid/MetaGridSpacingX00
350
15E
  3
Grid/MetaGridSpacingX01
350
15F
  3
Grid/MetaGridSpacingX02
350
160
  3
Grid/MetaGridSpacingX03
350
161
  3
Grid/MetaGridSpacingY00
350
162
  3
Grid/MetaGridSpacingY01
350
163
  3
Grid/MetaGridSpacingY02
350
164
  3
Grid/MetaGridSpacingY03
350
165
  3
MultiPageSettings/Columns
350
166
  3
MultiPageSettings/GlueMarginsBottom
350
167
  3
MultiPageSettings/GlueMarginsLeft
350
168
  3
MultiPageSettings/GlueMarginsRight
350
169
  3
MultiPageSettings/GlueMarginsTop
350
16A
  3
MultiPageSettings/PrintCropMarks
350
16B
  3
MultiPageSettings/Rows
350
16C
  3
PageSettings/OffsetX
350
16D
  3
PageSettings/OffsetY
350
16E
  3
PageSettings/PageOrientation
350
16F
  3
PageSettings/PaperHeight
350
170
  3
PageSettings/PaperWidth
350
171
  3
PageSettings/Scale
350
172
  3
PageSettings/ShowPaperBorders
350
173
  3
PageTagSettings/EnablePageTags
350
174
  3
PageTagSettings/TagAlignment
350
175
  3
PageTagSettings/TagFont
350
176
  3
PageTagSettings/TagPosition
350
177
  3
QCADVersion
350
178
  3
UnitSettings/PaperUnit
350
179
  3
ViewportCenter
350
17A
  3
ViewportHeight
350
17B
  3
ViewportWidth
350
17C
  0
XRECORD
  5
140
330
13D
100
AcDbXrecord
280
1
1000
White
  0
XRECORD
  5
141
330
13D
100
AcDbXrecord
280
1
1000
FullColor
  0
XRECORD
  5
142
330
13D
100
AcDbXrecord
280
1
 90
0
  0
XRECORD
  5
143
330
13D
100
AcDbXrecord
280
1
 90
0
  0
XRECORD
  5
144
330
13D
100
AcDbXrecord
280
1
 90
46
  0
XRECORD
  5
145
330
13D
100
AcDbXrecord
280
1
1000
DejaVu Sans
  0
XRECORD
  5
146
330
13D
100
AcDbXrecord
280
1
1000
By Layer
  0
XRECORD
  5
147
330
13D
100
AcDbXrecord
280
1
290
1
  0
XRECORD
  5
148
330
13D
100
AcDbXrecord
280
1
 90
2
  0
XRECORD
  5
149
330
13D
100
AcDbXrecord
280
1
 90
4
  0
XRECORD
  5
14A
330
13D
100
AcDbXrecord
280
1
290
1
  0
XRECORD
  5
14B
330
13D
100
AcDbXrecord
280
1
290
1
  0
XRECORD
  5
14C
330
13D
100
AcDbXrecord
280
1
290
1
  0
XRECORD
  5
14D
330
13D
100
AcDbXrecord
280
1
290
1
  0
XRECORD
  5
14E
330
13D
100
AcDbXrecord
280
1
1000
auto
  0
XRECORD
  5
14F
330
13D
100
AcDbXrecord
280
1
1000
auto
  0
XRECORD
  5
150
330
13D
100
AcDbXrecord
280
1
1000
auto
  0
XRECORD
  5
151
330
13D
100
AcDbXrecord
280
1
1000
auto
  0
XRECORD
  5
152
330
13D
100
AcDbXrecord
280
1
1000
auto
  0
XRECORD
  5
153
330
13D
100
AcDbXrecord
280
1
1000
auto
  0
XRECORD
  5
154
330
13D
100
AcDbXrecord
280
1
1000
auto
  0
XRECORD
  5
155
330
13D
100
AcDbXrecord
280
1
1000
auto
  0
XRECORD
  5
156
330
13D
100
AcDbXrecord
280
1
290
0
  0
XRECORD
  5
157
330
13D
100
AcDbXrecord
280
1
290
0
  0
XRECORD
  5
158
330
13D
100
AcDbXrecord
280
1
290
0
  0
XRECORD
  5
159
330
13D
100
AcDbXrecord
280
1
290
0
  0
XRECORD
  5
15A
330
13D
100
AcDbXrecord
280
1
 90
65537
  0
XRECORD
  5
15B
330
13D
100
AcDbXrecord
280
1
 90
65537
  0
XRECORD
  5
15C
330
13D
100
AcDbXrecord
280
1
 90
65537
  0
XRECORD
  5
15D
330
13D
100
AcDbXrecord
280
1
 90
65537
  0
XRECORD
  5
15E
330
13D
100
AcDbXrecord
280
1
1000
auto
  0
XRECORD
  5
15F
330
13D
100
AcDbXrecord
280
1
1000
auto
  0
XRECORD
  5
160
330
13D
100
AcDbXrecord
280
1
1000
auto
  0
XRECORD
  5
161
330
13D
100
AcDbXrecord
280
1
1000
auto
  0
XRECORD
  5
162
330
13D
100
AcDbXrecord
280
1
1000
auto
  0
XRECORD
  5
163
330
13D
100
AcDbXrecord
280
1
1000
auto
  0
XRECORD
  5
164
330
13D
100
AcDbXrecord
280
1
1000
auto
  0
XRECORD
  5
165
330
13D
100
AcDbXrecord
280
1
1000
auto
  0
XRECORD
  5
166
330
13D
100
AcDbXrecord
280
1
 90
1
  0
XRECORD
  5
167
330
13D
100
AcDbXrecord
280
1
 40
10.0
  0
XRECORD
  5
168
330
13D
100
AcDbXrecord
280
1
 40
10.0
  0
XRECORD
  5
169
330
13D
100
AcDbXrecord
280
1
 40
10.0
  0
XRECORD
  5
16A
330
13D
100
AcDbXrecord
280
1
 40
10.0
  0
XRECORD
  5
16B
330
13D
100
AcDbXrecord
280
1
290
0
  0
XRECORD
  5
16C
330
13D
100
AcDbXrecord
280
1
 90
1
  0
XRECORD
  5
16D
330
13D
100
AcDbXrecord
280
1
 40
0.0
  0
XRECORD
  5
16E
330
13D
100
AcDbXrecord
280
1
 40
0.0
  0
XRECORD
  5
16F
330
13D
100
AcDbXrecord
280
1
1000
Portrait
  0
XRECORD
  5
170
330
13D
100
AcDbXrecord
280
1
 40
297.0
  0
XRECORD
  5
171
330
13D
100
AcDbXrecord
280
1
 40
210.0
  0
XRECORD
  5
172
330
13D
100
AcDbXrecord
280
1
1000
1:1
  0
XRECORD
  5
173
330
13D
100
AcDbXrecord
280
1
290
1
  0
XRECORD
  5
174
330
13D
100
AcDbXrecord
280
1
290
0
  0
XRECORD
  5
175
330
13D
100
AcDbXrecord
280
1
1000
Inside
  0
XRECORD
  5
176
330
13D
100
AcDbXrecord
280
1
1000
Arial,10,-1,5,50,0,0,0,0,0
  0
XRECORD
  5
177
330
13D
100
AcDbXrecord
280
1
1000
TopLeft
  0
XRECORD
  5
178
330
13D
100
AcDbXrecord
280
1
1000
3.26.4.2
  0
XRECORD
  5
179
330
13D
100
AcDbXrecord
280
1
 90
4
  0
XRECORD
  5
17B
330
13D
100
AcDbXrecord
280
1
 40
1608.4402478473828069
  0
XRECORD
  5
17C
330
13D
100
AcDbXrecord
280
1
 40
3268.2136950941503528
  0
ENDSEC
  0
EOF
