999
dxflib 3.17.0.0
  0
SECTION
  2
HEADER
  9
$ACADVER
  1
AC1015
  9
$HANDSEED
  5
FFFF
  9
$DIMADEC
 70
0
  9
$DIMASZ
 40
0.125
  9
$DIMAUNIT
 70
0
  9
$DIMAZIN
 70
2
  9
$DIMDEC
 70
2
  9
$DIMDLI
 40
0.25
  9
$DIMDSEP
 70
46
  9
$DIMEXE
 40
0.0625
  9
$DIMEXO
 40
0.03125
  9
$DIMGAP
 40
0.03125
  9
$DIMLUNIT
 70
2
  9
$DIMSCALE
 40
350
  9
$DIMTSZ
 40
0.0
  9
$DIMTXT
 40
0.125
  9
$DIMZIN
 70
8
  9
$DWGCODEPAGE
  3
ANSI_1252
  9
$INSUNITS
 70
5
  9
$LTSCALE
 40
1.0
  9
$MAXACTVP
 70
64
  9
$MEASUREMENT
 70
1
  9
$PDMODE
 70
32
  9
$PDSIZE
 40
0.0
  0
ENDSEC
  0
SECTION
  2
TABLES
  0
TABLE
  2
VPORT
  5
8
100
AcDbSymbolTable
 70
1
  0
VPORT
  5
30
100
AcDbSymbolTableRecord
100
AcDbViewportTableRecord
  2
*Active
 70
0
 10
0.0
 20
0.0
 11
1.0
 21
1.0
 12
286.3055555555554861
 22
148.5
 13
0.0
 23
0.0
 14
10.0
 24
10.0
 15
10.0
 25
10.0
 16
0.0
 26
0.0
 36
1.0
 17
0.0
 27
0.0
 37
0.0
 40
297.0
 41
1.92798353909465
 42
50.0
 43
0.0
 44
0.0
 50
0.0
 51
0.0
 71
0
 72
100
 73
1
 74
3
 75
1
 76
1
 77
0
 78
0
281
0
 65
1
110
0.0
120
0.0
130
0.0
111
1.0
121
0.0
131
0.0
112
0.0
122
1.0
132
0.0
 79
0
146
0.0
  0
ENDTAB
  0
TABLE
  2
LTYPE
  5
5
100
AcDbSymbolTable
 70
41
  0
LTYPE
  5
16
100
AcDbSymbolTableRecord
100
AcDbLinetypeTableRecord
  2
Continuous
 70
0
  3
Solid line
 72
65
 73
0
 40
0.0
  0
LTYPE
  5
31
100
AcDbSymbolTableRecord
100
AcDbLinetypeTableRecord
  2
DASHED2
 70
0
  3
Dashed (.5x) _ _ _ _ _ _ _ _ _ _ _ _ _ _ _ _ _ 
 72
65
 73
2
 40
9.5249999999999986
 49
6.3499999999999996
 74
0
 49
-3.1749999999999998
 74
0
  0
LTYPE
  5
32
100
AcDbSymbolTableRecord
100
AcDbLinetypeTableRecord
  2
DIVIDE
 70
0
  3
Divide ____ . . ____ . . ____ . . ____ . . ____
 72
65
 73
6
 40
31.7500000000000036
 49
12.6999999999999993
 74
0
 49
-6.2999999999999998
 74
0
 49
0.1
 74
0
 49
-6.25
 74
0
 49
0.1
 74
0
 49
-6.2999999999999998
 74
0
  0
LTYPE
  5
33
100
AcDbSymbolTableRecord
100
AcDbLinetypeTableRecord
  2
DOT
 70
0
  3
Dot . . . . . . . . . . . . . . . . . . . . . . . .
 72
65
 73
2
 40
6.3499999999999996
 49
0.1
 74
0
 49
-6.25
 74
0
  0
LTYPE
  5
34
100
AcDbSymbolTableRecord
100
AcDbLinetypeTableRecord
  2
DOTX2
 70
0
  3
Dot (2x) .  .  .  .  .  .  .  .  .  .  .  .  .  .
 72
65
 73
2
 40
12.6999999999999993
 49
0.1
 74
0
 49
-12.5999999999999996
 74
0
  0
LTYPE
  5
35
100
AcDbSymbolTableRecord
100
AcDbLinetypeTableRecord
  2
CENTER2
 70
0
  3
Center (.5x) ___ _ ___ _ ___ _ ___ _ ___ _ ___
 72
65
 73
4
 40
28.5750000000000028
 49
19.0500000000000007
 74
0
 49
-3.1749999999999998
 74
0
 49
3.1749999999999998
 74
0
 49
-3.1749999999999998
 74
0
  0
LTYPE
  5
36
100
AcDbSymbolTableRecord
100
AcDbLinetypeTableRecord
  2
DOT2
 70
0
  3
Dot (.5x) ........................................
 72
65
 73
2
 40
3.1749999999999998
 49
0.1
 74
0
 49
-3.0749999999999997
 74
0
  0
LTYPE
  5
37
100
AcDbSymbolTableRecord
100
AcDbLinetypeTableRecord
  2
PHANTOM
 70
0
  3
Phantom ______  __  __  ______  __  __  ______ 
 72
65
 73
6
 40
63.5000000000000071
 49
31.75
 74
0
 49
-6.3499999999999996
 74
0
 49
6.3499999999999996
 74
0
 49
-6.3499999999999996
 74
0
 49
6.3499999999999996
 74
0
 49
-6.3499999999999996
 74
0
  0
LTYPE
  5
38
100
AcDbSymbolTableRecord
100
AcDbLinetypeTableRecord
  2
BORDER2
 70
0
  3
Border (.5x) __.__.__.__.__.__.__.__.__.__.__.
 72
65
 73
6
 40
22.2250000000000014
 49
6.3499999999999996
 74
0
 49
-3.1749999999999998
 74
0
 49
6.3499999999999996
 74
0
 49
-3.125
 74
0
 49
0.1
 74
0
 49
-3.125
 74
0
  0
LTYPE
  5
39
100
AcDbSymbolTableRecord
100
AcDbLinetypeTableRecord
  2
ACAD_ISO15W100
 70
0
  3
ISO double-dash triple-dot __ __ . . . __ __ . .
 72
65
 73
10
 40
39.0000000000000071
 49
12.0
 74
0
 49
-3.0
 74
0
 49
12.0
 74
0
 49
-2.9500000000000002
 74
0
 49
0.1
 74
0
 49
-2.9000000000000004
 74
0
 49
0.1
 74
0
 49
-2.9000000000000004
 74
0
 49
0.1
 74
0
 49
-2.9500000000000002
 74
0
  0
LTYPE
  5
3A
100
AcDbSymbolTableRecord
100
AcDbLinetypeTableRecord
  2
HIDDENX2
 70
0
  3
Hidden (2x) ____ ____ ____ ____ ____ ____ ____ 
 72
65
 73
2
 40
19.0499999999999972
 49
12.6999999999999993
 74
0
 49
-6.3499999999999996
 74
0
  0
LTYPE
  5
3B
100
AcDbSymbolTableRecord
100
AcDbLinetypeTableRecord
  2
PHANTOMX2
 70
0
  3
Phantom (2x) ____________    ____    ____   _
 72
65
 73
6
 40
127.0000000000000142
 49
63.5
 74
0
 49
-12.6999999999999993
 74
0
 49
12.6999999999999993
 74
0
 49
-12.6999999999999993
 74
0
 49
12.6999999999999993
 74
0
 49
-12.6999999999999993
 74
0
  0
LTYPE
  5
3C
100
AcDbSymbolTableRecord
100
AcDbLinetypeTableRecord
  2
ACAD_ISO10W100
 70
0
  3
ISO dash dot __ . __ . __ . __ . __ . __ . __ . 
 72
65
 73
4
 40
18.0
 49
12.0
 74
0
 49
-2.9500000000000002
 74
0
 49
0.1
 74
0
 49
-2.9500000000000002
 74
0
  0
LTYPE
  5
3D
100
AcDbSymbolTableRecord
100
AcDbLinetypeTableRecord
  2
ACAD_ISO07W100
 70
0
  3
ISO dot . . . . . . . . . . . . . . . . . . . . 
 72
65
 73
2
 40
3.0
 49
0.1
 74
0
 49
-2.8999999999999999
 74
0
  0
LTYPE
  5
3E
100
AcDbSymbolTableRecord
100
AcDbLinetypeTableRecord
  2
ACAD_ISO11W100
 70
0
  3
ISO double-dash dot __ __ . __ __ . __ __ . __ _
 72
65
 73
6
 40
33.0
 49
12.0
 74
0
 49
-3.0
 74
0
 49
12.0
 74
0
 49
-2.9500000000000002
 74
0
 49
0.1
 74
0
 49
-2.9500000000000002
 74
0
  0
LTYPE
  5
3F
100
AcDbSymbolTableRecord
100
AcDbLinetypeTableRecord
  2
HIDDEN
 70
0
  3
Hidden __ __ __ __ __ __ __ __ __ __ __ __ __ __
 72
65
 73
2
 40
9.5249999999999986
 49
6.3499999999999996
 74
0
 49
-3.1749999999999998
 74
0
  0
LTYPE
  5
40
100
AcDbSymbolTableRecord
100
AcDbLinetypeTableRecord
  2
BORDERX2
 70
0
  3
Border (2x) ____  ____  .  ____  ____  .  ___
 72
65
 73
6
 40
88.8999999999999773
 49
25.3999999999999986
 74
0
 49
-12.6999999999999993
 74
0
 49
25.3999999999999986
 74
0
 49
-12.6499999999999986
 74
0
 49
0.1
 74
0
 49
-12.6499999999999986
 74
0
  0
LTYPE
  5
41
100
AcDbSymbolTableRecord
100
AcDbLinetypeTableRecord
  2
CENTERX2
 70
0
  3
Center (2x) ________  __  ________  __  _____
 72
65
 73
4
 40
101.6000000000000085
 49
63.5
 74
0
 49
-12.6999999999999993
 74
0
 49
12.6999999999999993
 74
0
 49
-12.6999999999999993
 74
0
  0
LTYPE
  5
42
100
AcDbSymbolTableRecord
100
AcDbLinetypeTableRecord
  2
ACAD_ISO04W100
 70
0
  3
ISO long-dash dot ____ . ____ . ____ . ____ . _
 72
65
 73
4
 40
30.0
 49
24.0
 74
0
 49
-2.9500000000000002
 74
0
 49
0.1
 74
0
 49
-2.9500000000000002
 74
0
  0
LTYPE
  5
43
100
AcDbSymbolTableRecord
100
AcDbLinetypeTableRecord
  2
ACAD_ISO06W100
 70
0
  3
ISO long-dash triple-dot ____ ... ____ ... ____
 72
65
 73
8
 40
36.0000000000000071
 49
24.0
 74
0
 49
-2.9500000000000002
 74
0
 49
0.1
 74
0
 49
-2.9000000000000004
 74
0
 49
0.1
 74
0
 49
-2.9000000000000004
 74
0
 49
0.1
 74
0
 49
-2.9500000000000002
 74
0
  0
LTYPE
  5
14
100
AcDbSymbolTableRecord
100
AcDbLinetypeTableRecord
  2
BYBLOCK
 70
0
  3

 72
65
 73
0
 40
0.0
  0
LTYPE
  5
44
100
AcDbSymbolTableRecord
100
AcDbLinetypeTableRecord
  2
ACAD_ISO13W100
 70
0
  3
ISO double-dash double-dot __ __ . . __ __ . . _
 72
65
 73
8
 40
36.0000000000000071
 49
12.0
 74
0
 49
-3.0
 74
0
 49
12.0
 74
0
 49
-2.9500000000000002
 74
0
 49
0.1
 74
0
 49
-2.9000000000000004
 74
0
 49
0.1
 74
0
 49
-2.9500000000000002
 74
0
  0
LTYPE
  5
45
100
AcDbSymbolTableRecord
100
AcDbLinetypeTableRecord
  2
DASHDOTX2
 70
0
  3
Dash dot (2x) ____  .  ____  .  ____  .  ___
 72
65
 73
4
 40
50.7999999999999972
 49
25.3999999999999986
 74
0
 49
-12.6499999999999986
 74
0
 49
0.1
 74
0
 49
-12.6499999999999986
 74
0
  0
LTYPE
  5
46
100
AcDbSymbolTableRecord
100
AcDbLinetypeTableRecord
  2
ACAD_ISO05W100
 70
0
  3
ISO long-dash double-dot ____ .. ____ .. ____ . 
 72
65
 73
6
 40
33.0000000000000071
 49
24.0
 74
0
 49
-2.9500000000000002
 74
0
 49
0.1
 74
0
 49
-2.9000000000000004
 74
0
 49
0.1
 74
0
 49
-2.9500000000000002
 74
0
  0
LTYPE
  5
47
100
AcDbSymbolTableRecord
100
AcDbLinetypeTableRecord
  2
DASHDOT
 70
0
  3
Dash dot __ . __ . __ . __ . __ . __ . __ . __
 72
65
 73
4
 40
25.4000000000000021
 49
12.6999999999999993
 74
0
 49
-6.2999999999999998
 74
0
 49
0.1
 74
0
 49
-6.2999999999999998
 74
0
  0
LTYPE
  5
48
100
AcDbSymbolTableRecord
100
AcDbLinetypeTableRecord
  2
ACAD_ISO09W100
 70
0
  3
ISO long-dash double-short-dash ____ __ __ ____
 72
65
 73
6
 40
45.0
 49
24.0
 74
0
 49
-3.0
 74
0
 49
6.0
 74
0
 49
-3.0
 74
0
 49
6.0
 74
0
 49
-3.0
 74
0
  0
LTYPE
  5
49
100
AcDbSymbolTableRecord
100
AcDbLinetypeTableRecord
  2
DIVIDE2
 70
0
  3
Divide (.5x) __..__..__..__..__..__..__..__.._
 72
65
 73
6
 40
15.8749999999999982
 49
6.3499999999999996
 74
0
 49
-3.125
 74
0
 49
0.1
 74
0
 49
-3.0750000000000002
 74
0
 49
0.1
 74
0
 49
-3.125
 74
0
  0
LTYPE
  5
4A
100
AcDbSymbolTableRecord
100
AcDbLinetypeTableRecord
  2
ACAD_ISO03W100
 70
0
  3
ISO dash space __    __    __    __    __    __
 72
65
 73
2
 40
30.0
 49
12.0
 74
0
 49
-18.0
 74
0
  0
LTYPE
  5
4B
100
AcDbSymbolTableRecord
100
AcDbLinetypeTableRecord
  2
ACAD_ISO02W100
 70
0
  3
ISO dash __ __ __ __ __ __ __ __ __ __ __ __ __
 72
65
 73
2
 40
15.0
 49
12.0
 74
0
 49
-3.0
 74
0
  0
LTYPE
  5
4C
100
AcDbSymbolTableRecord
100
AcDbLinetypeTableRecord
  2
PHANTOM2
 70
0
  3
Phantom (.5x) ___ _ _ ___ _ _ ___ _ _ ___ _ _
 72
65
 73
6
 40
31.7500000000000036
 49
15.875
 74
0
 49
-3.1749999999999998
 74
0
 49
3.1749999999999998
 74
0
 49
-3.1749999999999998
 74
0
 49
3.1749999999999998
 74
0
 49
-3.1749999999999998
 74
0
  0
LTYPE
  5
4D
100
AcDbSymbolTableRecord
100
AcDbLinetypeTableRecord
  2
ACAD_ISO12W100
 70
0
  3
ISO dash double-dot __ . . __ . . __ . . __ . . 
 72
65
 73
6
 40
21.0
 49
12.0
 74
0
 49
-2.9500000000000002
 74
0
 49
0.1
 74
0
 49
-2.9000000000000004
 74
0
 49
0.1
 74
0
 49
-2.9500000000000002
 74
0
  0
LTYPE
  5
4E
100
AcDbSymbolTableRecord
100
AcDbLinetypeTableRecord
  2
BORDER
 70
0
  3
Border __ __ . __ __ . __ __ . __ __ . __ __ .
 72
65
 73
6
 40
44.4499999999999957
 49
12.6999999999999993
 74
0
 49
-6.3499999999999996
 74
0
 49
12.6999999999999993
 74
0
 49
-6.2999999999999998
 74
0
 49
0.1
 74
0
 49
-6.2999999999999998
 74
0
  0
LTYPE
  5
15
100
AcDbSymbolTableRecord
100
AcDbLinetypeTableRecord
  2
BYLAYER
 70
0
  3

 72
65
 73
0
 40
0.0
  0
LTYPE
  5
4F
100
AcDbSymbolTableRecord
100
AcDbLinetypeTableRecord
  2
HIDDEN2
 70
0
  3
Hidden (.5x) _ _ _ _ _ _ _ _ _ _ _ _ _ _ _ _ _ 
 72
65
 73
2
 40
4.7624999999999993
 49
3.1749999999999998
 74
0
 49
-1.5874999999999999
 74
0
  0
LTYPE
  5
50
100
AcDbSymbolTableRecord
100
AcDbLinetypeTableRecord
  2
ACAD_ISO14W100
 70
0
  3
ISO dash triple-dot __ . . . __ . . . __ . . . _
 72
65
 73
8
 40
24.0000000000000036
 49
12.0
 74
0
 49
-2.9500000000000002
 74
0
 49
0.1
 74
0
 49
-2.9000000000000004
 74
0
 49
0.1
 74
0
 49
-2.9000000000000004
 74
0
 49
0.1
 74
0
 49
-2.9500000000000002
 74
0
  0
LTYPE
  5
51
100
AcDbSymbolTableRecord
100
AcDbLinetypeTableRecord
  2
DASHED
 70
0
  3
Dashed __ __ __ __ __ __ __ __ __ __ __ __ __ _
 72
65
 73
2
 40
19.0499999999999972
 49
12.6999999999999993
 74
0
 49
-6.3499999999999996
 74
0
  0
LTYPE
  5
52
100
AcDbSymbolTableRecord
100
AcDbLinetypeTableRecord
  2
ACAD_ISO08W100
 70
0
  3
ISO long-dash short-dash ____ __ ____ __ ____ _
 72
65
 73
4
 40
36.0
 49
24.0
 74
0
 49
-3.0
 74
0
 49
6.0
 74
0
 49
-3.0
 74
0
  0
LTYPE
  5
53
100
AcDbSymbolTableRecord
100
AcDbLinetypeTableRecord
  2
DASHEDX2
 70
0
  3
Dashed (2x) ____  ____  ____  ____  ____  ___
 72
65
 73
2
 40
38.0999999999999943
 49
25.3999999999999986
 74
0
 49
-12.6999999999999993
 74
0
  0
LTYPE
  5
54
100
AcDbSymbolTableRecord
100
AcDbLinetypeTableRecord
  2
DASHDOT2
 70
0
  3
Dash dot (.5x) _._._._._._._._._._._._._._._.
 72
65
 73
4
 40
12.6999999999999993
 49
6.3499999999999996
 74
0
 49
-3.125
 74
0
 49
0.1
 74
0
 49
-3.125
 74
0
  0
LTYPE
  5
55
100
AcDbSymbolTableRecord
100
AcDbLinetypeTableRecord
  2
CENTER
 70
0
  3
Center ____ _ ____ _ ____ _ ____ _ ____ _ ____
 72
65
 73
4
 40
50.8000000000000043
 49
31.75
 74
0
 49
-6.3499999999999996
 74
0
 49
6.3499999999999996
 74
0
 49
-6.3499999999999996
 74
0
  0
LTYPE
  5
56
100
AcDbSymbolTableRecord
100
AcDbLinetypeTableRecord
  2
DIVIDEX2
 70
0
  3
Divide (2x) ________  .  .  ________  .  .  _
 72
65
 73
6
 40
63.5
 49
25.3999999999999986
 74
0
 49
-12.6499999999999986
 74
0
 49
0.1
 74
0
 49
-12.5999999999999979
 74
0
 49
0.1
 74
0
 49
-12.6499999999999986
 74
0
  0
ENDTAB
  0
TABLE
  2
LAYER
  5
2
100
AcDbSymbolTable
 70
5
  0
LAYER
  5
57
100
AcDbSymbolTableRecord
100
AcDbLayerTableRecord
  2
Screws
 70
4
 62
30
420
16744192
  6
Continuous
370
25
390
F
  0
LAYER
  5
10
100
AcDbSymbolTableRecord
100
AcDbLayerTableRecord
  2
0
 70
4
 62
14
420
8388608
  6
Continuous
370
25
390
F
  0
LAYER
  5
58
100
AcDbSymbolTableRecord
100
AcDbLayerTableRecord
  2
Dimensions
 70
4
 62
4
420
65535
  6
Continuous
370
25
390
F
  0
LAYER
  5
59
100
AcDbSymbolTableRecord
100
AcDbLayerTableRecord
  2
Backplane
 70
4
 62
1
420
16711680
  6
Continuous
370
25
390
F
  0
LAYER
  5
5A
100
AcDbSymbolTableRecord
100
AcDbLayerTableRecord
  2
Frame
 70
4
 62
7
420
16777215
  6
Continuous
370
25
390
F
  0
ENDTAB
  0
TABLE
  2
STYLE
  5
3
100
AcDbSymbolTable
 70
1
  0
STYLE
  5
5B
100
AcDbSymbolTableRecord
100
AcDbTextStyleTableRecord
  2
Standard
 70
0
 40
0.0
 41
1.0
 50
0.0
 71
0
 42
2.5
  3

  4

1001
ACAD
1000
txt
1071
0
  0
ENDTAB
  0
TABLE
  2
VIEW
  5
6
100
AcDbSymbolTable
 70
0
  0
ENDTAB
  0
TABLE
  2
UCS
  5
7
100
AcDbSymbolTable
 70
0
  0
ENDTAB
  0
TABLE
  2
APPID
  5
9
100
AcDbSymbolTable
 70
1
  0
APPID
  5
12
100
AcDbSymbolTableRecord
100
AcDbRegAppTableRecord
  2
ACAD
 70
0
  0
APPID
  5
5C
100
AcDbSymbolTableRecord
100
AcDbRegAppTableRecord
  2
QCAD
 70
0
  0
ENDTAB
  0
TABLE
  2
DIMSTYLE
  5
A
100
AcDbSymbolTable
 70
1
100
AcDbDimStyleTable
 71
0
  0
DIMSTYLE
105
27
100
AcDbSymbolTableRecord
100
AcDbDimStyleTableRecord
  2
Standard
 41
0.125
 42
0.03125
 43
3.75
 44
0.0625
 70
0
 73
0
 74
0
 77
1
 78
8
140
0.125
141
2.5
143
0.03937007874016
147
0.03125
171
3
172
1
271
2
272
2
274
3
278
44
283
0
284
8
340
5B
  0
ENDTAB
  0
TABLE
  2
BLOCK_RECORD
  5
1
100
AcDbSymbolTable
 70
1
  0
BLOCK_RECORD
  5
1F
100
AcDbSymbolTableRecord
100
AcDbBlockTableRecord
  2
*Model_Space
340
22
  0
BLOCK_RECORD
  5
1B
100
AcDbSymbolTableRecord
100
AcDbBlockTableRecord
  2
*Paper_Space
340
1E
  0
BLOCK_RECORD
  5
23
100
AcDbSymbolTableRecord
100
AcDbBlockTableRecord
  2
*Paper_Space0
340
26
  0
ENDTAB
  0
ENDSEC
  0
SECTION
  2
BLOCKS
  0
BLOCK
  5
20
100
AcDbEntity
  8
0
100
AcDbBlockBegin
  2
*Model_Space
 70
0
 10
0.0
 20
0.0
 30
0.0
  3
*Model_Space
  1

  0
ENDBLK
  5
21
100
AcDbEntity
  8
0
100
AcDbBlockEnd
  0
BLOCK
  5
1C
100
AcDbEntity
 67
1
  8
0
100
AcDbBlockBegin
  2
*Paper_Space
 70
0
 10
0.0
 20
0.0
 30
0.0
  3
*Paper_Space
  1

  0
ENDBLK
  5
1D
100
AcDbEntity
 67
1
  8
0
100
AcDbBlockEnd
  0
BLOCK
  5
24
100
AcDbEntity
  8
0
100
AcDbBlockBegin
  2
*Paper_Space0
 70
0
 10
0.0
 20
0.0
 30
0.0
  3
*Paper_Space0
  1

  0
ENDBLK
  5
25
100
AcDbEntity
  8
0
100
AcDbBlockEnd
  0
ENDSEC
  0
SECTION
  2
ENTITIES
  0
LINE
  5
5D
100
AcDbEntity
  8
Backplane
 62
256
370
-1
 48
1.0
  6
BYLAYER
100
AcDbLine
 10
10.0
 20
-10.0
 30
0.0
 11
162.0
 21
-10.0
 31
0.0
  0
LINE
  5
5E
100
AcDbEntity
  8
Backplane
 62
256
370
-1
 48
1.0
  6
BYLAYER
100
AcDbLine
 10
162.0
 20
-10.0
 30
0.0
 11
162.0
 21
-20.0
 31
0.0
  0
LINE
  5
5F
100
AcDbEntity
  8
Backplane
 62
256
370
-1
 48
1.0
  6
BYLAYER
100
AcDbLine
 10
162.0
 20
-20.0
 30
0.0
 11
10.0
 21
-20.0
 31
0.0
  0
LINE
  5
60
100
AcDbEntity
  8
Backplane
 62
256
370
-1
 48
1.0
  6
BYLAYER
100
AcDbLine
 10
10.0
 20
-20.0
 30
0.0
 11
10.0
 21
-10.0
 31
0.0
  0
LINE
  5
61
100
AcDbEntity
  8
Backplane
 62
256
370
-1
 48
1.0
  6
BYLAYER
100
AcDbLine
 10
162.0
 20
-10.0
 30
0.0
 11
315.0
 21
-10.0
 31
0.0
  0
LINE
  5
62
100
AcDbEntity
  8
Backplane
 62
256
370
-1
 48
1.0
  6
BYLAYER
100
AcDbLine
 10
315.0
 20
-10.0
 30
0.0
 11
315.0
 21
-20.0
 31
0.0
  0
LINE
  5
63
100
AcDbEntity
  8
Backplane
 62
256
370
-1
 48
1.0
  6
BYLAYER
100
AcDbLine
 10
315.0
 20
-20.0
 30
0.0
 11
162.0
 21
-20.0
 31
0.0
  0
LINE
  5
64
100
AcDbEntity
  8
Backplane
 62
256
370
-1
 48
1.0
  6
BYLAYER
100
AcDbLine
 10
162.0
 20
-20.0
 30
0.0
 11
162.0
 21
-10.0
 31
0.0
  0
LINE
  5
65
100
AcDbEntity
  8
Backplane
 62
256
370
-1
 48
1.0
  6
BYLAYER
100
AcDbLine
 10
315.0
 20
-10.0
 30
0.0
 11
467.0
 21
-10.0
 31
0.0
  0
LINE
  5
66
100
AcDbEntity
  8
Backplane
 62
256
370
-1
 48
1.0
  6
BYLAYER
100
AcDbLine
 10
467.0
 20
-10.0
 30
0.0
 11
467.0
 21
-20.0
 31
0.0
  0
LINE
  5
67
100
AcDbEntity
  8
Backplane
 62
256
370
-1
 48
1.0
  6
BYLAYER
100
AcDbLine
 10
467.0
 20
-20.0
 30
0.0
 11
315.0
 21
-20.0
 31
0.0
  0
LINE
  5
68
100
AcDbEntity
  8
Backplane
 62
256
370
-1
 48
1.0
  6
BYLAYER
100
AcDbLine
 10
315.0
 20
-20.0
 30
0.0
 11
315.0
 21
-10.0
 31
0.0
  0
LINE
  5
69
100
AcDbEntity
  8
Backplane
 62
256
370
-1
 48
1.0
  6
BYLAYER
100
AcDbLine
 10
467.0
 20
-10.0
 30
0.0
 11
619.0
 21
-10.0
 31
0.0
  0
LINE
  5
6A
100
AcDbEntity
  8
Backplane
 62
256
370
-1
 48
1.0
  6
BYLAYER
100
AcDbLine
 10
619.0
 20
-10.0
 30
0.0
 11
619.0
 21
-20.0
 31
0.0
  0
LINE
  5
6B
100
AcDbEntity
  8
Backplane
 62
256
370
-1
 48
1.0
  6
BYLAYER
100
AcDbLine
 10
619.0
 20
-20.0
 30
0.0
 11
467.0
 21
-20.0
 31
0.0
  0
LINE
  5
6C
100
AcDbEntity
  8
Backplane
 62
256
370
-1
 48
1.0
  6
BYLAYER
100
AcDbLine
 10
467.0
 20
-20.0
 30
0.0
 11
467.0
 21
-10.0
 31
0.0
  0
LINE
  5
6D
100
AcDbEntity
  8
Backplane
 62
256
370
-1
 48
1.0
  6
BYLAYER
100
AcDbLine
 10
619.0
 20
-10.0
 30
0.0
 11
772.0
 21
-10.0
 31
0.0
  0
LINE
  5
6E
100
AcDbEntity
  8
Backplane
 62
256
370
-1
 48
1.0
  6
BYLAYER
100
AcDbLine
 10
772.0
 20
-10.0
 30
0.0
 11
772.0
 21
-20.0
 31
0.0
  0
LINE
  5
6F
100
AcDbEntity
  8
Backplane
 62
256
370
-1
 48
1.0
  6
BYLAYER
100
AcDbLine
 10
772.0
 20
-20.0
 30
0.0
 11
619.0
 21
-20.0
 31
0.0
  0
LINE
  5
70
100
AcDbEntity
  8
Backplane
 62
256
370
-1
 48
1.0
  6
BYLAYER
100
AcDbLine
 10
619.0
 20
-20.0
 30
0.0
 11
619.0
 21
-10.0
 31
0.0
  0
LINE
  5
71
100
AcDbEntity
  8
Backplane
 62
256
370
-1
 48
1.0
  6
BYLAYER
100
AcDbLine
 10
772.0
 20
-10.0
 30
0.0
 11
924.0
 21
-10.0
 31
0.0
  0
LINE
  5
72
100
AcDbEntity
  8
Backplane
 62
256
370
-1
 48
1.0
  6
BYLAYER
100
AcDbLine
 10
924.0
 20
-10.0
 30
0.0
 11
924.0
 21
-20.0
 31
0.0
  0
LINE
  5
73
100
AcDbEntity
  8
Backplane
 62
256
370
-1
 48
1.0
  6
BYLAYER
100
AcDbLine
 10
924.0
 20
-20.0
 30
0.0
 11
772.0
 21
-20.0
 31
0.0
  0
LINE
  5
74
100
AcDbEntity
  8
Backplane
 62
256
370
-1
 48
1.0
  6
BYLAYER
100
AcDbLine
 10
772.0
 20
-20.0
 30
0.0
 11
772.0
 21
-10.0
 31
0.0
  0
LINE
  5
75
100
AcDbEntity
  8
Backplane
 62
256
370
-1
 48
1.0
  6
BYLAYER
100
AcDbLine
 10
10.0
 20
1915.0
 30
0.0
 11
162.0
 21
1915.0
 31
0.0
  0
LINE
  5
76
100
AcDbEntity
  8
Backplane
 62
256
370
-1
 48
1.0
  6
BYLAYER
100
AcDbLine
 10
162.0
 20
1915.0
 30
0.0
 11
162.0
 21
110.0
 31
0.0
  0
LINE
  5
77
100
AcDbEntity
  8
Backplane
 62
256
370
-1
 48
1.0
  6
BYLAYER
100
AcDbLine
 10
162.0
 20
110.0
 30
0.0
 11
10.0
 21
110.0
 31
0.0
  0
LINE
  5
78
100
AcDbEntity
  8
Backplane
 62
256
370
-1
 48
1.0
  6
BYLAYER
100
AcDbLine
 10
10.0
 20
110.0
 30
0.0
 11
10.0
 21
1915.0
 31
0.0
  0
LINE
  5
79
100
AcDbEntity
  8
Backplane
 62
256
370
-1
 48
1.0
  6
BYLAYER
100
AcDbLine
 10
162.0
 20
110.0
 30
0.0
 11
315.0
 21
110.0
 31
0.0
  0
LINE
  5
7A
100
AcDbEntity
  8
Backplane
 62
256
370
-1
 48
1.0
  6
BYLAYER
100
AcDbLine
 10
315.0
 20
110.0
 30
0.0
 11
315.0
 21
1915.0
 31
0.0
  0
LINE
  5
7B
100
AcDbEntity
  8
Backplane
 62
256
370
-1
 48
1.0
  6
BYLAYER
100
AcDbLine
 10
315.0
 20
1915.0
 30
0.0
 11
162.0
 21
1915.0
 31
0.0
  0
LINE
  5
7C
100
AcDbEntity
  8
Backplane
 62
256
370
-1
 48
1.0
  6
BYLAYER
100
AcDbLine
 10
162.0
 20
1915.0
 30
0.0
 11
162.0
 21
110.0
 31
0.0
  0
LINE
  5
7D
100
AcDbEntity
  8
Backplane
 62
256
370
-1
 48
1.0
  6
BYLAYER
100
AcDbLine
 10
315.0
 20
1915.0
 30
0.0
 11
467.0
 21
1915.0
 31
0.0
  0
LINE
  5
7E
100
AcDbEntity
  8
Backplane
 62
256
370
-1
 48
1.0
  6
BYLAYER
100
AcDbLine
 10
467.0
 20
1915.0
 30
0.0
 11
467.0
 21
110.0
 31
0.0
  0
LINE
  5
7F
100
AcDbEntity
  8
Backplane
 62
256
370
-1
 48
1.0
  6
BYLAYER
100
AcDbLine
 10
467.0
 20
110.0
 30
0.0
 11
315.0
 21
110.0
 31
0.0
  0
LINE
  5
80
100
AcDbEntity
  8
Backplane
 62
256
370
-1
 48
1.0
  6
BYLAYER
100
AcDbLine
 10
315.0
 20
110.0
 30
0.0
 11
315.0
 21
1915.0
 31
0.0
  0
LINE
  5
81
100
AcDbEntity
  8
Backplane
 62
256
370
-1
 48
1.0
  6
BYLAYER
100
AcDbLine
 10
467.0
 20
110.0
 30
0.0
 11
619.0
 21
110.0
 31
0.0
  0
LINE
  5
82
100
AcDbEntity
  8
Backplane
 62
256
370
-1
 48
1.0
  6
BYLAYER
100
AcDbLine
 10
619.0
 20
110.0
 30
0.0
 11
619.0
 21
1915.0
 31
0.0
  0
LINE
  5
83
100
AcDbEntity
  8
Backplane
 62
256
370
-1
 48
1.0
  6
BYLAYER
100
AcDbLine
 10
619.0
 20
1915.0
 30
0.0
 11
467.0
 21
1915.0
 31
0.0
  0
LINE
  5
84
100
AcDbEntity
  8
Backplane
 62
256
370
-1
 48
1.0
  6
BYLAYER
100
AcDbLine
 10
467.0
 20
1915.0
 30
0.0
 11
467.0
 21
110.0
 31
0.0
  0
LINE
  5
85
100
AcDbEntity
  8
Backplane
 62
256
370
-1
 48
1.0
  6
BYLAYER
100
AcDbLine
 10
619.0
 20
1915.0
 30
0.0
 11
772.0
 21
1915.0
 31
0.0
  0
LINE
  5
86
100
AcDbEntity
  8
Backplane
 62
256
370
-1
 48
1.0
  6
BYLAYER
100
AcDbLine
 10
772.0
 20
1915.0
 30
0.0
 11
772.0
 21
110.0
 31
0.0
  0
LINE
  5
87
100
AcDbEntity
  8
Backplane
 62
256
370
-1
 48
1.0
  6
BYLAYER
100
AcDbLine
 10
772.0
 20
110.0
 30
0.0
 11
619.0
 21
110.0
 31
0.0
  0
LINE
  5
88
100
AcDbEntity
  8
Backplane
 62
256
370
-1
 48
1.0
  6
BYLAYER
100
AcDbLine
 10
619.0
 20
110.0
 30
0.0
 11
619.0
 21
1915.0
 31
0.0
  0
LINE
  5
89
100
AcDbEntity
  8
Backplane
 62
256
370
-1
 48
1.0
  6
BYLAYER
100
AcDbLine
 10
772.0
 20
110.0
 30
0.0
 11
924.0
 21
110.0
 31
0.0
  0
LINE
  5
8A
100
AcDbEntity
  8
Backplane
 62
256
370
-1
 48
1.0
  6
BYLAYER
100
AcDbLine
 10
924.0
 20
110.0
 30
0.0
 11
924.0
 21
1915.0
 31
0.0
  0
LINE
  5
8B
100
AcDbEntity
  8
Backplane
 62
256
370
-1
 48
1.0
  6
BYLAYER
100
AcDbLine
 10
924.0
 20
1915.0
 30
0.0
 11
772.0
 21
1915.0
 31
0.0
  0
LINE
  5
8C
100
AcDbEntity
  8
Backplane
 62
256
370
-1
 48
1.0
  6
BYLAYER
100
AcDbLine
 10
772.0
 20
1915.0
 30
0.0
 11
772.0
 21
110.0
 31
0.0
  0
HATCH
  5
8D
100
AcDbEntity
  8
Backplane
 62
256
370
-1
 48
1.0
  6
BYLAYER
100
AcDbHatch
 10
0.0
 20
0.0
 30
0.0
210
0.0
220
0.0
230
1.0
  2
LINE
 70
0
 71
0
 91
3
 92
1
 93
8
 72
1
 10
162.0
 20
-20.0
 11
10.0
 21
-20.0
 72
1
 10
10.0
 20
-20.0
 11
10.0
 21
-10.0
 72
1
 10
10.0
 20
-10.0
 11
162.0
 21
-10.0
 72
1
 10
162.0
 20
-10.0
 11
315.0
 21
-10.0
 72
1
 10
315.0
 20
-10.0
 11
315.0
 21
-20.0
 72
1
 10
315.0
 20
-20.0
 11
162.0
 21
-20.0
 72
1
 10
162.0
 20
-20.0
 11
162.0
 21
-10.0
 72
1
 10
162.0
 20
-10.0
 11
162.0
 21
-20.0
 97
0
 92
1
 93
4
 72
1
 10
315.0
 20
-10.0
 11
467.0
 21
-10.0
 72
1
 10
467.0
 20
-10.0
 11
467.0
 21
-20.0
 72
1
 10
467.0
 20
-20.0
 11
315.0
 21
-20.0
 72
1
 10
315.0
 20
-20.0
 11
315.0
 21
-10.0
 97
0
 92
1
 93
12
 72
1
 10
772.0
 20
-20.0
 11
619.0
 21
-20.0
 72
1
 10
619.0
 20
-20.0
 11
619.0
 21
-10.0
 72
1
 10
619.0
 20
-10.0
 11
467.0
 21
-10.0
 72
1
 10
467.0
 20
-10.0
 11
467.0
 21
-20.0
 72
1
 10
467.0
 20
-20.0
 11
619.0
 21
-20.0
 72
1
 10
619.0
 20
-20.0
 11
619.0
 21
-10.0
 72
1
 10
619.0
 20
-10.0
 11
772.0
 21
-10.0
 72
1
 10
772.0
 20
-10.0
 11
924.0
 21
-10.0
 72
1
 10
924.0
 20
-10.0
 11
924.0
 21
-20.0
 72
1
 10
924.0
 20
-20.0
 11
772.0
 21
-20.0
 72
1
 10
772.0
 20
-20.0
 11
772.0
 21
-10.0
 72
1
 10
772.0
 20
-10.0
 11
772.0
 21
-20.0
 97
0
 75
0
 76
1
 52
45.0
 41
1.0
 77
0
 78
1
 53
45.0
 43
0.0
 44
0.0
 45
-0.0883883476483184
 46
0.0883883476483185
 79
0
 98
0
1001
ACAD
1010
0.0
1020
0.0
1030
0
  0
HATCH
  5
8E
100
AcDbEntity
  8
Backplane
 62
256
370
-1
 48
1.0
  6
BYLAYER
100
AcDbHatch
 10
0.0
 20
0.0
 30
0.0
210
0.0
220
0.0
230
1.0
  2
LINE
 70
0
 71
0
 91
2
 92
1
 93
12
 72
1
 10
315.0
 20
1915.0
 11
467.0
 21
1915.0
 72
1
 10
467.0
 20
1915.0
 11
467.0
 21
110.0
 72
1
 10
467.0
 20
110.0
 11
315.0
 21
110.0
 72
1
 10
315.0
 20
110.0
 11
315.0
 21
1915.0
 72
1
 10
315.0
 20
1915.0
 11
315.0
 21
110.0
 72
1
 10
315.0
 20
110.0
 11
162.0
 21
110.0
 72
1
 10
162.0
 20
110.0
 11
162.0
 21
1915.0
 72
1
 10
162.0
 20
1915.0
 11
10.0
 21
1915.0
 72
1
 10
10.0
 20
1915.0
 11
10.0
 21
110.0
 72
1
 10
10.0
 20
110.0
 11
162.0
 21
110.0
 72
1
 10
162.0
 20
110.0
 11
162.0
 21
1915.0
 72
1
 10
162.0
 20
1915.0
 11
315.0
 21
1915.0
 97
0
 92
1
 93
12
 72
1
 10
772.0
 20
110.0
 11
924.0
 21
110.0
 72
1
 10
924.0
 20
110.0
 11
924.0
 21
1915.0
 72
1
 10
924.0
 20
1915.0
 11
772.0
 21
1915.0
 72
1
 10
772.0
 20
1915.0
 11
772.0
 21
110.0
 72
1
 10
772.0
 20
110.0
 11
772.0
 21
1915.0
 72
1
 10
772.0
 20
1915.0
 11
619.0
 21
1915.0
 72
1
 10
619.0
 20
1915.0
 11
619.0
 21
110.0
 72
1
 10
619.0
 20
110.0
 11
467.0
 21
110.0
 72
1
 10
467.0
 20
110.0
 11
467.0
 21
1915.0
 72
1
 10
467.0
 20
1915.0
 11
619.0
 21
1915.0
 72
1
 10
619.0
 20
1915.0
 11
619.0
 21
110.0
 72
1
 10
619.0
 20
110.0
 11
772.0
 21
110.0
 97
0
 75
0
 76
1
 52
45.0
 41
1.0
 77
0
 78
1
 53
45.0
 43
0.0
 44
0.0
 45
-0.0883883476483184
 46
0.0883883476483185
 79
0
 98
0
1001
ACAD
1010
0.0
1020
0.0
1030
0
  0
XLINE
  5
8F
100
AcDbEntity
  8
0
 62
256
370
-1
 48
1.0
  6
BYLAYER
100
AcDbLine
 10
10.0
 20
290.0
 30
0.0
 11
0.0
 21
1.0
 31
0.0
  0
XLINE
  5
90
100
AcDbEntity
  8
0
 62
256
370
-1
 48
1.0
  6
BYLAYER
100
AcDbLine
 10
338.0
 20
10.0
 30
0.0
 11
1.0
 21
0.0
 31
0.0
  0
LINE
  5
91
100
AcDbEntity
  8
0
 62
256
370
-1
 48
1.0
  6
BYLAYER
100
AcDbLine
 10
0.0
 20
0.0
 30
0.0
 11
-3535.5339059327375253
 21
-3535.53390593273798
 31
0.0
  0
XLINE
  5
92
100
AcDbEntity
  8
0
 62
256
370
-1
 48
1.0
  6
BYLAYER
100
AcDbLine
 10
80.0
 20
-10.0
 30
0.0
 11
1.0
 21
0.0
 31
0.0
  0
XLINE
  5
93
100
AcDbEntity
  8
0
 62
256
370
-1
 48
1.0
  6
BYLAYER
100
AcDbLine
 10
-9.9999999999999982
 20
-10.0
 30
0.0
 11
0.0
 21
1.0
 31
0.0
  0
XLINE
  5
94
100
AcDbEntity
  8
0
 62
256
370
-1
 48
1.0
  6
BYLAYER
100
AcDbLine
 10
924.0
 20
1915.0
 30
0.0
 11
0.0
 21
1.0
 31
0.0
  0
XLINE
  5
95
100
AcDbEntity
  8
0
 62
256
370
-1
 48
1.0
  6
BYLAYER
100
AcDbLine
 10
924.0
 20
1915.0
 30
0.0
 11
1.0
 21
0.0
 31
0.0
  0
XLINE
  5
96
100
AcDbEntity
  8
0
 62
256
370
-1
 48
1.0
  6
BYLAYER
100
AcDbLine
 10
60.0
 20
1915.0
 30
0.0
 11
0.0
 21
1.0
 31
0.0
  0
XLINE
  5
97
100
AcDbEntity
  8
0
 62
256
370
-1
 48
1.0
  6
BYLAYER
100
AcDbLine
 10
873.0
 20
1915.0
 30
0.0
 11
0.0
 21
1.0
 31
0.0
  0
XLINE
  5
98
100
AcDbEntity
  8
0
 62
256
370
-1
 48
1.0
  6
BYLAYER
100
AcDbLine
 10
60.0
 20
1890.0
 30
0.0
 11
1.0
 21
0.0
 31
0.0
  0
XLINE
  5
99
100
AcDbEntity
  8
0
 62
256
370
-1
 48
1.0
  6
BYLAYER
100
AcDbLine
 10
60.0
 20
1559.0
 30
0.0
 11
1.0
 21
0.0
 31
0.0
  0
XLINE
  5
9A
100
AcDbEntity
  8
0
 62
256
370
-1
 48
1.0
  6
BYLAYER
100
AcDbLine
 10
60.0
 20
1534.0
 30
0.0
 11
1.0
 21
0.0
 31
0.0
  0
XLINE
  5
9B
100
AcDbEntity
  8
0
 62
256
370
-1
 48
1.0
  6
BYLAYER
100
AcDbLine
 10
60.0
 20
1203.0
 30
0.0
 11
1.0
 21
0.0
 31
0.0
  0
XLINE
  5
9C
100
AcDbEntity
  8
0
 62
256
370
-1
 48
1.0
  6
BYLAYER
100
AcDbLine
 10
60.0
 20
1178.0
 30
0.0
 11
1.0
 21
0.0
 31
0.0
  0
XLINE
  5
9D
100
AcDbEntity
  8
0
 62
256
370
-1
 48
1.0
  6
BYLAYER
100
AcDbLine
 10
60.0
 20
847.0
 30
0.0
 11
1.0
 21
0.0
 31
0.0
  0
XLINE
  5
9E
100
AcDbEntity
  8
0
 62
256
370
-1
 48
1.0
  6
BYLAYER
100
AcDbLine
 10
60.0
 20
822.0
 30
0.0
 11
1.0
 21
0.0
 31
0.0
  0
XLINE
  5
9F
100
AcDbEntity
  8
0
 62
256
370
-1
 48
1.0
  6
BYLAYER
100
AcDbLine
 10
60.0
 20
491.0
 30
0.0
 11
1.0
 21
0.0
 31
0.0
  0
XLINE
  5
A0
100
AcDbEntity
  8
0
 62
256
370
-1
 48
1.0
  6
BYLAYER
100
AcDbLine
 10
60.0
 20
466.0
 30
0.0
 11
1.0
 21
0.0
 31
0.0
  0
XLINE
  5
A1
100
AcDbEntity
  8
0
 62
256
370
-1
 48
1.0
  6
BYLAYER
100
AcDbLine
 10
60.0
 20
135.0
 30
0.0
 11
1.0
 21
0.0
 31
0.0
  0
XLINE
  5
A2
100
AcDbEntity
  8
0
 62
256
370
-1
 48
1.0
  6
BYLAYER
100
AcDbLine
 10
60.0
 20
110.0
 30
0.0
 11
1.0
 21
0.0
 31
0.0
  0
XLINE
  5
A3
100
AcDbEntity
  8
0
 62
256
370
-1
 48
1.0
  6
BYLAYER
100
AcDbLine
 10
873.0
 20
1902.5
 30
0.0
 11
1.0
 21
0.0
 31
0.0
  0
XLINE
  5
A4
100
AcDbEntity
  8
0
 62
256
370
-1
 48
1.0
  6
BYLAYER
100
AcDbLine
 10
873.0
 20
1546.5
 30
0.0
 11
1.0
 21
0.0
 31
0.0
  0
XLINE
  5
A5
100
AcDbEntity
  8
0
 62
256
370
-1
 48
1.0
  6
BYLAYER
100
AcDbLine
 10
873.0
 20
1190.5
 30
0.0
 11
1.0
 21
0.0
 31
0.0
  0
XLINE
  5
A6
100
AcDbEntity
  8
0
 62
256
370
-1
 48
1.0
  6
BYLAYER
100
AcDbLine
 10
873.0
 20
834.5
 30
0.0
 11
1.0
 21
0.0
 31
0.0
  0
XLINE
  5
A7
100
AcDbEntity
  8
0
 62
256
370
-1
 48
1.0
  6
BYLAYER
100
AcDbLine
 10
873.0
 20
478.5
 30
0.0
 11
1.0
 21
0.0
 31
0.0
  0
XLINE
  5
A8
100
AcDbEntity
  8
0
 62
256
370
-1
 48
1.0
  6
BYLAYER
100
AcDbLine
 10
873.0
 20
122.5
 30
0.0
 11
1.0
 21
0.0
 31
0.0
  0
XLINE
  5
A9
100
AcDbEntity
  8
0
 62
256
370
-1
 48
1.0
  6
BYLAYER
100
AcDbLine
 10
919.3301270189228944
 20
1905.0
 30
0.0
 11
1.0
 21
0.0
 31
0.0
  0
XLINE
  5
AA
100
AcDbEntity
  8
0
 62
256
370
-1
 48
1.0
  6
BYLAYER
100
AcDbLine
 10
919.3301270189225534
 20
1899.9999999999997726
 30
0.0
 11
1.0
 21
0.0
 31
0.0
  0
XLINE
  5
AB
100
AcDbEntity
  8
0
 62
256
370
-1
 48
1.0
  6
BYLAYER
100
AcDbLine
 10
923.9999999999997726
 20
1907.6961524227065183
 30
0.0
 11
1.0
 21
0.0
 31
0.0
  0
XLINE
  5
AC
100
AcDbEntity
  8
0
 62
256
370
-1
 48
1.0
  6
BYLAYER
100
AcDbLine
 10
923.9999999999998863
 20
1897.3038475772927995
 30
0.0
 11
1.0
 21
0.0
 31
0.0
  0
XLINE
  5
AD
100
AcDbEntity
  8
0
 62
256
370
-1
 48
1.0
  6
BYLAYER
100
AcDbLine
 10
924.0000000000002274
 20
1551.6961524227067457
 30
0.0
 11
1.0
 21
0.0
 31
0.0
  0
XLINE
  5
AE
100
AcDbEntity
  8
0
 62
256
370
-1
 48
1.0
  6
BYLAYER
100
AcDbLine
 10
923.9999999999998863
 20
1541.3038475772925722
 30
0.0
 11
1.0
 21
0.0
 31
0.0
  0
XLINE
  5
AF
100
AcDbEntity
  8
0
 62
256
370
-1
 48
1.0
  6
BYLAYER
100
AcDbLine
 10
919.3301270189210754
 20
1544.0
 30
0.0
 11
1.0
 21
0.0
 31
0.0
  0
XLINE
  5
B0
100
AcDbEntity
  8
0
 62
256
370
-1
 48
1.0
  6
BYLAYER
100
AcDbLine
 10
919.3301270189228944
 20
1549.0
 30
0.0
 11
1.0
 21
0.0
 31
0.0
  0
XLINE
  5
B1
100
AcDbEntity
  8
0
 62
256
370
-1
 48
1.0
  6
BYLAYER
100
AcDbLine
 10
924.0
 20
1195.6961524227067457
 30
0.0
 11
1.0
 21
0.0
 31
0.0
  0
XLINE
  5
B2
100
AcDbEntity
  8
0
 62
256
370
-1
 48
1.0
  6
BYLAYER
100
AcDbLine
 10
919.3301270189228944
 20
1193.0
 30
0.0
 11
1.0
 21
0.0
 31
0.0
  0
XLINE
  5
B3
100
AcDbEntity
  8
0
 62
256
370
-1
 48
1.0
  6
BYLAYER
100
AcDbLine
 10
919.330127018922326
 20
1188.0
 30
0.0
 11
1.0
 21
0.0
 31
0.0
  0
XLINE
  5
B4
100
AcDbEntity
  8
0
 62
256
370
-1
 48
1.0
  6
BYLAYER
100
AcDbLine
 10
924.0
 20
1185.3038475772927995
 30
0.0
 11
1.0
 21
0.0
 31
0.0
  0
XLINE
  5
B5
100
AcDbEntity
  8
0
 62
256
370
-1
 48
1.0
  6
BYLAYER
100
AcDbLine
 10
924.0000000000001137
 20
839.6961524227065183
 30
0.0
 11
1.0
 21
0.0
 31
0.0
  0
XLINE
  5
B6
100
AcDbEntity
  8
0
 62
256
370
-1
 48
1.0
  6
BYLAYER
100
AcDbLine
 10
919.330127018922326
 20
836.9999999999998863
 30
0.0
 11
1.0
 21
0.0
 31
0.0
  0
XLINE
  5
B7
100
AcDbEntity
  8
0
 62
256
370
-1
 48
1.0
  6
BYLAYER
100
AcDbLine
 10
919.3301270189213028
 20
832.0
 30
0.0
 11
1.0
 21
0.0
 31
0.0
  0
XLINE
  5
B8
100
AcDbEntity
  8
0
 62
256
370
-1
 48
1.0
  6
BYLAYER
100
AcDbLine
 10
923.9999999999998863
 20
829.3038475772927995
 30
0.0
 11
1.0
 21
0.0
 31
0.0
  0
XLINE
  5
B9
100
AcDbEntity
  8
0
 62
256
370
-1
 48
1.0
  6
BYLAYER
100
AcDbLine
 10
924.0000000000001137
 20
483.6961524227065183
 30
0.0
 11
1.0
 21
0.0
 31
0.0
  0
XLINE
  5
BA
100
AcDbEntity
  8
0
 62
256
370
-1
 48
1.0
  6
BYLAYER
100
AcDbLine
 10
919.3301270189224397
 20
481.0000000000000568
 30
0.0
 11
1.0
 21
0.0
 31
0.0
  0
XLINE
  5
BB
100
AcDbEntity
  8
0
 62
256
370
-1
 48
1.0
  6
BYLAYER
100
AcDbLine
 10
919.3301270189219849
 20
476.0
 30
0.0
 11
1.0
 21
0.0
 31
0.0
  0
XLINE
  5
BC
100
AcDbEntity
  8
0
 62
256
370
-1
 48
1.0
  6
BYLAYER
100
AcDbLine
 10
924.0000000000001137
 20
473.3038475772929701
 30
0.0
 11
1.0
 21
0.0
 31
0.0
  0
XLINE
  5
BD
100
AcDbEntity
  8
0
 62
256
370
-1
 48
1.0
  6
BYLAYER
100
AcDbLine
 10
924.0000000000001137
 20
127.6961524227065041
 30
0.0
 11
1.0
 21
0.0
 31
0.0
  0
XLINE
  5
BE
100
AcDbEntity
  8
0
 62
256
370
-1
 48
1.0
  6
BYLAYER
100
AcDbLine
 10
919.330127018922326
 20
125.0
 30
0.0
 11
1.0
 21
0.0
 31
0.0
  0
XLINE
  5
BF
100
AcDbEntity
  8
0
 62
256
370
-1
 48
1.0
  6
BYLAYER
100
AcDbLine
 10
919.3301270189220986
 20
120.0000000000000142
 30
0.0
 11
1.0
 21
0.0
 31
0.0
  0
XLINE
  5
C0
100
AcDbEntity
  8
0
 62
256
370
-1
 48
1.0
  6
BYLAYER
100
AcDbLine
 10
924.0000000000001137
 20
117.3038475772929985
 30
0.0
 11
1.0
 21
0.0
 31
0.0
  0
XLINE
  5
C1
100
AcDbEntity
  8
0
 62
256
370
-1
 48
1.0
  6
BYLAYER
100
AcDbLine
 10
817.6698729810777877
 20
122.5
 30
0.0
 11
0.0
 21
1.0
 31
0.0
  0
XLINE
  5
C2
100
AcDbEntity
  8
0
 62
256
370
-1
 48
1.0
  6
BYLAYER
100
AcDbLine
 10
116.3301270189226386
 20
122.5
 30
0.0
 11
0.0
 21
1.0
 31
0.0
  0
XLINE
  5
C3
100
AcDbEntity
  8
0
 62
256
370
-1
 48
1.0
  6
BYLAYER
100
AcDbLine
 10
112.0000000000008669
 20
125.0
 30
0.0
 11
0.0
 21
1.0
 31
0.0
  0
XLINE
  5
C4
100
AcDbEntity
  8
0
 62
256
370
-1
 48
1.0
  6
BYLAYER
100
AcDbLine
 10
14.6698729810787043
 20
125.0000000000000142
 30
0.0
 11
0.0
 21
1.0
 31
0.0
  0
XLINE
  5
C5
100
AcDbEntity
  8
0
 62
256
370
-1
 48
1.0
  6
BYLAYER
100
AcDbLine
 10
919.3301270189220986
 20
120.0000000000000142
 30
0.0
 11
0.0
 21
1.0
 31
0.0
  0
XLINE
  5
C6
100
AcDbEntity
  8
0
 62
256
370
-1
 48
1.0
  6
BYLAYER
100
AcDbLine
 10
822.0
 20
120.0
 30
0.0
 11
0.0
 21
1.0
 31
0.0
  0
XLINE
  5
C7
100
AcDbEntity
  8
0
 62
256
370
-1
 48
1.0
  6
BYLAYER
100
AcDbLine
 10
80.0
 20
-20.0
 30
0.0
 11
1.0
 21
0.0
 31
0.0
  0
XLINE
  5
C8
100
AcDbEntity
  8
0
 62
256
370
-1
 48
1.0
  6
BYLAYER
100
AcDbLine
 10
924.0
 20
-396.0
 30
0.0
 11
1.0
 21
0.0
 31
0.0
  0
XLINE
  5
C9
100
AcDbEntity
  8
0
 62
256
370
-1
 48
1.0
  6
BYLAYER
100
AcDbLine
 10
-19.9999999999999964
 20
-20.0
 30
0.0
 11
0.0
 21
1.0
 31
0.0
  0
XLINE
  5
CA
100
AcDbEntity
  8
0
 62
256
370
-1
 48
1.0
  6
BYLAYER
100
AcDbLine
 10
-395.9999999999999432
 20
-396.0
 30
0.0
 11
0.0
 21
1.0
 31
0.0
  0
XLINE
  5
CB
100
AcDbEntity
  8
0
 62
256
370
-1
 48
1.0
  6
BYLAYER
100
AcDbLine
 10
919.3301270189219849
 20
-68.5000000000000853
 30
0.0
 11
1.0
 21
0.0
 31
0.0
  0
XLINE
  5
CC
100
AcDbEntity
  8
0
 62
256
370
-1
 48
1.0
  6
BYLAYER
100
AcDbLine
 10
924.0000000000001137
 20
-65.8038475772934675
 30
0.0
 11
1.0
 21
0.0
 31
0.0
  0
XLINE
  5
CD
100
AcDbEntity
  8
0
 62
256
370
-1
 48
1.0
  6
BYLAYER
100
AcDbLine
 10
924.0000000000001137
 20
-76.1961524227069589
 30
0.0
 11
1.0
 21
0.0
 31
0.0
  0
XLINE
  5
CE
100
AcDbEntity
  8
0
 62
256
370
-1
 48
1.0
  6
BYLAYER
100
AcDbLine
 10
919.3301270189215302
 20
-73.5
 30
0.0
 11
1.0
 21
0.0
 31
0.0
  0
XLINE
  5
CF
100
AcDbEntity
  8
0
 62
256
370
-1
 48
1.0
  6
BYLAYER
100
AcDbLine
 10
817.6698729810777877
 20
-71.0
 30
0.0
 11
1.0
 21
0.0
 31
0.0
  0
XLINE
  5
D0
100
AcDbEntity
  8
0
 62
256
370
-1
 48
1.0
  6
BYLAYER
100
AcDbLine
 10
923.9999999999997726
 20
-339.8038475772931406
 30
0.0
 11
1.0
 21
0.0
 31
0.0
  0
XLINE
  5
D1
100
AcDbEntity
  8
0
 62
256
370
-1
 48
1.0
  6
BYLAYER
100
AcDbLine
 10
919.3301270189227807
 20
-342.4999999999997726
 30
0.0
 11
1.0
 21
0.0
 31
0.0
  0
XLINE
  5
D2
100
AcDbEntity
  8
0
 62
256
370
-1
 48
1.0
  6
BYLAYER
100
AcDbLine
 10
919.3301270189215302
 20
-347.4999999999997726
 30
0.0
 11
1.0
 21
0.0
 31
0.0
  0
XLINE
  5
D3
100
AcDbEntity
  8
0
 62
256
370
-1
 48
1.0
  6
BYLAYER
100
AcDbLine
 10
924.0000000000001137
 20
-350.1961524227067457
 30
0.0
 11
1.0
 21
0.0
 31
0.0
  0
XLINE
  5
D4
100
AcDbEntity
  8
0
 62
256
370
-1
 48
1.0
  6
BYLAYER
100
AcDbLine
 10
817.6698729810777877
 20
-344.9999999999997726
 30
0.0
 11
1.0
 21
0.0
 31
0.0
  0
XLINE
  5
D5
100
AcDbEntity
  8
0
 62
256
370
-1
 48
1.0
  6
BYLAYER
100
AcDbLine
 10
-65.8038475772934532
 20
-65.8038475772934675
 30
0.0
 11
0.0
 21
1.0
 31
0.0
  0
XLINE
  5
D6
100
AcDbEntity
  8
0
 62
256
370
-1
 48
1.0
  6
BYLAYER
100
AcDbLine
 10
-68.5000000000000711
 20
-68.5000000000000853
 30
0.0
 11
0.0
 21
1.0
 31
0.0
  0
XLINE
  5
D7
100
AcDbEntity
  8
0
 62
256
370
-1
 48
1.0
  6
BYLAYER
100
AcDbLine
 10
-70.9999999999999858
 20
-71.0
 30
0.0
 11
0.0
 21
1.0
 31
0.0
  0
XLINE
  5
D8
100
AcDbEntity
  8
0
 62
256
370
-1
 48
1.0
  6
BYLAYER
100
AcDbLine
 10
-73.4999999999999858
 20
-73.5
 30
0.0
 11
0.0
 21
1.0
 31
0.0
  0
XLINE
  5
D9
100
AcDbEntity
  8
0
 62
256
370
-1
 48
1.0
  6
BYLAYER
100
AcDbLine
 10
-76.1961524227069447
 20
-76.1961524227069589
 30
0.0
 11
0.0
 21
1.0
 31
0.0
  0
XLINE
  5
DA
100
AcDbEntity
  8
0
 62
256
370
-1
 48
1.0
  6
BYLAYER
100
AcDbLine
 10
-339.8038475772930838
 20
-339.8038475772931406
 30
0.0
 11
0.0
 21
1.0
 31
0.0
  0
XLINE
  5
DB
100
AcDbEntity
  8
0
 62
256
370
-1
 48
1.0
  6
BYLAYER
100
AcDbLine
 10
-342.4999999999997726
 20
-342.4999999999997726
 30
0.0
 11
0.0
 21
1.0
 31
0.0
  0
XLINE
  5
DC
100
AcDbEntity
  8
0
 62
256
370
-1
 48
1.0
  6
BYLAYER
100
AcDbLine
 10
-344.9999999999997158
 20
-344.9999999999997726
 30
0.0
 11
0.0
 21
1.0
 31
0.0
  0
XLINE
  5
DD
100
AcDbEntity
  8
0
 62
256
370
-1
 48
1.0
  6
BYLAYER
100
AcDbLine
 10
-347.4999999999997726
 20
-347.4999999999997726
 30
0.0
 11
0.0
 21
1.0
 31
0.0
  0
XLINE
  5
DE
100
AcDbEntity
  8
0
 62
256
370
-1
 48
1.0
  6
BYLAYER
100
AcDbLine
 10
-350.1961524227066889
 20
-350.1961524227067457
 30
0.0
 11
0.0
 21
1.0
 31
0.0
  0
XLINE
  5
DF
100
AcDbEntity
  8
0
 62
256
370
-1
 48
1.0
  6
BYLAYER
100
AcDbLine
 10
162.0
 20
-20.0
 30
0.0
 11
0.0
 21
1.0
 31
0.0
  0
XLINE
  5
E0
100
AcDbEntity
  8
0
 62
256
370
-1
 48
1.0
  6
BYLAYER
100
AcDbLine
 10
315.0
 20
-20.0
 30
0.0
 11
0.0
 21
1.0
 31
0.0
  0
XLINE
  5
E1
100
AcDbEntity
  8
0
 62
256
370
-1
 48
1.0
  6
BYLAYER
100
AcDbLine
 10
467.0
 20
-20.0
 30
0.0
 11
0.0
 21
1.0
 31
0.0
  0
XLINE
  5
E2
100
AcDbEntity
  8
0
 62
256
370
-1
 48
1.0
  6
BYLAYER
100
AcDbLine
 10
619.0
 20
-20.0
 30
0.0
 11
0.0
 21
1.0
 31
0.0
  0
XLINE
  5
E3
100
AcDbEntity
  8
0
 62
256
370
-1
 48
1.0
  6
BYLAYER
100
AcDbLine
 10
772.0
 20
-20.0
 30
0.0
 11
0.0
 21
1.0
 31
0.0
  0
DIMENSION
  5
E4
100
AcDbEntity
  8
Dimensions
 62
256
370
-1
 48
1.0
  6
BYLAYER
100
AcDbDimension
 10
1300.0
 20
10.0
 30
0.0
 11
1267.1875
 21
962.5
 31
0.0
 70
0
 71
8
 72
2
 74
0
 75
0
 41
1.0
 42
0.0
  1

  3
Standard
100
AcDbAlignedDimension
 13
910.0
 23
10.0
 33
0.0
 14
924.0
 24
1915.0
 34
0.0
 50
90.0
100
AcDbRotatedDimension
1001
ACAD
1000
DSTYLE
1002
{
1070
144
1040
1.0
1070
40
1040
350.0
1002
}
  0
DIMENSION
  5
E5
100
AcDbEntity
  8
Dimensions
 62
256
370
-1
 48
1.0
  6
BYLAYER
100
AcDbDimension
 10
10.0
 20
2000.0
 30
0.0
 11
467.0
 21
2032.8125
 31
0.0
 70
0
 71
8
 72
2
 74
0
 75
0
 41
1.0
 42
0.0
  1

  3
Standard
100
AcDbAlignedDimension
 13
10.0
 23
1915.0
 33
0.0
 14
924.0
 24
1915.0
 34
0.0
 50
0.0
100
AcDbRotatedDimension
1001
ACAD
1000
DSTYLE
1002
{
1070
144
1040
1.0
1070
40
1040
350.0
1002
}
  0
LINE
  5
E6
100
AcDbEntity
  8
Frame
 62
256
370
-1
 48
1.0
  6
BYLAYER
100
AcDbLine
 10
10.0
 20
1915.0
 30
0.0
 11
60.0
 21
1915.0
 31
0.0
  0
LINE
  5
E7
100
AcDbEntity
  8
Frame
 62
256
370
-1
 48
1.0
  6
BYLAYER
100
AcDbLine
 10
60.0
 20
1915.0
 30
0.0
 11
60.0
 21
10.0
 31
0.0
  0
LINE
  5
E8
100
AcDbEntity
  8
Frame
 62
256
370
-1
 48
1.0
  6
BYLAYER
100
AcDbLine
 10
60.0
 20
10.0
 30
0.0
 11
10.0
 21
10.0
 31
0.0
  0
LINE
  5
E9
100
AcDbEntity
  8
Frame
 62
256
370
-1
 48
1.0
  6
BYLAYER
100
AcDbLine
 10
10.0
 20
10.0
 30
0.0
 11
10.0
 21
1915.0
 31
0.0
  0
LINE
  5
EA
100
AcDbEntity
  8
Frame
 62
256
370
-1
 48
1.0
  6
BYLAYER
100
AcDbLine
 10
924.0
 20
10.0
 30
0.0
 11
873.0
 21
10.0
 31
0.0
  0
LINE
  5
EB
100
AcDbEntity
  8
Frame
 62
256
370
-1
 48
1.0
  6
BYLAYER
100
AcDbLine
 10
873.0
 20
10.0
 30
0.0
 11
873.0
 21
1915.0
 31
0.0
  0
LINE
  5
EC
100
AcDbEntity
  8
Frame
 62
256
370
-1
 48
1.0
  6
BYLAYER
100
AcDbLine
 10
873.0
 20
1915.0
 30
0.0
 11
924.0
 21
1915.0
 31
0.0
  0
LINE
  5
ED
100
AcDbEntity
  8
Frame
 62
256
370
-1
 48
1.0
  6
BYLAYER
100
AcDbLine
 10
924.0
 20
1915.0
 30
0.0
 11
924.0
 21
10.0
 31
0.0
  0
HATCH
  5
EE
100
AcDbEntity
  8
Frame
 62
256
370
-1
 48
1.0
  6
BYLAYER
100
AcDbHatch
 10
0.0
 20
0.0
 30
0.0
210
0.0
220
0.0
230
1.0
  2
LINE
 70
0
 71
0
 91
2
 92
1
 93
4
 72
1
 10
10.0
 20
1915.0
 11
60.0
 21
1915.0
 72
1
 10
60.0
 20
1915.0
 11
60.0
 21
10.0
 72
1
 10
60.0
 20
10.0
 11
10.0
 21
10.0
 72
1
 10
10.0
 20
10.0
 11
10.0
 21
1915.0
 97
0
 92
1
 93
4
 72
1
 10
924.0
 20
10.0
 11
873.0
 21
10.0
 72
1
 10
873.0
 20
10.0
 11
873.0
 21
1915.0
 72
1
 10
873.0
 20
1915.0
 11
924.0
 21
1915.0
 72
1
 10
924.0
 20
1915.0
 11
924.0
 21
10.0
 97
0
 75
0
 76
1
 52
45.0
 41
1.0
 77
0
 78
1
 53
45.0
 43
0.0
 44
0.0
 45
-0.0883883476483184
 46
0.0883883476483185
 79
0
 98
0
1001
ACAD
1010
0.0
1020
0.0
1030
0
  0
LINE
  5
EF
100
AcDbEntity
  8
Frame
 62
256
370
-1
 48
1.0
  6
BYLAYER
100
AcDbLine
 10
60.0
 20
1915.0
 30
0.0
 11
873.0
 21
1915.0
 31
0.0
  0
LINE
  5
F0
100
AcDbEntity
  8
Frame
 62
256
370
-1
 48
1.0
  6
BYLAYER
100
AcDbLine
 10
60.0
 20
1559.0
 30
0.0
 11
873.0
 21
1559.0
 31
0.0
  0
LINE
  5
F1
100
AcDbEntity
  8
Frame
 62
256
370
-1
 48
1.0
  6
BYLAYER
100
AcDbLine
 10
60.0
 20
1203.0
 30
0.0
 11
873.0
 21
1203.0
 31
0.0
  0
LINE
  5
F2
100
AcDbEntity
  8
Frame
 62
256
370
-1
 48
1.0
  6
BYLAYER
100
AcDbLine
 10
60.0
 20
847.0
 30
0.0
 11
873.0
 21
847.0
 31
0.0
  0
LINE
  5
F3
100
AcDbEntity
  8
Frame
 62
256
370
-1
 48
1.0
  6
BYLAYER
100
AcDbLine
 10
60.0
 20
491.0
 30
0.0
 11
873.0
 21
491.0
 31
0.0
  0
LINE
  5
F4
100
AcDbEntity
  8
Frame
 62
256
370
-1
 48
1.0
  6
BYLAYER
100
AcDbLine
 10
60.0
 20
135.0
 30
0.0
 11
873.0
 21
135.0
 31
0.0
  0
LINE
  5
F5
100
AcDbEntity
  8
Frame
 62
256
370
-1
 48
1.0
  6
BYLAYER
100
AcDbLine
 10
873.0
 20
1915.0
 30
0.0
 11
873.0
 21
1890.0
 31
0.0
  0
LINE
  5
F6
100
AcDbEntity
  8
Frame
 62
256
370
-1
 48
1.0
  6
BYLAYER
100
AcDbLine
 10
873.0
 20
1559.0
 30
0.0
 11
873.0
 21
1534.0
 31
0.0
  0
LINE
  5
F7
100
AcDbEntity
  8
Frame
 62
256
370
-1
 48
1.0
  6
BYLAYER
100
AcDbLine
 10
873.0
 20
1203.0
 30
0.0
 11
873.0
 21
1178.0
 31
0.0
  0
LINE
  5
F8
100
AcDbEntity
  8
Frame
 62
256
370
-1
 48
1.0
  6
BYLAYER
100
AcDbLine
 10
873.0
 20
847.0
 30
0.0
 11
873.0
 21
822.0
 31
0.0
  0
LINE
  5
F9
100
AcDbEntity
  8
Frame
 62
256
370
-1
 48
1.0
  6
BYLAYER
100
AcDbLine
 10
873.0
 20
491.0
 30
0.0
 11
873.0
 21
466.0
 31
0.0
  0
LINE
  5
FA
100
AcDbEntity
  8
Frame
 62
256
370
-1
 48
1.0
  6
BYLAYER
100
AcDbLine
 10
873.0
 20
135.0
 30
0.0
 11
873.0
 21
110.0
 31
0.0
  0
LINE
  5
FB
100
AcDbEntity
  8
Frame
 62
256
370
-1
 48
1.0
  6
BYLAYER
100
AcDbLine
 10
873.0
 20
1890.0
 30
0.0
 11
60.0
 21
1890.0
 31
0.0
  0
LINE
  5
FC
100
AcDbEntity
  8
Frame
 62
256
370
-1
 48
1.0
  6
BYLAYER
100
AcDbLine
 10
873.0
 20
1534.0
 30
0.0
 11
60.0
 21
1534.0
 31
0.0
  0
LINE
  5
FD
100
AcDbEntity
  8
Frame
 62
256
370
-1
 48
1.0
  6
BYLAYER
100
AcDbLine
 10
873.0
 20
1178.0
 30
0.0
 11
60.0
 21
1178.0
 31
0.0
  0
LINE
  5
FE
100
AcDbEntity
  8
Frame
 62
256
370
-1
 48
1.0
  6
BYLAYER
100
AcDbLine
 10
873.0
 20
822.0
 30
0.0
 11
60.0
 21
822.0
 31
0.0
  0
LINE
  5
FF
100
AcDbEntity
  8
Frame
 62
256
370
-1
 48
1.0
  6
BYLAYER
100
AcDbLine
 10
873.0
 20
466.0
 30
0.0
 11
60.0
 21
466.0
 31
0.0
  0
LINE
  5
100
100
AcDbEntity
  8
Frame
 62
256
370
-1
 48
1.0
  6
BYLAYER
100
AcDbLine
 10
873.0
 20
110.0
 30
0.0
 11
60.0
 21
110.0
 31
0.0
  0
LINE
  5
101
100
AcDbEntity
  8
Frame
 62
256
370
-1
 48
1.0
  6
BYLAYER
100
AcDbLine
 10
60.0
 20
1890.0
 30
0.0
 11
60.0
 21
1915.0
 31
0.0
  0
LINE
  5
102
100
AcDbEntity
  8
Frame
 62
256
370
-1
 48
1.0
  6
BYLAYER
100
AcDbLine
 10
60.0
 20
1534.0
 30
0.0
 11
60.0
 21
1559.0
 31
0.0
  0
LINE
  5
103
100
AcDbEntity
  8
Frame
 62
256
370
-1
 48
1.0
  6
BYLAYER
100
AcDbLine
 10
60.0
 20
1178.0
 30
0.0
 11
60.0
 21
1203.0
 31
0.0
  0
LINE
  5
104
100
AcDbEntity
  8
Frame
 62
256
370
-1
 48
1.0
  6
BYLAYER
100
AcDbLine
 10
60.0
 20
822.0
 30
0.0
 11
60.0
 21
847.0
 31
0.0
  0
LINE
  5
105
100
AcDbEntity
  8
Frame
 62
256
370
-1
 48
1.0
  6
BYLAYER
100
AcDbLine
 10
60.0
 20
466.0
 30
0.0
 11
60.0
 21
491.0
 31
0.0
  0
LINE
  5
106
100
AcDbEntity
  8
Frame
 62
256
370
-1
 48
1.0
  6
BYLAYER
100
AcDbLine
 10
60.0
 20
110.0
 30
0.0
 11
60.0
 21
135.0
 31
0.0
  0
HATCH
  5
107
100
AcDbEntity
  8
Frame
 62
256
370
-1
 48
1.0
  6
BYLAYER
100
AcDbHatch
 10
0.0
 20
0.0
 30
0.0
210
0.0
220
0.0
230
1.0
  2
LINE
 70
0
 71
0
 91
1
 92
1
 93
4
 72
1
 10
60.0
 20
1915.0
 11
873.0
 21
1915.0
 72
1
 10
873.0
 20
1915.0
 11
873.0
 21
1890.0
 72
1
 10
873.0
 20
1890.0
 11
60.0
 21
1890.0
 72
1
 10
60.0
 20
1890.0
 11
60.0
 21
1915.0
 97
0
 75
0
 76
1
 52
45.0
 41
1.0
 77
0
 78
1
 53
45.0
 43
0.0
 44
0.0
 45
-0.0883883476483184
 46
0.0883883476483185
 79
0
 98
0
1001
ACAD
1010
0.0
1020
0.0
1030
0
  0
HATCH
  5
108
100
AcDbEntity
  8
Frame
 62
256
370
-1
 48
1.0
  6
BYLAYER
100
AcDbHatch
 10
0.0
 20
0.0
 30
0.0
210
0.0
220
0.0
230
1.0
  2
LINE
 70
0
 71
0
 91
1
 92
1
 93
4
 72
1
 10
60.0
 20
1559.0
 11
873.0
 21
1559.0
 72
1
 10
873.0
 20
1559.0
 11
873.0
 21
1534.0
 72
1
 10
873.0
 20
1534.0
 11
60.0
 21
1534.0
 72
1
 10
60.0
 20
1534.0
 11
60.0
 21
1559.0
 97
0
 75
0
 76
1
 52
45.0
 41
1.0
 77
0
 78
1
 53
45.0
 43
0.0
 44
0.0
 45
-0.0883883476483184
 46
0.0883883476483185
 79
0
 98
0
1001
ACAD
1010
0.0
1020
0.0
1030
0
  0
HATCH
  5
109
100
AcDbEntity
  8
Frame
 62
256
370
-1
 48
1.0
  6
BYLAYER
100
AcDbHatch
 10
0.0
 20
0.0
 30
0.0
210
0.0
220
0.0
230
1.0
  2
LINE
 70
0
 71
0
 91
1
 92
1
 93
4
 72
1
 10
60.0
 20
1203.0
 11
873.0
 21
1203.0
 72
1
 10
873.0
 20
1203.0
 11
873.0
 21
1178.0
 72
1
 10
873.0
 20
1178.0
 11
60.0
 21
1178.0
 72
1
 10
60.0
 20
1178.0
 11
60.0
 21
1203.0
 97
0
 75
0
 76
1
 52
45.0
 41
1.0
 77
0
 78
1
 53
45.0
 43
0.0
 44
0.0
 45
-0.0883883476483184
 46
0.0883883476483185
 79
0
 98
0
1001
ACAD
1010
0.0
1020
0.0
1030
0
  0
HATCH
  5
10A
100
AcDbEntity
  8
Frame
 62
256
370
-1
 48
1.0
  6
BYLAYER
100
AcDbHatch
 10
0.0
 20
0.0
 30
0.0
210
0.0
220
0.0
230
1.0
  2
LINE
 70
0
 71
0
 91
1
 92
1
 93
4
 72
1
 10
60.0
 20
847.0
 11
873.0
 21
847.0
 72
1
 10
873.0
 20
847.0
 11
873.0
 21
822.0
 72
1
 10
873.0
 20
822.0
 11
60.0
 21
822.0
 72
1
 10
60.0
 20
822.0
 11
60.0
 21
847.0
 97
0
 75
0
 76
1
 52
45.0
 41
1.0
 77
0
 78
1
 53
45.0
 43
0.0
 44
0.0
 45
-0.0883883476483184
 46
0.0883883476483185
 79
0
 98
0
1001
ACAD
1010
0.0
1020
0.0
1030
0
  0
HATCH
  5
10B
100
AcDbEntity
  8
Frame
 62
256
370
-1
 48
1.0
  6
BYLAYER
100
AcDbHatch
 10
0.0
 20
0.0
 30
0.0
210
0.0
220
0.0
230
1.0
  2
LINE
 70
0
 71
0
 91
1
 92
1
 93
4
 72
1
 10
60.0
 20
491.0
 11
873.0
 21
491.0
 72
1
 10
873.0
 20
491.0
 11
873.0
 21
466.0
 72
1
 10
873.0
 20
466.0
 11
60.0
 21
466.0
 72
1
 10
60.0
 20
466.0
 11
60.0
 21
491.0
 97
0
 75
0
 76
1
 52
45.0
 41
1.0
 77
0
 78
1
 53
45.0
 43
0.0
 44
0.0
 45
-0.0883883476483184
 46
0.0883883476483185
 79
0
 98
0
1001
ACAD
1010
0.0
1020
0.0
1030
0
  0
HATCH
  5
10C
100
AcDbEntity
  8
Frame
 62
256
370
-1
 48
1.0
  6
BYLAYER
100
AcDbHatch
 10
0.0
 20
0.0
 30
0.0
210
0.0
220
0.0
230
1.0
  2
LINE
 70
0
 71
0
 91
1
 92
1
 93
4
 72
1
 10
60.0
 20
135.0
 11
873.0
 21
135.0
 72
1
 10
873.0
 20
135.0
 11
873.0
 21
110.0
 72
1
 10
873.0
 20
110.0
 11
60.0
 21
110.0
 72
1
 10
60.0
 20
110.0
 11
60.0
 21
135.0
 97
0
 75
0
 76
1
 52
45.0
 41
1.0
 77
0
 78
1
 53
45.0
 43
0.0
 44
0.0
 45
-0.0883883476483184
 46
0.0883883476483185
 79
0
 98
0
1001
ACAD
1010
0.0
1020
0.0
1030
0
  0
DIMENSION
  5
10D
100
AcDbEntity
  8
Dimensions
 62
256
370
-1
 48
1.0
  6
BYLAYER
100
AcDbDimension
 10
1100.0
 20
1915.0
 30
0.0
 11
1067.1875
 21
1961.4980358581788096
 31
0.0
 70
0
 71
8
 72
2
 74
0
 75
0
 41
1.0
 42
0.0
  1

  3
Standard
100
AcDbAlignedDimension
 13
873.0
 23
1915.0
 33
0.0
 14
873.0
 24
1890.0
 34
0.0
 50
90.0
100
AcDbRotatedDimension
1001
ACAD
1000
DSTYLE
1002
{
1070
144
1040
1.0
1070
40
1040
350.0
1002
}
  0
DIMENSION
  5
10E
100
AcDbEntity
  8
Dimensions
 62
256
370
-1
 48
1.0
  6
BYLAYER
100
AcDbDimension
 10
1200.0
 20
1890.0
 30
0.0
 11
1167.1875
 21
1724.5
 31
0.0
 70
0
 71
8
 72
2
 74
0
 75
0
 41
1.0
 42
0.0
  1

  3
Standard
100
AcDbAlignedDimension
 13
873.0
 23
1890.0
 33
0.0
 14
873.0
 24
1559.0
 34
0.0
 50
90.0
100
AcDbRotatedDimension
1001
ACAD
1000
DSTYLE
1002
{
1070
144
1040
1.0
1070
40
1040
350.0
1002
}
  0
DIMENSION
  5
10F
100
AcDbEntity
  8
Dimensions
 62
256
370
-1
 48
1.0
  6
BYLAYER
100
AcDbDimension
 10
1100.0
 20
1559.0
 30
0.0
 11
1067.1875
 21
1605.4980358581788096
 31
0.0
 70
0
 71
8
 72
2
 74
0
 75
0
 41
1.0
 42
0.0
  1

  3
Standard
100
AcDbAlignedDimension
 13
873.0
 23
1559.0
 33
0.0
 14
873.0
 24
1534.0
 34
0.0
 50
90.0
100
AcDbRotatedDimension
1001
ACAD
1000
DSTYLE
1002
{
1070
144
1040
1.0
1070
40
1040
350.0
1002
}
  0
DIMENSION
  5
110
100
AcDbEntity
  8
Dimensions
 62
256
370
-1
 48
1.0
  6
BYLAYER
100
AcDbDimension
 10
1200.0
 20
1534.0
 30
0.0
 11
1167.1875
 21
1368.5
 31
0.0
 70
0
 71
8
 72
2
 74
0
 75
0
 41
1.0
 42
0.0
  1

  3
Standard
100
AcDbAlignedDimension
 13
873.0
 23
1534.0
 33
0.0
 14
873.0
 24
1203.0
 34
0.0
 50
90.0
100
AcDbRotatedDimension
1001
ACAD
1000
DSTYLE
1002
{
1070
144
1040
1.0
1070
40
1040
350.0
1002
}
  0
DIMENSION
  5
111
100
AcDbEntity
  8
Dimensions
 62
256
370
-1
 48
1.0
  6
BYLAYER
100
AcDbDimension
 10
1100.0
 20
1203.0
 30
0.0
 11
1067.1875
 21
1249.4980358581788096
 31
0.0
 70
0
 71
8
 72
2
 74
0
 75
0
 41
1.0
 42
0.0
  1

  3
Standard
100
AcDbAlignedDimension
 13
873.0
 23
1203.0
 33
0.0
 14
873.0
 24
1178.0
 34
0.0
 50
90.0
100
AcDbRotatedDimension
1001
ACAD
1000
DSTYLE
1002
{
1070
144
1040
1.0
1070
40
1040
350.0
1002
}
  0
DIMENSION
  5
112
100
AcDbEntity
  8
Dimensions
 62
256
370
-1
 48
1.0
  6
BYLAYER
100
AcDbDimension
 10
1200.0
 20
1178.0
 30
0.0
 11
1167.1875
 21
1012.5
 31
0.0
 70
0
 71
8
 72
2
 74
0
 75
0
 41
1.0
 42
0.0
  1

  3
Standard
100
AcDbAlignedDimension
 13
873.0
 23
1178.0
 33
0.0
 14
873.0
 24
847.0
 34
0.0
 50
90.0
100
AcDbRotatedDimension
1001
ACAD
1000
DSTYLE
1002
{
1070
144
1040
1.0
1070
40
1040
350.0
1002
}
  0
DIMENSION
  5
113
100
AcDbEntity
  8
Dimensions
 62
256
370
-1
 48
1.0
  6
BYLAYER
100
AcDbDimension
 10
1100.0
 20
847.0
 30
0.0
 11
1067.1875
 21
893.4980358581789233
 31
0.0
 70
0
 71
8
 72
2
 74
0
 75
0
 41
1.0
 42
0.0
  1

  3
Standard
100
AcDbAlignedDimension
 13
873.0
 23
847.0
 33
0.0
 14
873.0
 24
822.0
 34
0.0
 50
90.0
100
AcDbRotatedDimension
1001
ACAD
1000
DSTYLE
1002
{
1070
144
1040
1.0
1070
40
1040
350.0
1002
}
  0
DIMENSION
  5
114
100
AcDbEntity
  8
Dimensions
 62
256
370
-1
 48
1.0
  6
BYLAYER
100
AcDbDimension
 10
1200.0
 20
822.0
 30
0.0
 11
1167.1875
 21
656.5
 31
0.0
 70
0
 71
8
 72
2
 74
0
 75
0
 41
1.0
 42
0.0
  1

  3
Standard
100
AcDbAlignedDimension
 13
873.0
 23
822.0
 33
0.0
 14
873.0
 24
491.0
 34
0.0
 50
90.0
100
AcDbRotatedDimension
1001
ACAD
1000
DSTYLE
1002
{
1070
144
1040
1.0
1070
40
1040
350.0
1002
}
  0
DIMENSION
  5
115
100
AcDbEntity
  8
Dimensions
 62
256
370
-1
 48
1.0
  6
BYLAYER
100
AcDbDimension
 10
1100.0
 20
491.0
 30
0.0
 11
1067.1875
 21
537.4980358581789233
 31
0.0
 70
0
 71
8
 72
2
 74
0
 75
0
 41
1.0
 42
0.0
  1

  3
Standard
100
AcDbAlignedDimension
 13
873.0
 23
491.0
 33
0.0
 14
873.0
 24
466.0
 34
0.0
 50
90.0
100
AcDbRotatedDimension
1001
ACAD
1000
DSTYLE
1002
{
1070
144
1040
1.0
1070
40
1040
350.0
1002
}
  0
DIMENSION
  5
116
100
AcDbEntity
  8
Dimensions
 62
256
370
-1
 48
1.0
  6
BYLAYER
100
AcDbDimension
 10
1200.0
 20
466.0
 30
0.0
 11
1167.1875
 21
300.5
 31
0.0
 70
0
 71
8
 72
2
 74
0
 75
0
 41
1.0
 42
0.0
  1

  3
Standard
100
AcDbAlignedDimension
 13
873.0
 23
466.0
 33
0.0
 14
873.0
 24
135.0
 34
0.0
 50
90.0
100
AcDbRotatedDimension
1001
ACAD
1000
DSTYLE
1002
{
1070
144
1040
1.0
1070
40
1040
350.0
1002
}
  0
DIMENSION
  5
117
100
AcDbEntity
  8
Dimensions
 62
256
370
-1
 48
1.0
  6
BYLAYER
100
AcDbDimension
 10
1100.0
 20
135.0
 30
0.0
 11
1067.1875
 21
181.4980358581788948
 31
0.0
 70
0
 71
8
 72
2
 74
0
 75
0
 41
1.0
 42
0.0
  1

  3
Standard
100
AcDbAlignedDimension
 13
873.0
 23
135.0
 33
0.0
 14
873.0
 24
110.0
 34
0.0
 50
90.0
100
AcDbRotatedDimension
1001
ACAD
1000
DSTYLE
1002
{
1070
144
1040
1.0
1070
40
1040
350.0
1002
}
  0
DIMENSION
  5
118
100
AcDbEntity
  8
Dimensions
 62
256
370
-1
 48
1.0
  6
BYLAYER
100
AcDbDimension
 10
10.0
 20
2100.0
 30
0.0
 11
107.1255539887187638
 21
2132.8125
 31
0.0
 70
0
 71
8
 72
2
 74
0
 75
0
 41
1.0
 42
0.0
  1

  3
Standard
100
AcDbAlignedDimension
 13
10.0
 23
1915.0
 33
0.0
 14
60.0
 24
1915.0
 34
0.0
 50
0.0
100
AcDbRotatedDimension
1001
ACAD
1000
DSTYLE
1002
{
1070
144
1040
1.0
1070
40
1040
350.0
1002
}
  0
DIMENSION
  5
119
100
AcDbEntity
  8
Dimensions
 62
256
370
-1
 48
1.0
  6
BYLAYER
100
AcDbDimension
 10
873.0
 20
2100.0
 30
0.0
 11
970.3499697824335044
 21
2132.8125
 31
0.0
 70
0
 71
8
 72
2
 74
0
 75
0
 41
1.0
 42
0.0
  1

  3
Standard
100
AcDbAlignedDimension
 13
873.0
 23
1890.0
 33
0.0
 14
924.0
 24
1890.0
 34
0.0
 50
0.0
100
AcDbRotatedDimension
1001
ACAD
1000
DSTYLE
1002
{
1070
144
1040
1.0
1070
40
1040
350.0
1002
}
  0
LINE
  5
11A
100
AcDbEntity
  8
Frame
 62
256
370
-1
 48
1.0
  6
BYLAYER
100
AcDbLine
 10
10.0
 20
-20.0
 30
0.0
 11
60.0
 21
-20.0
 31
0.0
  0
LINE
  5
11B
100
AcDbEntity
  8
Frame
 62
256
370
-1
 48
1.0
  6
BYLAYER
100
AcDbLine
 10
60.0
 20
-20.0
 30
0.0
 11
60.0
 21
-396.0
 31
0.0
  0
LINE
  5
11C
100
AcDbEntity
  8
Frame
 62
256
370
-1
 48
1.0
  6
BYLAYER
100
AcDbLine
 10
60.0
 20
-396.0
 30
0.0
 11
10.0
 21
-396.0
 31
0.0
  0
LINE
  5
11D
100
AcDbEntity
  8
Frame
 62
256
370
-1
 48
1.0
  6
BYLAYER
100
AcDbLine
 10
10.0
 20
-396.0
 30
0.0
 11
10.0
 21
-20.0
 31
0.0
  0
HATCH
  5
11E
100
AcDbEntity
  8
Frame
 62
256
370
-1
 48
1.0
  6
BYLAYER
100
AcDbHatch
 10
0.0
 20
0.0
 30
0.0
210
0.0
220
0.0
230
1.0
  2
LINE
 70
0
 71
0
 91
1
 92
1
 93
4
 72
1
 10
10.0
 20
-20.0
 11
60.0
 21
-20.0
 72
1
 10
60.0
 20
-20.0
 11
60.0
 21
-396.0
 72
1
 10
60.0
 20
-396.0
 11
10.0
 21
-396.0
 72
1
 10
10.0
 20
-396.0
 11
10.0
 21
-20.0
 97
0
 75
0
 76
1
 52
45.0
 41
1.0
 77
0
 78
1
 53
45.0
 43
0.0
 44
0.0
 45
-0.0883883476483184
 46
0.0883883476483185
 79
0
 98
0
1001
ACAD
1010
0.0
1020
0.0
1030
0
  0
LINE
  5
11F
100
AcDbEntity
  8
Frame
 62
256
370
-1
 48
1.0
  6
BYLAYER
100
AcDbLine
 10
60.0
 20
-20.0
 30
0.0
 11
873.0
 21
-20.0
 31
0.0
  0
LINE
  5
120
100
AcDbEntity
  8
Frame
 62
256
370
-1
 48
1.0
  6
BYLAYER
100
AcDbLine
 10
873.0
 20
-20.0
 30
0.0
 11
873.0
 21
-396.0
 31
0.0
  0
LINE
  5
121
100
AcDbEntity
  8
Frame
 62
256
370
-1
 48
1.0
  6
BYLAYER
100
AcDbLine
 10
873.0
 20
-396.0
 30
0.0
 11
60.0
 21
-396.0
 31
0.0
  0
LINE
  5
122
100
AcDbEntity
  8
Frame
 62
256
370
-1
 48
1.0
  6
BYLAYER
100
AcDbLine
 10
60.0
 20
-396.0
 30
0.0
 11
60.0
 21
-20.0
 31
0.0
  0
LINE
  5
123
100
AcDbEntity
  8
Frame
 62
256
370
-1
 48
1.0
  6
BYLAYER
100
AcDbLine
 10
873.0
 20
-20.0
 30
0.0
 11
924.0
 21
-20.0
 31
0.0
  0
LINE
  5
124
100
AcDbEntity
  8
Frame
 62
256
370
-1
 48
1.0
  6
BYLAYER
100
AcDbLine
 10
924.0
 20
-20.0
 30
0.0
 11
924.0
 21
-396.0
 31
0.0
  0
LINE
  5
125
100
AcDbEntity
  8
Frame
 62
256
370
-1
 48
1.0
  6
BYLAYER
100
AcDbLine
 10
924.0
 20
-396.0
 30
0.0
 11
873.0
 21
-396.0
 31
0.0
  0
LINE
  5
126
100
AcDbEntity
  8
Frame
 62
256
370
-1
 48
1.0
  6
BYLAYER
100
AcDbLine
 10
873.0
 20
-396.0
 30
0.0
 11
873.0
 21
-20.0
 31
0.0
  0
HATCH
  5
127
100
AcDbEntity
  8
Frame
 62
256
370
-1
 48
1.0
  6
BYLAYER
100
AcDbHatch
 10
0.0
 20
0.0
 30
0.0
210
0.0
220
0.0
230
1.0
  2
LINE
 70
0
 71
0
 91
1
 92
1
 93
4
 72
1
 10
60.0
 20
-20.0
 11
60.0
 21
-396.0
 72
1
 10
60.0
 20
-396.0
 11
873.0
 21
-396.0
 72
1
 10
873.0
 20
-396.0
 11
873.0
 21
-20.0
 72
1
 10
873.0
 20
-20.0
 11
60.0
 21
-20.0
 97
0
 75
0
 76
1
 52
45.0
 41
1.0
 77
0
 78
1
 53
45.0
 43
0.0
 44
0.0
 45
-0.0883883476483184
 46
0.0883883476483185
 79
0
 98
0
1001
ACAD
1010
0.0
1020
0.0
1030
0
  0
HATCH
  5
128
100
AcDbEntity
  8
Frame
 62
256
370
-1
 48
1.0
  6
BYLAYER
100
AcDbHatch
 10
0.0
 20
0.0
 30
0.0
210
0.0
220
0.0
230
1.0
  2
LINE
 70
0
 71
0
 91
1
 92
1
 93
4
 72
1
 10
873.0
 20
-20.0
 11
873.0
 21
-396.0
 72
1
 10
873.0
 20
-396.0
 11
924.0
 21
-396.0
 72
1
 10
924.0
 20
-396.0
 11
924.0
 21
-20.0
 72
1
 10
924.0
 20
-20.0
 11
873.0
 21
-20.0
 97
0
 75
0
 76
1
 52
45.0
 41
1.0
 77
0
 78
1
 53
45.0
 43
0.0
 44
0.0
 45
-0.0883883476483184
 46
0.0883883476483185
 79
0
 98
0
1001
ACAD
1010
0.0
1020
0.0
1030
0
  0
LINE
  5
129
100
AcDbEntity
  8
Backplane
 62
256
370
-1
 48
1.0
  6
BYLAYER
100
AcDbLine
 10
-9.9999999999999982
 20
110.0
 30
0.0
 11
-19.9999999999999964
 21
110.0
 31
0.0
  0
LINE
  5
12A
100
AcDbEntity
  8
Backplane
 62
256
370
-1
 48
1.0
  6
BYLAYER
100
AcDbLine
 10
-19.9999999999999964
 20
110.0
 30
0.0
 11
-19.9999999999999964
 21
1915.0
 31
0.0
  0
LINE
  5
12B
100
AcDbEntity
  8
Backplane
 62
256
370
-1
 48
1.0
  6
BYLAYER
100
AcDbLine
 10
-19.9999999999999964
 20
1915.0
 30
0.0
 11
-9.9999999999999982
 21
1915.0
 31
0.0
  0
LINE
  5
12C
100
AcDbEntity
  8
Backplane
 62
256
370
-1
 48
1.0
  6
BYLAYER
100
AcDbLine
 10
-9.9999999999999982
 20
1915.0
 30
0.0
 11
-9.9999999999999982
 21
110.0
 31
0.0
  0
HATCH
  5
12D
100
AcDbEntity
  8
Backplane
 62
256
370
-1
 48
1.0
  6
BYLAYER
100
AcDbHatch
 10
0.0
 20
0.0
 30
0.0
210
0.0
220
0.0
230
1.0
  2
LINE
 70
0
 71
0
 91
1
 92
1
 93
4
 72
1
 10
-9.9999999999999982
 20
110.0
 11
-19.9999999999999964
 21
110.0
 72
1
 10
-19.9999999999999964
 20
110.0
 11
-19.9999999999999964
 21
1915.0
 72
1
 10
-19.9999999999999964
 20
1915.0
 11
-9.9999999999999982
 21
1915.0
 72
1
 10
-9.9999999999999982
 20
1915.0
 11
-9.9999999999999982
 21
110.0
 97
0
 75
0
 76
1
 52
45.0
 41
1.0
 77
0
 78
1
 53
45.0
 43
0.0
 44
0.0
 45
-0.0883883476483184
 46
0.0883883476483185
 79
0
 98
0
1001
ACAD
1010
0.0
1020
0.0
1030
0
  0
LINE
  5
12E
100
AcDbEntity
  8
Frame
 62
256
370
-1
 48
1.0
  6
BYLAYER
100
AcDbLine
 10
-19.9999999999999964
 20
10.0
 30
0.0
 11
-395.9999999999999432
 21
10.0
 31
0.0
  0
LINE
  5
12F
100
AcDbEntity
  8
Frame
 62
256
370
-1
 48
1.0
  6
BYLAYER
100
AcDbLine
 10
-395.9999999999999432
 20
10.0
 30
0.0
 11
-395.9999999999999432
 21
1915.0
 31
0.0
  0
LINE
  5
130
100
AcDbEntity
  8
Frame
 62
256
370
-1
 48
1.0
  6
BYLAYER
100
AcDbLine
 10
-395.9999999999999432
 20
1915.0
 30
0.0
 11
-19.9999999999999964
 21
1915.0
 31
0.0
  0
LINE
  5
131
100
AcDbEntity
  8
Frame
 62
256
370
-1
 48
1.0
  6
BYLAYER
100
AcDbLine
 10
-19.9999999999999964
 20
1915.0
 30
0.0
 11
-19.9999999999999964
 21
10.0
 31
0.0
  0
HATCH
  5
132
100
AcDbEntity
  8
Frame
 62
256
370
-1
 48
1.0
  6
BYLAYER
100
AcDbHatch
 10
0.0
 20
0.0
 30
0.0
210
0.0
220
0.0
230
1.0
  2
LINE
 70
0
 71
0
 91
1
 92
1
 93
4
 72
1
 10
-19.9999999999999964
 20
10.0
 11
-395.9999999999999432
 21
10.0
 72
1
 10
-395.9999999999999432
 20
10.0
 11
-395.9999999999999432
 21
1915.0
 72
1
 10
-395.9999999999999432
 20
1915.0
 11
-19.9999999999999964
 21
1915.0
 72
1
 10
-19.9999999999999964
 20
1915.0
 11
-19.9999999999999964
 21
10.0
 97
0
 75
0
 76
1
 52
45.0
 41
1.0
 77
0
 78
1
 53
45.0
 43
0.0
 44
0.0
 45
-0.0883883476483184
 46
0.0883883476483185
 79
0
 98
0
1001
ACAD
1010
0.0
1020
0.0
1030
0
  0
LINE
  5
133
100
AcDbEntity
  8
Frame
 62
256
370
-1
 48
1.0
  6
BYLAYER
100
AcDbLine
 10
-396.0
 20
1915.0
 30
0.0
 11
-19.9999999999999964
 21
1915.0
 31
0.0
  0
LINE
  5
134
100
AcDbEntity
  8
Frame
 62
256
370
-1
 48
1.0
  6
BYLAYER
100
AcDbLine
 10
-19.9999999999999964
 20
1915.0
 30
0.0
 11
-19.9999999999999964
 21
1890.0
 31
0.0
  0
LINE
  5
135
100
AcDbEntity
  8
Frame
 62
256
370
-1
 48
1.0
  6
BYLAYER
100
AcDbLine
 10
-19.9999999999999964
 20
1890.0
 30
0.0
 11
-396.0
 21
1890.0
 31
0.0
  0
LINE
  5
136
100
AcDbEntity
  8
Frame
 62
256
370
-1
 48
1.0
  6
BYLAYER
100
AcDbLine
 10
-396.0
 20
1890.0
 30
0.0
 11
-396.0
 21
1915.0
 31
0.0
  0
LINE
  5
137
100
AcDbEntity
  8
Frame
 62
256
370
-1
 48
1.0
  6
BYLAYER
100
AcDbLine
 10
-395.9999999999999432
 20
1559.0
 30
0.0
 11
-19.9999999999999964
 21
1559.0
 31
0.0
  0
LINE
  5
138
100
AcDbEntity
  8
Frame
 62
256
370
-1
 48
1.0
  6
BYLAYER
100
AcDbLine
 10
-19.9999999999999964
 20
1559.0
 30
0.0
 11
-19.9999999999999964
 21
1534.0
 31
0.0
  0
LINE
  5
139
100
AcDbEntity
  8
Frame
 62
256
370
-1
 48
1.0
  6
BYLAYER
100
AcDbLine
 10
-19.9999999999999964
 20
1534.0
 30
0.0
 11
-395.9999999999999432
 21
1534.0
 31
0.0
  0
LINE
  5
13A
100
AcDbEntity
  8
Frame
 62
256
370
-1
 48
1.0
  6
BYLAYER
100
AcDbLine
 10
-395.9999999999999432
 20
1534.0
 30
0.0
 11
-395.9999999999999432
 21
1559.0
 31
0.0
  0
LINE
  5
13B
100
AcDbEntity
  8
Frame
 62
256
370
-1
 48
1.0
  6
BYLAYER
100
AcDbLine
 10
-395.9999999999999432
 20
1203.0
 30
0.0
 11
-19.9999999999999964
 21
1203.0
 31
0.0
  0
LINE
  5
13C
100
AcDbEntity
  8
Frame
 62
256
370
-1
 48
1.0
  6
BYLAYER
100
AcDbLine
 10
-19.9999999999999964
 20
1203.0
 30
0.0
 11
-19.9999999999999964
 21
1178.0
 31
0.0
  0
LINE
  5
13D
100
AcDbEntity
  8
Frame
 62
256
370
-1
 48
1.0
  6
BYLAYER
100
AcDbLine
 10
-19.9999999999999964
 20
1178.0
 30
0.0
 11
-395.9999999999999432
 21
1178.0
 31
0.0
  0
LINE
  5
13E
100
AcDbEntity
  8
Frame
 62
256
370
-1
 48
1.0
  6
BYLAYER
100
AcDbLine
 10
-395.9999999999999432
 20
1178.0
 30
0.0
 11
-395.9999999999999432
 21
1203.0
 31
0.0
  0
LINE
  5
13F
100
AcDbEntity
  8
Frame
 62
256
370
-1
 48
1.0
  6
BYLAYER
100
AcDbLine
 10
-395.9999999999999432
 20
847.0
 30
0.0
 11
-19.9999999999999964
 21
847.0
 31
0.0
  0
LINE
  5
140
100
AcDbEntity
  8
Frame
 62
256
370
-1
 48
1.0
  6
BYLAYER
100
AcDbLine
 10
-19.9999999999999964
 20
847.0
 30
0.0
 11
-19.9999999999999964
 21
822.0
 31
0.0
  0
LINE
  5
141
100
AcDbEntity
  8
Frame
 62
256
370
-1
 48
1.0
  6
BYLAYER
100
AcDbLine
 10
-19.9999999999999964
 20
822.0
 30
0.0
 11
-395.9999999999999432
 21
822.0
 31
0.0
  0
LINE
  5
142
100
AcDbEntity
  8
Frame
 62
256
370
-1
 48
1.0
  6
BYLAYER
100
AcDbLine
 10
-395.9999999999999432
 20
822.0
 30
0.0
 11
-395.9999999999999432
 21
847.0
 31
0.0
  0
LINE
  5
143
100
AcDbEntity
  8
Frame
 62
256
370
-1
 48
1.0
  6
BYLAYER
100
AcDbLine
 10
-395.9999999999999432
 20
491.0
 30
0.0
 11
-19.9999999999999964
 21
491.0
 31
0.0
  0
LINE
  5
144
100
AcDbEntity
  8
Frame
 62
256
370
-1
 48
1.0
  6
BYLAYER
100
AcDbLine
 10
-19.9999999999999964
 20
491.0
 30
0.0
 11
-19.9999999999999964
 21
466.0
 31
0.0
  0
LINE
  5
145
100
AcDbEntity
  8
Frame
 62
256
370
-1
 48
1.0
  6
BYLAYER
100
AcDbLine
 10
-19.9999999999999964
 20
466.0
 30
0.0
 11
-395.9999999999999432
 21
466.0
 31
0.0
  0
LINE
  5
146
100
AcDbEntity
  8
Frame
 62
256
370
-1
 48
1.0
  6
BYLAYER
100
AcDbLine
 10
-395.9999999999999432
 20
466.0
 30
0.0
 11
-395.9999999999999432
 21
491.0
 31
0.0
  0
LINE
  5
147
100
AcDbEntity
  8
Frame
 62
256
370
-1
 48
1.0
  6
BYLAYER
100
AcDbLine
 10
-395.9999999999999432
 20
135.0
 30
0.0
 11
-19.9999999999999964
 21
135.0
 31
0.0
  0
LINE
  5
148
100
AcDbEntity
  8
Frame
 62
256
370
-1
 48
1.0
  6
BYLAYER
100
AcDbLine
 10
-19.9999999999999964
 20
135.0
 30
0.0
 11
-19.9999999999999964
 21
110.0
 31
0.0
  0
LINE
  5
149
100
AcDbEntity
  8
Frame
 62
256
370
-1
 48
1.0
  6
BYLAYER
100
AcDbLine
 10
-19.9999999999999964
 20
110.0
 30
0.0
 11
-395.9999999999999432
 21
110.0
 31
0.0
  0
LINE
  5
14A
100
AcDbEntity
  8
Frame
 62
256
370
-1
 48
1.0
  6
BYLAYER
100
AcDbLine
 10
-395.9999999999999432
 20
110.0
 30
0.0
 11
-395.9999999999999432
 21
135.0
 31
0.0
  0
HATCH
  5
14B
100
AcDbEntity
  8
Frame
 62
256
370
-1
 48
1.0
  6
BYLAYER
100
AcDbHatch
 10
0.0
 20
0.0
 30
0.0
210
0.0
220
0.0
230
1.0
  2
LINE
 70
0
 71
0
 91
1
 92
1
 93
4
 72
1
 10
-19.9999999999999964
 20
1915.0
 11
-19.9999999999999964
 21
1890.0
 72
1
 10
-19.9999999999999964
 20
1890.0
 11
-396.0
 21
1890.0
 72
1
 10
-396.0
 20
1890.0
 11
-396.0
 21
1915.0
 72
1
 10
-395.9999999999999432
 20
1915.0
 11
-19.9999999999999964
 21
1915.0
 97
0
 75
0
 76
1
 52
45.0
 41
1.0
 77
0
 78
1
 53
45.0
 43
0.0
 44
0.0
 45
-0.0883883476483184
 46
0.0883883476483185
 79
0
 98
0
1001
ACAD
1010
0.0
1020
0.0
1030
0
  0
HATCH
  5
14C
100
AcDbEntity
  8
Frame
 62
256
370
-1
 48
1.0
  6
BYLAYER
100
AcDbHatch
 10
0.0
 20
0.0
 30
0.0
210
0.0
220
0.0
230
1.0
  2
LINE
 70
0
 71
0
 91
3
 92
1
 93
4
 72
1
 10
-395.9999999999999432
 20
1559.0
 11
-19.9999999999999964
 21
1559.0
 72
1
 10
-19.9999999999999964
 20
1559.0
 11
-19.9999999999999964
 21
1534.0
 72
1
 10
-19.9999999999999964
 20
1534.0
 11
-395.9999999999999432
 21
1534.0
 72
1
 10
-395.9999999999999432
 20
1534.0
 11
-395.9999999999999432
 21
1559.0
 97
0
 92
1
 93
4
 72
1
 10
-395.9999999999999432
 20
1203.0
 11
-19.9999999999999964
 21
1203.0
 72
1
 10
-19.9999999999999964
 20
1203.0
 11
-19.9999999999999964
 21
1178.0
 72
1
 10
-19.9999999999999964
 20
1178.0
 11
-395.9999999999999432
 21
1178.0
 72
1
 10
-395.9999999999999432
 20
1178.0
 11
-395.9999999999999432
 21
1203.0
 97
0
 92
1
 93
4
 72
1
 10
-395.9999999999999432
 20
847.0
 11
-19.9999999999999964
 21
847.0
 72
1
 10
-19.9999999999999964
 20
847.0
 11
-19.9999999999999964
 21
822.0
 72
1
 10
-19.9999999999999964
 20
822.0
 11
-395.9999999999999432
 21
822.0
 72
1
 10
-395.9999999999999432
 20
822.0
 11
-395.9999999999999432
 21
847.0
 97
0
 75
0
 76
1
 52
45.0
 41
1.0
 77
0
 78
1
 53
45.0
 43
0.0
 44
0.0
 45
-0.0883883476483184
 46
0.0883883476483185
 79
0
 98
0
1001
ACAD
1010
0.0
1020
0.0
1030
0
  0
HATCH
  5
14D
100
AcDbEntity
  8
Frame
 62
256
370
-1
 48
1.0
  6
BYLAYER
100
AcDbHatch
 10
0.0
 20
0.0
 30
0.0
210
0.0
220
0.0
230
1.0
  2
LINE
 70
0
 71
0
 91
2
 92
1
 93
4
 72
1
 10
-19.9999999999999964
 20
466.0
 11
-395.9999999999999432
 21
466.0
 72
1
 10
-395.9999999999999432
 20
466.0
 11
-395.9999999999999432
 21
491.0
 72
1
 10
-395.9999999999999432
 20
491.0
 11
-19.9999999999999964
 21
491.0
 72
1
 10
-19.9999999999999964
 20
491.0
 11
-19.9999999999999964
 21
466.0
 97
0
 92
1
 93
4
 72
1
 10
-395.9999999999999432
 20
135.0
 11
-19.9999999999999964
 21
135.0
 72
1
 10
-19.9999999999999964
 20
135.0
 11
-19.9999999999999964
 21
110.0
 72
1
 10
-19.9999999999999964
 20
110.0
 11
-395.9999999999999432
 21
110.0
 72
1
 10
-395.9999999999999432
 20
110.0
 11
-395.9999999999999432
 21
135.0
 97
0
 75
0
 76
1
 52
45.0
 41
1.0
 77
0
 78
1
 53
45.0
 43
0.0
 44
0.0
 45
-0.0883883476483184
 46
0.0883883476483185
 79
0
 98
0
1001
ACAD
1010
0.0
1020
0.0
1030
0
  0
LINE
  5
14E
100
AcDbEntity
  8
Screws
 62
256
370
-1
 48
1.0
  6
BYLAYER
100
AcDbLine
 10
822.0
 20
1905.0
 30
0.0
 11
919.3301270189228944
 21
1905.0
 31
0.0
  0
LINE
  5
14F
100
AcDbEntity
  8
Screws
 62
256
370
-1
 48
1.0
  6
BYLAYER
100
AcDbLine
 10
924.0
 20
1905.0
 30
0.0
 11
924.0
 21
1900.0
 31
0.0
  0
LINE
  5
150
100
AcDbEntity
  8
Screws
 62
256
370
-1
 48
1.0
  6
BYLAYER
100
AcDbLine
 10
919.3301270189218712
 20
1900.0
 30
0.0
 11
822.0
 21
1900.0
 31
0.0
  0
LINE
  5
151
100
AcDbEntity
  8
Screws
 62
256
370
-1
 48
1.0
  6
BYLAYER
100
AcDbLine
 10
822.0
 20
1905.0
 30
0.0
 11
817.6698729810777877
 21
1902.5
 31
0.0
  0
LINE
  5
152
100
AcDbEntity
  8
Screws
 62
256
370
-1
 48
1.0
  6
BYLAYER
100
AcDbLine
 10
817.6698729810777877
 20
1902.5
 30
0.0
 11
822.0
 21
1900.0
 31
0.0
  0
LINE
  5
153
100
AcDbEntity
  8
Screws
 62
256
370
-1
 48
1.0
  6
BYLAYER
100
AcDbLine
 10
919.3301270189219849
 20
1900.0
 30
0.0
 11
923.9999999999998863
 21
1897.3038475772930269
 31
0.0
  0
LINE
  5
154
100
AcDbEntity
  8
Screws
 62
256
370
-1
 48
1.0
  6
BYLAYER
100
AcDbLine
 10
923.9999999999998863
 20
1897.3038475772930269
 30
0.0
 11
924.0
 21
1907.6961524227065183
 31
0.0
  0
LINE
  5
155
100
AcDbEntity
  8
Screws
 62
256
370
-1
 48
1.0
  6
BYLAYER
100
AcDbLine
 10
924.0
 20
1907.6961524227065183
 30
0.0
 11
919.3301270189228944
 21
1905.0
 31
0.0
  0
LINE
  5
156
100
AcDbEntity
  8
Screws
 62
256
370
-1
 48
1.0
  6
BYLAYER
100
AcDbLine
 10
822.0
 20
1549.0
 30
0.0
 11
919.3301270189228944
 21
1549.0
 31
0.0
  0
LINE
  5
157
100
AcDbEntity
  8
Screws
 62
256
370
-1
 48
1.0
  6
BYLAYER
100
AcDbLine
 10
924.0
 20
1549.0
 30
0.0
 11
924.0
 21
1544.0
 31
0.0
  0
LINE
  5
158
100
AcDbEntity
  8
Screws
 62
256
370
-1
 48
1.0
  6
BYLAYER
100
AcDbLine
 10
919.3301270189218712
 20
1544.0
 30
0.0
 11
822.0
 21
1544.0
 31
0.0
  0
LINE
  5
159
100
AcDbEntity
  8
Screws
 62
256
370
-1
 48
1.0
  6
BYLAYER
100
AcDbLine
 10
822.0
 20
1549.0
 30
0.0
 11
817.6698729810777877
 21
1546.5
 31
0.0
  0
LINE
  5
15A
100
AcDbEntity
  8
Screws
 62
256
370
-1
 48
1.0
  6
BYLAYER
100
AcDbLine
 10
817.6698729810777877
 20
1546.5
 30
0.0
 11
822.0
 21
1544.0
 31
0.0
  0
LINE
  5
15B
100
AcDbEntity
  8
Screws
 62
256
370
-1
 48
1.0
  6
BYLAYER
100
AcDbLine
 10
919.3301270189219849
 20
1544.0
 30
0.0
 11
923.9999999999998863
 21
1541.3038475772930269
 31
0.0
  0
LINE
  5
15C
100
AcDbEntity
  8
Screws
 62
256
370
-1
 48
1.0
  6
BYLAYER
100
AcDbLine
 10
923.9999999999998863
 20
1541.3038475772930269
 30
0.0
 11
924.0
 21
1551.6961524227065183
 31
0.0
  0
LINE
  5
15D
100
AcDbEntity
  8
Screws
 62
256
370
-1
 48
1.0
  6
BYLAYER
100
AcDbLine
 10
924.0
 20
1551.6961524227065183
 30
0.0
 11
919.3301270189228944
 21
1549.0
 31
0.0
  0
LINE
  5
15E
100
AcDbEntity
  8
Screws
 62
256
370
-1
 48
1.0
  6
BYLAYER
100
AcDbLine
 10
822.0
 20
1193.0
 30
0.0
 11
919.3301270189228944
 21
1193.0
 31
0.0
  0
LINE
  5
15F
100
AcDbEntity
  8
Screws
 62
256
370
-1
 48
1.0
  6
BYLAYER
100
AcDbLine
 10
924.0
 20
1193.0
 30
0.0
 11
924.0
 21
1188.0
 31
0.0
  0
LINE
  5
160
100
AcDbEntity
  8
Screws
 62
256
370
-1
 48
1.0
  6
BYLAYER
100
AcDbLine
 10
919.3301270189218712
 20
1188.0
 30
0.0
 11
822.0
 21
1188.0
 31
0.0
  0
LINE
  5
161
100
AcDbEntity
  8
Screws
 62
256
370
-1
 48
1.0
  6
BYLAYER
100
AcDbLine
 10
822.0
 20
1193.0
 30
0.0
 11
817.6698729810777877
 21
1190.5
 31
0.0
  0
LINE
  5
162
100
AcDbEntity
  8
Screws
 62
256
370
-1
 48
1.0
  6
BYLAYER
100
AcDbLine
 10
817.6698729810777877
 20
1190.5
 30
0.0
 11
822.0
 21
1188.0
 31
0.0
  0
LINE
  5
163
100
AcDbEntity
  8
Screws
 62
256
370
-1
 48
1.0
  6
BYLAYER
100
AcDbLine
 10
919.3301270189219849
 20
1188.0
 30
0.0
 11
923.9999999999998863
 21
1185.3038475772930269
 31
0.0
  0
LINE
  5
164
100
AcDbEntity
  8
Screws
 62
256
370
-1
 48
1.0
  6
BYLAYER
100
AcDbLine
 10
923.9999999999998863
 20
1185.3038475772930269
 30
0.0
 11
924.0
 21
1195.6961524227065183
 31
0.0
  0
LINE
  5
165
100
AcDbEntity
  8
Screws
 62
256
370
-1
 48
1.0
  6
BYLAYER
100
AcDbLine
 10
924.0
 20
1195.6961524227065183
 30
0.0
 11
919.3301270189228944
 21
1193.0
 31
0.0
  0
LINE
  5
166
100
AcDbEntity
  8
Screws
 62
256
370
-1
 48
1.0
  6
BYLAYER
100
AcDbLine
 10
822.0
 20
837.0
 30
0.0
 11
919.3301270189228944
 21
837.0
 31
0.0
  0
LINE
  5
167
100
AcDbEntity
  8
Screws
 62
256
370
-1
 48
1.0
  6
BYLAYER
100
AcDbLine
 10
924.0
 20
837.0
 30
0.0
 11
924.0
 21
832.0
 31
0.0
  0
LINE
  5
168
100
AcDbEntity
  8
Screws
 62
256
370
-1
 48
1.0
  6
BYLAYER
100
AcDbLine
 10
919.3301270189218712
 20
832.0
 30
0.0
 11
822.0
 21
832.0
 31
0.0
  0
LINE
  5
169
100
AcDbEntity
  8
Screws
 62
256
370
-1
 48
1.0
  6
BYLAYER
100
AcDbLine
 10
822.0
 20
837.0
 30
0.0
 11
817.6698729810777877
 21
834.5
 31
0.0
  0
LINE
  5
16A
100
AcDbEntity
  8
Screws
 62
256
370
-1
 48
1.0
  6
BYLAYER
100
AcDbLine
 10
817.6698729810777877
 20
834.5
 30
0.0
 11
822.0
 21
832.0
 31
0.0
  0
LINE
  5
16B
100
AcDbEntity
  8
Screws
 62
256
370
-1
 48
1.0
  6
BYLAYER
100
AcDbLine
 10
919.3301270189219849
 20
832.0
 30
0.0
 11
923.9999999999998863
 21
829.3038475772930269
 31
0.0
  0
LINE
  5
16C
100
AcDbEntity
  8
Screws
 62
256
370
-1
 48
1.0
  6
BYLAYER
100
AcDbLine
 10
923.9999999999998863
 20
829.3038475772930269
 30
0.0
 11
924.0
 21
839.6961524227065183
 31
0.0
  0
LINE
  5
16D
100
AcDbEntity
  8
Screws
 62
256
370
-1
 48
1.0
  6
BYLAYER
100
AcDbLine
 10
924.0
 20
839.6961524227065183
 30
0.0
 11
919.3301270189228944
 21
837.0
 31
0.0
  0
LINE
  5
16E
100
AcDbEntity
  8
Screws
 62
256
370
-1
 48
1.0
  6
BYLAYER
100
AcDbLine
 10
822.0
 20
481.0
 30
0.0
 11
919.3301270189228944
 21
481.0
 31
0.0
  0
LINE
  5
16F
100
AcDbEntity
  8
Screws
 62
256
370
-1
 48
1.0
  6
BYLAYER
100
AcDbLine
 10
924.0
 20
481.0
 30
0.0
 11
924.0
 21
476.0
 31
0.0
  0
LINE
  5
170
100
AcDbEntity
  8
Screws
 62
256
370
-1
 48
1.0
  6
BYLAYER
100
AcDbLine
 10
919.3301270189218712
 20
476.0
 30
0.0
 11
822.0
 21
476.0
 31
0.0
  0
LINE
  5
171
100
AcDbEntity
  8
Screws
 62
256
370
-1
 48
1.0
  6
BYLAYER
100
AcDbLine
 10
822.0
 20
481.0
 30
0.0
 11
817.6698729810777877
 21
478.5
 31
0.0
  0
LINE
  5
172
100
AcDbEntity
  8
Screws
 62
256
370
-1
 48
1.0
  6
BYLAYER
100
AcDbLine
 10
817.6698729810777877
 20
478.5
 30
0.0
 11
822.0
 21
476.0
 31
0.0
  0
LINE
  5
173
100
AcDbEntity
  8
Screws
 62
256
370
-1
 48
1.0
  6
BYLAYER
100
AcDbLine
 10
919.3301270189219849
 20
476.0
 30
0.0
 11
923.9999999999998863
 21
473.3038475772930269
 31
0.0
  0
LINE
  5
174
100
AcDbEntity
  8
Screws
 62
256
370
-1
 48
1.0
  6
BYLAYER
100
AcDbLine
 10
923.9999999999998863
 20
473.3038475772930269
 30
0.0
 11
924.0
 21
483.6961524227065183
 31
0.0
  0
LINE
  5
175
100
AcDbEntity
  8
Screws
 62
256
370
-1
 48
1.0
  6
BYLAYER
100
AcDbLine
 10
924.0
 20
483.6961524227065183
 30
0.0
 11
919.3301270189228944
 21
481.0
 31
0.0
  0
LINE
  5
176
100
AcDbEntity
  8
Screws
 62
256
370
-1
 48
1.0
  6
BYLAYER
100
AcDbLine
 10
822.0
 20
125.0
 30
0.0
 11
919.3301270189228944
 21
125.0
 31
0.0
  0
LINE
  5
177
100
AcDbEntity
  8
Screws
 62
256
370
-1
 48
1.0
  6
BYLAYER
100
AcDbLine
 10
924.0
 20
125.0
 30
0.0
 11
924.0
 21
120.0
 31
0.0
  0
LINE
  5
178
100
AcDbEntity
  8
Screws
 62
256
370
-1
 48
1.0
  6
BYLAYER
100
AcDbLine
 10
919.3301270189218712
 20
120.0
 30
0.0
 11
822.0
 21
120.0
 31
0.0
  0
LINE
  5
179
100
AcDbEntity
  8
Screws
 62
256
370
-1
 48
1.0
  6
BYLAYER
100
AcDbLine
 10
822.0
 20
125.0
 30
0.0
 11
817.6698729810777877
 21
122.5
 31
0.0
  0
LINE
  5
17A
100
AcDbEntity
  8
Screws
 62
256
370
-1
 48
1.0
  6
BYLAYER
100
AcDbLine
 10
817.6698729810777877
 20
122.5
 30
0.0
 11
822.0
 21
120.0
 31
0.0
  0
LINE
  5
17B
100
AcDbEntity
  8
Screws
 62
256
370
-1
 48
1.0
  6
BYLAYER
100
AcDbLine
 10
919.3301270189219849
 20
120.0
 30
0.0
 11
923.9999999999998863
 21
117.3038475772930269
 31
0.0
  0
LINE
  5
17C
100
AcDbEntity
  8
Screws
 62
256
370
-1
 48
1.0
  6
BYLAYER
100
AcDbLine
 10
923.9999999999998863
 20
117.3038475772930269
 30
0.0
 11
924.0
 21
127.6961524227065183
 31
0.0
  0
LINE
  5
17D
100
AcDbEntity
  8
Screws
 62
256
370
-1
 48
1.0
  6
BYLAYER
100
AcDbLine
 10
924.0
 20
127.6961524227065183
 30
0.0
 11
919.3301270189228944
 21
125.0
 31
0.0
  0
LINE
  5
17E
100
AcDbEntity
  8
Screws
 62
256
370
-1
 48
1.0
  6
BYLAYER
100
AcDbLine
 10
111.9999999999998863
 20
1899.9999999999997726
 30
0.0
 11
14.6698729810769919
 21
1900.0
 31
0.0
  0
LINE
  5
17F
100
AcDbEntity
  8
Screws
 62
256
370
-1
 48
1.0
  6
BYLAYER
100
AcDbLine
 10
9.9999999999998845
 20
1900.0
 30
0.0
 11
9.9999999999998863
 21
1905.0
 31
0.0
  0
LINE
  5
180
100
AcDbEntity
  8
Screws
 62
256
370
-1
 48
1.0
  6
BYLAYER
100
AcDbLine
 10
14.6698729810780151
 20
1905.0
 30
0.0
 11
111.9999999999998863
 21
1905.0000000000002274
 31
0.0
  0
LINE
  5
181
100
AcDbEntity
  8
Screws
 62
256
370
-1
 48
1.0
  6
BYLAYER
100
AcDbLine
 10
111.9999999999998863
 20
1899.9999999999997726
 30
0.0
 11
116.3301270189220986
 21
1902.5
 31
0.0
  0
LINE
  5
182
100
AcDbEntity
  8
Screws
 62
256
370
-1
 48
1.0
  6
BYLAYER
100
AcDbLine
 10
116.3301270189220986
 20
1902.5
 30
0.0
 11
111.9999999999998863
 21
1905.0000000000002274
 31
0.0
  0
LINE
  5
183
100
AcDbEntity
  8
Screws
 62
256
370
-1
 48
1.0
  6
BYLAYER
100
AcDbLine
 10
14.6698729810779014
 20
1905.0
 30
0.0
 11
10.0
 21
1907.6961524227069731
 31
0.0
  0
LINE
  5
184
100
AcDbEntity
  8
Screws
 62
256
370
-1
 48
1.0
  6
BYLAYER
100
AcDbLine
 10
10.0
 20
1907.6961524227069731
 30
0.0
 11
9.9999999999998863
 21
1897.3038475772934817
 31
0.0
  0
LINE
  5
185
100
AcDbEntity
  8
Screws
 62
256
370
-1
 48
1.0
  6
BYLAYER
100
AcDbLine
 10
9.9999999999998863
 20
1897.3038475772934817
 30
0.0
 11
14.6698729810769919
 21
1900.0
 31
0.0
  0
LINE
  5
186
100
AcDbEntity
  8
Screws
 62
256
370
-1
 48
1.0
  6
BYLAYER
100
AcDbLine
 10
112.0
 20
1543.9999999999997726
 30
0.0
 11
14.6698729810771056
 21
1544.0
 31
0.0
  0
LINE
  5
187
100
AcDbEntity
  8
Screws
 62
256
370
-1
 48
1.0
  6
BYLAYER
100
AcDbLine
 10
9.9999999999999982
 20
1544.0
 30
0.0
 11
10.0
 21
1549.0
 31
0.0
  0
LINE
  5
188
100
AcDbEntity
  8
Screws
 62
256
370
-1
 48
1.0
  6
BYLAYER
100
AcDbLine
 10
14.6698729810781288
 20
1549.0
 30
0.0
 11
112.0
 21
1549.0000000000002274
 31
0.0
  0
LINE
  5
189
100
AcDbEntity
  8
Screws
 62
256
370
-1
 48
1.0
  6
BYLAYER
100
AcDbLine
 10
112.0
 20
1543.9999999999997726
 30
0.0
 11
116.3301270189222123
 21
1546.5
 31
0.0
  0
LINE
  5
18A
100
AcDbEntity
  8
Screws
 62
256
370
-1
 48
1.0
  6
BYLAYER
100
AcDbLine
 10
116.3301270189222123
 20
1546.5
 30
0.0
 11
112.0
 21
1549.0000000000002274
 31
0.0
  0
LINE
  5
18B
100
AcDbEntity
  8
Screws
 62
256
370
-1
 48
1.0
  6
BYLAYER
100
AcDbLine
 10
14.6698729810780151
 20
1549.0
 30
0.0
 11
10.0000000000001137
 21
1551.6961524227069731
 31
0.0
  0
LINE
  5
18C
100
AcDbEntity
  8
Screws
 62
256
370
-1
 48
1.0
  6
BYLAYER
100
AcDbLine
 10
10.0000000000001137
 20
1551.6961524227069731
 30
0.0
 11
10.0
 21
1541.3038475772934817
 31
0.0
  0
LINE
  5
18D
100
AcDbEntity
  8
Screws
 62
256
370
-1
 48
1.0
  6
BYLAYER
100
AcDbLine
 10
10.0
 20
1541.3038475772934817
 30
0.0
 11
14.6698729810771056
 21
1544.0
 31
0.0
  0
LINE
  5
18E
100
AcDbEntity
  8
Screws
 62
256
370
-1
 48
1.0
  6
BYLAYER
100
AcDbLine
 10
112.0000000000001137
 20
1187.9999999999997726
 30
0.0
 11
14.6698729810772193
 21
1188.0
 31
0.0
  0
LINE
  5
18F
100
AcDbEntity
  8
Screws
 62
256
370
-1
 48
1.0
  6
BYLAYER
100
AcDbLine
 10
10.0000000000001119
 20
1188.0
 30
0.0
 11
10.0000000000001137
 21
1193.0
 31
0.0
  0
LINE
  5
190
100
AcDbEntity
  8
Screws
 62
256
370
-1
 48
1.0
  6
BYLAYER
100
AcDbLine
 10
14.6698729810782424
 20
1193.0
 30
0.0
 11
112.0000000000001137
 21
1193.0000000000002274
 31
0.0
  0
LINE
  5
191
100
AcDbEntity
  8
Screws
 62
256
370
-1
 48
1.0
  6
BYLAYER
100
AcDbLine
 10
112.0000000000001137
 20
1187.9999999999997726
 30
0.0
 11
116.330127018922326
 21
1190.5
 31
0.0
  0
LINE
  5
192
100
AcDbEntity
  8
Screws
 62
256
370
-1
 48
1.0
  6
BYLAYER
100
AcDbLine
 10
116.330127018922326
 20
1190.5
 30
0.0
 11
112.0000000000001137
 21
1193.0000000000002274
 31
0.0
  0
LINE
  5
193
100
AcDbEntity
  8
Screws
 62
256
370
-1
 48
1.0
  6
BYLAYER
100
AcDbLine
 10
14.6698729810781288
 20
1193.0
 30
0.0
 11
10.0000000000002274
 21
1195.6961524227069731
 31
0.0
  0
LINE
  5
194
100
AcDbEntity
  8
Screws
 62
256
370
-1
 48
1.0
  6
BYLAYER
100
AcDbLine
 10
10.0000000000002274
 20
1195.6961524227069731
 30
0.0
 11
10.0000000000001137
 21
1185.3038475772934817
 31
0.0
  0
LINE
  5
195
100
AcDbEntity
  8
Screws
 62
256
370
-1
 48
1.0
  6
BYLAYER
100
AcDbLine
 10
10.0000000000001137
 20
1185.3038475772934817
 30
0.0
 11
14.6698729810772193
 21
1188.0
 31
0.0
  0
LINE
  5
196
100
AcDbEntity
  8
Screws
 62
256
370
-1
 48
1.0
  6
BYLAYER
100
AcDbLine
 10
112.0000000000002274
 20
831.9999999999997726
 30
0.0
 11
14.669872981077333
 21
832.0
 31
0.0
  0
LINE
  5
197
100
AcDbEntity
  8
Screws
 62
256
370
-1
 48
1.0
  6
BYLAYER
100
AcDbLine
 10
10.0000000000002256
 20
832.0
 30
0.0
 11
10.0000000000002274
 21
837.0
 31
0.0
  0
LINE
  5
198
100
AcDbEntity
  8
Screws
 62
256
370
-1
 48
1.0
  6
BYLAYER
100
AcDbLine
 10
14.6698729810783561
 20
837.0
 30
0.0
 11
112.0000000000002274
 21
837.0000000000002274
 31
0.0
  0
LINE
  5
199
100
AcDbEntity
  8
Screws
 62
256
370
-1
 48
1.0
  6
BYLAYER
100
AcDbLine
 10
112.0000000000002274
 20
831.9999999999997726
 30
0.0
 11
116.3301270189224397
 21
834.5
 31
0.0
  0
LINE
  5
19A
100
AcDbEntity
  8
Screws
 62
256
370
-1
 48
1.0
  6
BYLAYER
100
AcDbLine
 10
116.3301270189224397
 20
834.5
 30
0.0
 11
112.0000000000002274
 21
837.0000000000002274
 31
0.0
  0
LINE
  5
19B
100
AcDbEntity
  8
Screws
 62
256
370
-1
 48
1.0
  6
BYLAYER
100
AcDbLine
 10
14.6698729810782424
 20
837.0
 30
0.0
 11
10.0000000000003411
 21
839.6961524227069731
 31
0.0
  0
LINE
  5
19C
100
AcDbEntity
  8
Screws
 62
256
370
-1
 48
1.0
  6
BYLAYER
100
AcDbLine
 10
10.0000000000003411
 20
839.6961524227069731
 30
0.0
 11
10.0000000000002274
 21
829.3038475772934817
 31
0.0
  0
LINE
  5
19D
100
AcDbEntity
  8
Screws
 62
256
370
-1
 48
1.0
  6
BYLAYER
100
AcDbLine
 10
10.0000000000002274
 20
829.3038475772934817
 30
0.0
 11
14.669872981077333
 21
832.0
 31
0.0
  0
LINE
  5
19E
100
AcDbEntity
  8
Screws
 62
256
370
-1
 48
1.0
  6
BYLAYER
100
AcDbLine
 10
112.0000000000003411
 20
475.9999999999997726
 30
0.0
 11
14.6698729810774466
 21
476.0
 31
0.0
  0
LINE
  5
19F
100
AcDbEntity
  8
Screws
 62
256
370
-1
 48
1.0
  6
BYLAYER
100
AcDbLine
 10
10.0000000000003393
 20
476.0
 30
0.0
 11
10.0000000000003411
 21
481.0
 31
0.0
  0
LINE
  5
1A0
100
AcDbEntity
  8
Screws
 62
256
370
-1
 48
1.0
  6
BYLAYER
100
AcDbLine
 10
14.6698729810784698
 20
481.0
 30
0.0
 11
112.0000000000003411
 21
481.0000000000002274
 31
0.0
  0
LINE
  5
1A1
100
AcDbEntity
  8
Screws
 62
256
370
-1
 48
1.0
  6
BYLAYER
100
AcDbLine
 10
112.0000000000003411
 20
475.9999999999997726
 30
0.0
 11
116.3301270189225534
 21
478.5
 31
0.0
  0
LINE
  5
1A2
100
AcDbEntity
  8
Screws
 62
256
370
-1
 48
1.0
  6
BYLAYER
100
AcDbLine
 10
116.3301270189225534
 20
478.5
 30
0.0
 11
112.0000000000003411
 21
481.0000000000002274
 31
0.0
  0
LINE
  5
1A3
100
AcDbEntity
  8
Screws
 62
256
370
-1
 48
1.0
  6
BYLAYER
100
AcDbLine
 10
14.6698729810783561
 20
481.0
 30
0.0
 11
10.0000000000004547
 21
483.6961524227069731
 31
0.0
  0
LINE
  5
1A4
100
AcDbEntity
  8
Screws
 62
256
370
-1
 48
1.0
  6
BYLAYER
100
AcDbLine
 10
10.0000000000004547
 20
483.6961524227069731
 30
0.0
 11
10.0000000000003411
 21
473.3038475772934817
 31
0.0
  0
LINE
  5
1A5
100
AcDbEntity
  8
Screws
 62
256
370
-1
 48
1.0
  6
BYLAYER
100
AcDbLine
 10
10.0000000000003411
 20
473.3038475772934817
 30
0.0
 11
14.6698729810774466
 21
476.0
 31
0.0
  0
LINE
  5
1A6
100
AcDbEntity
  8
Screws
 62
256
370
-1
 48
1.0
  6
BYLAYER
100
AcDbLine
 10
112.0000000000004547
 20
119.9999999999997726
 30
0.0
 11
14.6698729810775603
 21
120.0
 31
0.0
  0
LINE
  5
1A7
100
AcDbEntity
  8
Screws
 62
256
370
-1
 48
1.0
  6
BYLAYER
100
AcDbLine
 10
10.000000000000453
 20
120.0
 30
0.0
 11
10.0000000000004547
 21
125.0
 31
0.0
  0
LINE
  5
1A8
100
AcDbEntity
  8
Screws
 62
256
370
-1
 48
1.0
  6
BYLAYER
100
AcDbLine
 10
14.6698729810785835
 20
125.0
 30
0.0
 11
112.0000000000004547
 21
125.0000000000002274
 31
0.0
  0
LINE
  5
1A9
100
AcDbEntity
  8
Screws
 62
256
370
-1
 48
1.0
  6
BYLAYER
100
AcDbLine
 10
112.0000000000004547
 20
119.9999999999997726
 30
0.0
 11
116.330127018922667
 21
122.5
 31
0.0
  0
LINE
  5
1AA
100
AcDbEntity
  8
Screws
 62
256
370
-1
 48
1.0
  6
BYLAYER
100
AcDbLine
 10
116.330127018922667
 20
122.5
 30
0.0
 11
112.0000000000004547
 21
125.0000000000002274
 31
0.0
  0
LINE
  5
1AB
100
AcDbEntity
  8
Screws
 62
256
370
-1
 48
1.0
  6
BYLAYER
100
AcDbLine
 10
14.6698729810784698
 20
125.0
 30
0.0
 11
10.0000000000005684
 21
127.6961524227069731
 31
0.0
  0
LINE
  5
1AC
100
AcDbEntity
  8
Screws
 62
256
370
-1
 48
1.0
  6
BYLAYER
100
AcDbLine
 10
10.0000000000005684
 20
127.6961524227069731
 30
0.0
 11
10.0000000000004547
 21
117.3038475772934817
 31
0.0
  0
LINE
  5
1AD
100
AcDbEntity
  8
Screws
 62
256
370
-1
 48
1.0
  6
BYLAYER
100
AcDbLine
 10
10.0000000000004547
 20
117.3038475772934817
 30
0.0
 11
14.6698729810775603
 21
120.0
 31
0.0
  0
LINE
  5
1AE
100
AcDbEntity
  8
Screws
 62
256
370
-1
 48
1.0
  6
BYLAYER
100
AcDbLine
 10
822.0
 20
-68.5
 30
0.0
 11
919.3301270189228944
 21
-68.5
 31
0.0
  0
LINE
  5
1AF
100
AcDbEntity
  8
Screws
 62
256
370
-1
 48
1.0
  6
BYLAYER
100
AcDbLine
 10
112.0000000000004547
 20
-73.5000000000002274
 30
0.0
 11
14.6698729810775603
 21
-73.5
 31
0.0
  0
LINE
  5
1B0
100
AcDbEntity
  8
Screws
 62
256
370
-1
 48
1.0
  6
BYLAYER
100
AcDbLine
 10
924.0
 20
-68.5
 30
0.0
 11
924.0
 21
-73.5
 31
0.0
  0
LINE
  5
1B1
100
AcDbEntity
  8
Screws
 62
256
370
-1
 48
1.0
  6
BYLAYER
100
AcDbLine
 10
10.000000000000453
 20
-73.5
 30
0.0
 11
10.0000000000004547
 21
-68.5
 31
0.0
  0
LINE
  5
1B2
100
AcDbEntity
  8
Screws
 62
256
370
-1
 48
1.0
  6
BYLAYER
100
AcDbLine
 10
919.3301270189218712
 20
-73.5
 30
0.0
 11
822.0
 21
-73.5
 31
0.0
  0
LINE
  5
1B3
100
AcDbEntity
  8
Screws
 62
256
370
-1
 48
1.0
  6
BYLAYER
100
AcDbLine
 10
14.6698729810785835
 20
-68.5
 30
0.0
 11
112.0000000000004547
 21
-68.4999999999997726
 31
0.0
  0
LINE
  5
1B4
100
AcDbEntity
  8
Screws
 62
256
370
-1
 48
1.0
  6
BYLAYER
100
AcDbLine
 10
822.0
 20
-68.5
 30
0.0
 11
817.6698729810777877
 21
-71.0
 31
0.0
  0
LINE
  5
1B5
100
AcDbEntity
  8
Screws
 62
256
370
-1
 48
1.0
  6
BYLAYER
100
AcDbLine
 10
112.0000000000004547
 20
-73.5000000000002274
 30
0.0
 11
116.330127018922667
 21
-71.0
 31
0.0
  0
LINE
  5
1B6
100
AcDbEntity
  8
Screws
 62
256
370
-1
 48
1.0
  6
BYLAYER
100
AcDbLine
 10
817.6698729810777877
 20
-71.0
 30
0.0
 11
822.0
 21
-73.5
 31
0.0
  0
LINE
  5
1B7
100
AcDbEntity
  8
Screws
 62
256
370
-1
 48
1.0
  6
BYLAYER
100
AcDbLine
 10
116.330127018922667
 20
-71.0
 30
0.0
 11
112.0000000000004547
 21
-68.4999999999997726
 31
0.0
  0
LINE
  5
1B8
100
AcDbEntity
  8
Screws
 62
256
370
-1
 48
1.0
  6
BYLAYER
100
AcDbLine
 10
919.3301270189219849
 20
-73.5
 30
0.0
 11
923.9999999999998863
 21
-76.1961524227069731
 31
0.0
  0
LINE
  5
1B9
100
AcDbEntity
  8
Screws
 62
256
370
-1
 48
1.0
  6
BYLAYER
100
AcDbLine
 10
14.6698729810784698
 20
-68.5
 30
0.0
 11
10.0000000000005684
 21
-65.8038475772930269
 31
0.0
  0
LINE
  5
1BA
100
AcDbEntity
  8
Screws
 62
256
370
-1
 48
1.0
  6
BYLAYER
100
AcDbLine
 10
923.9999999999998863
 20
-76.1961524227069731
 30
0.0
 11
924.0
 21
-65.8038475772934817
 31
0.0
  0
LINE
  5
1BB
100
AcDbEntity
  8
Screws
 62
256
370
-1
 48
1.0
  6
BYLAYER
100
AcDbLine
 10
10.0000000000005684
 20
-65.8038475772930269
 30
0.0
 11
10.0000000000004547
 21
-76.1961524227065183
 31
0.0
  0
LINE
  5
1BC
100
AcDbEntity
  8
Screws
 62
256
370
-1
 48
1.0
  6
BYLAYER
100
AcDbLine
 10
924.0
 20
-65.8038475772934817
 30
0.0
 11
919.3301270189228944
 21
-68.5
 31
0.0
  0
LINE
  5
1BD
100
AcDbEntity
  8
Screws
 62
256
370
-1
 48
1.0
  6
BYLAYER
100
AcDbLine
 10
10.0000000000004547
 20
-76.1961524227065183
 30
0.0
 11
14.6698729810775603
 21
-73.5
 31
0.0
  0
LINE
  5
1BE
100
AcDbEntity
  8
Screws
 62
256
370
-1
 48
1.0
  6
BYLAYER
100
AcDbLine
 10
822.0
 20
-342.4999999999997726
 30
0.0
 11
919.3301270189228944
 21
-342.4999999999997726
 31
0.0
  0
LINE
  5
1BF
100
AcDbEntity
  8
Screws
 62
256
370
-1
 48
1.0
  6
BYLAYER
100
AcDbLine
 10
112.0000000000004547
 20
-347.5
 30
0.0
 11
14.6698729810775603
 21
-347.4999999999997726
 31
0.0
  0
LINE
  5
1C0
100
AcDbEntity
  8
Screws
 62
256
370
-1
 48
1.0
  6
BYLAYER
100
AcDbLine
 10
924.0
 20
-342.4999999999997726
 30
0.0
 11
924.0
 21
-347.4999999999997726
 31
0.0
  0
LINE
  5
1C1
100
AcDbEntity
  8
Screws
 62
256
370
-1
 48
1.0
  6
BYLAYER
100
AcDbLine
 10
10.000000000000453
 20
-347.4999999999997726
 30
0.0
 11
10.0000000000004547
 21
-342.4999999999997726
 31
0.0
  0
LINE
  5
1C2
100
AcDbEntity
  8
Screws
 62
256
370
-1
 48
1.0
  6
BYLAYER
100
AcDbLine
 10
919.3301270189218712
 20
-347.4999999999997726
 30
0.0
 11
822.0
 21
-347.4999999999997726
 31
0.0
  0
LINE
  5
1C3
100
AcDbEntity
  8
Screws
 62
256
370
-1
 48
1.0
  6
BYLAYER
100
AcDbLine
 10
14.6698729810785835
 20
-342.4999999999997726
 30
0.0
 11
112.0000000000004547
 21
-342.4999999999995453
 31
0.0
  0
LINE
  5
1C4
100
AcDbEntity
  8
Screws
 62
256
370
-1
 48
1.0
  6
BYLAYER
100
AcDbLine
 10
822.0
 20
-342.4999999999997726
 30
0.0
 11
817.6698729810777877
 21
-344.9999999999997726
 31
0.0
  0
LINE
  5
1C5
100
AcDbEntity
  8
Screws
 62
256
370
-1
 48
1.0
  6
BYLAYER
100
AcDbLine
 10
112.0000000000004547
 20
-347.5
 30
0.0
 11
116.330127018922667
 21
-344.9999999999997726
 31
0.0
  0
LINE
  5
1C6
100
AcDbEntity
  8
Screws
 62
256
370
-1
 48
1.0
  6
BYLAYER
100
AcDbLine
 10
817.6698729810777877
 20
-344.9999999999997726
 30
0.0
 11
822.0
 21
-347.4999999999997726
 31
0.0
  0
LINE
  5
1C7
100
AcDbEntity
  8
Screws
 62
256
370
-1
 48
1.0
  6
BYLAYER
100
AcDbLine
 10
116.330127018922667
 20
-344.9999999999997726
 30
0.0
 11
112.0000000000004547
 21
-342.4999999999995453
 31
0.0
  0
LINE
  5
1C8
100
AcDbEntity
  8
Screws
 62
256
370
-1
 48
1.0
  6
BYLAYER
100
AcDbLine
 10
919.3301270189219849
 20
-347.4999999999997726
 30
0.0
 11
923.9999999999998863
 21
-350.1961524227067457
 31
0.0
  0
LINE
  5
1C9
100
AcDbEntity
  8
Screws
 62
256
370
-1
 48
1.0
  6
BYLAYER
100
AcDbLine
 10
14.6698729810784698
 20
-342.4999999999997726
 30
0.0
 11
10.0000000000005684
 21
-339.8038475772927995
 31
0.0
  0
LINE
  5
1CA
100
AcDbEntity
  8
Screws
 62
256
370
-1
 48
1.0
  6
BYLAYER
100
AcDbLine
 10
923.9999999999998863
 20
-350.1961524227067457
 30
0.0
 11
924.0
 21
-339.8038475772932543
 31
0.0
  0
LINE
  5
1CB
100
AcDbEntity
  8
Screws
 62
256
370
-1
 48
1.0
  6
BYLAYER
100
AcDbLine
 10
10.0000000000005684
 20
-339.8038475772927995
 30
0.0
 11
10.0000000000004547
 21
-350.196152422706291
 31
0.0
  0
LINE
  5
1CC
100
AcDbEntity
  8
Screws
 62
256
370
-1
 48
1.0
  6
BYLAYER
100
AcDbLine
 10
924.0
 20
-339.8038475772932543
 30
0.0
 11
919.3301270189228944
 21
-342.4999999999997726
 31
0.0
  0
LINE
  5
1CD
100
AcDbEntity
  8
Screws
 62
256
370
-1
 48
1.0
  6
BYLAYER
100
AcDbLine
 10
10.0000000000004547
 20
-350.196152422706291
 30
0.0
 11
14.6698729810775603
 21
-347.4999999999997726
 31
0.0
  0
CIRCLE
  5
1CE
100
AcDbEntity
  8
Screws
 62
256
370
-1
 48
1.0
  6
BYLAYER
100
AcDbCircle
 10
-70.9999999999999858
 20
122.5
 30
0.0
 40
5.1961524227065325
  0
CIRCLE
  5
1CF
100
AcDbEntity
  8
Screws
 62
256
370
-1
 48
1.0
  6
BYLAYER
100
AcDbCircle
 10
-70.9999999999999858
 20
122.5
 30
0.0
 40
2.4999999999999147
  0
CIRCLE
  5
1D0
100
AcDbEntity
  8
Screws
 62
256
370
-1
 48
1.0
  6
BYLAYER
100
AcDbCircle
 10
-344.9999999999997158
 20
122.5
 30
0.0
 40
5.1961524227065325
  0
CIRCLE
  5
1D1
100
AcDbEntity
  8
Screws
 62
256
370
-1
 48
1.0
  6
BYLAYER
100
AcDbCircle
 10
-344.9999999999997158
 20
122.5
 30
0.0
 40
2.4999999999999147
  0
CIRCLE
  5
1D2
100
AcDbEntity
  8
Screws
 62
256
370
-1
 48
1.0
  6
BYLAYER
100
AcDbCircle
 10
-70.9999999999999858
 20
478.5
 30
0.0
 40
5.1961524227065325
  0
CIRCLE
  5
1D3
100
AcDbEntity
  8
Screws
 62
256
370
-1
 48
1.0
  6
BYLAYER
100
AcDbCircle
 10
-344.9999999999997158
 20
478.5
 30
0.0
 40
5.1961524227065325
  0
CIRCLE
  5
1D4
100
AcDbEntity
  8
Screws
 62
256
370
-1
 48
1.0
  6
BYLAYER
100
AcDbCircle
 10
-70.9999999999999858
 20
478.5
 30
0.0
 40
2.4999999999999147
  0
CIRCLE
  5
1D5
100
AcDbEntity
  8
Screws
 62
256
370
-1
 48
1.0
  6
BYLAYER
100
AcDbCircle
 10
-344.9999999999997158
 20
478.5
 30
0.0
 40
2.4999999999999147
  0
CIRCLE
  5
1D6
100
AcDbEntity
  8
Screws
 62
256
370
-1
 48
1.0
  6
BYLAYER
100
AcDbCircle
 10
-70.9999999999999858
 20
834.5
 30
0.0
 40
5.1961524227065325
  0
CIRCLE
  5
1D7
100
AcDbEntity
  8
Screws
 62
256
370
-1
 48
1.0
  6
BYLAYER
100
AcDbCircle
 10
-344.9999999999997158
 20
834.5
 30
0.0
 40
5.1961524227065325
  0
CIRCLE
  5
1D8
100
AcDbEntity
  8
Screws
 62
256
370
-1
 48
1.0
  6
BYLAYER
100
AcDbCircle
 10
-70.9999999999999858
 20
834.5
 30
0.0
 40
2.4999999999999147
  0
CIRCLE
  5
1D9
100
AcDbEntity
  8
Screws
 62
256
370
-1
 48
1.0
  6
BYLAYER
100
AcDbCircle
 10
-344.9999999999997158
 20
834.5
 30
0.0
 40
2.4999999999999147
  0
CIRCLE
  5
1DA
100
AcDbEntity
  8
Screws
 62
256
370
-1
 48
1.0
  6
BYLAYER
100
AcDbCircle
 10
-70.9999999999999858
 20
1190.5
 30
0.0
 40
5.1961524227065325
  0
CIRCLE
  5
1DB
100
AcDbEntity
  8
Screws
 62
256
370
-1
 48
1.0
  6
BYLAYER
100
AcDbCircle
 10
-344.9999999999997158
 20
1190.5
 30
0.0
 40
5.1961524227065325
  0
CIRCLE
  5
1DC
100
AcDbEntity
  8
Screws
 62
256
370
-1
 48
1.0
  6
BYLAYER
100
AcDbCircle
 10
-70.9999999999999858
 20
1190.5
 30
0.0
 40
2.4999999999999147
  0
CIRCLE
  5
1DD
100
AcDbEntity
  8
Screws
 62
256
370
-1
 48
1.0
  6
BYLAYER
100
AcDbCircle
 10
-344.9999999999997158
 20
1190.5
 30
0.0
 40
2.4999999999999147
  0
CIRCLE
  5
1DE
100
AcDbEntity
  8
Screws
 62
256
370
-1
 48
1.0
  6
BYLAYER
100
AcDbCircle
 10
-70.9999999999999858
 20
1546.5
 30
0.0
 40
5.1961524227065325
  0
CIRCLE
  5
1DF
100
AcDbEntity
  8
Screws
 62
256
370
-1
 48
1.0
  6
BYLAYER
100
AcDbCircle
 10
-344.9999999999997158
 20
1546.5
 30
0.0
 40
5.1961524227065325
  0
CIRCLE
  5
1E0
100
AcDbEntity
  8
Screws
 62
256
370
-1
 48
1.0
  6
BYLAYER
100
AcDbCircle
 10
-70.9999999999999858
 20
1546.5
 30
0.0
 40
2.4999999999999147
  0
CIRCLE
  5
1E1
100
AcDbEntity
  8
Screws
 62
256
370
-1
 48
1.0
  6
BYLAYER
100
AcDbCircle
 10
-344.9999999999997158
 20
1546.5
 30
0.0
 40
2.4999999999999147
  0
CIRCLE
  5
1E2
100
AcDbEntity
  8
Screws
 62
256
370
-1
 48
1.0
  6
BYLAYER
100
AcDbCircle
 10
-70.9999999999999858
 20
1902.5
 30
0.0
 40
5.1961524227065325
  0
CIRCLE
  5
1E3
100
AcDbEntity
  8
Screws
 62
256
370
-1
 48
1.0
  6
BYLAYER
100
AcDbCircle
 10
-344.9999999999997158
 20
1902.5
 30
0.0
 40
5.1961524227065325
  0
CIRCLE
  5
1E4
100
AcDbEntity
  8
Screws
 62
256
370
-1
 48
1.0
  6
BYLAYER
100
AcDbCircle
 10
-70.9999999999999858
 20
1902.5
 30
0.0
 40
2.4999999999999147
  0
CIRCLE
  5
1E5
100
AcDbEntity
  8
Screws
 62
256
370
-1
 48
1.0
  6
BYLAYER
100
AcDbCircle
 10
-344.9999999999997158
 20
1902.5
 30
0.0
 40
2.4999999999999147
  0
HATCH
  5
1E6
100
AcDbEntity
  8
Screws
 62
256
370
-1
 48
1.0
  6
BYLAYER
100
AcDbHatch
 10
0.0
 20
0.0
 30
0.0
210
0.0
220
0.0
230
1.0
  2
LINE
 70
0
 71
0
 91
2
 92
1
 93
7
 72
1
 10
111.9999999999998863
 20
1899.9999999999997726
 11
9.9999999999998845
 21
1900.0
 72
1
 10
9.9999999999998845
 20
1900.0
 11
9.9999999999998863
 21
1905.0
 72
1
 10
9.9999999999998863
 20
1905.0
 11
111.9999999999998863
 21
1905.0000000000002274
 72
1
 10
111.9999999999998863
 20
1905.0000000000002274
 11
111.9999999999998863
 21
1899.9999999999997726
 72
1
 10
111.9999999999998863
 20
1899.9999999999997726
 11
111.9999999999998863
 21
1905.0000000000002274
 72
1
 10
111.9999999999998863
 20
1905.0000000000002274
 11
116.3301270189220986
 21
1902.5
 72
1
 10
116.3301270189220986
 20
1902.5
 11
111.9999999999998863
 21
1899.9999999999997726
 97
0
 92
1
 93
3
 72
1
 10
19.0000000000001137
 20
1902.5
 11
10.0
 21
1907.6961524227069731
 72
1
 10
10.0
 20
1907.6961524227069731
 11
9.9999999999998863
 21
1897.3038475772934817
 72
1
 10
9.9999999999998863
 20
1897.3038475772934817
 11
19.0000000000001137
 21
1902.5
 97
0
 75
0
 76
1
 52
225.0
 41
1.0
 77
0
 78
1
 53
45.0
 43
0.0
 44
0.0
 45
-0.0883883476483184
 46
0.0883883476483185
 79
0
 98
0
1001
ACAD
1010
0.0
1020
0.0
1030
0
  0
HATCH
  5
1E7
100
AcDbEntity
  8
Screws
 62
256
370
-1
 48
1.0
  6
BYLAYER
100
AcDbHatch
 10
0.0
 20
0.0
 30
0.0
210
0.0
220
0.0
230
1.0
  2
LINE
 70
0
 71
0
 91
1
 92
1
 93
3
 72
1
 10
19.0000000000001137
 20
1902.5
 11
10.0
 21
1907.6961524227069731
 72
1
 10
10.0
 20
1907.6961524227069731
 11
9.9999999999998863
 21
1897.3038475772934817
 72
1
 10
9.9999999999998863
 20
1897.3038475772934817
 11
19.0000000000001137
 21
1902.5
 97
0
 75
0
 76
1
 52
225.0
 41
1.0
 77
0
 78
1
 53
45.0
 43
0.0
 44
0.0
 45
-0.0883883476483184
 46
0.0883883476483185
 79
0
 98
0
1001
ACAD
1010
0.0
1020
0.0
1030
0
  0
HATCH
  5
1E8
100
AcDbEntity
  8
Screws
 62
256
370
-1
 48
1.0
  6
BYLAYER
100
AcDbHatch
 10
0.0
 20
0.0
 30
0.0
210
0.0
220
0.0
230
1.0
  2
LINE
 70
0
 71
0
 91
1
 92
1
 93
3
 72
1
 10
19.0000000000003411
 20
1190.5
 11
10.0000000000002274
 21
1195.6961524227069731
 72
1
 10
10.0000000000002274
 20
1195.6961524227069731
 11
10.0000000000001137
 21
1185.3038475772934817
 72
1
 10
10.0000000000001137
 20
1185.3038475772934817
 11
19.0000000000003411
 21
1190.5
 97
0
 75
0
 76
1
 52
225.0
 41
1.0
 77
0
 78
1
 53
45.0
 43
0.0
 44
0.0
 45
-0.0883883476483184
 46
0.0883883476483185
 79
0
 98
0
1001
ACAD
1010
0.0
1020
0.0
1030
0
  0
HATCH
  5
1E9
100
AcDbEntity
  8
Screws
 62
256
370
-1
 48
1.0
  6
BYLAYER
100
AcDbHatch
 10
0.0
 20
0.0
 30
0.0
210
0.0
220
0.0
230
1.0
  2
LINE
 70
0
 71
0
 91
2
 92
1
 93
7
 72
1
 10
112.0000000000001137
 20
1187.9999999999997726
 11
10.0000000000001119
 21
1188.0
 72
1
 10
10.0000000000001119
 20
1188.0
 11
10.0000000000001137
 21
1193.0
 72
1
 10
10.0000000000001137
 20
1193.0
 11
112.0000000000001137
 21
1193.0000000000002274
 72
1
 10
112.0000000000001137
 20
1193.0000000000002274
 11
112.0000000000001137
 21
1187.9999999999997726
 72
1
 10
112.0000000000001137
 20
1187.9999999999997726
 11
112.0000000000001137
 21
1193.0000000000002274
 72
1
 10
112.0000000000001137
 20
1193.0000000000002274
 11
116.330127018922326
 21
1190.5
 72
1
 10
116.330127018922326
 20
1190.5
 11
112.0000000000001137
 21
1187.9999999999997726
 97
0
 92
1
 93
3
 72
1
 10
19.0000000000003411
 20
1190.5
 11
10.0000000000002274
 21
1195.6961524227069731
 72
1
 10
10.0000000000002274
 20
1195.6961524227069731
 11
10.0000000000001137
 21
1185.3038475772934817
 72
1
 10
10.0000000000001137
 20
1185.3038475772934817
 11
19.0000000000003411
 21
1190.5
 97
0
 75
0
 76
1
 52
225.0
 41
1.0
 77
0
 78
1
 53
45.0
 43
0.0
 44
0.0
 45
-0.0883883476483184
 46
0.0883883476483185
 79
0
 98
0
1001
ACAD
1010
0.0
1020
0.0
1030
0
  0
HATCH
  5
1EA
100
AcDbEntity
  8
Screws
 62
256
370
-1
 48
1.0
  6
BYLAYER
100
AcDbHatch
 10
0.0
 20
0.0
 30
0.0
210
0.0
220
0.0
230
1.0
  2
LINE
 70
0
 71
0
 91
2
 92
1
 93
7
 72
1
 10
112.0000000000003411
 20
475.9999999999997726
 11
10.0000000000003393
 21
476.0
 72
1
 10
10.0000000000003393
 20
476.0
 11
10.0000000000003411
 21
481.0
 72
1
 10
10.0000000000003411
 20
481.0
 11
112.0000000000003411
 21
481.0000000000002274
 72
1
 10
112.0000000000003411
 20
481.0000000000002274
 11
112.0000000000003411
 21
475.9999999999997726
 72
1
 10
112.0000000000003411
 20
475.9999999999997726
 11
112.0000000000003411
 21
481.0000000000002274
 72
1
 10
112.0000000000003411
 20
481.0000000000002274
 11
116.3301270189225534
 21
478.5
 72
1
 10
116.3301270189225534
 20
478.5
 11
112.0000000000003411
 21
475.9999999999997726
 97
0
 92
1
 93
3
 72
1
 10
19.0000000000005684
 20
478.5
 11
10.0000000000004547
 21
483.6961524227069731
 72
1
 10
10.0000000000004547
 20
483.6961524227069731
 11
10.0000000000003411
 21
473.3038475772934817
 72
1
 10
10.0000000000003411
 20
473.3038475772934817
 11
19.0000000000005684
 21
478.5
 97
0
 75
0
 76
1
 52
225.0
 41
1.0
 77
0
 78
1
 53
45.0
 43
0.0
 44
0.0
 45
-0.0883883476483184
 46
0.0883883476483185
 79
0
 98
0
1001
ACAD
1010
0.0
1020
0.0
1030
0
  0
HATCH
  5
1EB
100
AcDbEntity
  8
Screws
 62
256
370
-1
 48
1.0
  6
BYLAYER
100
AcDbHatch
 10
0.0
 20
0.0
 30
0.0
210
0.0
220
0.0
230
1.0
  2
LINE
 70
0
 71
0
 91
1
 92
1
 93
3
 72
1
 10
19.0000000000005684
 20
478.5
 11
10.0000000000004547
 21
483.6961524227069731
 72
1
 10
10.0000000000004547
 20
483.6961524227069731
 11
10.0000000000003411
 21
473.3038475772934817
 72
1
 10
10.0000000000003411
 20
473.3038475772934817
 11
19.0000000000005684
 21
478.5
 97
0
 75
0
 76
1
 52
225.0
 41
1.0
 77
0
 78
1
 53
45.0
 43
0.0
 44
0.0
 45
-0.0883883476483184
 46
0.0883883476483185
 79
0
 98
0
1001
ACAD
1010
0.0
1020
0.0
1030
0
  0
HATCH
  5
1EC
100
AcDbEntity
  8
Screws
 62
256
370
-1
 48
1.0
  6
BYLAYER
100
AcDbHatch
 10
0.0
 20
0.0
 30
0.0
210
0.0
220
0.0
230
1.0
  2
LINE
 70
0
 71
0
 91
2
 92
1
 93
7
 72
1
 10
822.0
 20
-342.4999999999997726
 11
924.0
 21
-342.4999999999997726
 72
1
 10
924.0
 20
-342.4999999999997726
 11
924.0
 21
-347.4999999999997726
 72
1
 10
924.0
 20
-347.4999999999997726
 11
822.0
 21
-347.4999999999997726
 72
1
 10
822.0
 20
-347.4999999999997726
 11
822.0
 21
-342.4999999999997726
 72
1
 10
822.0
 20
-342.4999999999997726
 11
822.0
 21
-347.4999999999997726
 72
1
 10
822.0
 20
-347.4999999999997726
 11
817.6698729810777877
 21
-344.9999999999997726
 72
1
 10
817.6698729810777877
 20
-344.9999999999997726
 11
822.0
 21
-342.4999999999997726
 97
0
 92
1
 93
3
 72
1
 10
914.9999999999997726
 20
-345.0
 11
923.9999999999998863
 21
-350.1961524227067457
 72
1
 10
923.9999999999998863
 20
-350.1961524227067457
 11
924.0
 21
-339.8038475772932543
 72
1
 10
924.0
 20
-339.8038475772932543
 11
914.9999999999997726
 21
-345.0
 97
0
 75
0
 76
1
 52
45.0
 41
1.0
 77
0
 78
1
 53
45.0
 43
0.0
 44
0.0
 45
-0.0883883476483184
 46
0.0883883476483185
 79
0
 98
0
1001
ACAD
1010
0.0
1020
0.0
1030
0
  0
HATCH
  5
1ED
100
AcDbEntity
  8
Screws
 62
256
370
-1
 48
1.0
  6
BYLAYER
100
AcDbHatch
 10
0.0
 20
0.0
 30
0.0
210
0.0
220
0.0
230
1.0
  2
LINE
 70
0
 71
0
 91
2
 92
1
 93
7
 72
1
 10
112.0000000000004547
 20
-347.5
 11
10.000000000000453
 21
-347.4999999999997726
 72
1
 10
10.000000000000453
 20
-347.4999999999997726
 11
10.0000000000004547
 21
-342.4999999999997726
 72
1
 10
10.0000000000004547
 20
-342.4999999999997726
 11
112.0000000000004547
 21
-342.4999999999995453
 72
1
 10
112.0000000000004547
 20
-342.4999999999995453
 11
112.0000000000004547
 21
-347.5
 72
1
 10
112.0000000000004547
 20
-347.5
 11
112.0000000000004547
 21
-342.4999999999995453
 72
1
 10
112.0000000000004547
 20
-342.4999999999995453
 11
116.330127018922667
 21
-344.9999999999997726
 72
1
 10
116.330127018922667
 20
-344.9999999999997726
 11
112.0000000000004547
 21
-347.5
 97
0
 92
1
 93
3
 72
1
 10
19.0000000000006821
 20
-344.9999999999997726
 11
10.0000000000005684
 21
-339.8038475772927995
 72
1
 10
10.0000000000005684
 20
-339.8038475772927995
 11
10.0000000000004547
 21
-350.196152422706291
 72
1
 10
10.0000000000004547
 20
-350.196152422706291
 11
19.0000000000006821
 21
-344.9999999999997726
 97
0
 75
0
 76
1
 52
225.0
 41
1.0
 77
0
 78
1
 53
45.0
 43
0.0
 44
0.0
 45
-0.0883883476483184
 46
0.0883883476483185
 79
0
 98
0
1001
ACAD
1010
0.0
1020
0.0
1030
0
  0
HATCH
  5
1EE
100
AcDbEntity
  8
Screws
 62
256
370
-1
 48
1.0
  6
BYLAYER
100
AcDbHatch
 10
0.0
 20
0.0
 30
0.0
210
0.0
220
0.0
230
1.0
  2
LINE
 70
0
 71
0
 91
1
 92
1
 93
3
 72
1
 10
914.9999999999997726
 20
-345.0
 11
923.9999999999998863
 21
-350.1961524227067457
 72
1
 10
923.9999999999998863
 20
-350.1961524227067457
 11
924.0
 21
-339.8038475772932543
 72
1
 10
924.0
 20
-339.8038475772932543
 11
914.9999999999997726
 21
-345.0
 97
0
 75
0
 76
1
 52
45.0
 41
1.0
 77
0
 78
1
 53
45.0
 43
0.0
 44
0.0
 45
-0.0883883476483184
 46
0.0883883476483185
 79
0
 98
0
1001
ACAD
1010
0.0
1020
0.0
1030
0
  0
HATCH
  5
1EF
100
AcDbEntity
  8
Screws
 62
256
370
-1
 48
1.0
  6
BYLAYER
100
AcDbHatch
 10
0.0
 20
0.0
 30
0.0
210
0.0
220
0.0
230
1.0
  2
LINE
 70
0
 71
0
 91
1
 92
1
 93
3
 72
1
 10
19.0000000000006821
 20
-344.9999999999997726
 11
10.0000000000005684
 21
-339.8038475772927995
 72
1
 10
10.0000000000005684
 20
-339.8038475772927995
 11
10.0000000000004547
 21
-350.196152422706291
 72
1
 10
10.0000000000004547
 20
-350.196152422706291
 11
19.0000000000006821
 21
-344.9999999999997726
 97
0
 75
0
 76
1
 52
225.0
 41
1.0
 77
0
 78
1
 53
45.0
 43
0.0
 44
0.0
 45
-0.0883883476483184
 46
0.0883883476483185
 79
0
 98
0
1001
ACAD
1010
0.0
1020
0.0
1030
0
  0
HATCH
  5
1F0
100
AcDbEntity
  8
Screws
 62
256
370
-1
 48
1.0
  6
BYLAYER
100
AcDbHatch
 10
0.0
 20
0.0
 30
0.0
210
0.0
220
0.0
230
1.0
  2
LINE
 70
0
 71
0
 91
2
 92
1
 93
7
 72
1
 10
112.0000000000004547
 20
119.9999999999997726
 11
10.000000000000453
 21
120.0
 72
1
 10
10.000000000000453
 20
120.0
 11
10.0000000000004547
 21
125.0
 72
1
 10
10.0000000000004547
 20
125.0
 11
112.0000000000004547
 21
125.0000000000002274
 72
1
 10
112.0000000000004547
 20
125.0000000000002274
 11
112.0000000000004547
 21
119.9999999999997726
 72
1
 10
112.0000000000004547
 20
119.9999999999997726
 11
112.0000000000004547
 21
125.0000000000002274
 72
1
 10
112.0000000000004547
 20
125.0000000000002274
 11
116.330127018922667
 21
122.5
 72
1
 10
116.330127018922667
 20
122.5
 11
112.0000000000004547
 21
119.9999999999997726
 97
0
 92
1
 93
3
 72
1
 10
19.0000000000006821
 20
122.5
 11
10.0000000000005684
 21
127.6961524227069731
 72
1
 10
10.0000000000005684
 20
127.6961524227069731
 11
10.0000000000004547
 21
117.3038475772934817
 72
1
 10
10.0000000000004547
 20
117.3038475772934817
 11
19.0000000000006821
 21
122.5
 97
0
 75
0
 76
1
 52
225.0
 41
1.0
 77
0
 78
1
 53
45.0
 43
0.0
 44
0.0
 45
-0.0883883476483184
 46
0.0883883476483185
 79
0
 98
0
1001
ACAD
1010
0.0
1020
0.0
1030
0
  0
HATCH
  5
1F1
100
AcDbEntity
  8
Screws
 62
256
370
-1
 48
1.0
  6
BYLAYER
100
AcDbHatch
 10
0.0
 20
0.0
 30
0.0
210
0.0
220
0.0
230
1.0
  2
LINE
 70
0
 71
0
 91
1
 92
1
 93
3
 72
1
 10
19.0000000000006821
 20
122.5
 11
10.0000000000005684
 21
127.6961524227069731
 72
1
 10
10.0000000000005684
 20
127.6961524227069731
 11
10.0000000000004547
 21
117.3038475772934817
 72
1
 10
10.0000000000004547
 20
117.3038475772934817
 11
19.0000000000006821
 21
122.5
 97
0
 75
0
 76
1
 52
225.0
 41
1.0
 77
0
 78
1
 53
45.0
 43
0.0
 44
0.0
 45
-0.0883883476483184
 46
0.0883883476483185
 79
0
 98
0
1001
ACAD
1010
0.0
1020
0.0
1030
0
  0
HATCH
  5
1F2
100
AcDbEntity
  8
Screws
 62
256
370
-1
 48
1.0
  6
BYLAYER
100
AcDbHatch
 10
0.0
 20
0.0
 30
0.0
210
0.0
220
0.0
230
1.0
  2
LINE
 70
0
 71
0
 91
1
 92
1
 93
3
 72
1
 10
914.9999999999997726
 20
122.4999999999997726
 11
923.9999999999998863
 21
117.3038475772930269
 72
1
 10
923.9999999999998863
 20
117.3038475772930269
 11
924.0
 21
127.6961524227065183
 72
1
 10
924.0
 20
127.6961524227065183
 11
914.9999999999997726
 21
122.4999999999997726
 97
0
 75
0
 76
1
 52
45.0
 41
1.0
 77
0
 78
1
 53
45.0
 43
0.0
 44
0.0
 45
-0.0883883476483184
 46
0.0883883476483185
 79
0
 98
0
1001
ACAD
1010
0.0
1020
0.0
1030
0
  0
HATCH
  5
1F3
100
AcDbEntity
  8
Screws
 62
256
370
-1
 48
1.0
  6
BYLAYER
100
AcDbHatch
 10
0.0
 20
0.0
 30
0.0
210
0.0
220
0.0
230
1.0
  2
LINE
 70
0
 71
0
 91
2
 92
1
 93
7
 72
1
 10
822.0
 20
481.0
 11
924.0
 21
481.0
 72
1
 10
924.0
 20
481.0
 11
924.0
 21
476.0
 72
1
 10
924.0
 20
476.0
 11
822.0
 21
476.0
 72
1
 10
822.0
 20
476.0
 11
822.0
 21
481.0
 72
1
 10
822.0
 20
481.0
 11
822.0
 21
476.0
 72
1
 10
822.0
 20
476.0
 11
817.6698729810777877
 21
478.5
 72
1
 10
817.6698729810777877
 20
478.5
 11
822.0
 21
481.0
 97
0
 92
1
 93
3
 72
1
 10
914.9999999999997726
 20
478.4999999999997726
 11
923.9999999999998863
 21
473.3038475772930269
 72
1
 10
923.9999999999998863
 20
473.3038475772930269
 11
924.0
 21
483.6961524227065183
 72
1
 10
924.0
 20
483.6961524227065183
 11
914.9999999999997726
 21
478.4999999999997726
 97
0
 75
0
 76
1
 52
45.0
 41
1.0
 77
0
 78
1
 53
45.0
 43
0.0
 44
0.0
 45
-0.0883883476483184
 46
0.0883883476483185
 79
0
 98
0
1001
ACAD
1010
0.0
1020
0.0
1030
0
  0
HATCH
  5
1F4
100
AcDbEntity
  8
Screws
 62
256
370
-1
 48
1.0
  6
BYLAYER
100
AcDbHatch
 10
0.0
 20
0.0
 30
0.0
210
0.0
220
0.0
230
1.0
  2
LINE
 70
0
 71
0
 91
1
 92
1
 93
3
 72
1
 10
914.9999999999997726
 20
478.4999999999997726
 11
923.9999999999998863
 21
473.3038475772930269
 72
1
 10
923.9999999999998863
 20
473.3038475772930269
 11
924.0
 21
483.6961524227065183
 72
1
 10
924.0
 20
483.6961524227065183
 11
914.9999999999997726
 21
478.4999999999997726
 97
0
 75
0
 76
1
 52
45.0
 41
1.0
 77
0
 78
1
 53
45.0
 43
0.0
 44
0.0
 45
-0.0883883476483184
 46
0.0883883476483185
 79
0
 98
0
1001
ACAD
1010
0.0
1020
0.0
1030
0
  0
HATCH
  5
1F5
100
AcDbEntity
  8
Screws
 62
256
370
-1
 48
1.0
  6
BYLAYER
100
AcDbHatch
 10
0.0
 20
0.0
 30
0.0
210
0.0
220
0.0
230
1.0
  2
LINE
 70
0
 71
0
 91
2
 92
1
 93
7
 72
1
 10
822.0
 20
837.0
 11
924.0
 21
837.0
 72
1
 10
924.0
 20
837.0
 11
924.0
 21
832.0
 72
1
 10
924.0
 20
832.0
 11
822.0
 21
832.0
 72
1
 10
822.0
 20
832.0
 11
822.0
 21
837.0
 72
1
 10
822.0
 20
837.0
 11
822.0
 21
832.0
 72
1
 10
822.0
 20
832.0
 11
817.6698729810777877
 21
834.5
 72
1
 10
817.6698729810777877
 20
834.5
 11
822.0
 21
837.0
 97
0
 92
1
 93
3
 72
1
 10
914.9999999999997726
 20
834.4999999999997726
 11
923.9999999999998863
 21
829.3038475772930269
 72
1
 10
923.9999999999998863
 20
829.3038475772930269
 11
924.0
 21
839.6961524227065183
 72
1
 10
924.0
 20
839.6961524227065183
 11
914.9999999999997726
 21
834.4999999999997726
 97
0
 75
0
 76
1
 52
45.0
 41
1.0
 77
0
 78
1
 53
45.0
 43
0.0
 44
0.0
 45
-0.0883883476483184
 46
0.0883883476483185
 79
0
 98
0
1001
ACAD
1010
0.0
1020
0.0
1030
0
  0
HATCH
  5
1F6
100
AcDbEntity
  8
Screws
 62
256
370
-1
 48
1.0
  6
BYLAYER
100
AcDbHatch
 10
0.0
 20
0.0
 30
0.0
210
0.0
220
0.0
230
1.0
  2
LINE
 70
0
 71
0
 91
1
 92
1
 93
3
 72
1
 10
914.9999999999997726
 20
834.4999999999997726
 11
923.9999999999998863
 21
829.3038475772930269
 72
1
 10
923.9999999999998863
 20
829.3038475772930269
 11
924.0
 21
839.6961524227065183
 72
1
 10
924.0
 20
839.6961524227065183
 11
914.9999999999997726
 21
834.4999999999997726
 97
0
 75
0
 76
1
 52
45.0
 41
1.0
 77
0
 78
1
 53
45.0
 43
0.0
 44
0.0
 45
-0.0883883476483184
 46
0.0883883476483185
 79
0
 98
0
1001
ACAD
1010
0.0
1020
0.0
1030
0
  0
HATCH
  5
1F7
100
AcDbEntity
  8
Screws
 62
256
370
-1
 48
1.0
  6
BYLAYER
100
AcDbHatch
 10
0.0
 20
0.0
 30
0.0
210
0.0
220
0.0
230
1.0
  2
LINE
 70
0
 71
0
 91
1
 92
1
 93
3
 72
1
 10
914.9999999999997726
 20
-71.0000000000002274
 11
923.9999999999998863
 21
-76.1961524227069731
 72
1
 10
923.9999999999998863
 20
-76.1961524227069731
 11
924.0
 21
-65.8038475772934817
 72
1
 10
924.0
 20
-65.8038475772934817
 11
914.9999999999997726
 21
-71.0000000000002274
 97
0
 75
0
 76
1
 52
45.0
 41
1.0
 77
0
 78
1
 53
45.0
 43
0.0
 44
0.0
 45
-0.0883883476483184
 46
0.0883883476483185
 79
0
 98
0
1001
ACAD
1010
0.0
1020
0.0
1030
0
  0
HATCH
  5
1F8
100
AcDbEntity
  8
Screws
 62
256
370
-1
 48
1.0
  6
BYLAYER
100
AcDbHatch
 10
0.0
 20
0.0
 30
0.0
210
0.0
220
0.0
230
1.0
  2
LINE
 70
0
 71
0
 91
1
 92
1
 93
3
 72
1
 10
19.0000000000006821
 20
-71.0
 11
10.0000000000005684
 21
-65.8038475772930269
 72
1
 10
10.0000000000005684
 20
-65.8038475772930269
 11
10.0000000000004547
 21
-76.1961524227065183
 72
1
 10
10.0000000000004547
 20
-76.1961524227065183
 11
19.0000000000006821
 21
-71.0
 97
0
 75
0
 76
1
 52
225.0
 41
1.0
 77
0
 78
1
 53
45.0
 43
0.0
 44
0.0
 45
-0.0883883476483184
 46
0.0883883476483185
 79
0
 98
0
1001
ACAD
1010
0.0
1020
0.0
1030
0
  0
HATCH
  5
1F9
100
AcDbEntity
  8
Screws
 62
256
370
-1
 48
1.0
  6
BYLAYER
100
AcDbHatch
 10
0.0
 20
0.0
 30
0.0
210
0.0
220
0.0
230
1.0
  2
LINE
 70
0
 71
0
 91
2
 92
1
 93
7
 72
1
 10
822.0
 20
-68.5
 11
924.0
 21
-68.5
 72
1
 10
924.0
 20
-68.5
 11
924.0
 21
-73.5
 72
1
 10
924.0
 20
-73.5
 11
822.0
 21
-73.5
 72
1
 10
822.0
 20
-73.5
 11
822.0
 21
-68.5
 72
1
 10
822.0
 20
-68.5
 11
822.0
 21
-73.5
 72
1
 10
822.0
 20
-73.5
 11
817.6698729810777877
 21
-71.0
 72
1
 10
817.6698729810777877
 20
-71.0
 11
822.0
 21
-68.5
 97
0
 92
1
 93
3
 72
1
 10
914.9999999999997726
 20
-71.0000000000002274
 11
923.9999999999998863
 21
-76.1961524227069731
 72
1
 10
923.9999999999998863
 20
-76.1961524227069731
 11
924.0
 21
-65.8038475772934817
 72
1
 10
924.0
 20
-65.8038475772934817
 11
914.9999999999997726
 21
-71.0000000000002274
 97
0
 75
0
 76
1
 52
45.0
 41
1.0
 77
0
 78
1
 53
45.0
 43
0.0
 44
0.0
 45
-0.0883883476483184
 46
0.0883883476483185
 79
0
 98
0
1001
ACAD
1010
0.0
1020
0.0
1030
0
  0
HATCH
  5
1FA
100
AcDbEntity
  8
Screws
 62
256
370
-1
 48
1.0
  6
BYLAYER
100
AcDbHatch
 10
0.0
 20
0.0
 30
0.0
210
0.0
220
0.0
230
1.0
  2
LINE
 70
0
 71
0
 91
2
 92
1
 93
7
 72
1
 10
112.0000000000004547
 20
-73.5000000000002274
 11
10.000000000000453
 21
-73.5
 72
1
 10
10.000000000000453
 20
-73.5
 11
10.0000000000004547
 21
-68.5
 72
1
 10
10.0000000000004547
 20
-68.5
 11
112.0000000000004547
 21
-68.4999999999997726
 72
1
 10
112.0000000000004547
 20
-68.4999999999997726
 11
112.0000000000004547
 21
-73.5000000000002274
 72
1
 10
112.0000000000004547
 20
-73.5000000000002274
 11
112.0000000000004547
 21
-68.4999999999997726
 72
1
 10
112.0000000000004547
 20
-68.4999999999997726
 11
116.330127018922667
 21
-71.0
 72
1
 10
116.330127018922667
 20
-71.0
 11
112.0000000000004547
 21
-73.5000000000002274
 97
0
 92
1
 93
3
 72
1
 10
19.0000000000006821
 20
-71.0
 11
10.0000000000005684
 21
-65.8038475772930269
 72
1
 10
10.0000000000005684
 20
-65.8038475772930269
 11
10.0000000000004547
 21
-76.1961524227065183
 72
1
 10
10.0000000000004547
 20
-76.1961524227065183
 11
19.0000000000006821
 21
-71.0
 97
0
 75
0
 76
1
 52
225.0
 41
1.0
 77
0
 78
1
 53
45.0
 43
0.0
 44
0.0
 45
-0.0883883476483184
 46
0.0883883476483185
 79
0
 98
0
1001
ACAD
1010
0.0
1020
0.0
1030
0
  0
HATCH
  5
1FB
100
AcDbEntity
  8
Screws
 62
256
370
-1
 48
1.0
  6
BYLAYER
100
AcDbHatch
 10
0.0
 20
0.0
 30
0.0
210
0.0
220
0.0
230
1.0
  2
LINE
 70
0
 71
0
 91
2
 92
1
 93
7
 72
1
 10
822.0
 20
125.0
 11
924.0
 21
125.0
 72
1
 10
924.0
 20
125.0
 11
924.0
 21
120.0
 72
1
 10
924.0
 20
120.0
 11
822.0
 21
120.0
 72
1
 10
822.0
 20
120.0
 11
822.0
 21
125.0
 72
1
 10
822.0
 20
125.0
 11
822.0
 21
120.0
 72
1
 10
822.0
 20
120.0
 11
817.6698729810777877
 21
122.5
 72
1
 10
817.6698729810777877
 20
122.5
 11
822.0
 21
125.0
 97
0
 92
1
 93
3
 72
1
 10
914.9999999999997726
 20
122.4999999999997726
 11
923.9999999999998863
 21
117.3038475772930269
 72
1
 10
923.9999999999998863
 20
117.3038475772930269
 11
924.0
 21
127.6961524227065183
 72
1
 10
924.0
 20
127.6961524227065183
 11
914.9999999999997726
 21
122.4999999999997726
 97
0
 75
0
 76
1
 52
45.0
 41
1.0
 77
0
 78
1
 53
45.0
 43
0.0
 44
0.0
 45
-0.0883883476483184
 46
0.0883883476483185
 79
0
 98
0
1001
ACAD
1010
0.0
1020
0.0
1030
0
  0
HATCH
  5
1FC
100
AcDbEntity
  8
Screws
 62
256
370
-1
 48
1.0
  6
BYLAYER
100
AcDbHatch
 10
0.0
 20
0.0
 30
0.0
210
0.0
220
0.0
230
1.0
  2
LINE
 70
0
 71
0
 91
2
 92
1
 93
7
 72
1
 10
112.0000000000002274
 20
831.9999999999997726
 11
10.0000000000002256
 21
832.0
 72
1
 10
10.0000000000002256
 20
832.0
 11
10.0000000000002274
 21
837.0
 72
1
 10
10.0000000000002274
 20
837.0
 11
112.0000000000002274
 21
837.0000000000002274
 72
1
 10
112.0000000000002274
 20
837.0000000000002274
 11
112.0000000000002274
 21
831.9999999999997726
 72
1
 10
112.0000000000002274
 20
831.9999999999997726
 11
112.0000000000002274
 21
837.0000000000002274
 72
1
 10
112.0000000000002274
 20
837.0000000000002274
 11
116.3301270189224397
 21
834.5
 72
1
 10
116.3301270189224397
 20
834.5
 11
112.0000000000002274
 21
831.9999999999997726
 97
0
 92
1
 93
3
 72
1
 10
19.0000000000004547
 20
834.5
 11
10.0000000000003411
 21
839.6961524227069731
 72
1
 10
10.0000000000003411
 20
839.6961524227069731
 11
10.0000000000002274
 21
829.3038475772934817
 72
1
 10
10.0000000000002274
 20
829.3038475772934817
 11
19.0000000000004547
 21
834.5
 97
0
 75
0
 76
1
 52
225.0
 41
1.0
 77
0
 78
1
 53
45.0
 43
0.0
 44
0.0
 45
-0.0883883476483184
 46
0.0883883476483185
 79
0
 98
0
1001
ACAD
1010
0.0
1020
0.0
1030
0
  0
HATCH
  5
1FD
100
AcDbEntity
  8
Screws
 62
256
370
-1
 48
1.0
  6
BYLAYER
100
AcDbHatch
 10
0.0
 20
0.0
 30
0.0
210
0.0
220
0.0
230
1.0
  2
LINE
 70
0
 71
0
 91
1
 92
1
 93
3
 72
1
 10
19.0000000000004547
 20
834.5
 11
10.0000000000003411
 21
839.6961524227069731
 72
1
 10
10.0000000000003411
 20
839.6961524227069731
 11
10.0000000000002274
 21
829.3038475772934817
 72
1
 10
10.0000000000002274
 20
829.3038475772934817
 11
19.0000000000004547
 21
834.5
 97
0
 75
0
 76
1
 52
225.0
 41
1.0
 77
0
 78
1
 53
45.0
 43
0.0
 44
0.0
 45
-0.0883883476483184
 46
0.0883883476483185
 79
0
 98
0
1001
ACAD
1010
0.0
1020
0.0
1030
0
  0
HATCH
  5
1FE
100
AcDbEntity
  8
Screws
 62
256
370
-1
 48
1.0
  6
BYLAYER
100
AcDbHatch
 10
0.0
 20
0.0
 30
0.0
210
0.0
220
0.0
230
1.0
  2
LINE
 70
0
 71
0
 91
2
 92
1
 93
7
 72
1
 10
822.0
 20
1549.0
 11
924.0
 21
1549.0
 72
1
 10
924.0
 20
1549.0
 11
924.0
 21
1544.0
 72
1
 10
924.0
 20
1544.0
 11
822.0
 21
1544.0
 72
1
 10
822.0
 20
1544.0
 11
822.0
 21
1549.0
 72
1
 10
822.0
 20
1549.0
 11
822.0
 21
1544.0
 72
1
 10
822.0
 20
1544.0
 11
817.6698729810777877
 21
1546.5
 72
1
 10
817.6698729810777877
 20
1546.5
 11
822.0
 21
1549.0
 97
0
 92
1
 93
3
 72
1
 10
914.9999999999997726
 20
1546.4999999999997726
 11
923.9999999999998863
 21
1541.3038475772930269
 72
1
 10
923.9999999999998863
 20
1541.3038475772930269
 11
924.0
 21
1551.6961524227065183
 72
1
 10
924.0
 20
1551.6961524227065183
 11
914.9999999999997726
 21
1546.4999999999997726
 97
0
 75
0
 76
1
 52
45.0
 41
1.0
 77
0
 78
1
 53
45.0
 43
0.0
 44
0.0
 45
-0.0883883476483184
 46
0.0883883476483185
 79
0
 98
0
1001
ACAD
1010
0.0
1020
0.0
1030
0
  0
HATCH
  5
1FF
100
AcDbEntity
  8
Screws
 62
256
370
-1
 48
1.0
  6
BYLAYER
100
AcDbHatch
 10
0.0
 20
0.0
 30
0.0
210
0.0
220
0.0
230
1.0
  2
LINE
 70
0
 71
0
 91
2
 92
1
 93
7
 72
1
 10
822.0
 20
1905.0
 11
924.0
 21
1905.0
 72
1
 10
924.0
 20
1905.0
 11
924.0
 21
1900.0
 72
1
 10
924.0
 20
1900.0
 11
822.0
 21
1900.0
 72
1
 10
822.0
 20
1900.0
 11
822.0
 21
1905.0
 72
1
 10
822.0
 20
1905.0
 11
822.0
 21
1900.0
 72
1
 10
822.0
 20
1900.0
 11
817.6698729810777877
 21
1902.5
 72
1
 10
817.6698729810777877
 20
1902.5
 11
822.0
 21
1905.0
 97
0
 92
1
 93
3
 72
1
 10
914.9999999999997726
 20
1902.4999999999997726
 11
923.9999999999998863
 21
1897.3038475772930269
 72
1
 10
923.9999999999998863
 20
1897.3038475772930269
 11
924.0
 21
1907.6961524227065183
 72
1
 10
924.0
 20
1907.6961524227065183
 11
914.9999999999997726
 21
1902.4999999999997726
 97
0
 75
0
 76
1
 52
45.0
 41
1.0
 77
0
 78
1
 53
45.0
 43
0.0
 44
0.0
 45
-0.0883883476483184
 46
0.0883883476483185
 79
0
 98
0
1001
ACAD
1010
0.0
1020
0.0
1030
0
  0
HATCH
  5
200
100
AcDbEntity
  8
Screws
 62
256
370
-1
 48
1.0
  6
BYLAYER
100
AcDbHatch
 10
0.0
 20
0.0
 30
0.0
210
0.0
220
0.0
230
1.0
  2
LINE
 70
0
 71
0
 91
1
 92
1
 93
3
 72
1
 10
914.9999999999997726
 20
1902.4999999999997726
 11
923.9999999999998863
 21
1897.3038475772930269
 72
1
 10
923.9999999999998863
 20
1897.3038475772930269
 11
924.0
 21
1907.6961524227065183
 72
1
 10
924.0
 20
1907.6961524227065183
 11
914.9999999999997726
 21
1902.4999999999997726
 97
0
 75
0
 76
1
 52
45.0
 41
1.0
 77
0
 78
1
 53
45.0
 43
0.0
 44
0.0
 45
-0.0883883476483184
 46
0.0883883476483185
 79
0
 98
0
1001
ACAD
1010
0.0
1020
0.0
1030
0
  0
HATCH
  5
201
100
AcDbEntity
  8
Screws
 62
256
370
-1
 48
1.0
  6
BYLAYER
100
AcDbHatch
 10
0.0
 20
0.0
 30
0.0
210
0.0
220
0.0
230
1.0
  2
LINE
 70
0
 71
0
 91
2
 92
1
 93
7
 72
1
 10
822.0
 20
1193.0
 11
924.0
 21
1193.0
 72
1
 10
924.0
 20
1193.0
 11
924.0
 21
1188.0
 72
1
 10
924.0
 20
1188.0
 11
822.0
 21
1188.0
 72
1
 10
822.0
 20
1188.0
 11
822.0
 21
1193.0
 72
1
 10
822.0
 20
1193.0
 11
822.0
 21
1188.0
 72
1
 10
822.0
 20
1188.0
 11
817.6698729810777877
 21
1190.5
 72
1
 10
817.6698729810777877
 20
1190.5
 11
822.0
 21
1193.0
 97
0
 92
1
 93
3
 72
1
 10
914.9999999999997726
 20
1190.4999999999997726
 11
923.9999999999998863
 21
1185.3038475772930269
 72
1
 10
923.9999999999998863
 20
1185.3038475772930269
 11
924.0
 21
1195.6961524227065183
 72
1
 10
924.0
 20
1195.6961524227065183
 11
914.9999999999997726
 21
1190.4999999999997726
 97
0
 75
0
 76
1
 52
45.0
 41
1.0
 77
0
 78
1
 53
45.0
 43
0.0
 44
0.0
 45
-0.0883883476483184
 46
0.0883883476483185
 79
0
 98
0
1001
ACAD
1010
0.0
1020
0.0
1030
0
  0
HATCH
  5
202
100
AcDbEntity
  8
Screws
 62
256
370
-1
 48
1.0
  6
BYLAYER
100
AcDbHatch
 10
0.0
 20
0.0
 30
0.0
210
0.0
220
0.0
230
1.0
  2
LINE
 70
0
 71
0
 91
1
 92
1
 93
3
 72
1
 10
914.9999999999997726
 20
1190.4999999999997726
 11
923.9999999999998863
 21
1185.3038475772930269
 72
1
 10
923.9999999999998863
 20
1185.3038475772930269
 11
924.0
 21
1195.6961524227065183
 72
1
 10
924.0
 20
1195.6961524227065183
 11
914.9999999999997726
 21
1190.4999999999997726
 97
0
 75
0
 76
1
 52
45.0
 41
1.0
 77
0
 78
1
 53
45.0
 43
0.0
 44
0.0
 45
-0.0883883476483184
 46
0.0883883476483185
 79
0
 98
0
1001
ACAD
1010
0.0
1020
0.0
1030
0
  0
HATCH
  5
203
100
AcDbEntity
  8
Screws
 62
256
370
-1
 48
1.0
  6
BYLAYER
100
AcDbHatch
 10
0.0
 20
0.0
 30
0.0
210
0.0
220
0.0
230
1.0
  2
LINE
 70
0
 71
0
 91
1
 92
1
 93
3
 72
1
 10
914.9999999999997726
 20
1546.4999999999997726
 11
923.9999999999998863
 21
1541.3038475772930269
 72
1
 10
923.9999999999998863
 20
1541.3038475772930269
 11
924.0
 21
1551.6961524227065183
 72
1
 10
924.0
 20
1551.6961524227065183
 11
914.9999999999997726
 21
1546.4999999999997726
 97
0
 75
0
 76
1
 52
45.0
 41
1.0
 77
0
 78
1
 53
45.0
 43
0.0
 44
0.0
 45
-0.0883883476483184
 46
0.0883883476483185
 79
0
 98
0
1001
ACAD
1010
0.0
1020
0.0
1030
0
  0
HATCH
  5
204
100
AcDbEntity
  8
Screws
 62
256
370
-1
 48
1.0
  6
BYLAYER
100
AcDbHatch
 10
0.0
 20
0.0
 30
0.0
210
0.0
220
0.0
230
1.0
  2
LINE
 70
0
 71
0
 91
2
 92
1
 93
7
 72
1
 10
112.0
 20
1543.9999999999997726
 11
9.9999999999999982
 21
1544.0
 72
1
 10
9.9999999999999982
 20
1544.0
 11
10.0
 21
1549.0
 72
1
 10
10.0
 20
1549.0
 11
112.0
 21
1549.0000000000002274
 72
1
 10
112.0
 20
1549.0000000000002274
 11
112.0
 21
1543.9999999999997726
 72
1
 10
112.0
 20
1543.9999999999997726
 11
112.0
 21
1549.0000000000002274
 72
1
 10
112.0
 20
1549.0000000000002274
 11
116.3301270189222123
 21
1546.5
 72
1
 10
116.3301270189222123
 20
1546.5
 11
112.0
 21
1543.9999999999997726
 97
0
 92
1
 93
3
 72
1
 10
19.0000000000002274
 20
1546.5
 11
10.0000000000001137
 21
1551.6961524227069731
 72
1
 10
10.0000000000001137
 20
1551.6961524227069731
 11
10.0
 21
1541.3038475772934817
 72
1
 10
10.0
 20
1541.3038475772934817
 11
19.0000000000002274
 21
1546.5
 97
0
 75
0
 76
1
 52
225.0
 41
1.0
 77
0
 78
1
 53
45.0
 43
0.0
 44
0.0
 45
-0.0883883476483184
 46
0.0883883476483185
 79
0
 98
0
1001
ACAD
1010
0.0
1020
0.0
1030
0
  0
HATCH
  5
205
100
AcDbEntity
  8
Screws
 62
256
370
-1
 48
1.0
  6
BYLAYER
100
AcDbHatch
 10
0.0
 20
0.0
 30
0.0
210
0.0
220
0.0
230
1.0
  2
LINE
 70
0
 71
0
 91
1
 92
1
 93
3
 72
1
 10
19.0000000000002274
 20
1546.5
 11
10.0000000000001137
 21
1551.6961524227069731
 72
1
 10
10.0000000000001137
 20
1551.6961524227069731
 11
10.0
 21
1541.3038475772934817
 72
1
 10
10.0
 20
1541.3038475772934817
 11
19.0000000000002274
 21
1546.5
 97
0
 75
0
 76
1
 52
225.0
 41
1.0
 77
0
 78
1
 53
45.0
 43
0.0
 44
0.0
 45
-0.0883883476483184
 46
0.0883883476483185
 79
0
 98
0
1001
ACAD
1010
0.0
1020
0.0
1030
0
  0
DIMENSION
  5
206
100
AcDbEntity
  8
Dimensions
 62
256
370
-1
 48
1.0
  6
BYLAYER
100
AcDbDimension
 10
-396.0
 20
2000.0
 30
0.0
 11
-208.0
 21
2032.8125
 31
0.0
 70
0
 71
8
 72
2
 74
0
 75
0
 41
1.0
 42
0.0
  1

  3
Standard
100
AcDbAlignedDimension
 13
-396.0
 23
1915.0
 33
0.0
 14
-19.9999999999999964
 24
1915.0
 34
0.0
 50
0.0
100
AcDbRotatedDimension
1001
ACAD
1000
DSTYLE
1002
{
1070
144
1040
1.0
1070
40
1040
350.0
1002
}
  0
DIMENSION
  5
207
100
AcDbEntity
  8
Dimensions
 62
256
370
-1
 48
1.0
  6
BYLAYER
100
AcDbDimension
 10
-20.0
 20
2200.0
 30
0.0
 11
37.1255539887187709
 21
2232.8125
 31
0.0
 70
0
 71
8
 72
2
 74
0
 75
0
 41
1.0
 42
0.0
  1

  3
Standard
100
AcDbAlignedDimension
 13
-19.9999999999999964
 23
1915.0
 33
0.0
 14
-9.9999999999999982
 24
1915.0
 34
0.0
 50
0.0
100
AcDbRotatedDimension
1001
ACAD
1000
DSTYLE
1002
{
1070
144
1040
1.0
1070
40
1040
350.0
1002
}
  0
DIMENSION
  5
208
100
AcDbEntity
  8
Dimensions
 62
256
370
-1
 48
1.0
  6
BYLAYER
100
AcDbDimension
 10
-395.9999999999998863
 20
2100.0
 30
0.0
 11
-298.6500302175661545
 21
2132.8125
 31
0.0
 70
0
 71
8
 72
2
 74
0
 75
0
 41
1.0
 42
0.0
  1

  3
Standard
100
AcDbAlignedDimension
 13
-395.9999999999998863
 23
1915.0
 33
0.0
 14
-344.9999999999997158
 24
1902.5
 34
0.0
 50
0.0
100
AcDbRotatedDimension
1001
ACAD
1000
DSTYLE
1002
{
1070
144
1040
1.0
1070
40
1040
350.0
1002
}
  0
DIMENSION
  5
209
100
AcDbEntity
  8
Dimensions
 62
256
370
-1
 48
1.0
  6
BYLAYER
100
AcDbDimension
 10
-71.0
 20
2300.0
 30
0.0
 11
26.3499697824335044
 21
2332.8125
 31
0.0
 70
0
 71
8
 72
2
 74
0
 75
0
 41
1.0
 42
0.0
  1

  3
Standard
100
AcDbAlignedDimension
 13
-70.9999999999999858
 23
1900.0
 33
0.0
 14
-19.9999999999999964
 24
1899.9999999999997726
 34
0.0
 50
0.0
100
AcDbRotatedDimension
1001
ACAD
1000
DSTYLE
1002
{
1070
144
1040
1.0
1070
40
1040
350.0
1002
}
  0
DIMENSION
  5
20A
100
AcDbEntity
  8
Dimensions
 62
256
370
-1
 48
1.0
  6
BYLAYER
100
AcDbDimension
 10
-500.0
 20
1915.0
 30
0.0
 11
-532.8125
 21
1012.5
 31
0.0
 70
0
 71
8
 72
2
 74
0
 75
0
 41
1.0
 42
0.0
  1

  3
Standard
100
AcDbAlignedDimension
 13
-9.9999999999999982
 23
1915.0
 33
0.0
 14
-9.9999999999999982
 24
110.0
 34
0.0
 50
90.0
100
AcDbRotatedDimension
1001
ACAD
1000
DSTYLE
1002
{
1070
144
1040
1.0
1070
40
1040
350.0
1002
}
  0
DIMENSION
  5
20B
100
AcDbEntity
  8
Dimensions
 62
256
370
-1
 48
1.0
  6
BYLAYER
100
AcDbDimension
 10
60.0
 20
-700.0
 30
0.0
 11
466.5
 21
-667.1875
 31
0.0
 70
0
 71
8
 72
2
 74
0
 75
0
 41
1.0
 42
0.0
  1

  3
Standard
100
AcDbAlignedDimension
 13
60.0
 23
-396.0
 33
0.0
 14
873.0
 24
-396.0
 34
0.0
 50
0.0
100
AcDbRotatedDimension
1001
ACAD
1000
DSTYLE
1002
{
1070
144
1040
1.0
1070
40
1040
350.0
1002
}
  0
DIMENSION
  5
20C
100
AcDbEntity
  8
Dimensions
 62
256
370
-1
 48
1.0
  6
BYLAYER
100
AcDbDimension
 10
10.0
 20
-600.0
 30
0.0
 11
86.0
 21
-567.1875
 31
0.0
 70
0
 71
8
 72
2
 74
0
 75
0
 41
1.0
 42
0.0
  1

  3
Standard
100
AcDbAlignedDimension
 13
10.0
 23
-10.0
 33
0.0
 14
162.0
 24
-10.0
 34
0.0
 50
0.0
100
AcDbRotatedDimension
1001
ACAD
1000
DSTYLE
1002
{
1070
144
1040
1.0
1070
40
1040
350.0
1002
}
  0
DIMENSION
  5
20D
100
AcDbEntity
  8
Dimensions
 62
256
370
-1
 48
1.0
  6
BYLAYER
100
AcDbDimension
 10
162.0
 20
-600.0
 30
0.0
 11
238.5
 21
-567.1875
 31
0.0
 70
0
 71
8
 72
2
 74
0
 75
0
 41
1.0
 42
0.0
  1

  3
Standard
100
AcDbAlignedDimension
 13
162.0
 23
-10.0
 33
0.0
 14
315.0
 24
-10.0
 34
0.0
 50
0.0
100
AcDbRotatedDimension
1001
ACAD
1000
DSTYLE
1002
{
1070
144
1040
1.0
1070
40
1040
350.0
1002
}
  0
DIMENSION
  5
20E
100
AcDbEntity
  8
Dimensions
 62
256
370
-1
 48
1.0
  6
BYLAYER
100
AcDbDimension
 10
315.0
 20
-600.0
 30
0.0
 11
391.0
 21
-567.1875
 31
0.0
 70
0
 71
8
 72
2
 74
0
 75
0
 41
1.0
 42
0.0
  1

  3
Standard
100
AcDbAlignedDimension
 13
315.0
 23
-10.0
 33
0.0
 14
467.0
 24
-10.0
 34
0.0
 50
0.0
100
AcDbRotatedDimension
1001
ACAD
1000
DSTYLE
1002
{
1070
144
1040
1.0
1070
40
1040
350.0
1002
}
  0
DIMENSION
  5
20F
100
AcDbEntity
  8
Dimensions
 62
256
370
-1
 48
1.0
  6
BYLAYER
100
AcDbDimension
 10
467.0
 20
-600.0
 30
0.0
 11
543.0
 21
-567.1875
 31
0.0
 70
0
 71
8
 72
2
 74
0
 75
0
 41
1.0
 42
0.0
  1

  3
Standard
100
AcDbAlignedDimension
 13
467.0
 23
-10.0
 33
0.0
 14
619.0
 24
-10.0
 34
0.0
 50
0.0
100
AcDbRotatedDimension
1001
ACAD
1000
DSTYLE
1002
{
1070
144
1040
1.0
1070
40
1040
350.0
1002
}
  0
DIMENSION
  5
210
100
AcDbEntity
  8
Dimensions
 62
256
370
-1
 48
1.0
  6
BYLAYER
100
AcDbDimension
 10
619.0
 20
-600.0
 30
0.0
 11
695.5
 21
-567.1875
 31
0.0
 70
0
 71
8
 72
2
 74
0
 75
0
 41
1.0
 42
0.0
  1

  3
Standard
100
AcDbAlignedDimension
 13
619.0
 23
-10.0
 33
0.0
 14
772.0
 24
-10.0
 34
0.0
 50
0.0
100
AcDbRotatedDimension
1001
ACAD
1000
DSTYLE
1002
{
1070
144
1040
1.0
1070
40
1040
350.0
1002
}
  0
DIMENSION
  5
211
100
AcDbEntity
  8
Dimensions
 62
256
370
-1
 48
1.0
  6
BYLAYER
100
AcDbDimension
 10
772.0
 20
-600.0
 30
0.0
 11
848.0
 21
-567.1875
 31
0.0
 70
0
 71
8
 72
2
 74
0
 75
0
 41
1.0
 42
0.0
  1

  3
Standard
100
AcDbAlignedDimension
 13
772.0
 23
-10.0
 33
0.0
 14
924.0
 24
-20.0
 34
0.0
 50
0.0
100
AcDbRotatedDimension
1001
ACAD
1000
DSTYLE
1002
{
1070
144
1040
1.0
1070
40
1040
350.0
1002
}
  0
ENDSEC
  0
SECTION
  2
OBJECTS
  0
DICTIONARY
  5
C
100
AcDbDictionary
280
0
281
1
  3
ACAD_GROUP
350
D
  3
ACAD_LAYOUT
350
1A
  3
ACAD_MLINESTYLE
350
17
  3
ACAD_PLOTSETTINGS
350
19
  3
ACAD_PLOTSTYLENAME
350
E
  3
AcDbVariableDictionary
350
212
  3
QCAD_OBJECTS
350
213
  0
DICTIONARY
  5
D
100
AcDbDictionary
280
0
281
1
  0
ACDBDICTIONARYWDFLT
  5
E
100
AcDbDictionary
281
1
  3
Normal
350
F
100
AcDbDictionaryWithDefault
340
F
  0
ACDBPLACEHOLDER
  5
F
  0
DICTIONARY
  5
17
100
AcDbDictionary
280
0
281
1
  3
Standard
350
18
  0
MLINESTYLE
  5
18
100
AcDbMlineStyle
  2
STANDARD
 70
0
  3

 62
256
 51
90.0
 52
90.0
 71
2
 49
0.5
 62
256
  6
BYLAYER
 49
-0.5
 62
256
  6
BYLAYER
  0
DICTIONARY
  5
19
100
AcDbDictionary
280
0
281
1
  0
DICTIONARY
  5
1A
100
AcDbDictionary
281
1
  3
Layout1
350
1E
  3
Layout2
350
26
  3
Model
350
22
  0
LAYOUT
  5
1E
100
AcDbPlotSettings
  1

  2
none_device
  4

  6

 40
0.0
 41
0.0
 42
0.0
 43
0.0
 44
0.0
 45
0.0
 46
0.0
 47
0.0
 48
0.0
 49
0.0
140
0.0
141
0.0
142
1.0
143
1.0
 70
688
 72
0
 73
0
 74
5
  7

 75
16
147
1.0
148
0.0
149
0.0
100
AcDbLayout
  1
Layout1
 70
1
 71
1
 10
0.0
 20
0.0
 11
420.0
 21
297.0
 12
0.0
 22
0.0
 32
0.0
 14
100000000000000000000.0
 24
100000000000000000000.0
 34
100000000000000000000.0
 15
-100000000000000000000.0
 25
-100000000000000000000.0
 35
-100000000000000000000.0
146
0.0
 13
0.0
 23
0.0
 33
0.0
 16
1.0
 26
0.0
 36
0.0
 17
0.0
 27
1.0
 37
0.0
 76
0
330
1B
  0
LAYOUT
  5
22
100
AcDbPlotSettings
  1

  2
none_device
  4

  6

 40
0.0
 41
0.0
 42
0.0
 43
0.0
 44
0.0
 45
0.0
 46
0.0
 47
0.0
 48
0.0
 49
0.0
140
0.0
141
0.0
142
1.0
143
1.0
 70
1712
 72
0
 73
0
 74
0
  7

 75
0
147
1.0
148
0.0
149
0.0
100
AcDbLayout
  1
Model
 70
1
 71
0
 10
0.0
 20
0.0
 11
12.0
 21
9.0
 12
0.0
 22
0.0
 32
0.0
 14
0.0
 24
0.0
 34
0.0
 15
0.0
 25
0.0
 35
0.0
146
0.0
 13
0.0
 23
0.0
 33
0.0
 16
1.0
 26
0.0
 36
0.0
 17
0.0
 27
1.0
 37
0.0
 76
0
330
1F
  0
LAYOUT
  5
26
100
AcDbPlotSettings
  1

  2
none_device
  4

  6

 40
0.0
 41
0.0
 42
0.0
 43
0.0
 44
0.0
 45
0.0
 46
0.0
 47
0.0
 48
0.0
 49
0.0
140
0.0
141
0.0
142
1.0
143
1.0
 70
688
 72
0
 73
0
 74
5
  7

 75
16
147
1.0
148
0.0
149
0.0
100
AcDbLayout
  1
Layout2
 70
1
 71
2
 10
0.0
 20
0.0
 11
12.0
 21
9.0
 12
0.0
 22
0.0
 32
0.0
 14
0.0
 24
0.0
 34
0.0
 15
0.0
 25
0.0
 35
0.0
146
0.0
 13
0.0
 23
0.0
 33
0.0
 16
1.0
 26
0.0
 36
0.0
 17
0.0
 27
1.0
 37
0.0
 76
0
330
23
  0
DICTIONARY
  5
212
100
AcDbDictionary
281
1
  3
DIMASSOC
350
215
  3
HIDETEXT
350
214
  0
DICTIONARYVAR
  5
214
100
DictionaryVariables
280
0
  1
2
  0
DICTIONARYVAR
  5
215
100
DictionaryVariables
280
0
  1
1
  0
DICTIONARY
  5
213
100
AcDbDictionary
281
1
  3
ColorSettings/BackgroundColor
350
216
  3
ColorSettings/ColorMode
350
217
  3
DimensionSettings/AngularFormat
350
218
  3
DimensionSettings/AngularPrecision
350
219
  3
DimensionSettings/DecimalPoint
350
21A
  3
DimensionSettings/DimensionFont
350
21B
  3
DimensionSettings/KeepProportions
350
21C
  3
DimensionSettings/LinearFormat
350
21D
  3
DimensionSettings/LinearPrecision
350
21E
  3
Grid/DisplayGrid00
350
21F
  3
Grid/DisplayGrid01
350
220
  3
Grid/DisplayGrid02
350
221
  3
Grid/DisplayGrid03
350
222
  3
Grid/GridSpacingX00
350
223
  3
Grid/GridSpacingX01
350
224
  3
Grid/GridSpacingX02
350
225
  3
Grid/GridSpacingX03
350
226
  3
Grid/GridSpacingY00
350
227
  3
Grid/GridSpacingY01
350
228
  3
Grid/GridSpacingY02
350
229
  3
Grid/GridSpacingY03
350
22A
  3
Grid/IsometricGrid00
350
22B
  3
Grid/IsometricGrid01
350
22C
  3
Grid/IsometricGrid02
350
22D
  3
Grid/IsometricGrid03
350
22E
  3
Grid/IsometricProjection00
350
22F
  3
Grid/IsometricProjection01
350
230
  3
Grid/IsometricProjection02
350
231
  3
Grid/IsometricProjection03
350
232
  3
Grid/MetaGridSpacingX00
350
233
  3
Grid/MetaGridSpacingX01
350
234
  3
Grid/MetaGridSpacingX02
350
235
  3
Grid/MetaGridSpacingX03
350
236
  3
Grid/MetaGridSpacingY00
350
237
  3
Grid/MetaGridSpacingY01
350
238
  3
Grid/MetaGridSpacingY02
350
239
  3
Grid/MetaGridSpacingY03
350
23A
  3
MultiPageSettings/Columns
350
23B
  3
MultiPageSettings/GlueMarginsBottom
350
23C
  3
MultiPageSettings/GlueMarginsLeft
350
23D
  3
MultiPageSettings/GlueMarginsRight
350
23E
  3
MultiPageSettings/GlueMarginsTop
350
23F
  3
MultiPageSettings/PrintCropMarks
350
240
  3
MultiPageSettings/Rows
350
241
  3
PageSettings/OffsetX
350
242
  3
PageSettings/OffsetY
350
243
  3
PageSettings/PageOrientation
350
244
  3
PageSettings/PaperHeight
350
245
  3
PageSettings/PaperWidth
350
246
  3
PageSettings/Scale
350
247
  3
PageSettings/ShowPaperBorders
350
248
  3
PageTagSettings/EnablePageTags
350
249
  3
PageTagSettings/TagAlignment
350
24A
  3
PageTagSettings/TagFont
350
24B
  3
PageTagSettings/TagPosition
350
24C
  3
QCADVersion
350
24D
  3
UnitSettings/PaperUnit
350
24E
  3
ViewportCenter
350
24F
  3
ViewportHeight
350
250
  3
ViewportWidth
350
251
  0
XRECORD
  5
216
330
213
100
AcDbXrecord
280
1
1000
White
  0
XRECORD
  5
217
330
213
100
AcDbXrecord
280
1
1000
FullColor
  0
XRECORD
  5
218
330
213
100
AcDbXrecord
280
1
 90
0
  0
XRECORD
  5
219
330
213
100
AcDbXrecord
280
1
 90
0
  0
XRECORD
  5
21A
330
213
100
AcDbXrecord
280
1
 90
46
  0
XRECORD
  5
21B
330
213
100
AcDbXrecord
280
1
1000
DejaVu Sans
  0
XRECORD
  5
21C
330
213
100
AcDbXrecord
280
1
290
1
  0
XRECORD
  5
21D
330
213
100
AcDbXrecord
280
1
 90
2
  0
XRECORD
  5
21E
330
213
100
AcDbXrecord
280
1
 90
2
  0
XRECORD
  5
21F
330
213
100
AcDbXrecord
280
1
290
1
  0
XRECORD
  5
220
330
213
100
AcDbXrecord
280
1
290
1
  0
XRECORD
  5
221
330
213
100
AcDbXrecord
280
1
290
1
  0
XRECORD
  5
222
330
213
100
AcDbXrecord
280
1
290
0
  0
XRECORD
  5
223
330
213
100
AcDbXrecord
280
1
1000
auto
  0
XRECORD
  5
224
330
213
100
AcDbXrecord
280
1
1000
auto
  0
XRECORD
  5
225
330
213
100
AcDbXrecord
280
1
1000
auto
  0
XRECORD
  5
226
330
213
100
AcDbXrecord
280
1
1000
auto
  0
XRECORD
  5
227
330
213
100
AcDbXrecord
280
1
1000
auto
  0
XRECORD
  5
228
330
213
100
AcDbXrecord
280
1
1000
auto
  0
XRECORD
  5
229
330
213
100
AcDbXrecord
280
1
1000
auto
  0
XRECORD
  5
22A
330
213
100
AcDbXrecord
280
1
1000
auto
  0
XRECORD
  5
22B
330
213
100
AcDbXrecord
280
1
290
0
  0
XRECORD
  5
22C
330
213
100
AcDbXrecord
280
1
290
0
  0
XRECORD
  5
22D
330
213
100
AcDbXrecord
280
1
290
0
  0
XRECORD
  5
22E
330
213
100
AcDbXrecord
280
1
290
1
  0
XRECORD
  5
22F
330
213
100
AcDbXrecord
280
1
 90
65537
  0
XRECORD
  5
230
330
213
100
AcDbXrecord
280
1
 90
65537
  0
XRECORD
  5
231
330
213
100
AcDbXrecord
280
1
 90
65537
  0
XRECORD
  5
232
330
213
100
AcDbXrecord
280
1
 90
65537
  0
XRECORD
  5
233
330
213
100
AcDbXrecord
280
1
1000
auto
  0
XRECORD
  5
234
330
213
100
AcDbXrecord
280
1
1000
auto
  0
XRECORD
  5
235
330
213
100
AcDbXrecord
280
1
1000
auto
  0
XRECORD
  5
236
330
213
100
AcDbXrecord
280
1
1000
auto
  0
XRECORD
  5
237
330
213
100
AcDbXrecord
280
1
1000
auto
  0
XRECORD
  5
238
330
213
100
AcDbXrecord
280
1
1000
auto
  0
XRECORD
  5
239
330
213
100
AcDbXrecord
280
1
1000
auto
  0
XRECORD
  5
23A
330
213
100
AcDbXrecord
280
1
1000
auto
  0
XRECORD
  5
23B
330
213
100
AcDbXrecord
280
1
 90
1
  0
XRECORD
  5
23C
330
213
100
AcDbXrecord
280
1
 40
0.5
  0
XRECORD
  5
23D
330
213
100
AcDbXrecord
280
1
 40
0.5
  0
XRECORD
  5
23E
330
213
100
AcDbXrecord
280
1
 40
0.5
  0
XRECORD
  5
23F
330
213
100
AcDbXrecord
280
1
 40
0.5
  0
XRECORD
  5
240
330
213
100
AcDbXrecord
280
1
290
0
  0
XRECORD
  5
241
330
213
100
AcDbXrecord
280
1
 90
1
  0
XRECORD
  5
242
330
213
100
AcDbXrecord
280
1
 40
0.0
  0
XRECORD
  5
243
330
213
100
AcDbXrecord
280
1
 40
0.0
  0
XRECORD
  5
244
330
213
100
AcDbXrecord
280
1
1000
Portrait
  0
XRECORD
  5
245
330
213
100
AcDbXrecord
280
1
 40
11.6929999999999996
  0
XRECORD
  5
246
330
213
100
AcDbXrecord
280
1
 40
8.2680000000000007
  0
XRECORD
  5
247
330
213
100
AcDbXrecord
280
1
1000
1:1
  0
XRECORD
  5
248
330
213
100
AcDbXrecord
280
1
290
1
  0
XRECORD
  5
249
330
213
100
AcDbXrecord
280
1
290
0
  0
XRECORD
  5
24A
330
213
100
AcDbXrecord
280
1
1000
Inside
  0
XRECORD
  5
24B
330
213
100
AcDbXrecord
280
1
1000
Arial,10,-1,5,50,0,0,0,0,0
  0
XRECORD
  5
24C
330
213
100
AcDbXrecord
280
1
1000
TopLeft
  0
XRECORD
  5
24D
330
213
100
AcDbXrecord
280
1
1000
3.24.3.1
  0
XRECORD
  5
24E
330
213
100
AcDbXrecord
280
1
 90
5
  0
XRECORD
  5
250
330
213
100
AcDbXrecord
280
1
 40
2439.4598295544064968
  0
XRECORD
  5
251
330
213
100
AcDbXrecord
280
1
 40
4543.9234149094409076
  0
ENDSEC
  0
EOF
