999
dxflib 3.17.0.0
  0
SECTION
  2
HEADER
  9
$ACADVER
  1
AC1015
  9
$HANDSEED
  5
FFFF
  9
$DIMADEC
 70
0
  9
$DIMASZ
 40
0.125
  9
$DIMAUNIT
 70
0
  9
$DIMAZIN
 70
2
  9
$DIMDEC
 70
2
  9
$DIMDLI
 40
0.25
  9
$DIMDSEP
 70
46
  9
$DIMEXE
 40
0.0625
  9
$DIMEXO
 40
0.03125
  9
$DIMGAP
 40
0.03125
  9
$DIMLUNIT
 70
2
  9
$DIMSCALE
 40
30.0
  9
$DIMTSZ
 40
0.0
  9
$DIMTXT
 40
0.125
  9
$DIMZIN
 70
8
  9
$DWGCODEPAGE
  3
ANSI_1252
  9
$INSUNITS
 70
5
  9
$LTSCALE
 40
1.0
  9
$MAXACTVP
 70
64
  9
$MEASUREMENT
 70
1
  9
$MIRRTEXT
 70
0
  9
$PDMODE
 70
32
  9
$PDSIZE
 40
0.0
  0
ENDSEC
  0
SECTION
  2
TABLES
  0
TABLE
  2
VPORT
  5
8
100
AcDbSymbolTable
 70
1
  0
VPORT
  5
30
100
AcDbSymbolTableRecord
100
AcDbViewportTableRecord
  2
*Active
 70
0
 10
0.0
 20
0.0
 11
1.0
 21
1.0
 12
286.3055555555554861
 22
148.5
 13
0.0
 23
0.0
 14
10.0
 24
10.0
 15
10.0
 25
10.0
 16
0.0
 26
0.0
 36
1.0
 17
0.0
 27
0.0
 37
0.0
 40
297.0
 41
1.92798353909465
 42
50.0
 43
0.0
 44
0.0
 50
0.0
 51
0.0
 71
0
 72
100
 73
1
 74
3
 75
1
 76
1
 77
0
 78
0
281
0
 65
1
110
0.0
120
0.0
130
0.0
111
1.0
121
0.0
131
0.0
112
0.0
122
1.0
132
0.0
 79
0
146
0.0
  0
ENDTAB
  0
TABLE
  2
LTYPE
  5
5
100
AcDbSymbolTable
 70
41
  0
LTYPE
  5
16
100
AcDbSymbolTableRecord
100
AcDbLinetypeTableRecord
  2
Continuous
 70
0
  3
Solid line
 72
65
 73
0
 40
0.0
  0
LTYPE
  5
15
100
AcDbSymbolTableRecord
100
AcDbLinetypeTableRecord
  2
BYLAYER
 70
0
  3

 72
65
 73
0
 40
0.0
  0
LTYPE
  5
31
100
AcDbSymbolTableRecord
100
AcDbLinetypeTableRecord
  2
ACAD_ISO02W100
 70
0
  3
ISO dash __ __ __ __ __ __ __ __ __ __ __ __ __
 72
65
 73
2
 40
15.0
 49
12.0
 74
0
 49
-3.0
 74
0
  0
LTYPE
  5
32
100
AcDbSymbolTableRecord
100
AcDbLinetypeTableRecord
  2
HIDDEN
 70
0
  3
Hidden __ __ __ __ __ __ __ __ __ __ __ __ __ __
 72
65
 73
2
 40
9.5249999999999986
 49
6.3499999999999996
 74
0
 49
-3.1749999999999998
 74
0
  0
LTYPE
  5
33
100
AcDbSymbolTableRecord
100
AcDbLinetypeTableRecord
  2
DOT
 70
0
  3
Dot . . . . . . . . . . . . . . . . . . . . . . . .
 72
65
 73
2
 40
6.3499999999999996
 49
0.1
 74
0
 49
-6.25
 74
0
  0
LTYPE
  5
34
100
AcDbSymbolTableRecord
100
AcDbLinetypeTableRecord
  2
ACAD_ISO08W100
 70
0
  3
ISO long-dash short-dash ____ __ ____ __ ____ _
 72
65
 73
4
 40
36.0
 49
24.0
 74
0
 49
-3.0
 74
0
 49
6.0
 74
0
 49
-3.0
 74
0
  0
LTYPE
  5
35
100
AcDbSymbolTableRecord
100
AcDbLinetypeTableRecord
  2
CENTERX2
 70
0
  3
Center (2x) ________  __  ________  __  _____
 72
65
 73
4
 40
101.6000000000000085
 49
63.5
 74
0
 49
-12.6999999999999993
 74
0
 49
12.6999999999999993
 74
0
 49
-12.6999999999999993
 74
0
  0
LTYPE
  5
36
100
AcDbSymbolTableRecord
100
AcDbLinetypeTableRecord
  2
ACAD_ISO05W100
 70
0
  3
ISO long-dash double-dot ____ .. ____ .. ____ . 
 72
65
 73
6
 40
33.0000000000000071
 49
24.0
 74
0
 49
-2.9500000000000002
 74
0
 49
0.1
 74
0
 49
-2.9000000000000004
 74
0
 49
0.1
 74
0
 49
-2.9500000000000002
 74
0
  0
LTYPE
  5
37
100
AcDbSymbolTableRecord
100
AcDbLinetypeTableRecord
  2
CENTER
 70
0
  3
Center ____ _ ____ _ ____ _ ____ _ ____ _ ____
 72
65
 73
4
 40
50.8000000000000043
 49
31.75
 74
0
 49
-6.3499999999999996
 74
0
 49
6.3499999999999996
 74
0
 49
-6.3499999999999996
 74
0
  0
LTYPE
  5
38
100
AcDbSymbolTableRecord
100
AcDbLinetypeTableRecord
  2
DASHED
 70
0
  3
Dashed __ __ __ __ __ __ __ __ __ __ __ __ __ _
 72
65
 73
2
 40
19.0499999999999972
 49
12.6999999999999993
 74
0
 49
-6.3499999999999996
 74
0
  0
LTYPE
  5
39
100
AcDbSymbolTableRecord
100
AcDbLinetypeTableRecord
  2
CENTER2
 70
0
  3
Center (.5x) ___ _ ___ _ ___ _ ___ _ ___ _ ___
 72
65
 73
4
 40
28.5750000000000028
 49
19.0500000000000007
 74
0
 49
-3.1749999999999998
 74
0
 49
3.1749999999999998
 74
0
 49
-3.1749999999999998
 74
0
  0
LTYPE
  5
3A
100
AcDbSymbolTableRecord
100
AcDbLinetypeTableRecord
  2
ACAD_ISO07W100
 70
0
  3
ISO dot . . . . . . . . . . . . . . . . . . . . 
 72
65
 73
2
 40
3.0
 49
0.1
 74
0
 49
-2.8999999999999999
 74
0
  0
LTYPE
  5
3B
100
AcDbSymbolTableRecord
100
AcDbLinetypeTableRecord
  2
BORDER2
 70
0
  3
Border (.5x) __.__.__.__.__.__.__.__.__.__.__.
 72
65
 73
6
 40
22.2250000000000014
 49
6.3499999999999996
 74
0
 49
-3.1749999999999998
 74
0
 49
6.3499999999999996
 74
0
 49
-3.125
 74
0
 49
0.1
 74
0
 49
-3.125
 74
0
  0
LTYPE
  5
3C
100
AcDbSymbolTableRecord
100
AcDbLinetypeTableRecord
  2
DIVIDEX2
 70
0
  3
Divide (2x) ________  .  .  ________  .  .  _
 72
65
 73
6
 40
63.5
 49
25.3999999999999986
 74
0
 49
-12.6499999999999986
 74
0
 49
0.1
 74
0
 49
-12.5999999999999979
 74
0
 49
0.1
 74
0
 49
-12.6499999999999986
 74
0
  0
LTYPE
  5
3D
100
AcDbSymbolTableRecord
100
AcDbLinetypeTableRecord
  2
ACAD_ISO06W100
 70
0
  3
ISO long-dash triple-dot ____ ... ____ ... ____
 72
65
 73
8
 40
36.0000000000000071
 49
24.0
 74
0
 49
-2.9500000000000002
 74
0
 49
0.1
 74
0
 49
-2.9000000000000004
 74
0
 49
0.1
 74
0
 49
-2.9000000000000004
 74
0
 49
0.1
 74
0
 49
-2.9500000000000002
 74
0
  0
LTYPE
  5
3E
100
AcDbSymbolTableRecord
100
AcDbLinetypeTableRecord
  2
PHANTOMX2
 70
0
  3
Phantom (2x) ____________    ____    ____   _
 72
65
 73
6
 40
127.0000000000000142
 49
63.5
 74
0
 49
-12.6999999999999993
 74
0
 49
12.6999999999999993
 74
0
 49
-12.6999999999999993
 74
0
 49
12.6999999999999993
 74
0
 49
-12.6999999999999993
 74
0
  0
LTYPE
  5
3F
100
AcDbSymbolTableRecord
100
AcDbLinetypeTableRecord
  2
ACAD_ISO15W100
 70
0
  3
ISO double-dash triple-dot __ __ . . . __ __ . .
 72
65
 73
10
 40
39.0000000000000071
 49
12.0
 74
0
 49
-3.0
 74
0
 49
12.0
 74
0
 49
-2.9500000000000002
 74
0
 49
0.1
 74
0
 49
-2.9000000000000004
 74
0
 49
0.1
 74
0
 49
-2.9000000000000004
 74
0
 49
0.1
 74
0
 49
-2.9500000000000002
 74
0
  0
LTYPE
  5
40
100
AcDbSymbolTableRecord
100
AcDbLinetypeTableRecord
  2
DASHED2
 70
0
  3
Dashed (.5x) _ _ _ _ _ _ _ _ _ _ _ _ _ _ _ _ _ 
 72
65
 73
2
 40
9.5249999999999986
 49
6.3499999999999996
 74
0
 49
-3.1749999999999998
 74
0
  0
LTYPE
  5
41
100
AcDbSymbolTableRecord
100
AcDbLinetypeTableRecord
  2
DASHEDX2
 70
0
  3
Dashed (2x) ____  ____  ____  ____  ____  ___
 72
65
 73
2
 40
38.0999999999999943
 49
25.3999999999999986
 74
0
 49
-12.6999999999999993
 74
0
  0
LTYPE
  5
42
100
AcDbSymbolTableRecord
100
AcDbLinetypeTableRecord
  2
ACAD_ISO03W100
 70
0
  3
ISO dash space __    __    __    __    __    __
 72
65
 73
2
 40
30.0
 49
12.0
 74
0
 49
-18.0
 74
0
  0
LTYPE
  5
43
100
AcDbSymbolTableRecord
100
AcDbLinetypeTableRecord
  2
ACAD_ISO12W100
 70
0
  3
ISO dash double-dot __ . . __ . . __ . . __ . . 
 72
65
 73
6
 40
21.0
 49
12.0
 74
0
 49
-2.9500000000000002
 74
0
 49
0.1
 74
0
 49
-2.9000000000000004
 74
0
 49
0.1
 74
0
 49
-2.9500000000000002
 74
0
  0
LTYPE
  5
44
100
AcDbSymbolTableRecord
100
AcDbLinetypeTableRecord
  2
DOT2
 70
0
  3
Dot (.5x) ........................................
 72
65
 73
2
 40
3.1749999999999998
 49
0.1
 74
0
 49
-3.0749999999999997
 74
0
  0
LTYPE
  5
45
100
AcDbSymbolTableRecord
100
AcDbLinetypeTableRecord
  2
DASHDOTX2
 70
0
  3
Dash dot (2x) ____  .  ____  .  ____  .  ___
 72
65
 73
4
 40
50.7999999999999972
 49
25.3999999999999986
 74
0
 49
-12.6499999999999986
 74
0
 49
0.1
 74
0
 49
-12.6499999999999986
 74
0
  0
LTYPE
  5
46
100
AcDbSymbolTableRecord
100
AcDbLinetypeTableRecord
  2
ACAD_ISO10W100
 70
0
  3
ISO dash dot __ . __ . __ . __ . __ . __ . __ . 
 72
65
 73
4
 40
18.0
 49
12.0
 74
0
 49
-2.9500000000000002
 74
0
 49
0.1
 74
0
 49
-2.9500000000000002
 74
0
  0
LTYPE
  5
47
100
AcDbSymbolTableRecord
100
AcDbLinetypeTableRecord
  2
DASHDOT
 70
0
  3
Dash dot __ . __ . __ . __ . __ . __ . __ . __
 72
65
 73
4
 40
25.4000000000000021
 49
12.6999999999999993
 74
0
 49
-6.2999999999999998
 74
0
 49
0.1
 74
0
 49
-6.2999999999999998
 74
0
  0
LTYPE
  5
48
100
AcDbSymbolTableRecord
100
AcDbLinetypeTableRecord
  2
ACAD_ISO09W100
 70
0
  3
ISO long-dash double-short-dash ____ __ __ ____
 72
65
 73
6
 40
45.0
 49
24.0
 74
0
 49
-3.0
 74
0
 49
6.0
 74
0
 49
-3.0
 74
0
 49
6.0
 74
0
 49
-3.0
 74
0
  0
LTYPE
  5
49
100
AcDbSymbolTableRecord
100
AcDbLinetypeTableRecord
  2
DOTX2
 70
0
  3
Dot (2x) .  .  .  .  .  .  .  .  .  .  .  .  .  .
 72
65
 73
2
 40
12.6999999999999993
 49
0.1
 74
0
 49
-12.5999999999999996
 74
0
  0
LTYPE
  5
4A
100
AcDbSymbolTableRecord
100
AcDbLinetypeTableRecord
  2
PHANTOM
 70
0
  3
Phantom ______  __  __  ______  __  __  ______ 
 72
65
 73
6
 40
63.5000000000000071
 49
31.75
 74
0
 49
-6.3499999999999996
 74
0
 49
6.3499999999999996
 74
0
 49
-6.3499999999999996
 74
0
 49
6.3499999999999996
 74
0
 49
-6.3499999999999996
 74
0
  0
LTYPE
  5
4B
100
AcDbSymbolTableRecord
100
AcDbLinetypeTableRecord
  2
HIDDEN2
 70
0
  3
Hidden (.5x) _ _ _ _ _ _ _ _ _ _ _ _ _ _ _ _ _ 
 72
65
 73
2
 40
4.7624999999999993
 49
3.1749999999999998
 74
0
 49
-1.5874999999999999
 74
0
  0
LTYPE
  5
4C
100
AcDbSymbolTableRecord
100
AcDbLinetypeTableRecord
  2
PHANTOM2
 70
0
  3
Phantom (.5x) ___ _ _ ___ _ _ ___ _ _ ___ _ _
 72
65
 73
6
 40
31.7500000000000036
 49
15.875
 74
0
 49
-3.1749999999999998
 74
0
 49
3.1749999999999998
 74
0
 49
-3.1749999999999998
 74
0
 49
3.1749999999999998
 74
0
 49
-3.1749999999999998
 74
0
  0
LTYPE
  5
14
100
AcDbSymbolTableRecord
100
AcDbLinetypeTableRecord
  2
BYBLOCK
 70
0
  3

 72
65
 73
0
 40
0.0
  0
LTYPE
  5
4D
100
AcDbSymbolTableRecord
100
AcDbLinetypeTableRecord
  2
BORDER
 70
0
  3
Border __ __ . __ __ . __ __ . __ __ . __ __ .
 72
65
 73
6
 40
44.4499999999999957
 49
12.6999999999999993
 74
0
 49
-6.3499999999999996
 74
0
 49
12.6999999999999993
 74
0
 49
-6.2999999999999998
 74
0
 49
0.1
 74
0
 49
-6.2999999999999998
 74
0
  0
LTYPE
  5
4E
100
AcDbSymbolTableRecord
100
AcDbLinetypeTableRecord
  2
ACAD_ISO13W100
 70
0
  3
ISO double-dash double-dot __ __ . . __ __ . . _
 72
65
 73
8
 40
36.0000000000000071
 49
12.0
 74
0
 49
-3.0
 74
0
 49
12.0
 74
0
 49
-2.9500000000000002
 74
0
 49
0.1
 74
0
 49
-2.9000000000000004
 74
0
 49
0.1
 74
0
 49
-2.9500000000000002
 74
0
  0
LTYPE
  5
4F
100
AcDbSymbolTableRecord
100
AcDbLinetypeTableRecord
  2
HIDDENX2
 70
0
  3
Hidden (2x) ____ ____ ____ ____ ____ ____ ____ 
 72
65
 73
2
 40
19.0499999999999972
 49
12.6999999999999993
 74
0
 49
-6.3499999999999996
 74
0
  0
LTYPE
  5
50
100
AcDbSymbolTableRecord
100
AcDbLinetypeTableRecord
  2
ACAD_ISO04W100
 70
0
  3
ISO long-dash dot ____ . ____ . ____ . ____ . _
 72
65
 73
4
 40
30.0
 49
24.0
 74
0
 49
-2.9500000000000002
 74
0
 49
0.1
 74
0
 49
-2.9500000000000002
 74
0
  0
LTYPE
  5
51
100
AcDbSymbolTableRecord
100
AcDbLinetypeTableRecord
  2
ACAD_ISO14W100
 70
0
  3
ISO dash triple-dot __ . . . __ . . . __ . . . _
 72
65
 73
8
 40
24.0000000000000036
 49
12.0
 74
0
 49
-2.9500000000000002
 74
0
 49
0.1
 74
0
 49
-2.9000000000000004
 74
0
 49
0.1
 74
0
 49
-2.9000000000000004
 74
0
 49
0.1
 74
0
 49
-2.9500000000000002
 74
0
  0
LTYPE
  5
52
100
AcDbSymbolTableRecord
100
AcDbLinetypeTableRecord
  2
ACAD_ISO11W100
 70
0
  3
ISO double-dash dot __ __ . __ __ . __ __ . __ _
 72
65
 73
6
 40
33.0
 49
12.0
 74
0
 49
-3.0
 74
0
 49
12.0
 74
0
 49
-2.9500000000000002
 74
0
 49
0.1
 74
0
 49
-2.9500000000000002
 74
0
  0
LTYPE
  5
53
100
AcDbSymbolTableRecord
100
AcDbLinetypeTableRecord
  2
DIVIDE
 70
0
  3
Divide ____ . . ____ . . ____ . . ____ . . ____
 72
65
 73
6
 40
31.7500000000000036
 49
12.6999999999999993
 74
0
 49
-6.2999999999999998
 74
0
 49
0.1
 74
0
 49
-6.25
 74
0
 49
0.1
 74
0
 49
-6.2999999999999998
 74
0
  0
LTYPE
  5
54
100
AcDbSymbolTableRecord
100
AcDbLinetypeTableRecord
  2
DASHDOT2
 70
0
  3
Dash dot (.5x) _._._._._._._._._._._._._._._.
 72
65
 73
4
 40
12.6999999999999993
 49
6.3499999999999996
 74
0
 49
-3.125
 74
0
 49
0.1
 74
0
 49
-3.125
 74
0
  0
LTYPE
  5
55
100
AcDbSymbolTableRecord
100
AcDbLinetypeTableRecord
  2
BORDERX2
 70
0
  3
Border (2x) ____  ____  .  ____  ____  .  ___
 72
65
 73
6
 40
88.8999999999999773
 49
25.3999999999999986
 74
0
 49
-12.6999999999999993
 74
0
 49
25.3999999999999986
 74
0
 49
-12.6499999999999986
 74
0
 49
0.1
 74
0
 49
-12.6499999999999986
 74
0
  0
LTYPE
  5
56
100
AcDbSymbolTableRecord
100
AcDbLinetypeTableRecord
  2
DIVIDE2
 70
0
  3
Divide (.5x) __..__..__..__..__..__..__..__.._
 72
65
 73
6
 40
15.8749999999999982
 49
6.3499999999999996
 74
0
 49
-3.125
 74
0
 49
0.1
 74
0
 49
-3.0750000000000002
 74
0
 49
0.1
 74
0
 49
-3.125
 74
0
  0
ENDTAB
  0
TABLE
  2
LAYER
  5
2
100
AcDbSymbolTable
 70
6
  0
LAYER
  5
57
100
AcDbSymbolTableRecord
100
AcDbLayerTableRecord
  2
window_box
 70
0
 62
7
420
16777215
  6
Continuous
370
25
390
F
  0
LAYER
  5
58
100
AcDbSymbolTableRecord
100
AcDbLayerTableRecord
  2
materials
 70
0
 62
3
420
65280
  6
Continuous
370
25
390
F
  0
LAYER
  5
59
100
AcDbSymbolTableRecord
100
AcDbLayerTableRecord
  2
axes
 70
4
 62
2
420
16776960
  6
Continuous
370
25
390
F
  0
LAYER
  5
10
100
AcDbSymbolTableRecord
100
AcDbLayerTableRecord
  2
0
 70
4
 62
1
420
16711680
  6
Continuous
370
25
390
F
  0
LAYER
  5
5A
100
AcDbSymbolTableRecord
100
AcDbLayerTableRecord
  2
guide rulers
 70
0
 62
14
420
8388608
  6
ACAD_ISO07W100
370
25
390
F
  0
LAYER
  5
5B
100
AcDbSymbolTableRecord
100
AcDbLayerTableRecord
  2
dimensions
 70
0
 62
4
420
65535
  6
Continuous
370
25
390
F
  0
ENDTAB
  0
TABLE
  2
STYLE
  5
3
100
AcDbSymbolTable
 70
19
  0
STYLE
  5
5C
100
AcDbSymbolTableRecord
100
AcDbTextStyleTableRecord
  2
Standard
 70
0
 40
0.0
 41
1.0
 50
0.0
 71
0
 42
2.5
  3

  4

1001
ACAD
1000
txt
1071
0
  0
STYLE
  5
5D
100
AcDbSymbolTableRecord
100
AcDbTextStyleTableRecord
  2
textstyle0
 70
0
 40
0.0
 41
1.0
 50
0.0
 71
0
 42
5.0
  3

  4

1001
ACAD
1000
Liberation Sans
1071
0
  0
STYLE
  5
5E
100
AcDbSymbolTableRecord
100
AcDbTextStyleTableRecord
  2
textstyle1
 70
0
 40
0.0
 41
1.0
 50
0.0
 71
0
 42
5.0
  3

  4

1001
ACAD
1000
Liberation Sans
1071
0
  0
STYLE
  5
5F
100
AcDbSymbolTableRecord
100
AcDbTextStyleTableRecord
  2
textstyle2
 70
0
 40
0.0
 41
1.0
 50
0.0
 71
0
 42
6.0
  3

  4

1001
ACAD
1000
Arimo
1071
0
  0
STYLE
  5
60
100
AcDbSymbolTableRecord
100
AcDbTextStyleTableRecord
  2
textstyle3
 70
0
 40
0.0
 41
1.0
 50
0.0
 71
0
 42
3.0
  3

  4

1001
ACAD
1000
Arimo
1071
0
  0
STYLE
  5
61
100
AcDbSymbolTableRecord
100
AcDbTextStyleTableRecord
  2
textstyle4
 70
0
 40
0.0
 41
1.0
 50
0.0
 71
0
 42
3.0
  3

  4

1001
ACAD
1000
Arimo
1071
0
  0
STYLE
  5
62
100
AcDbSymbolTableRecord
100
AcDbTextStyleTableRecord
  2
textstyle5
 70
0
 40
0.0
 41
1.0
 50
0.0
 71
0
 42
3.0
  3

  4

1001
ACAD
1000
Arimo
1071
0
  0
STYLE
  5
63
100
AcDbSymbolTableRecord
100
AcDbTextStyleTableRecord
  2
textstyle6
 70
0
 40
0.0
 41
1.0
 50
0.0
 71
0
 42
3.0
  3

  4

1001
ACAD
1000
Arimo
1071
0
  0
STYLE
  5
64
100
AcDbSymbolTableRecord
100
AcDbTextStyleTableRecord
  2
textstyle7
 70
0
 40
0.0
 41
1.0
 50
0.0
 71
0
 42
3.0
  3

  4

1001
ACAD
1000
Arimo
1071
0
  0
STYLE
  5
65
100
AcDbSymbolTableRecord
100
AcDbTextStyleTableRecord
  2
textstyle8
 70
0
 40
0.0
 41
1.0
 50
0.0
 71
0
 42
3.0
  3

  4

1001
ACAD
1000
Arimo
1071
0
  0
STYLE
  5
66
100
AcDbSymbolTableRecord
100
AcDbTextStyleTableRecord
  2
textstyle9
 70
0
 40
0.0
 41
1.0
 50
0.0
 71
0
 42
3.0
  3

  4

1001
ACAD
1000
Arimo
1071
0
  0
STYLE
  5
67
100
AcDbSymbolTableRecord
100
AcDbTextStyleTableRecord
  2
textstyle10
 70
0
 40
0.0
 41
1.0
 50
0.0
 71
0
 42
3.0
  3

  4

1001
ACAD
1000
Arimo
1071
0
  0
STYLE
  5
68
100
AcDbSymbolTableRecord
100
AcDbTextStyleTableRecord
  2
textstyle11
 70
0
 40
0.0
 41
1.0
 50
0.0
 71
0
 42
3.0
  3

  4

1001
ACAD
1000
Arimo
1071
0
  0
STYLE
  5
69
100
AcDbSymbolTableRecord
100
AcDbTextStyleTableRecord
  2
textstyle12
 70
0
 40
0.0
 41
1.0
 50
0.0
 71
0
 42
10.0
  3

  4

1001
ACAD
1000
Arimo
1071
0
  0
STYLE
  5
6A
100
AcDbSymbolTableRecord
100
AcDbTextStyleTableRecord
  2
textstyle13
 70
0
 40
0.0
 41
1.0
 50
0.0
 71
0
 42
3.0
  3

  4

1001
ACAD
1000
Arimo
1071
0
  0
STYLE
  5
6B
100
AcDbSymbolTableRecord
100
AcDbTextStyleTableRecord
  2
textstyle14
 70
0
 40
0.0
 41
1.0
 50
0.0
 71
0
 42
10.0
  3

  4

1001
ACAD
1000
Arimo
1071
0
  0
STYLE
  5
6C
100
AcDbSymbolTableRecord
100
AcDbTextStyleTableRecord
  2
textstyle15
 70
0
 40
0.0
 41
1.0
 50
0.0
 71
0
 42
10.0
  3

  4

1001
ACAD
1000
Arimo
1071
0
  0
STYLE
  5
6D
100
AcDbSymbolTableRecord
100
AcDbTextStyleTableRecord
  2
textstyle16
 70
0
 40
0.0
 41
1.0
 50
0.0
 71
0
 42
10.0
  3

  4

1001
ACAD
1000
Arimo
1071
0
  0
STYLE
  5
6E
100
AcDbSymbolTableRecord
100
AcDbTextStyleTableRecord
  2
textstyle17
 70
0
 40
0.0
 41
1.0
 50
0.0
 71
0
 42
10.0
  3

  4

1001
ACAD
1000
Arimo
1071
0
  0
ENDTAB
  0
TABLE
  2
VIEW
  5
6
100
AcDbSymbolTable
 70
0
  0
ENDTAB
  0
TABLE
  2
UCS
  5
7
100
AcDbSymbolTable
 70
0
  0
ENDTAB
  0
TABLE
  2
APPID
  5
9
100
AcDbSymbolTable
 70
1
  0
APPID
  5
12
100
AcDbSymbolTableRecord
100
AcDbRegAppTableRecord
  2
ACAD
 70
0
  0
APPID
  5
6F
100
AcDbSymbolTableRecord
100
AcDbRegAppTableRecord
  2
QCAD
 70
0
  0
ENDTAB
  0
TABLE
  2
DIMSTYLE
  5
A
100
AcDbSymbolTable
 70
1
100
AcDbDimStyleTable
 71
0
  0
DIMSTYLE
105
27
100
AcDbSymbolTableRecord
100
AcDbDimStyleTableRecord
  2
Standard
 41
0.125
 42
0.03125
 43
3.75
 44
0.0625
 70
0
 73
0
 74
0
 77
1
 78
8
140
0.125
141
2.5
143
0.03937007874016
147
0.03125
171
3
172
1
271
2
272
2
274
3
278
44
283
0
284
8
340
5C
  0
ENDTAB
  0
TABLE
  2
BLOCK_RECORD
  5
1
100
AcDbSymbolTable
 70
1
  0
BLOCK_RECORD
  5
1F
100
AcDbSymbolTableRecord
100
AcDbBlockTableRecord
  2
*Model_Space
340
22
  0
BLOCK_RECORD
  5
1B
100
AcDbSymbolTableRecord
100
AcDbBlockTableRecord
  2
*Paper_Space
340
1E
  0
BLOCK_RECORD
  5
23
100
AcDbSymbolTableRecord
100
AcDbBlockTableRecord
  2
*Paper_Space0
340
26
  0
ENDTAB
  0
ENDSEC
  0
SECTION
  2
BLOCKS
  0
BLOCK
  5
20
100
AcDbEntity
  8
0
100
AcDbBlockBegin
  2
*Model_Space
 70
0
 10
0.0
 20
0.0
 30
0.0
  3
*Model_Space
  1

  0
ENDBLK
  5
21
100
AcDbEntity
  8
0
100
AcDbBlockEnd
  0
BLOCK
  5
1C
100
AcDbEntity
 67
1
  8
0
100
AcDbBlockBegin
  2
*Paper_Space
 70
0
 10
0.0
 20
0.0
 30
0.0
  3
*Paper_Space
  1

  0
ENDBLK
  5
1D
100
AcDbEntity
 67
1
  8
0
100
AcDbBlockEnd
  0
BLOCK
  5
24
100
AcDbEntity
  8
0
100
AcDbBlockBegin
  2
*Paper_Space0
 70
0
 10
0.0
 20
0.0
 30
0.0
  3
*Paper_Space0
  1

  0
ENDBLK
  5
25
100
AcDbEntity
  8
0
100
AcDbBlockEnd
  0
ENDSEC
  0
SECTION
  2
ENTITIES
  0
XLINE
  5
70
100
AcDbEntity
  8
guide rulers
 62
256
370
-1
 48
1.0
  6
BYLAYER
100
AcDbLine
 10
155.857864376269049
 20
-155.8578643762690206
 30
0.0
 11
1.0
 21
0.0
 31
0.0
  0
XLINE
  5
71
100
AcDbEntity
  8
guide rulers
 62
256
370
-1
 48
1.0
  6
BYLAYER
100
AcDbLine
 10
145.0
 20
-9.0
 30
0.0
 11
1.0
 21
0.0
 31
0.0
  0
LINE
  5
72
100
AcDbEntity
  8
guide rulers
 62
256
370
-1
 48
1.0
  6
BYLAYER
100
AcDbLine
 10
-5060.0
 20
-4.0
 30
0.0
 11
4940.0
 21
-4.0
 31
0.0
  0
LINE
  5
73
100
AcDbEntity
  8
guide rulers
 62
256
370
-1
 48
1.0
  6
BYLAYER
100
AcDbLine
 10
-5132.0
 20
-53.142135623730951
 30
0.0
 11
4868.0
 21
-53.142135623730951
 31
0.0
  0
LINE
  5
74
100
AcDbEntity
  8
guide rulers
 62
256
370
-1
 48
1.0
  6
BYLAYER
100
AcDbLine
 10
-5105.0
 20
-69.0
 30
0.0
 11
4895.0
 21
-69.0
 31
0.0
  0
LINE
  5
75
100
AcDbEntity
  8
guide rulers
 62
256
370
-1
 48
1.0
  6
BYLAYER
100
AcDbLine
 10
-60.0000000000003055
 20
-4942.0
 30
0.0
 11
-59.9999999999996945
 21
5058.0
 31
0.0
  0
LINE
  5
76
100
AcDbEntity
  8
guide rulers
 62
256
370
-1
 48
1.0
  6
BYLAYER
100
AcDbLine
 10
-0.0000000000003062
 20
-4942.0
 30
0.0
 11
0.0000000000003062
 21
5058.0
 31
0.0
  0
LINE
  5
77
100
AcDbEntity
  8
guide rulers
 62
256
370
-1
 48
1.0
  6
BYLAYER
100
AcDbLine
 10
59.9999999999996945
 20
-4942.0
 30
0.0
 11
60.0000000000003055
 21
5058.0
 31
0.0
  0
LINE
  5
78
100
AcDbEntity
  8
guide rulers
 62
256
370
-1
 48
1.0
  6
BYLAYER
100
AcDbLine
 10
-120.0000000000003126
 20
-5005.0
 30
0.0
 11
-119.9999999999996874
 21
4995.0
 31
0.0
  0
LINE
  5
79
100
AcDbEntity
  8
guide rulers
 62
256
370
-1
 48
1.0
  6
BYLAYER
100
AcDbLine
 10
-110.0000000000003126
 20
-5030.0
 30
0.0
 11
-109.9999999999996874
 21
4970.0
 31
0.0
  0
LINE
  5
7A
100
AcDbEntity
  8
guide rulers
 62
256
370
-1
 48
1.0
  6
BYLAYER
100
AcDbLine
 10
-100.0000000000003126
 20
-5030.0
 30
0.0
 11
-99.9999999999996874
 21
4970.0
 31
0.0
  0
LINE
  5
7B
100
AcDbEntity
  8
guide rulers
 62
256
370
-1
 48
1.0
  6
BYLAYER
100
AcDbLine
 10
-20.0000000000003055
 20
-5030.0
 30
0.0
 11
-19.9999999999996945
 21
4970.0
 31
0.0
  0
LINE
  5
7C
100
AcDbEntity
  8
guide rulers
 62
256
370
-1
 48
1.0
  6
BYLAYER
100
AcDbLine
 10
-10.0000000000003055
 20
-5030.0
 30
0.0
 11
-9.9999999999996945
 21
4970.0
 31
0.0
  0
XLINE
  5
7D
100
AcDbEntity
  8
guide rulers
 62
256
370
-1
 48
1.0
  6
BYLAYER
100
AcDbLine
 10
-125.0
 20
1.0
 30
0.0
 11
1.0
 21
0.0
 31
0.0
  0
XLINE
  5
7E
100
AcDbEntity
  8
guide rulers
 62
256
370
-1
 48
1.0
  6
BYLAYER
100
AcDbLine
 10
12.0
 20
110.0
 30
0.0
 11
1.0
 21
0.0
 31
0.0
  0
XLINE
  5
7F
100
AcDbEntity
  8
guide rulers
 62
256
370
-1
 48
1.0
  6
BYLAYER
100
AcDbLine
 10
-60.0
 20
115.0
 30
0.0
 11
1.0
 21
0.0
 31
0.0
  0
XLINE
  5
80
100
AcDbEntity
  8
guide rulers
 62
256
370
-1
 48
1.0
  6
BYLAYER
100
AcDbLine
 10
140.0
 20
-70.0
 30
0.0
 11
0.0
 21
1.0
 31
0.0
  0
XLINE
  5
81
100
AcDbEntity
  8
guide rulers
 62
256
370
-1
 48
1.0
  6
BYLAYER
100
AcDbLine
 10
100.0
 20
-140.0
 30
0.0
 11
1.0
 21
0.0
 31
0.0
  0
XLINE
  5
82
100
AcDbEntity
  8
guide rulers
 62
256
370
-1
 48
1.0
  6
BYLAYER
100
AcDbLine
 10
200.0
 20
-45.0
 30
0.0
 11
0.0
 21
1.0
 31
0.0
  0
XLINE
  5
83
100
AcDbEntity
  8
guide rulers
 62
256
370
-1
 48
1.0
  6
BYLAYER
100
AcDbLine
 10
70.0
 20
-200.0
 30
0.0
 11
1.0
 21
0.0
 31
0.0
  0
XLINE
  5
84
100
AcDbEntity
  8
guide rulers
 62
256
370
-1
 48
1.0
  6
BYLAYER
100
AcDbLine
 10
205.0
 20
-35.0
 30
0.0
 11
0.0
 21
1.0
 31
0.0
  0
XLINE
  5
85
100
AcDbEntity
  8
guide rulers
 62
256
370
-1
 48
1.0
  6
BYLAYER
100
AcDbLine
 10
194.0
 20
-205.0
 30
0.0
 11
1.0
 21
0.0
 31
0.0
  0
XLINE
  5
86
100
AcDbEntity
  8
guide rulers
 62
256
370
-1
 48
1.0
  6
BYLAYER
100
AcDbLine
 10
142.0
 20
1.5
 30
0.0
 11
0.0
 21
1.0
 31
0.0
  0
XLINE
  5
87
100
AcDbEntity
  8
guide rulers
 62
256
370
-1
 48
1.0
  6
BYLAYER
100
AcDbLine
 10
147.0
 20
-19.0
 30
0.0
 11
0.0
 21
1.0
 31
0.0
  0
XLINE
  5
88
100
AcDbEntity
  8
guide rulers
 62
256
370
-1
 48
1.0
  6
BYLAYER
100
AcDbLine
 10
136.0
 20
-142.0
 30
0.0
 11
1.0
 21
0.0
 31
0.0
  0
XLINE
  5
89
100
AcDbEntity
  8
guide rulers
 62
256
370
-1
 48
1.0
  6
BYLAYER
100
AcDbLine
 10
147.0
 20
-147.0
 30
0.0
 11
1.0
 21
0.0
 31
0.0
  0
XLINE
  5
8A
100
AcDbEntity
  8
guide rulers
 62
256
370
-1
 48
1.0
  6
BYLAYER
100
AcDbLine
 10
220.0
 20
55.0
 30
0.0
 11
0.0
 21
1.0
 31
0.0
  0
XLINE
  5
8B
100
AcDbEntity
  8
guide rulers
 62
256
370
-1
 48
1.0
  6
BYLAYER
100
AcDbLine
 10
220.0
 20
-220.0
 30
0.0
 11
1.0
 21
0.0
 31
0.0
  0
XLINE
  5
8C
100
AcDbEntity
  8
guide rulers
 62
256
370
-1
 48
1.0
  6
BYLAYER
100
AcDbLine
 10
-9.9999999999999911
 20
120.0
 30
0.0
 11
1.0
 21
0.0
 31
0.0
  0
XLINE
  5
8D
100
AcDbEntity
  8
guide rulers
 62
256
370
-1
 48
1.0
  6
BYLAYER
100
AcDbLine
 10
208.0
 20
58.0
 30
0.0
 11
0.0
 21
1.0
 31
0.0
  0
XLINE
  5
8E
100
AcDbEntity
  8
guide rulers
 62
256
370
-1
 48
1.0
  6
BYLAYER
100
AcDbLine
 10
212.5
 20
-208.0
 30
0.0
 11
1.0
 21
0.0
 31
0.0
  0
XLINE
  5
8F
100
AcDbEntity
  8
guide rulers
 62
256
370
-1
 48
1.0
  6
BYLAYER
100
AcDbLine
 10
-2.0
 20
58.0
 30
0.0
 11
0.0
 21
1.0
 31
0.0
  0
XLINE
  5
90
100
AcDbEntity
  8
guide rulers
 62
256
370
-1
 48
1.0
  6
BYLAYER
100
AcDbLine
 10
-118.0
 20
58.0
 30
0.0
 11
0.0
 21
1.0
 31
0.0
  0
XLINE
  5
91
100
AcDbEntity
  8
guide rulers
 62
256
370
-1
 48
1.0
  6
BYLAYER
100
AcDbLine
 10
-115.0
 20
59.5
 30
0.0
 11
0.0
 21
1.0
 31
0.0
  0
XLINE
  5
92
100
AcDbEntity
  8
guide rulers
 62
256
370
-1
 48
1.0
  6
BYLAYER
100
AcDbLine
 10
-5.0
 20
59.5
 30
0.0
 11
0.0
 21
1.0
 31
0.0
  0
XLINE
  5
93
100
AcDbEntity
  8
guide rulers
 62
256
370
-1
 48
1.0
  6
BYLAYER
100
AcDbLine
 10
181.2499999999999716
 20
153.0
 30
0.0
 11
1.0
 21
0.0
 31
0.0
  0
XLINE
  5
94
100
AcDbEntity
  8
guide rulers
 62
256
370
-1
 48
1.0
  6
BYLAYER
100
AcDbLine
 10
-122.0
 20
140.5
 30
0.0
 11
0.0
 21
1.0
 31
0.0
  0
XLINE
  5
95
100
AcDbEntity
  8
guide rulers
 62
256
370
-1
 48
1.0
  6
BYLAYER
100
AcDbLine
 10
2.0
 20
140.5
 30
0.0
 11
0.0
 21
1.0
 31
0.0
  0
XLINE
  5
96
100
AcDbEntity
  8
guide rulers
 62
256
370
-1
 48
1.0
  6
BYLAYER
100
AcDbLine
 10
-3.0
 20
122.0
 30
0.0
 11
1.0
 21
0.0
 31
0.0
  0
XLINE
  5
97
100
AcDbEntity
  8
guide rulers
 62
256
370
-1
 48
1.0
  6
BYLAYER
100
AcDbLine
 10
205.0
 20
150.9455570239632038
 30
0.0
 11
1.0
 21
0.0
 31
0.0
  0
XLINE
  5
98
100
AcDbEntity
  8
guide rulers
 62
256
370
-1
 48
1.0
  6
BYLAYER
100
AcDbLine
 10
155.857864376269049
 20
-10.0
 30
0.0
 11
0.0
 21
1.0
 31
0.0
  0
XLINE
  5
99
100
AcDbEntity
  8
guide rulers
 62
256
370
-1
 48
1.0
  6
BYLAYER
100
AcDbLine
 10
170.0
 20
-10.0
 30
0.0
 11
0.0
 21
1.0
 31
0.0
  0
XLINE
  5
9A
100
AcDbEntity
  8
guide rulers
 62
256
370
-1
 48
1.0
  6
BYLAYER
100
AcDbLine
 10
170.0
 20
-169.9999999999999716
 30
0.0
 11
1.0
 21
0.0
 31
0.0
  0
LINE
  5
9B
100
AcDbEntity
  8
0
 62
256
370
-1
 48
1.0
  6
BYLAYER
100
AcDbLine
 10
-60.0
 20
0.0
 30
0.0
 11
-60.0
 21
116.0
 31
0.0
  0
LINE
  5
9C
100
AcDbEntity
  8
0
 62
256
370
-1
 48
1.0
  6
BYLAYER
100
AcDbLine
 10
-60.0
 20
116.0
 30
0.0
 11
60.0
 21
116.0
 31
0.0
  0
LINE
  5
9D
100
AcDbEntity
  8
0
 62
256
370
-1
 48
1.0
  6
BYLAYER
100
AcDbLine
 10
60.0
 20
116.0
 30
0.0
 11
60.0
 21
0.0
 31
0.0
  0
LINE
  5
9E
100
AcDbEntity
  8
0
 62
256
370
-1
 48
1.0
  6
BYLAYER
100
AcDbLine
 10
60.0
 20
0.0
 30
0.0
 11
-60.0
 21
0.0
 31
0.0
  0
LINE
  5
9F
100
AcDbEntity
  8
0
 62
256
370
-1
 48
1.0
  6
BYLAYER
100
AcDbLine
 10
-60.0
 20
0.0
 30
0.0
 11
-60.0
 21
-4.0
 31
0.0
  0
LINE
  5
A0
100
AcDbEntity
  8
0
 62
256
370
-1
 48
1.0
  6
BYLAYER
100
AcDbLine
 10
-60.0
 20
-4.0
 30
0.0
 11
60.0
 21
-4.0
 31
0.0
  0
LINE
  5
A1
100
AcDbEntity
  8
0
 62
256
370
-1
 48
1.0
  6
BYLAYER
100
AcDbLine
 10
60.0
 20
-4.0
 30
0.0
 11
60.0
 21
0.0
 31
0.0
  0
LINE
  5
A2
100
AcDbEntity
  8
0
 62
256
370
-1
 48
1.0
  6
BYLAYER
100
AcDbLine
 10
0.0
 20
0.0
 30
0.0
 11
0.0
 21
116.0
 31
0.0
  0
LINE
  5
A3
100
AcDbEntity
  8
0
 62
256
370
-1
 48
1.0
  6
BYLAYER
100
AcDbLine
 10
205.0
 20
116.0
 30
0.0
 11
220.0
 21
116.0
 31
0.0
  0
LINE
  5
A4
100
AcDbEntity
  8
0
 62
256
370
-1
 48
1.0
  6
BYLAYER
100
AcDbLine
 10
220.0
 20
116.0
 30
0.0
 11
220.0
 21
0.0
 31
0.0
  0
LINE
  5
A5
100
AcDbEntity
  8
0
 62
256
370
-1
 48
1.0
  6
BYLAYER
100
AcDbLine
 10
220.0
 20
0.0
 30
0.0
 11
205.0
 21
0.0
 31
0.0
  0
LINE
  5
A6
100
AcDbEntity
  8
0
 62
256
370
-1
 48
1.0
  6
BYLAYER
100
AcDbLine
 10
205.0
 20
0.0
 30
0.0
 11
205.0
 21
116.0
 31
0.0
  0
LINE
  5
A7
100
AcDbEntity
  8
0
 62
256
370
-1
 48
1.0
  6
BYLAYER
100
AcDbLine
 10
220.0
 20
0.0
 30
0.0
 11
220.0
 21
-4.0
 31
0.0
  0
LINE
  5
A8
100
AcDbEntity
  8
0
 62
256
370
-1
 48
1.0
  6
BYLAYER
100
AcDbLine
 10
220.0
 20
-4.0
 30
0.0
 11
200.0
 21
-4.0
 31
0.0
  0
LINE
  5
A9
100
AcDbEntity
  8
0
 62
256
370
-1
 48
1.0
  6
BYLAYER
100
AcDbLine
 10
200.0
 20
-4.0
 30
0.0
 11
200.0
 21
0.0
 31
0.0
  0
LINE
  5
AA
100
AcDbEntity
  8
0
 62
256
370
-1
 48
1.0
  6
BYLAYER
100
AcDbLine
 10
200.0
 20
0.0
 30
0.0
 11
205.0
 21
0.0
 31
0.0
  0
LINE
  5
AB
100
AcDbEntity
  8
0
 62
256
370
-1
 48
1.0
  6
BYLAYER
100
AcDbLine
 10
208.0
 20
116.0
 30
0.0
 11
208.0
 21
0.0
 31
0.0
  0
LINE
  5
AC
100
AcDbEntity
  8
0
 62
256
370
-1
 48
1.0
  6
BYLAYER
100
AcDbLine
 10
59.9999999999999858
 20
-220.0
 30
0.0
 11
59.9999999999999858
 21
-200.0
 31
0.0
  0
LINE
  5
AD
100
AcDbEntity
  8
0
 62
256
370
-1
 48
1.0
  6
BYLAYER
100
AcDbLine
 10
59.9999999999999858
 20
-200.0
 30
0.0
 11
-60.0000000000000142
 21
-200.0
 31
0.0
  0
LINE
  5
AE
100
AcDbEntity
  8
0
 62
256
370
-1
 48
1.0
  6
BYLAYER
100
AcDbLine
 10
-60.0000000000000142
 20
-200.0
 30
0.0
 11
-60.0000000000000142
 21
-220.0
 31
0.0
  0
LINE
  5
AF
100
AcDbEntity
  8
0
 62
256
370
-1
 48
1.0
  6
BYLAYER
100
AcDbLine
 10
-60.0000000000000142
 20
-220.0
 30
0.0
 11
59.9999999999999858
 21
-220.0
 31
0.0
  0
LINE
  5
B0
100
AcDbEntity
  8
0
 62
256
370
-1
 48
1.0
  6
BYLAYER
100
AcDbLine
 10
59.9999999999999858
 20
-205.0
 30
0.0
 11
-60.0000000000000142
 21
-205.0
 31
0.0
  0
LINE
  5
B1
100
AcDbEntity
  8
0
 62
256
370
-1
 48
1.0
  6
BYLAYER
100
AcDbLine
 10
-0.0000000000000142
 20
-208.0
 30
0.0
 11
-0.000000000000017
 21
-220.0
 31
0.0
  0
LINE
  5
B2
100
AcDbEntity
  8
axes
 62
256
370
-1
 48
1.0
  6
BYLAYER
100
AcDbLine
 10
-5040.0
 20
-100.0
 30
0.0
 11
4960.0
 21
-100.0
 31
0.0
  0
LINE
  5
B3
100
AcDbEntity
  8
axes
 62
256
370
-1
 48
1.0
  6
BYLAYER
100
AcDbLine
 10
99.9999999999996874
 20
-5100.0
 30
0.0
 11
100.0000000000003126
 21
4900.0
 31
0.0
  0
LINE
  5
B4
100
AcDbEntity
  8
axes
 62
256
370
-1
 48
1.0
  6
BYLAYER
100
AcDbLine
 10
100.0
 20
-100.0
 30
0.0
 11
3635.53390593273798
 21
-3635.5339059327375253
 31
0.0
  0
MTEXT
  5
B5
100
AcDbEntity
  8
axes
 62
256
370
-1
 48
1.0
  6
BYLAYER
100
AcDbMText
 10
91.578630419821053
 20
-108.7930144528561698
 30
0.0
 40
10.0
 41
0.0
 71
3
 72
1
  1
\C2;underside
  7
textstyle16
 50
0.0
 73
2
 44
1.0
  0
MTEXT
  5
B6
100
AcDbEntity
  8
axes
 62
256
370
-1
 48
1.0
  6
BYLAYER
100
AcDbMText
 10
91.5786304198210246
 20
-78.7930144528562124
 30
0.0
 40
10.0
 41
0.0
 71
3
 72
1
  1
\C2;front
  7
textstyle17
 50
0.0
 73
2
 44
1.0
  0
MTEXT
  5
B7
100
AcDbEntity
  8
axes
 62
256
370
-1
 48
1.0
  6
BYLAYER
100
AcDbMText
 10
111.5786304198210104
 20
-78.793014452856255
 30
0.0
 40
10.0
 41
0.0
 71
1
 72
1
  1
\C2;side
  7
textstyle15
 50
0.0
 73
2
 44
1.0
  0
LINE
  5
B8
100
AcDbEntity
  8
window_box
 62
256
370
-1
 48
1.0
  6
BYLAYER
100
AcDbLine
 10
0.0
 20
-4.0
 30
0.0
 11
-120.0
 21
-4.0
 31
0.0
  0
LINE
  5
B9
100
AcDbEntity
  8
window_box
 62
256
370
-1
 48
1.0
  6
BYLAYER
100
AcDbLine
 10
-120.0
 20
-4.0
 30
0.0
 11
-120.0
 21
-9.0
 31
0.0
  0
LINE
  5
BA
100
AcDbEntity
  8
window_box
 62
256
370
-1
 48
1.0
  6
BYLAYER
100
AcDbLine
 10
-120.0
 20
-9.0
 30
0.0
 11
0.0
 21
-9.0
 31
0.0
  0
LINE
  5
BB
100
AcDbEntity
  8
window_box
 62
256
370
-1
 48
1.0
  6
BYLAYER
100
AcDbLine
 10
0.0
 20
-9.0
 30
0.0
 11
0.0
 21
-4.0
 31
0.0
  0
LINE
  5
BC
100
AcDbEntity
  8
window_box
 62
256
370
-1
 48
1.0
  6
BYLAYER
100
AcDbLine
 10
-110.0
 20
-9.0
 30
0.0
 11
-109.9999999999999716
 21
-53.1421356237309581
 31
0.0
  0
LINE
  5
BD
100
AcDbEntity
  8
window_box
 62
256
370
-1
 48
1.0
  6
BYLAYER
100
AcDbLine
 10
-110.0
 20
-53.1421356237309581
 30
0.0
 11
-100.0
 21
-53.1421356237309581
 31
0.0
  0
LINE
  5
BE
100
AcDbEntity
  8
window_box
 62
256
370
-1
 48
1.0
  6
BYLAYER
100
AcDbLine
 10
-100.0
 20
-53.1421356237309652
 30
0.0
 11
-100.0
 21
-9.0
 31
0.0
  0
LINE
  5
BF
100
AcDbEntity
  8
window_box
 62
256
370
-1
 48
1.0
  6
BYLAYER
100
AcDbLine
 10
-10.0
 20
-9.0
 30
0.0
 11
-9.9999999999999964
 21
-53.1421356237309652
 31
0.0
  0
LINE
  5
C0
100
AcDbEntity
  8
window_box
 62
256
370
-1
 48
1.0
  6
BYLAYER
100
AcDbLine
 10
-10.0
 20
-53.1421356237309581
 30
0.0
 11
-20.0
 21
-53.1421356237309581
 31
0.0
  0
LINE
  5
C1
100
AcDbEntity
  8
window_box
 62
256
370
-1
 48
1.0
  6
BYLAYER
100
AcDbLine
 10
-20.0000000000000036
 20
-53.1421356237309581
 30
0.0
 11
-20.0
 21
-9.0
 31
0.0
  0
LINE
  5
C2
100
AcDbEntity
  8
window_box
 62
256
370
-1
 48
1.0
  6
BYLAYER
100
AcDbLine
 10
-109.9999999999999858
 20
-53.1421356237309581
 30
0.0
 11
-109.9999999999999858
 21
-69.0
 31
0.0
  0
LINE
  5
C3
100
AcDbEntity
  8
window_box
 62
256
370
-1
 48
1.0
  6
BYLAYER
100
AcDbLine
 10
-110.0
 20
-69.0
 30
0.0
 11
-100.0
 21
-69.0
 31
0.0
  0
LINE
  5
C4
100
AcDbEntity
  8
window_box
 62
256
370
-1
 48
1.0
  6
BYLAYER
100
AcDbLine
 10
-100.0
 20
-69.0
 30
0.0
 11
-100.0
 21
-53.142135623730951
 31
0.0
  0
LINE
  5
C5
100
AcDbEntity
  8
window_box
 62
256
370
-1
 48
1.0
  6
BYLAYER
100
AcDbLine
 10
-20.0
 20
-53.1421356237309652
 30
0.0
 11
-20.0000000000000036
 21
-69.0
 31
0.0
  0
LINE
  5
C6
100
AcDbEntity
  8
window_box
 62
256
370
-1
 48
1.0
  6
BYLAYER
100
AcDbLine
 10
-20.0
 20
-69.0
 30
0.0
 11
-10.0
 21
-69.0
 31
0.0
  0
LINE
  5
C7
100
AcDbEntity
  8
window_box
 62
256
370
-1
 48
1.0
  6
BYLAYER
100
AcDbLine
 10
-10.0000000000000036
 20
-69.0
 30
0.0
 11
-9.9999999999999982
 21
-53.142135623730951
 31
0.0
  0
LINE
  5
C8
100
AcDbEntity
  8
window_box
 62
256
370
-1
 48
1.0
  6
BYLAYER
100
AcDbLine
 10
-118.0
 20
-4.0
 30
0.0
 11
-118.0
 21
112.0
 31
0.0
  0
LINE
  5
C9
100
AcDbEntity
  8
window_box
 62
256
370
-1
 48
1.0
  6
BYLAYER
100
AcDbLine
 10
-118.0
 20
110.0
 30
0.0
 11
-115.0
 21
110.0
 31
0.0
  0
LINE
  5
CA
100
AcDbEntity
  8
window_box
 62
256
370
-1
 48
1.0
  6
BYLAYER
100
AcDbLine
 10
-113.0
 20
110.0
 30
0.0
 11
-113.0
 21
1.0
 31
0.0
  0
LINE
  5
CB
100
AcDbEntity
  8
window_box
 62
256
370
-1
 48
1.0
  6
BYLAYER
100
AcDbLine
 10
-2.0
 20
-4.0
 30
0.0
 11
-2.0
 21
112.0
 31
0.0
  0
LINE
  5
CC
100
AcDbEntity
  8
window_box
 62
256
370
-1
 48
1.0
  6
BYLAYER
100
AcDbLine
 10
-2.0
 20
110.0
 30
0.0
 11
-5.0
 21
110.0
 31
0.0
  0
LINE
  5
CD
100
AcDbEntity
  8
window_box
 62
256
370
-1
 48
1.0
  6
BYLAYER
100
AcDbLine
 10
-7.0
 20
110.0
 30
0.0
 11
-7.0
 21
1.0
 31
0.0
  0
LINE
  5
CE
100
AcDbEntity
  8
window_box
 62
256
370
-1
 48
1.0
  6
BYLAYER
100
AcDbLine
 10
-118.0
 20
112.0
 30
0.0
 11
-118.0
 21
115.0
 31
0.0
  0
LINE
  5
CF
100
AcDbEntity
  8
window_box
 62
256
370
-1
 48
1.0
  6
BYLAYER
100
AcDbLine
 10
-118.0
 20
115.0
 30
0.0
 11
-2.0
 21
115.0
 31
0.0
  0
LINE
  5
D0
100
AcDbEntity
  8
window_box
 62
256
370
-1
 48
1.0
  6
BYLAYER
100
AcDbLine
 10
-2.0
 20
115.0
 30
0.0
 11
-2.0
 21
112.0
 31
0.0
  0
LINE
  5
D1
100
AcDbEntity
  8
window_box
 62
256
370
-1
 48
1.0
  6
BYLAYER
100
AcDbLine
 10
-115.0
 20
110.0
 30
0.0
 11
-5.0
 21
110.0
 31
0.0
  0
LINE
  5
D2
100
AcDbEntity
  8
window_box
 62
256
370
-1
 48
1.0
  6
BYLAYER
100
AcDbLine
 10
-118.0
 20
115.0
 30
0.0
 11
-120.0
 21
115.0
 31
0.0
  0
LINE
  5
D3
100
AcDbEntity
  8
window_box
 62
256
370
-1
 48
1.0
  6
BYLAYER
100
AcDbLine
 10
0.0
 20
115.0
 30
0.0
 11
-2.0
 21
115.0
 31
0.0
  0
LINE
  5
D4
100
AcDbEntity
  8
window_box
 62
256
370
-1
 48
1.0
  6
BYLAYER
100
AcDbLine
 10
-118.0
 20
1.0
 30
0.0
 11
-115.0
 21
1.0
 31
0.0
  0
LINE
  5
D5
100
AcDbEntity
  8
window_box
 62
256
370
-1
 48
1.0
  6
BYLAYER
100
AcDbLine
 10
-115.0
 20
1.0
 30
0.0
 11
-5.0
 21
1.0
 31
0.0
  0
LINE
  5
D6
100
AcDbEntity
  8
window_box
 62
256
370
-1
 48
1.0
  6
BYLAYER
100
AcDbLine
 10
-5.0
 20
1.0
 30
0.0
 11
-2.0
 21
1.0
 31
0.0
  0
HATCH
  5
D7
100
AcDbEntity
  8
window_box
 62
256
370
-1
 48
1.0
  6
BYLAYER
100
AcDbHatch
 10
0.0
 20
0.0
 30
0.0
210
0.0
220
0.0
230
1.0
  2
ANSI37
 70
0
 71
0
 91
1
 92
1
 93
4
 72
1
 10
-113.0
 20
1.0
 11
-7.0
 21
1.0
 72
1
 10
-7.0
 20
1.0
 11
-7.0
 21
110.0
 72
1
 10
-7.0
 20
110.0
 11
-113.0
 21
110.0
 72
1
 10
-113.0
 20
110.0
 11
-113.0
 21
1.0
 97
0
 75
0
 76
1
 52
45.0
 41
1.0
 77
0
 78
1
 53
45.0
 43
0.0
 44
0.0
 45
-0.0883883476483184
 46
0.0883883476483185
 79
0
 98
0
1001
ACAD
1010
0.0
1020
0.0
1030
0
  0
LINE
  5
D8
100
AcDbEntity
  8
window_box
 62
256
370
-1
 48
1.0
  6
BYLAYER
100
AcDbLine
 10
200.0
 20
-49.0
 30
0.0
 11
200.0
 21
-39.0
 31
0.0
  0
LINE
  5
D9
100
AcDbEntity
  8
window_box
 62
256
370
-1
 48
1.0
  6
BYLAYER
100
AcDbLine
 10
200.0
 20
-39.0
 30
0.0
 11
170.0
 21
-9.0
 31
0.0
  0
LINE
  5
DA
100
AcDbEntity
  8
window_box
 62
256
370
-1
 48
1.0
  6
BYLAYER
100
AcDbLine
 10
170.0
 20
-9.0
 30
0.0
 11
160.0
 21
-9.0
 31
0.0
  0
LINE
  5
DB
100
AcDbEntity
  8
window_box
 62
256
370
-1
 48
1.0
  6
BYLAYER
100
AcDbLine
 10
200.0
 20
-9.0
 30
0.0
 11
200.0
 21
-69.0
 31
0.0
  0
LINE
  5
DC
100
AcDbEntity
  8
window_box
 62
256
370
-1
 48
1.0
  6
BYLAYER
100
AcDbLine
 10
200.0
 20
-69.0
 30
0.0
 11
205.0
 21
-69.0
 31
0.0
  0
LINE
  5
DD
100
AcDbEntity
  8
window_box
 62
256
370
-1
 48
1.0
  6
BYLAYER
100
AcDbLine
 10
205.0
 20
-69.0
 30
0.0
 11
205.0
 21
-9.0
 31
0.0
  0
LINE
  5
DE
100
AcDbEntity
  8
window_box
 62
256
370
-1
 48
1.0
  6
BYLAYER
100
AcDbLine
 10
205.0
 20
-9.0
 30
0.0
 11
200.0
 21
-9.0
 31
0.0
  0
LINE
  5
DF
100
AcDbEntity
  8
window_box
 62
256
370
-1
 48
1.0
  6
BYLAYER
100
AcDbLine
 10
140.0
 20
-9.0
 30
0.0
 11
205.0
 21
-9.0
 31
0.0
  0
LINE
  5
E0
100
AcDbEntity
  8
window_box
 62
256
370
-1
 48
1.0
  6
BYLAYER
100
AcDbLine
 10
205.0
 20
-4.0
 30
0.0
 11
140.0
 21
-4.0
 31
0.0
  0
LINE
  5
E1
100
AcDbEntity
  8
window_box
 62
256
370
-1
 48
1.0
  6
BYLAYER
100
AcDbLine
 10
140.0
 20
-4.0
 30
0.0
 11
140.0
 21
-9.0
 31
0.0
  0
LINE
  5
E2
100
AcDbEntity
  8
window_box
 62
256
370
-1
 48
1.0
  6
BYLAYER
100
AcDbLine
 10
142.0
 20
-4.0
 30
0.0
 11
142.0
 21
-1.0
 31
0.0
  0
LINE
  5
E3
100
AcDbEntity
  8
window_box
 62
256
370
-1
 48
1.0
  6
BYLAYER
100
AcDbLine
 10
142.0
 20
1.0
 30
0.0
 11
147.0
 21
1.0
 31
0.0
  0
LINE
  5
E4
100
AcDbEntity
  8
window_box
 62
256
370
-1
 48
1.0
  6
BYLAYER
100
AcDbLine
 10
147.0
 20
1.0
 30
0.0
 11
147.0
 21
-4.0
 31
0.0
  0
LINE
  5
E5
100
AcDbEntity
  8
window_box
 62
256
370
-1
 48
1.0
  6
BYLAYER
100
AcDbLine
 10
142.0
 20
115.0
 30
0.0
 11
145.0
 21
115.0
 31
0.0
  0
LINE
  5
E6
100
AcDbEntity
  8
window_box
 62
256
370
-1
 48
1.0
  6
BYLAYER
100
AcDbLine
 10
147.0
 20
115.0
 30
0.0
 11
147.0
 21
110.0
 31
0.0
  0
LINE
  5
E7
100
AcDbEntity
  8
window_box
 62
256
370
-1
 48
1.0
  6
BYLAYER
100
AcDbLine
 10
147.0
 20
110.0
 30
0.0
 11
142.0
 21
110.0
 31
0.0
  0
LINE
  5
E8
100
AcDbEntity
  8
window_box
 62
256
370
-1
 48
1.0
  6
BYLAYER
100
AcDbLine
 10
142.0
 20
112.0
 30
0.0
 11
142.0
 21
115.0
 31
0.0
  0
LINE
  5
E9
100
AcDbEntity
  8
window_box
 62
256
370
-1
 48
1.0
  6
BYLAYER
100
AcDbLine
 10
147.0
 20
1.0
 30
0.0
 11
205.0
 21
1.0
 31
0.0
  0
LINE
  5
EA
100
AcDbEntity
  8
window_box
 62
256
370
-1
 48
1.0
  6
BYLAYER
100
AcDbLine
 10
142.0
 20
-1.0
 30
0.0
 11
142.0
 21
112.0
 31
0.0
  0
LINE
  5
EB
100
AcDbEntity
  8
window_box
 62
256
370
-1
 48
1.0
  6
BYLAYER
100
AcDbLine
 10
147.0
 20
110.0
 30
0.0
 11
147.0
 21
1.0
 31
0.0
  0
LINE
  5
EC
100
AcDbEntity
  8
window_box
 62
256
370
-1
 48
1.0
  6
BYLAYER
100
AcDbLine
 10
200.0
 20
1.0
 30
0.0
 11
200.0
 21
110.0
 31
0.0
  0
LINE
  5
ED
100
AcDbEntity
  8
window_box
 62
256
370
-1
 48
1.0
  6
BYLAYER
100
AcDbLine
 10
205.0
 20
112.0
 30
0.0
 11
205.0
 21
-4.0
 31
0.0
  0
LINE
  5
EE
100
AcDbEntity
  8
window_box
 62
256
370
-1
 48
1.0
  6
BYLAYER
100
AcDbLine
 10
145.0
 20
115.0
 30
0.0
 11
205.0
 21
115.0
 31
0.0
  0
LINE
  5
EF
100
AcDbEntity
  8
window_box
 62
256
370
-1
 48
1.0
  6
BYLAYER
100
AcDbLine
 10
205.0
 20
115.0
 30
0.0
 11
205.0
 21
112.0
 31
0.0
  0
LINE
  5
F0
100
AcDbEntity
  8
window_box
 62
256
370
-1
 48
1.0
  6
BYLAYER
100
AcDbLine
 10
200.0
 20
110.0
 30
0.0
 11
147.0
 21
110.0
 31
0.0
  0
LINE
  5
F1
100
AcDbEntity
  8
window_box
 62
256
370
-1
 48
1.0
  6
BYLAYER
100
AcDbLine
 10
200.0
 20
110.0
 30
0.0
 11
205.0
 21
110.0
 31
0.0
  0
HATCH
  5
F2
100
AcDbEntity
  8
window_box
 62
256
370
-1
 48
1.0
  6
BYLAYER
100
AcDbHatch
 10
0.0
 20
0.0
 30
0.0
210
0.0
220
0.0
230
1.0
  2
ANSI37
 70
0
 71
0
 91
1
 92
1
 93
4
 72
1
 10
147.0
 20
1.0
 11
200.0
 21
1.0
 72
1
 10
200.0
 20
1.0
 11
200.0
 21
110.0
 72
1
 10
200.0
 20
110.0
 11
147.0
 21
110.0
 72
1
 10
147.0
 20
110.0
 11
147.0
 21
1.0
 97
0
 75
0
 76
1
 52
45.0
 41
1.0
 77
0
 78
1
 53
45.0
 43
0.0
 44
0.0
 45
-0.0883883476483184
 46
0.0883883476483185
 79
0
 98
0
1001
ACAD
1010
0.0
1020
0.0
1030
0
  0
LINE
  5
F3
100
AcDbEntity
  8
window_box
 62
256
370
-1
 48
1.0
  6
BYLAYER
100
AcDbLine
 10
-120.0
 20
120.0
 30
0.0
 11
0.0
 21
120.0
 31
0.0
  0
LINE
  5
F4
100
AcDbEntity
  8
window_box
 62
256
370
-1
 48
1.0
  6
BYLAYER
100
AcDbLine
 10
0.0
 20
120.0
 30
0.0
 11
2.0
 21
120.0
 31
0.0
  0
LINE
  5
F5
100
AcDbEntity
  8
window_box
 62
256
370
-1
 48
1.0
  6
BYLAYER
100
AcDbLine
 10
2.0
 20
153.0
 30
0.0
 11
-122.0
 21
153.0
 31
0.0
  0
LINE
  5
F6
100
AcDbEntity
  8
window_box
 62
256
370
-1
 48
1.0
  6
BYLAYER
100
AcDbLine
 10
-122.0
 20
120.0
 30
0.0
 11
-120.0
 21
120.0
 31
0.0
  0
LINE
  5
F7
100
AcDbEntity
  8
window_box
 62
256
370
-1
 48
1.0
  6
BYLAYER
100
AcDbLine
 10
142.0
 20
115.0
 30
0.0
 11
140.0
 21
115.0
 31
0.0
  0
LINE
  5
F8
100
AcDbEntity
  8
window_box
 62
256
370
-1
 48
1.0
  6
BYLAYER
100
AcDbLine
 10
140.0
 20
115.0
 30
0.0
 11
140.0
 21
120.0844459128521464
 31
0.0
  0
LINE
  5
F9
100
AcDbEntity
  8
window_box
 62
256
370
-1
 48
1.0
  6
BYLAYER
100
AcDbLine
 10
140.0
 20
119.9455570239632323
 30
0.0
 11
205.0
 21
119.9455570239632323
 31
0.0
  0
LINE
  5
FA
100
AcDbEntity
  8
window_box
 62
256
370
-1
 48
1.0
  6
BYLAYER
100
AcDbLine
 10
205.0
 20
119.9455570239632323
 30
0.0
 11
205.0
 21
115.0
 31
0.0
  0
LINE
  5
FB
100
AcDbEntity
  8
window_box
 62
256
370
-1
 48
1.0
  6
BYLAYER
100
AcDbLine
 10
205.0
 20
150.9455570239632323
 30
0.0
 11
205.0
 21
119.9455570239632323
 31
0.0
  0
LINE
  5
FC
100
AcDbEntity
  8
window_box
 62
256
370
-1
 48
1.0
  6
BYLAYER
100
AcDbLine
 10
205.0
 20
150.9455570239632323
 30
0.0
 11
140.0
 21
119.9455570239632323
 31
0.0
  0
LINE
  5
FD
100
AcDbEntity
  8
window_box
 62
256
370
-1
 48
1.0
  6
BYLAYER
100
AcDbLine
 10
140.0
 20
119.9455570239632323
 30
0.0
 11
140.0
 21
121.9455570239632323
 31
0.0
  0
LINE
  5
FE
100
AcDbEntity
  8
window_box
 62
256
370
-1
 48
1.0
  6
BYLAYER
100
AcDbLine
 10
140.0
 20
121.9455570239632323
 30
0.0
 11
205.0
 21
152.9455570239632323
 31
0.0
  0
LINE
  5
FF
100
AcDbEntity
  8
window_box
 62
256
370
-1
 48
1.0
  6
BYLAYER
100
AcDbLine
 10
205.0
 20
152.9455570239632323
 30
0.0
 11
205.0
 21
150.9455570239632323
 31
0.0
  0
LINE
  5
100
100
AcDbEntity
  8
window_box
 62
256
370
-1
 48
1.0
  6
BYLAYER
100
AcDbLine
 10
-122.0
 20
122.0
 30
0.0
 11
2.0
 21
122.0
 31
0.0
  0
LINE
  5
101
100
AcDbEntity
  8
window_box
 62
256
370
-1
 48
1.0
  6
BYLAYER
100
AcDbLine
 10
-122.0
 20
120.0
 30
0.0
 11
-122.0
 21
122.0
 31
0.0
  0
LINE
  5
102
100
AcDbEntity
  8
window_box
 62
256
370
-1
 48
1.0
  6
BYLAYER
100
AcDbLine
 10
-122.0
 20
122.0
 30
0.0
 11
-122.0
 21
153.0
 31
0.0
  0
LINE
  5
103
100
AcDbEntity
  8
window_box
 62
256
370
-1
 48
1.0
  6
BYLAYER
100
AcDbLine
 10
2.0
 20
153.0
 30
0.0
 11
2.0
 21
122.0
 31
0.0
  0
LINE
  5
104
100
AcDbEntity
  8
window_box
 62
256
370
-1
 48
1.0
  6
BYLAYER
100
AcDbLine
 10
2.0
 20
122.0
 30
0.0
 11
2.0
 21
120.0
 31
0.0
  0
HATCH
  5
105
100
AcDbEntity
  8
window_box
 62
256
370
-1
 48
1.0
  6
BYLAYER
100
AcDbHatch
 10
0.0
 20
0.0
 30
0.0
210
0.0
220
0.0
230
1.0
  2
ANSI32
 70
0
 71
0
 91
1
 92
1
 93
4
 72
1
 10
2.0
 20
153.0
 11
-122.0
 21
153.0
 72
1
 10
-122.0
 20
153.0
 11
-122.0
 21
122.0
 72
1
 10
-122.0
 20
122.0
 11
2.0
 21
122.0
 72
1
 10
2.0
 20
122.0
 11
2.0
 21
153.0
 97
0
 75
0
 76
1
 52
45.0
 41
1.0
 77
0
 78
1
 53
45.0
 43
0.0
 44
0.0
 45
-0.0883883476483184
 46
0.0883883476483185
 79
0
 98
0
1001
ACAD
1010
0.0
1020
0.0
1030
0
  0
LINE
  5
106
100
AcDbEntity
  8
window_box
 62
256
370
-1
 48
1.0
  6
BYLAYER
100
AcDbLine
 10
205.0
 20
-9.0
 30
0.0
 11
205.0
 21
-8.0
 31
0.0
  0
LINE
  5
107
100
AcDbEntity
  8
window_box
 62
256
370
-1
 48
1.0
  6
BYLAYER
100
AcDbLine
 10
205.0
 20
-8.0
 30
0.0
 11
205.0
 21
-4.0
 31
0.0
  0
LINE
  5
108
100
AcDbEntity
  8
window_box
 62
256
370
-1
 48
1.0
  6
BYLAYER
100
AcDbLine
 10
-120.0
 20
115.0
 30
0.0
 11
-120.0
 21
120.0
 31
0.0
  0
LINE
  5
109
100
AcDbEntity
  8
window_box
 62
256
370
-1
 48
1.0
  6
BYLAYER
100
AcDbLine
 10
0.0
 20
115.0
 30
0.0
 11
0.0
 21
120.0
 31
0.0
  0
LINE
  5
10A
100
AcDbEntity
  8
window_box
 62
256
370
-1
 48
1.0
  6
BYLAYER
100
AcDbLine
 10
-120.0000000000000284
 20
-205.0
 30
0.0
 11
-120.0
 21
-140.0
 31
0.0
  0
LINE
  5
10B
100
AcDbEntity
  8
window_box
 62
256
370
-1
 48
1.0
  6
BYLAYER
100
AcDbLine
 10
-120.0
 20
-140.0
 30
0.0
 11
-0.0000000000000121
 21
-140.0
 31
0.0
  0
LINE
  5
10C
100
AcDbEntity
  8
window_box
 62
256
370
-1
 48
1.0
  6
BYLAYER
100
AcDbLine
 10
-20.0000000000000107
 20
-200.0
 30
0.0
 11
-20.0000000000000107
 21
-205.0
 31
0.0
  0
LINE
  5
10D
100
AcDbEntity
  8
window_box
 62
256
370
-1
 48
1.0
  6
BYLAYER
100
AcDbLine
 10
-10.0000000000000124
 20
-205.0
 30
0.0
 11
-10.0000000000000107
 21
-200.0
 31
0.0
  0
LINE
  5
10E
100
AcDbEntity
  8
window_box
 62
256
370
-1
 48
1.0
  6
BYLAYER
100
AcDbLine
 10
-109.9999999999999858
 20
-205.0
 30
0.0
 11
-110.0
 21
-200.0
 31
0.0
  0
LINE
  5
10F
100
AcDbEntity
  8
window_box
 62
256
370
-1
 48
1.0
  6
BYLAYER
100
AcDbLine
 10
-110.0
 20
-200.0
 30
0.0
 11
-100.0000000000000142
 21
-200.0
 31
0.0
  0
LINE
  5
110
100
AcDbEntity
  8
window_box
 62
256
370
-1
 48
1.0
  6
BYLAYER
100
AcDbLine
 10
-100.0000000000000142
 20
-200.0
 30
0.0
 11
-100.0000000000000142
 21
-205.0
 31
0.0
  0
LINE
  5
111
100
AcDbEntity
  8
window_box
 62
256
370
-1
 48
1.0
  6
BYLAYER
100
AcDbLine
 10
-9.9999999999999805
 20
-155.8578643762690206
 30
0.0
 11
-10.0000000000000107
 21
-200.0
 31
0.0
  0
LINE
  5
112
100
AcDbEntity
  8
window_box
 62
256
370
-1
 48
1.0
  6
BYLAYER
100
AcDbLine
 10
-9.9999999999999805
 20
-155.8578643762690206
 30
0.0
 11
-19.9999999999999787
 21
-155.8578643762690206
 31
0.0
  0
LINE
  5
113
100
AcDbEntity
  8
window_box
 62
256
370
-1
 48
1.0
  6
BYLAYER
100
AcDbLine
 10
-19.9999999999999787
 20
-155.8578643762690206
 30
0.0
 11
-20.0000000000000071
 21
-200.0
 31
0.0
  0
LINE
  5
114
100
AcDbEntity
  8
window_box
 62
256
370
-1
 48
1.0
  6
BYLAYER
100
AcDbLine
 10
-100.0000000000000142
 20
-200.0
 30
0.0
 11
-100.0000000000000284
 21
-155.8578643762690206
 31
0.0
  0
LINE
  5
115
100
AcDbEntity
  8
window_box
 62
256
370
-1
 48
1.0
  6
BYLAYER
100
AcDbLine
 10
-99.9999999999999858
 20
-155.8578643762690206
 30
0.0
 11
-109.9999999999999432
 21
-155.8578643762690206
 31
0.0
  0
LINE
  5
116
100
AcDbEntity
  8
window_box
 62
256
370
-1
 48
1.0
  6
BYLAYER
100
AcDbLine
 10
-110.0
 20
-155.8578643762690206
 30
0.0
 11
-109.9999999999999858
 21
-200.0000000000000284
 31
0.0
  0
LINE
  5
117
100
AcDbEntity
  8
window_box
 62
256
370
-1
 48
1.0
  6
BYLAYER
100
AcDbLine
 10
-120.0
 20
-140.0
 30
0.0
 11
-122.0
 21
-140.0
 31
0.0
  0
LINE
  5
118
100
AcDbEntity
  8
window_box
 62
256
370
-1
 48
1.0
  6
BYLAYER
100
AcDbLine
 10
-122.0
 20
-140.0
 30
0.0
 11
-122.0
 21
-205.0
 31
0.0
  0
LINE
  5
119
100
AcDbEntity
  8
window_box
 62
256
370
-1
 48
1.0
  6
BYLAYER
100
AcDbLine
 10
-122.0
 20
-205.0
 30
0.0
 11
-120.0000000000000284
 21
-205.0
 31
0.0
  0
LINE
  5
11A
100
AcDbEntity
  8
window_box
 62
256
370
-1
 48
1.0
  6
BYLAYER
100
AcDbLine
 10
-0.0000000000000121
 20
-140.0
 30
0.0
 11
2.0
 21
-140.0
 31
0.0
  0
LINE
  5
11B
100
AcDbEntity
  8
window_box
 62
256
370
-1
 48
1.0
  6
BYLAYER
100
AcDbLine
 10
-20.0000000000000071
 20
-200.0
 30
0.0
 11
-10.0000000000000107
 21
-200.0
 31
0.0
  0
LINE
  5
11C
100
AcDbEntity
  8
window_box
 62
256
370
-1
 48
1.0
  6
BYLAYER
100
AcDbLine
 10
-0.0000000000000121
 20
-140.0000000000000284
 30
0.0
 11
-0.0000000000000161
 21
-205.0
 31
0.0
  0
LINE
  5
11D
100
AcDbEntity
  8
window_box
 62
256
370
-1
 48
1.0
  6
BYLAYER
100
AcDbLine
 10
-0.0000000000000161
 20
-205.0
 30
0.0
 11
-120.0000000000000284
 21
-205.0
 31
0.0
  0
LINE
  5
11E
100
AcDbEntity
  8
window_box
 62
256
370
-1
 48
1.0
  6
BYLAYER
100
AcDbLine
 10
2.0
 20
-140.0
 30
0.0
 11
2.0
 21
-205.0
 31
0.0
  0
LINE
  5
11F
100
AcDbEntity
  8
window_box
 62
256
370
-1
 48
1.0
  6
BYLAYER
100
AcDbLine
 10
2.0
 20
-205.0
 30
0.0
 11
-0.0000000000000161
 21
-205.0
 31
0.0
  0
LINE
  5
120
100
AcDbEntity
  8
0
 62
256
370
-1
 48
1.0
  6
BYLAYER
100
AcDbLine
 10
-60.0000000000000142
 20
-208.0
 30
0.0
 11
59.9999999999999858
 21
-208.0
 31
0.0
  0
DIMENSION
  5
121
100
AcDbEntity
  8
dimensions
 62
256
370
-1
 48
1.0
  6
BYLAYER
100
AcDbDimension
 10
-122.0
 20
180.0
 30
0.0
 11
-60.0
 21
182.8125
 31
0.0
 70
0
 71
8
 72
2
 74
0
 75
0
 41
1.0
 42
0.0
  1

  3
Standard
100
AcDbAlignedDimension
 13
-122.0
 23
137.5
 33
0.0
 14
2.0
 24
137.5
 34
0.0
 50
0.0
100
AcDbRotatedDimension
1001
ACAD
1000
DSTYLE
1002
{
1070
144
1040
1.0
1070
40
1040
30.0
1002
}
  0
DIMENSION
  5
122
100
AcDbEntity
  8
dimensions
 62
256
370
-1
 48
1.0
  6
BYLAYER
100
AcDbDimension
 10
135.0568625169617007
 20
129.8620804946861824
 30
0.0
 11
166.2879312069191826
 21
148.8026100701060273
 31
0.0
 70
1
 71
8
 72
2
 74
0
 75
0
 41
1.0
 42
0.0
  1

  3
Standard
100
AcDbAlignedDimension
 13
140.0
 23
120.0844459128521464
 33
0.0
 14
205.0
 24
152.9455570239632323
 34
0.0
1001
ACAD
1000
DSTYLE
1002
{
1070
144
1040
1.0
1070
40
1040
30.0
1002
}
  0
DIMENSION
  5
123
100
AcDbEntity
  8
dimensions
 62
256
370
-1
 48
1.0
  6
BYLAYER
100
AcDbDimension
 10
161.0841445028984822
 20
130.001072094576358
 30
0.0
 11
176.2007639165625505
 21
128.1488426075042639
 31
0.0
 70
2
 71
8
 72
2
 74
0
 75
0
 41
1.0
 42
0.0
  1

  3
Standard
100
AcDb2LineAngularDimension
 13
140.1141546271738889
 23
120.0
 33
0.0
 14
163.3469232617351281
 24
119.9805063637732161
 34
0.0
 15
140.1141546271738889
 25
120.0
 35
0.0
 16
173.6309062648581971
 26
126.7146374295545854
 36
0.0
  0
DIMENSION
  5
124
100
AcDbEntity
  8
dimensions
 62
256
370
-1
 48
1.0
  6
BYLAYER
100
AcDbDimension
 10
204.9999999999999716
 20
136.6504652675176885
 30
0.0
 11
195.1412012974566892
 21
135.3210465483094538
 31
0.0
 70
2
 71
8
 72
2
 74
0
 75
0
 41
1.0
 42
0.0
  1

  3
Standard
100
AcDb2LineAngularDimension
 13
204.9999999999999432
 23
150.9455570239632038
 33
0.0
 14
192.0971975574911141
 24
144.7919127821513143
 34
0.0
 15
204.9999999999999432
 25
150.9455570239632038
 35
0.0
 16
193.0709062648581664
 26
133.3146374295545513
 36
0.0
  0
DIMENSION
  5
125
100
AcDbEntity
  8
dimensions
 62
256
370
-1
 48
1.0
  6
BYLAYER
100
AcDbDimension
 10
230.0
 20
110.0
 30
0.0
 11
227.1875
 21
55.5
 31
0.0
 70
0
 71
8
 72
2
 74
0
 75
0
 41
1.0
 42
0.0
  1

  3
Standard
100
AcDbAlignedDimension
 13
202.5
 23
110.0
 33
0.0
 14
176.0
 24
1.0
 34
0.0
 50
90.0
100
AcDbRotatedDimension
1001
ACAD
1000
DSTYLE
1002
{
1070
144
1040
1.0
1070
40
1040
30.0
1002
}
  0
DIMENSION
  5
126
100
AcDbEntity
  8
dimensions
 62
256
370
-1
 48
1.0
  6
BYLAYER
100
AcDbDimension
 10
20.0
 20
116.0
 30
0.0
 11
17.1875
 21
58.0
 31
0.0
 70
0
 71
8
 72
2
 74
0
 75
0
 41
1.0
 42
0.0
  1

  3
Standard
100
AcDbAlignedDimension
 13
0.0
 23
116.0
 33
0.0
 14
0.0
 24
0.0
 34
0.0
 50
90.0
100
AcDbRotatedDimension
1001
ACAD
1000
DSTYLE
1002
{
1070
144
1040
1.0
1070
40
1040
30.0
1002
}
  0
DIMENSION
  5
127
100
AcDbEntity
  8
dimensions
 62
256
370
-1
 48
1.0
  6
BYLAYER
100
AcDbDimension
 10
230.0
 20
153.0
 30
0.0
 11
227.1875
 21
136.5
 31
0.0
 70
0
 71
8
 72
2
 74
0
 75
0
 41
1.0
 42
0.0
  1

  3
Standard
100
AcDbAlignedDimension
 13
205.0
 23
153.0
 33
0.0
 14
205.0
 24
120.0
 34
0.0
 50
90.0
100
AcDbRotatedDimension
1001
ACAD
1000
DSTYLE
1002
{
1070
144
1040
1.0
1070
40
1040
30.0
1002
}
  0
DIMENSION
  5
128
100
AcDbEntity
  8
dimensions
 62
256
370
-1
 48
1.0
  6
BYLAYER
100
AcDbDimension
 10
230.0
 20
115.0
 30
0.0
 11
227.1875
 21
112.5
 31
0.0
 70
0
 71
8
 72
2
 74
0
 75
0
 41
1.0
 42
0.0
  1

  3
Standard
100
AcDbAlignedDimension
 13
175.0
 23
115.0
 33
0.0
 14
173.5
 24
110.0
 34
0.0
 50
90.0
100
AcDbRotatedDimension
1001
ACAD
1000
DSTYLE
1002
{
1070
144
1040
1.0
1070
40
1040
30.0
1002
}
  0
DIMENSION
  5
129
100
AcDbEntity
  8
dimensions
 62
256
370
-1
 48
1.0
  6
BYLAYER
100
AcDbDimension
 10
230.0
 20
1.0
 30
0.0
 11
227.1875
 21
-1.4999999999999996
 31
0.0
 70
0
 71
8
 72
2
 74
0
 75
0
 41
1.0
 42
0.0
  1

  3
Standard
100
AcDbAlignedDimension
 13
176.0
 23
1.0
 33
0.0
 14
172.5
 24
-4.0
 34
0.0
 50
90.0
100
AcDbRotatedDimension
1001
ACAD
1000
DSTYLE
1002
{
1070
144
1040
1.0
1070
40
1040
30.0
1002
}
  0
DIMENSION
  5
12A
100
AcDbEntity
  8
dimensions
 62
256
370
-1
 48
1.0
  6
BYLAYER
100
AcDbDimension
 10
230.0
 20
-8.9999999999999964
 30
0.0
 11
227.1875
 21
-39.0
 31
0.0
 70
0
 71
8
 72
2
 74
0
 75
0
 41
1.0
 42
0.0
  1

  3
Standard
100
AcDbAlignedDimension
 13
201.5625
 23
-8.9999999999999964
 33
0.0
 14
202.5
 24
-69.0
 34
0.0
 50
90.0
100
AcDbRotatedDimension
1001
ACAD
1000
DSTYLE
1002
{
1070
144
1040
1.0
1070
40
1040
30.0
1002
}
  0
DIMENSION
  5
12B
100
AcDbEntity
  8
dimensions
 62
256
370
-1
 48
1.0
  6
BYLAYER
100
AcDbDimension
 10
200.0
 20
-30.0
 30
0.0
 11
202.5
 21
-27.1875
 31
0.0
 70
0
 71
8
 72
2
 74
0
 75
0
 41
1.0
 42
0.0
  1

  3
Standard
100
AcDbAlignedDimension
 13
200.0
 23
-39.0
 33
0.0
 14
205.0
 24
-39.0
 34
0.0
 50
0.0
100
AcDbRotatedDimension
1001
ACAD
1000
DSTYLE
1002
{
1070
144
1040
1.0
1070
40
1040
30.0
1002
}
  0
DIMENSION
  5
12C
100
AcDbEntity
  8
dimensions
 62
256
370
-1
 48
1.0
  6
BYLAYER
100
AcDbDimension
 10
175.0
 20
-4.0
 30
0.0
 11
172.1875
 21
-6.5
 31
0.0
 70
0
 71
8
 72
2
 74
0
 75
0
 41
1.0
 42
0.0
  1

  3
Standard
100
AcDbAlignedDimension
 13
172.5
 23
-4.0
 33
0.0
 14
172.5
 24
-9.0
 34
0.0
 50
90.0
100
AcDbRotatedDimension
1001
ACAD
1000
DSTYLE
1002
{
1070
144
1040
1.0
1070
40
1040
30.0
1002
}
  0
DIMENSION
  5
12D
100
AcDbEntity
  8
dimensions
 62
256
370
-1
 48
1.0
  6
BYLAYER
100
AcDbDimension
 10
142.0
 20
59.0
 30
0.0
 11
144.5
 21
61.8125
 31
0.0
 70
0
 71
8
 72
2
 74
0
 75
0
 41
1.0
 42
0.0
  1

  3
Standard
100
AcDbAlignedDimension
 13
142.0
 23
55.5
 33
0.0
 14
147.0
 24
55.5
 34
0.0
 50
0.0
100
AcDbRotatedDimension
1001
ACAD
1000
DSTYLE
1002
{
1070
144
1040
1.0
1070
40
1040
30.0
1002
}
  0
DIMENSION
  5
12E
100
AcDbEntity
  8
dimensions
 62
256
370
-1
 48
1.0
  6
BYLAYER
100
AcDbDimension
 10
200.0
 20
59.0
 30
0.0
 11
202.5
 21
61.8125
 31
0.0
 70
0
 71
8
 72
2
 74
0
 75
0
 41
1.0
 42
0.0
  1

  3
Standard
100
AcDbAlignedDimension
 13
200.0
 23
55.5
 33
0.0
 14
205.0
 24
54.0
 34
0.0
 50
0.0
100
AcDbRotatedDimension
1001
ACAD
1000
DSTYLE
1002
{
1070
144
1040
1.0
1070
40
1040
30.0
1002
}
  0
DIMENSION
  5
12F
100
AcDbEntity
  8
dimensions
 62
256
370
-1
 48
1.0
  6
BYLAYER
100
AcDbDimension
 10
140.0
 20
167.0
 30
0.0
 11
172.5
 21
169.8125
 31
0.0
 70
0
 71
8
 72
2
 74
0
 75
0
 41
1.0
 42
0.0
  1

  3
Standard
100
AcDbAlignedDimension
 13
140.0
 23
117.5422229564260732
 33
0.0
 14
205.0
 24
117.4727785119816161
 34
0.0
 50
0.0
100
AcDbRotatedDimension
1001
ACAD
1000
DSTYLE
1002
{
1070
144
1040
1.0
1070
40
1040
30.0
1002
}
  0
DIMENSION
  5
130
100
AcDbEntity
  8
dimensions
 62
256
370
-1
 48
1.0
  6
BYLAYER
100
AcDbDimension
 10
147.0
 20
-70.0
 30
0.0
 11
173.5
 21
-67.1875
 31
0.0
 70
0
 71
8
 72
2
 74
0
 75
0
 41
1.0
 42
0.0
  1

  3
Standard
100
AcDbAlignedDimension
 13
147.0
 23
55.5
 33
0.0
 14
200.0
 24
55.5
 34
0.0
 50
0.0
100
AcDbRotatedDimension
1001
ACAD
1000
DSTYLE
1002
{
1070
144
1040
1.0
1070
40
1040
30.0
1002
}
  0
DIMENSION
  5
131
100
AcDbEntity
  8
dimensions
 62
256
370
-1
 48
1.0
  6
BYLAYER
100
AcDbDimension
 10
142.0
 20
143.6773614782130437
 30
0.0
 11
141.0
 21
146.4898614782130437
 31
0.0
 70
0
 71
8
 72
2
 74
0
 75
0
 41
1.0
 42
0.0
  1

  3
Standard
100
AcDbAlignedDimension
 13
142.0
 23
55.5
 33
0.0
 14
140.0
 24
117.5422229564260732
 34
0.0
 50
0.0
100
AcDbRotatedDimension
1001
ACAD
1000
DSTYLE
1002
{
1070
144
1040
1.0
1070
40
1040
30.0
1002
}
  0
DIMENSION
  5
132
100
AcDbEntity
  8
dimensions
 62
256
370
-1
 48
1.0
  6
BYLAYER
100
AcDbDimension
 10
-120.0
 20
173.0
 30
0.0
 11
-60.0
 21
175.8125
 31
0.0
 70
0
 71
8
 72
2
 74
0
 75
0
 41
1.0
 42
0.0
  1

  3
Standard
100
AcDbAlignedDimension
 13
-120.0
 23
117.5
 33
0.0
 14
0.0
 24
117.5
 34
0.0
 50
0.0
100
AcDbRotatedDimension
1001
ACAD
1000
DSTYLE
1002
{
1070
144
1040
1.0
1070
40
1040
30.0
1002
}
  0
DIMENSION
  5
133
100
AcDbEntity
  8
dimensions
 62
256
370
-1
 48
1.0
  6
BYLAYER
100
AcDbDimension
 10
-118.0
 20
166.0
 30
0.0
 11
-60.0
 21
168.8125
 31
0.0
 70
0
 71
8
 72
2
 74
0
 75
0
 41
1.0
 42
0.0
  1

  3
Standard
100
AcDbAlignedDimension
 13
-118.0
 23
113.5
 33
0.0
 14
-2.0
 24
113.5
 34
0.0
 50
0.0
100
AcDbRotatedDimension
1001
ACAD
1000
DSTYLE
1002
{
1070
144
1040
1.0
1070
40
1040
30.0
1002
}
  0
DIMENSION
  5
134
100
AcDbEntity
  8
dimensions
 62
256
370
-1
 48
1.0
  6
BYLAYER
100
AcDbDimension
 10
-113.0
 20
159.0
 30
0.0
 11
-60.0
 21
161.8125
 31
0.0
 70
0
 71
8
 72
2
 74
0
 75
0
 41
1.0
 42
0.0
  1

  3
Standard
100
AcDbAlignedDimension
 13
-113.0
 23
55.5
 33
0.0
 14
-7.0
 24
55.5
 34
0.0
 50
0.0
100
AcDbRotatedDimension
1001
ACAD
1000
DSTYLE
1002
{
1070
144
1040
1.0
1070
40
1040
30.0
1002
}
  0
DIMENSION
  5
135
100
AcDbEntity
  8
dimensions
 62
256
370
-1
 48
1.0
  6
BYLAYER
100
AcDbDimension
 10
-70.0
 20
120.0
 30
0.0
 11
-72.8125
 21
117.5
 31
0.0
 70
0
 71
8
 72
2
 74
0
 75
0
 41
1.0
 42
0.0
  1

  3
Standard
100
AcDbAlignedDimension
 13
-60.0
 23
120.0
 33
0.0
 14
-60.0
 24
115.0
 34
0.0
 50
90.0
100
AcDbRotatedDimension
1001
ACAD
1000
DSTYLE
1002
{
1070
144
1040
1.0
1070
40
1040
30.0
1002
}
  0
DIMENSION
  5
136
100
AcDbEntity
  8
dimensions
 62
256
370
-1
 48
1.0
  6
BYLAYER
100
AcDbDimension
 10
-63.0
 20
115.0
 30
0.0
 11
-65.8125
 21
112.5
 31
0.0
 70
0
 71
8
 72
2
 74
0
 75
0
 41
1.0
 42
0.0
  1

  3
Standard
100
AcDbAlignedDimension
 13
-60.0
 23
115.0
 33
0.0
 14
-60.0
 24
110.0
 34
0.0
 50
90.0
100
AcDbRotatedDimension
1001
ACAD
1000
DSTYLE
1002
{
1070
144
1040
1.0
1070
40
1040
30.0
1002
}
  0
DIMENSION
  5
137
100
AcDbEntity
  8
dimensions
 62
256
370
-1
 48
1.0
  6
BYLAYER
100
AcDbDimension
 10
-118.0
 20
60.0
 30
0.0
 11
-115.5
 21
62.8125
 31
0.0
 70
0
 71
8
 72
2
 74
0
 75
0
 41
1.0
 42
0.0
  1

  3
Standard
100
AcDbAlignedDimension
 13
-118.0
 23
54.0
 33
0.0
 14
-113.0
 24
55.5
 34
0.0
 50
0.0
100
AcDbRotatedDimension
1001
ACAD
1000
DSTYLE
1002
{
1070
144
1040
1.0
1070
40
1040
30.0
1002
}
  0
DIMENSION
  5
138
100
AcDbEntity
  8
dimensions
 62
256
370
-1
 48
1.0
  6
BYLAYER
100
AcDbDimension
 10
-7.0
 20
60.0
 30
0.0
 11
-4.5
 21
62.8125
 31
0.0
 70
0
 71
8
 72
2
 74
0
 75
0
 41
1.0
 42
0.0
  1

  3
Standard
100
AcDbAlignedDimension
 13
-7.0
 23
55.5
 33
0.0
 14
-2.0
 24
54.0
 34
0.0
 50
0.0
100
AcDbRotatedDimension
1001
ACAD
1000
DSTYLE
1002
{
1070
144
1040
1.0
1070
40
1040
30.0
1002
}
  0
DIMENSION
  5
139
100
AcDbEntity
  8
dimensions
 62
256
370
-1
 48
1.0
  6
BYLAYER
100
AcDbDimension
 10
10.0
 20
110.0
 30
0.0
 11
7.1875
 21
55.5
 31
0.0
 70
0
 71
8
 72
2
 74
0
 75
0
 41
1.0
 42
0.0
  1

  3
Standard
100
AcDbAlignedDimension
 13
-60.0
 23
110.0
 33
0.0
 14
-60.0
 24
1.0
 34
0.0
 50
90.0
100
AcDbRotatedDimension
1001
ACAD
1000
DSTYLE
1002
{
1070
144
1040
1.0
1070
40
1040
30.0
1002
}
  0
DIMENSION
  5
13A
100
AcDbEntity
  8
dimensions
 62
256
370
-1
 48
1.0
  6
BYLAYER
100
AcDbDimension
 10
-68.0
 20
1.0
 30
0.0
 11
-70.8125
 21
-1.4999999999999996
 31
0.0
 70
0
 71
8
 72
2
 74
0
 75
0
 41
1.0
 42
0.0
  1

  3
Standard
100
AcDbAlignedDimension
 13
-60.0
 23
1.0
 33
0.0
 14
-60.0
 24
-4.0
 34
0.0
 50
90.0
100
AcDbRotatedDimension
1001
ACAD
1000
DSTYLE
1002
{
1070
144
1040
1.0
1070
40
1040
30.0
1002
}
  0
DIMENSION
  5
13B
100
AcDbEntity
  8
dimensions
 62
256
370
-1
 48
1.0
  6
BYLAYER
100
AcDbDimension
 10
-61.0
 20
-4.0
 30
0.0
 11
-63.8125
 21
-6.5
 31
0.0
 70
0
 71
8
 72
2
 74
0
 75
0
 41
1.0
 42
0.0
  1

  3
Standard
100
AcDbAlignedDimension
 13
-60.0
 23
-4.0
 33
0.0
 14
-60.0
 24
-9.0
 34
0.0
 50
90.0
100
AcDbRotatedDimension
1001
ACAD
1000
DSTYLE
1002
{
1070
144
1040
1.0
1070
40
1040
30.0
1002
}
  0
DIMENSION
  5
13C
100
AcDbEntity
  8
dimensions
 62
256
370
-1
 48
1.0
  6
BYLAYER
100
AcDbDimension
 10
10.0
 20
-9.0
 30
0.0
 11
7.1875
 21
-31.0710678118654791
 31
0.0
 70
0
 71
8
 72
2
 74
0
 75
0
 41
1.0
 42
0.0
  1

  3
Standard
100
AcDbAlignedDimension
 13
-45.0722211394790406
 23
-9.0
 33
0.0
 14
-15.0
 24
-53.1421356237309581
 34
0.0
 50
90.0
100
AcDbRotatedDimension
1001
ACAD
1000
DSTYLE
1002
{
1070
144
1040
1.0
1070
40
1040
30.0
1002
}
  0
DIMENSION
  5
13D
100
AcDbEntity
  8
dimensions
 62
256
370
-1
 48
1.0
  6
BYLAYER
100
AcDbDimension
 10
20.0
 20
0.0
 30
0.0
 11
17.1875
 21
-1.9999999999999996
 31
0.0
 70
0
 71
8
 72
2
 74
0
 75
0
 41
1.0
 42
0.0
  1

  3
Standard
100
AcDbAlignedDimension
 13
0.0
 23
0.0
 33
0.0
 14
0.0
 24
-4.0
 34
0.0
 50
90.0
100
AcDbRotatedDimension
1001
ACAD
1000
DSTYLE
1002
{
1070
144
1040
1.0
1070
40
1040
30.0
1002
}
  0
DIMENSION
  5
13E
100
AcDbEntity
  8
dimensions
 62
256
370
-1
 48
1.0
  6
BYLAYER
100
AcDbDimension
 10
9.9999999999999929
 20
-140.0
 30
0.0
 11
7.1874999999999929
 21
-172.5
 31
0.0
 70
0
 71
8
 72
2
 74
0
 75
0
 41
1.0
 42
0.0
  1

  3
Standard
100
AcDbAlignedDimension
 13
-60.0000000000000071
 23
-140.0
 33
0.0
 14
-60.0000000000000213
 24
-205.0
 34
0.0
 50
90.0
100
AcDbRotatedDimension
1001
ACAD
1000
DSTYLE
1002
{
1070
144
1040
1.0
1070
40
1040
30.0
1002
}
  0
DIMENSION
  5
13F
100
AcDbEntity
  8
dimensions
 62
256
370
-1
 48
1.0
  6
BYLAYER
100
AcDbDimension
 10
-93.0
 20
-155.8578643762690206
 30
0.0
 11
-95.8125
 21
-177.9289321881345245
 31
0.0
 70
0
 71
8
 72
2
 74
0
 75
0
 41
1.0
 42
0.0
  1

  3
Standard
100
AcDbAlignedDimension
 13
-104.9999999999999716
 23
-155.8578643762690206
 33
0.0
 14
-105.0
 24
-200.0
 34
0.0
 50
90.0
100
AcDbRotatedDimension
1001
ACAD
1000
DSTYLE
1002
{
1070
144
1040
1.0
1070
40
1040
30.0
1002
}
  0
DIMENSION
  5
140
100
AcDbEntity
  8
dimensions
 62
256
370
-1
 48
1.0
  6
BYLAYER
100
AcDbDimension
 10
-93.0
 20
-200.0
 30
0.0
 11
-95.8125
 21
-202.5
 31
0.0
 70
0
 71
8
 72
2
 74
0
 75
0
 41
1.0
 42
0.0
  1

  3
Standard
100
AcDbAlignedDimension
 13
-105.0
 23
-200.0
 33
0.0
 14
-60.0000000000000213
 24
-205.0
 34
0.0
 50
90.0
100
AcDbRotatedDimension
1001
ACAD
1000
DSTYLE
1002
{
1070
144
1040
1.0
1070
40
1040
30.0
1002
}
  0
DIMENSION
  5
141
100
AcDbEntity
  8
dimensions
 62
256
370
-1
 48
1.0
  6
BYLAYER
100
AcDbDimension
 10
70.0
 20
-205.0
 30
0.0
 11
67.1875
 21
-202.5
 31
0.0
 70
0
 71
8
 72
2
 74
0
 75
0
 41
1.0
 42
0.0
  1

  3
Standard
100
AcDbAlignedDimension
 13
36.4062499999999929
 23
-205.0
 33
0.0
 14
70.0
 24
-200.0
 34
0.0
 50
90.0
100
AcDbRotatedDimension
1001
ACAD
1000
DSTYLE
1002
{
1070
144
1040
1.0
1070
40
1040
30.0
1002
}
  0
DIMENSION
  5
142
100
AcDbEntity
  8
dimensions
 62
256
370
-1
 48
1.0
  6
BYLAYER
100
AcDbDimension
 10
30.0
 20
-205.0
 30
0.0
 11
27.1875
 21
-206.5
 31
0.0
 70
0
 71
8
 72
2
 74
0
 75
0
 41
1.0
 42
0.0
  1

  3
Standard
100
AcDbAlignedDimension
 13
-0.0000000000000142
 23
-205.0
 33
0.0
 14
-0.0000000000000142
 24
-208.0
 34
0.0
 50
90.0
100
AcDbRotatedDimension
1001
ACAD
1000
DSTYLE
1002
{
1070
144
1040
1.0
1070
40
1040
30.0
1002
}
  0
DIMENSION
  5
143
100
AcDbEntity
  8
dimensions
 62
256
370
-1
 48
1.0
  6
BYLAYER
100
AcDbDimension
 10
66.0
 20
-208.0
 30
0.0
 11
63.1875
 21
-214.0
 31
0.0
 70
0
 71
8
 72
2
 74
0
 75
0
 41
1.0
 42
0.0
  1

  3
Standard
100
AcDbAlignedDimension
 13
16.4062499999999929
 23
-208.0
 33
0.0
 14
-0.0000000000000142
 24
-220.0
 34
0.0
 50
90.0
100
AcDbRotatedDimension
1001
ACAD
1000
DSTYLE
1002
{
1070
144
1040
1.0
1070
40
1040
30.0
1002
}
  0
MTEXT
  5
144
100
AcDbEntity
  8
materials
 62
256
370
-1
 48
1.0
  6
BYLAYER
100
AcDbMText
 10
-60.0
 20
60.0
 30
0.0
 40
10.0
 41
0.0
 71
5
 72
1
  1
\H3;wire mesh
  7
textstyle14
 50
0.0
 73
2
 44
1.0
  0
MTEXT
  5
145
100
AcDbEntity
  8
materials
 62
256
370
-1
 48
1.0
  6
BYLAYER
100
AcDbMText
 10
170.0
 20
60.0
 30
0.0
 40
10.0
 41
0.0
 71
5
 72
1
  1
\H3;wire mesh
  7
textstyle12
 50
0.0
 73
2
 44
1.0
  0
MTEXT
  5
146
100
AcDbEntity
  8
materials
 62
256
370
-1
 48
1.0
  6
BYLAYER
100
AcDbMText
 10
-115.0
 20
60.0
 30
0.0
 40
3.0
 41
0.0
 71
5
 72
1
  1
2"x2" timber joist
  7
textstyle13
 50
90.0
 73
2
 44
1.0
  0
MTEXT
  5
147
100
AcDbEntity
  8
materials
 62
256
370
-1
 48
1.0
  6
BYLAYER
100
AcDbMText
 10
-4.0
 20
60.0
 30
0.0
 40
3.0
 41
0.0
 71
5
 72
1
  1
2"x2" timber joist
  7
textstyle10
 50
90.0
 73
2
 44
1.0
  0
MTEXT
  5
148
100
AcDbEntity
  8
materials
 62
256
370
-1
 48
1.0
  6
BYLAYER
100
AcDbMText
 10
145.0
 20
60.0
 30
0.0
 40
3.0
 41
0.0
 71
5
 72
1
  1
2"x2" timber joist
  7
textstyle11
 50
90.0
 73
2
 44
1.0
  0
MTEXT
  5
149
100
AcDbEntity
  8
materials
 62
256
370
-1
 48
1.0
  6
BYLAYER
100
AcDbMText
 10
203.0
 20
60.0
 30
0.0
 40
3.0
 41
0.0
 71
5
 72
1
  1
2"x2" timber joist
  7
textstyle8
 50
90.0
 73
2
 44
1.0
  0
MTEXT
  5
14A
100
AcDbEntity
  8
materials
 62
256
370
-1
 48
1.0
  6
BYLAYER
100
AcDbMText
 10
-60.0
 20
112.0
 30
0.0
 40
3.0
 41
0.0
 71
5
 72
1
  1
2"x2" timber joist
  7
textstyle9
 50
0.0
 73
2
 44
1.0
  0
MTEXT
  5
14B
100
AcDbEntity
  8
materials
 62
256
370
-1
 48
1.0
  6
BYLAYER
100
AcDbMText
 10
-63.0
 20
-2.0
 30
0.0
 40
3.0
 41
0.0
 71
5
 72
1
  1
2"x2" timber joist
  7
textstyle6
 50
0.0
 73
2
 44
1.0
  0
MTEXT
  5
14C
100
AcDbEntity
  8
materials
 62
256
370
-1
 48
1.0
  6
BYLAYER
100
AcDbMText
 10
175.0
 20
112.0
 30
0.0
 40
3.0
 41
0.0
 71
5
 72
1
  1
2"x2" timber joist
  7
textstyle7
 50
0.0
 73
2
 44
1.0
  0
MTEXT
  5
14D
100
AcDbEntity
  8
materials
 62
256
370
-1
 48
1.0
  6
BYLAYER
100
AcDbMText
 10
175.0
 20
-2.0
 30
0.0
 40
3.0
 41
0.0
 71
5
 72
1
  1
2"x2" timber joist
  7
textstyle4
 50
0.0
 73
2
 44
1.0
  0
MTEXT
  5
14E
100
AcDbEntity
  8
materials
 62
256
370
-1
 48
1.0
  6
BYLAYER
100
AcDbMText
 10
-60.0
 20
138.0
 30
0.0
 40
3.0
 41
0.0
 71
5
 72
1
  1
prefab canopy
  7
textstyle5
 50
0.0
 73
2
 44
1.0
  0
MTEXT
  5
14F
100
AcDbEntity
  8
materials
 62
256
370
-1
 48
1.0
  6
BYLAYER
100
AcDbMText
 10
185.0
 20
131.0
 30
0.0
 40
3.0
 41
0.0
 71
5
 72
1
  1
prefab canopy
  7
textstyle3
 50
0.0
 73
2
 44
1.0
  0
LINE
  5
150
100
AcDbEntity
  8
window_box
 62
256
370
-1
 48
1.0
  6
BYLAYER
100
AcDbLine
 10
205.0
 20
0.0
 30
0.0
 11
200.0
 21
0.0
 31
0.0
  0
LINE
  5
151
100
AcDbEntity
  8
window_box
 62
256
370
-1
 48
1.0
  6
BYLAYER
100
AcDbLine
 10
200.0
 20
0.0
 30
0.0
 11
200.0
 21
-4.0
 31
0.0
  0
MTEXT
  5
152
100
AcDbEntity
  8
dimensions
 62
256
370
-1
 48
1.0
  6
BYLAYER
100
AcDbMText
 10
-100.0
 20
200.0
 30
0.0
 40
6.0
 41
0.0
 71
5
 72
1
  1
All lengths in centimetres.
  7
textstyle2
 50
0.0
 73
2
 44
1.0
  0
LINE
  5
153
100
AcDbEntity
  8
window_box
 62
256
370
-1
 48
1.0
  6
BYLAYER
100
AcDbLine
 10
205.0
 20
-43.0
 30
0.0
 11
197.0
 21
-43.0
 31
0.0
  0
LINE
  5
154
100
AcDbEntity
  8
window_box
 62
256
370
-1
 48
1.0
  6
BYLAYER
100
AcDbLine
 10
197.0
 20
-43.0
 30
0.0
 11
197.0
 21
-44.0
 31
0.0
  0
LINE
  5
155
100
AcDbEntity
  8
window_box
 62
256
370
-1
 48
1.0
  6
BYLAYER
100
AcDbLine
 10
197.0
 20
-44.0
 30
0.0
 11
205.0
 21
-44.0
 31
0.0
  0
LINE
  5
156
100
AcDbEntity
  8
window_box
 62
256
370
-1
 48
1.0
  6
BYLAYER
100
AcDbLine
 10
203.0
 20
-4.0
 30
0.0
 11
203.0
 21
-12.0
 31
0.0
  0
LINE
  5
157
100
AcDbEntity
  8
window_box
 62
256
370
-1
 48
1.0
  6
BYLAYER
100
AcDbLine
 10
203.0
 20
-12.0
 30
0.0
 11
202.0
 21
-12.0
 31
0.0
  0
LINE
  5
158
100
AcDbEntity
  8
window_box
 62
256
370
-1
 48
1.0
  6
BYLAYER
100
AcDbLine
 10
202.0
 20
-12.0
 30
0.0
 11
202.0
 21
-4.0
 31
0.0
  0
LINE
  5
159
100
AcDbEntity
  8
window_box
 62
256
370
-1
 48
1.0
  6
BYLAYER
100
AcDbLine
 10
165.0
 20
-4.0
 30
0.0
 11
165.0
 21
-12.0
 31
0.0
  0
LINE
  5
15A
100
AcDbEntity
  8
window_box
 62
256
370
-1
 48
1.0
  6
BYLAYER
100
AcDbLine
 10
165.0
 20
-12.0
 30
0.0
 11
166.0
 21
-12.0
 31
0.0
  0
LINE
  5
15B
100
AcDbEntity
  8
window_box
 62
256
370
-1
 48
1.0
  6
BYLAYER
100
AcDbLine
 10
166.0
 20
-12.0
 30
0.0
 11
166.0
 21
-4.0
 31
0.0
  0
DIMENSION
  5
15C
100
AcDbEntity
  8
dimensions
 62
256
370
-1
 48
1.0
  6
BYLAYER
100
AcDbDimension
 10
200.0
 20
-45.0
 30
0.0
 11
192.6117097544659202
 21
-21.163089486482729
 31
0.0
 70
2
 71
8
 72
2
 74
0
 75
0
 41
1.0
 42
0.0
  1

  3
Standard
100
AcDb2LineAngularDimension
 13
170.0
 23
-9.0
 33
0.0
 14
200.0
 24
-39.0
 34
0.0
 15
200.0
 25
-44.0
 35
0.0
 16
199.3820577149964492
 26
-22.5175467267325828
 36
0.0
  0
LINE
  5
15D
100
AcDbEntity
  8
window_box
 62
256
370
-1
 48
1.0
  6
BYLAYER
100
AcDbLine
 10
200.0
 20
-53.142135623730951
 30
0.0
 11
155.857864376269049
 21
-9.0
 31
0.0
  0
DIMENSION
  5
15E
100
AcDbEntity
  8
dimensions
 62
256
370
-1
 48
1.0
  6
BYLAYER
100
AcDbDimension
 10
150.2107712141683464
 20
-14.6470931621007026
 30
0.0
 11
174.2705768481209816
 21
-34.7294231518790113
 31
0.0
 70
1
 71
8
 72
2
 74
0
 75
0
 41
1.0
 42
0.0
  1

  3
Standard
100
AcDbAlignedDimension
 13
155.857864376269049
 23
-9.0
 33
0.0
 14
200.0
 24
-53.142135623730951
 34
0.0
1001
ACAD
1000
DSTYLE
1002
{
1070
144
1040
1.0
1070
40
1040
30.0
1002
}
  0
DIMENSION
  5
15F
100
AcDbEntity
  8
dimensions
 62
256
370
-1
 48
1.0
  6
BYLAYER
100
AcDbDimension
 10
177.9289321881345245
 20
-31.0710678118654755
 30
0.0
 11
179.4757282719801026
 21
-25.546796083845571
 31
0.0
 70
1
 71
8
 72
2
 74
0
 75
0
 41
1.0
 42
0.0
  1

  3
Standard
100
AcDbAlignedDimension
 13
177.9289321881345245
 23
-31.0710678118654755
 33
0.0
 14
185.0
 24
-24.0
 34
0.0
1001
ACAD
1000
DSTYLE
1002
{
1070
144
1040
1.0
1070
40
1040
30.0
1002
}
  0
LINE
  5
160
100
AcDbEntity
  8
window_box
 62
256
370
-1
 48
1.0
  6
BYLAYER
100
AcDbLine
 10
200.0
 20
-19.0
 30
0.0
 11
210.0
 21
-19.0
 31
0.0
  0
LINE
  5
161
100
AcDbEntity
  8
window_box
 62
256
370
-1
 48
1.0
  6
BYLAYER
100
AcDbLine
 10
210.0
 20
-19.0
 30
0.0
 11
210.0
 21
-21.0
 31
0.0
  0
LINE
  5
162
100
AcDbEntity
  8
window_box
 62
256
370
-1
 48
1.0
  6
BYLAYER
100
AcDbLine
 10
210.0
 20
-21.0
 30
0.0
 11
200.0
 21
-21.0
 31
0.0
  0
LINE
  5
163
100
AcDbEntity
  8
window_box
 62
256
370
-1
 48
1.0
  6
BYLAYER
100
AcDbLine
 10
200.0
 20
-59.0
 30
0.0
 11
210.0
 21
-59.0
 31
0.0
  0
LINE
  5
164
100
AcDbEntity
  8
window_box
 62
256
370
-1
 48
1.0
  6
BYLAYER
100
AcDbLine
 10
210.0
 20
-59.0
 30
0.0
 11
210.0
 21
-61.0
 31
0.0
  0
LINE
  5
165
100
AcDbEntity
  8
window_box
 62
256
370
-1
 48
1.0
  6
BYLAYER
100
AcDbLine
 10
210.0
 20
-61.0
 30
0.0
 11
200.0
 21
-61.0
 31
0.0
  0
MTEXT
  5
166
100
AcDbEntity
  8
materials
 62
256
370
-1
 48
1.0
  6
BYLAYER
100
AcDbMText
 10
240.0
 20
10.0
 30
0.0
 40
5.0
 41
0.0
 71
7
 72
1
  1
\fOCR A Std|b0|i0|c0|p0;\H3;Green baize (rough) carpet
  7
textstyle1
 50
0.0
 73
2
 44
1.0
  0
MTEXT
  5
167
100
AcDbEntity
  8
materials
 62
256
370
-1
 48
1.0
  6
BYLAYER
100
AcDbMText
 10
240.0
 20
100.0
 30
0.0
 40
5.0
 41
0.0
 71
7
 72
1
  1
\fOCR A Std|b0|i0|c0|p0;\H3;This height to meet up with canopy
  7
textstyle0
 50
0.0
 73
2
 44
1.0
  0
ENDSEC
  0
SECTION
  2
OBJECTS
  0
DICTIONARY
  5
C
100
AcDbDictionary
280
0
281
1
  3
ACAD_GROUP
350
D
  3
ACAD_LAYOUT
350
1A
  3
ACAD_MLINESTYLE
350
17
  3
ACAD_PLOTSETTINGS
350
19
  3
ACAD_PLOTSTYLENAME
350
E
  3
AcDbVariableDictionary
350
168
  3
QCAD_OBJECTS
350
169
  0
DICTIONARY
  5
D
100
AcDbDictionary
280
0
281
1
  0
ACDBDICTIONARYWDFLT
  5
E
100
AcDbDictionary
281
1
  3
Normal
350
F
100
AcDbDictionaryWithDefault
340
F
  0
ACDBPLACEHOLDER
  5
F
  0
DICTIONARY
  5
17
100
AcDbDictionary
280
0
281
1
  3
Standard
350
18
  0
MLINESTYLE
  5
18
100
AcDbMlineStyle
  2
STANDARD
 70
0
  3

 62
256
 51
90.0
 52
90.0
 71
2
 49
0.5
 62
256
  6
BYLAYER
 49
-0.5
 62
256
  6
BYLAYER
  0
DICTIONARY
  5
19
100
AcDbDictionary
280
0
281
1
  0
DICTIONARY
  5
1A
100
AcDbDictionary
281
1
  3
Layout1
350
1E
  3
Layout2
350
26
  3
Model
350
22
  0
LAYOUT
  5
1E
100
AcDbPlotSettings
  1

  2
none_device
  4

  6

 40
0.0
 41
0.0
 42
0.0
 43
0.0
 44
0.0
 45
0.0
 46
0.0
 47
0.0
 48
0.0
 49
0.0
140
0.0
141
0.0
142
1.0
143
1.0
 70
688
 72
0
 73
0
 74
5
  7

 75
16
147
1.0
148
0.0
149
0.0
100
AcDbLayout
  1
Layout1
 70
1
 71
1
 10
0.0
 20
0.0
 11
420.0
 21
297.0
 12
0.0
 22
0.0
 32
0.0
 14
100000000000000000000.0
 24
100000000000000000000.0
 34
100000000000000000000.0
 15
-100000000000000000000.0
 25
-100000000000000000000.0
 35
-100000000000000000000.0
146
0.0
 13
0.0
 23
0.0
 33
0.0
 16
1.0
 26
0.0
 36
0.0
 17
0.0
 27
1.0
 37
0.0
 76
0
330
1B
  0
LAYOUT
  5
22
100
AcDbPlotSettings
  1

  2
none_device
  4

  6

 40
0.0
 41
0.0
 42
0.0
 43
0.0
 44
0.0
 45
0.0
 46
0.0
 47
0.0
 48
0.0
 49
0.0
140
0.0
141
0.0
142
1.0
143
1.0
 70
1712
 72
0
 73
0
 74
0
  7

 75
0
147
1.0
148
0.0
149
0.0
100
AcDbLayout
  1
Model
 70
1
 71
0
 10
0.0
 20
0.0
 11
12.0
 21
9.0
 12
0.0
 22
0.0
 32
0.0
 14
0.0
 24
0.0
 34
0.0
 15
0.0
 25
0.0
 35
0.0
146
0.0
 13
0.0
 23
0.0
 33
0.0
 16
1.0
 26
0.0
 36
0.0
 17
0.0
 27
1.0
 37
0.0
 76
0
330
1F
  0
LAYOUT
  5
26
100
AcDbPlotSettings
  1

  2
none_device
  4

  6

 40
0.0
 41
0.0
 42
0.0
 43
0.0
 44
0.0
 45
0.0
 46
0.0
 47
0.0
 48
0.0
 49
0.0
140
0.0
141
0.0
142
1.0
143
1.0
 70
688
 72
0
 73
0
 74
5
  7

 75
16
147
1.0
148
0.0
149
0.0
100
AcDbLayout
  1
Layout2
 70
1
 71
2
 10
0.0
 20
0.0
 11
12.0
 21
9.0
 12
0.0
 22
0.0
 32
0.0
 14
0.0
 24
0.0
 34
0.0
 15
0.0
 25
0.0
 35
0.0
146
0.0
 13
0.0
 23
0.0
 33
0.0
 16
1.0
 26
0.0
 36
0.0
 17
0.0
 27
1.0
 37
0.0
 76
0
330
23
  0
DICTIONARY
  5
168
100
AcDbDictionary
281
1
  3
DIMASSOC
350
16B
  3
HIDETEXT
350
16A
  0
DICTIONARYVAR
  5
16A
100
DictionaryVariables
280
0
  1
2
  0
DICTIONARYVAR
  5
16B
100
DictionaryVariables
280
0
  1
1
  0
DICTIONARY
  5
169
100
AcDbDictionary
281
1
  3
ColorSettings/BackgroundColor
350
16C
  3
ColorSettings/ColorMode
350
16D
  3
DimensionSettings/AngularFormat
350
16E
  3
DimensionSettings/AngularPrecision
350
16F
  3
DimensionSettings/DecimalPoint
350
170
  3
DimensionSettings/DimensionFont
350
171
  3
DimensionSettings/KeepProportions
350
172
  3
DimensionSettings/LinearFormat
350
173
  3
DimensionSettings/LinearPrecision
350
174
  3
Grid/DisplayGrid00
350
175
  3
Grid/DisplayGrid01
350
176
  3
Grid/DisplayGrid02
350
177
  3
Grid/DisplayGrid03
350
178
  3
Grid/GridSpacingX00
350
179
  3
Grid/GridSpacingX01
350
17A
  3
Grid/GridSpacingX02
350
17B
  3
Grid/GridSpacingX03
350
17C
  3
Grid/GridSpacingY00
350
17D
  3
Grid/GridSpacingY01
350
17E
  3
Grid/GridSpacingY02
350
17F
  3
Grid/GridSpacingY03
350
180
  3
Grid/IsometricGrid00
350
181
  3
Grid/IsometricGrid01
350
182
  3
Grid/IsometricGrid02
350
183
  3
Grid/IsometricGrid03
350
184
  3
Grid/IsometricProjection00
350
185
  3
Grid/IsometricProjection01
350
186
  3
Grid/IsometricProjection02
350
187
  3
Grid/IsometricProjection03
350
188
  3
Grid/MetaGridSpacingX00
350
189
  3
Grid/MetaGridSpacingX01
350
18A
  3
Grid/MetaGridSpacingX02
350
18B
  3
Grid/MetaGridSpacingX03
350
18C
  3
Grid/MetaGridSpacingY00
350
18D
  3
Grid/MetaGridSpacingY01
350
18E
  3
Grid/MetaGridSpacingY02
350
18F
  3
Grid/MetaGridSpacingY03
350
190
  3
MultiPageSettings/Columns
350
191
  3
MultiPageSettings/GlueMarginsBottom
350
192
  3
MultiPageSettings/GlueMarginsLeft
350
193
  3
MultiPageSettings/GlueMarginsRight
350
194
  3
MultiPageSettings/GlueMarginsTop
350
195
  3
MultiPageSettings/PrintCropMarks
350
196
  3
MultiPageSettings/Rows
350
197
  3
PageSettings/OffsetX
350
198
  3
PageSettings/OffsetY
350
199
  3
PageSettings/PageOrientation
350
19A
  3
PageSettings/PaperHeight
350
19B
  3
PageSettings/PaperWidth
350
19C
  3
PageSettings/Scale
350
19D
  3
PageSettings/ShowPaperBorders
350
19E
  3
PageTagSettings/EnablePageTags
350
19F
  3
PageTagSettings/TagAlignment
350
1A0
  3
PageTagSettings/TagFont
350
1A1
  3
PageTagSettings/TagPosition
350
1A2
  3
QCADVersion
350
1A3
  3
UnitSettings/PaperUnit
350
1A4
  3
ViewportCenter
350
1A5
  3
ViewportHeight
350
1A6
  3
ViewportWidth
350
1A7
  0
XRECORD
  5
16C
330
169
100
AcDbXrecord
280
1
1000
White
  0
XRECORD
  5
16D
330
169
100
AcDbXrecord
280
1
1000
FullColor
  0
XRECORD
  5
16E
330
169
100
AcDbXrecord
280
1
 90
0
  0
XRECORD
  5
16F
330
169
100
AcDbXrecord
280
1
 90
0
  0
XRECORD
  5
170
330
169
100
AcDbXrecord
280
1
 90
46
  0
XRECORD
  5
171
330
169
100
AcDbXrecord
280
1
1000
DejaVu Sans
  0
XRECORD
  5
172
330
169
100
AcDbXrecord
280
1
290
1
  0
XRECORD
  5
173
330
169
100
AcDbXrecord
280
1
 90
2
  0
XRECORD
  5
174
330
169
100
AcDbXrecord
280
1
 90
2
  0
XRECORD
  5
175
330
169
100
AcDbXrecord
280
1
290
1
  0
XRECORD
  5
176
330
169
100
AcDbXrecord
280
1
290
1
  0
XRECORD
  5
177
330
169
100
AcDbXrecord
280
1
290
1
  0
XRECORD
  5
178
330
169
100
AcDbXrecord
280
1
290
0
  0
XRECORD
  5
179
330
169
100
AcDbXrecord
280
1
1000
auto
  0
XRECORD
  5
17A
330
169
100
AcDbXrecord
280
1
1000
auto
  0
XRECORD
  5
17B
330
169
100
AcDbXrecord
280
1
1000
auto
  0
XRECORD
  5
17C
330
169
100
AcDbXrecord
280
1
1000
auto
  0
XRECORD
  5
17D
330
169
100
AcDbXrecord
280
1
1000
auto
  0
XRECORD
  5
17E
330
169
100
AcDbXrecord
280
1
1000
auto
  0
XRECORD
  5
17F
330
169
100
AcDbXrecord
280
1
1000
auto
  0
XRECORD
  5
180
330
169
100
AcDbXrecord
280
1
1000
auto
  0
XRECORD
  5
181
330
169
100
AcDbXrecord
280
1
290
0
  0
XRECORD
  5
182
330
169
100
AcDbXrecord
280
1
290
0
  0
XRECORD
  5
183
330
169
100
AcDbXrecord
280
1
290
0
  0
XRECORD
  5
184
330
169
100
AcDbXrecord
280
1
290
1
  0
XRECORD
  5
185
330
169
100
AcDbXrecord
280
1
 90
65537
  0
XRECORD
  5
186
330
169
100
AcDbXrecord
280
1
 90
65537
  0
XRECORD
  5
187
330
169
100
AcDbXrecord
280
1
 90
65537
  0
XRECORD
  5
188
330
169
100
AcDbXrecord
280
1
 90
65537
  0
XRECORD
  5
189
330
169
100
AcDbXrecord
280
1
1000
auto
  0
XRECORD
  5
18A
330
169
100
AcDbXrecord
280
1
1000
auto
  0
XRECORD
  5
18B
330
169
100
AcDbXrecord
280
1
1000
auto
  0
XRECORD
  5
18C
330
169
100
AcDbXrecord
280
1
1000
auto
  0
XRECORD
  5
18D
330
169
100
AcDbXrecord
280
1
1000
auto
  0
XRECORD
  5
18E
330
169
100
AcDbXrecord
280
1
1000
auto
  0
XRECORD
  5
18F
330
169
100
AcDbXrecord
280
1
1000
auto
  0
XRECORD
  5
190
330
169
100
AcDbXrecord
280
1
1000
auto
  0
XRECORD
  5
191
330
169
100
AcDbXrecord
280
1
 90
1
  0
XRECORD
  5
192
330
169
100
AcDbXrecord
280
1
 40
0.5
  0
XRECORD
  5
193
330
169
100
AcDbXrecord
280
1
 40
0.5
  0
XRECORD
  5
194
330
169
100
AcDbXrecord
280
1
 40
0.5
  0
XRECORD
  5
195
330
169
100
AcDbXrecord
280
1
 40
0.5
  0
XRECORD
  5
196
330
169
100
AcDbXrecord
280
1
290
0
  0
XRECORD
  5
197
330
169
100
AcDbXrecord
280
1
 90
1
  0
XRECORD
  5
198
330
169
100
AcDbXrecord
280
1
 40
0.0
  0
XRECORD
  5
199
330
169
100
AcDbXrecord
280
1
 40
0.0
  0
XRECORD
  5
19A
330
169
100
AcDbXrecord
280
1
1000
Portrait
  0
XRECORD
  5
19B
330
169
100
AcDbXrecord
280
1
 40
11.6929999999999996
  0
XRECORD
  5
19C
330
169
100
AcDbXrecord
280
1
 40
8.2680000000000007
  0
XRECORD
  5
19D
330
169
100
AcDbXrecord
280
1
1000
1:1
  0
XRECORD
  5
19E
330
169
100
AcDbXrecord
280
1
290
1
  0
XRECORD
  5
19F
330
169
100
AcDbXrecord
280
1
290
0
  0
XRECORD
  5
1A0
330
169
100
AcDbXrecord
280
1
1000
Inside
  0
XRECORD
  5
1A1
330
169
100
AcDbXrecord
280
1
1000
Arial,10,-1,5,50,0,0,0,0,0
  0
XRECORD
  5
1A2
330
169
100
AcDbXrecord
280
1
1000
TopLeft
  0
XRECORD
  5
1A3
330
169
100
AcDbXrecord
280
1
1000
3.26.4.2
  0
XRECORD
  5
1A4
330
169
100
AcDbXrecord
280
1
 90
5
  0
XRECORD
  5
1A6
330
169
100
AcDbXrecord
280
1
 40
164.2560393816512487
  0
XRECORD
  5
1A7
330
169
100
AcDbXrecord
280
1
 40
322.3961624033473754
  0
ENDSEC
  0
EOF
